<?xml version="1.0" encoding="UTF-8"?>
<svg version="1.1" xmlns="http://www.w3.org/2000/svg" width="256" height="256">
<path d="M0 0 C-1.08915763 2.24704851 -2.23910965 4.40574307 -3.5078125 6.55859375 C-7.76622789 14.13939603 -9.31056843 20.33692055 -8 29 C-7.03201514 32.26572672 -5.71796047 35.06689676 -4 38 C-3.443125 39.010625 -2.88625 40.02125 -2.3125 41.0625 C9.95207103 56.64181996 28.86678844 62.12023584 47 68 C47.06316406 68.88300781 47.12632813 69.76601562 47.19140625 70.67578125 C48.07977383 79.38178353 49.93604787 86.43780732 56 93 C58.60692999 94.31767613 58.60692999 94.31767613 61 95 C67.75808518 88.74455013 67.75808518 88.74455013 70.16796875 80.23046875 C70.16063721 79.57369141 70.15330566 78.91691406 70.14575195 78.24023438 C70.2249233 74.34741179 70.67601352 71.20408099 73 68 C79.58916209 63.83835197 87.55591589 62.13624453 94.97119141 59.96923828 C107.03121164 56.10995404 118.49088898 47.97220693 125.02734375 37.0546875 C128.60011521 29.50738715 129.76520743 21.08515525 126.984375 13.07421875 C125.35094041 9.75322975 123.60009262 6.77435839 121.33203125 3.84765625 C120 2 120 2 120 0 C129.97717304 1.87942097 138.70066906 10.52552273 145 18 C145 18.66 145 19.32 145 20 C145.66 20 146.32 20 147 20 C147.98163422 21.93625098 148.96022454 23.87404539 149.9375 25.8125 C150.48277344 26.89144531 151.02804688 27.97039063 151.58984375 29.08203125 C154.88899202 35.90880066 155.08171913 43.39291914 153.3515625 50.76171875 C151.65218696 55.38779661 149.7126189 58.33583396 146.25 61.8125 C140.38173454 68.90959028 142.4866219 79.37900436 143 88 C143.08365873 89.57810778 143.16701029 91.15623189 143.25 92.734375 C143.37283275 94.96183913 143.50008064 97.18882115 143.63598633 99.41552734 C145.34681599 127.82092959 144.37989899 159.88966758 132 186 C131.59523437 186.8765625 131.19046875 187.753125 130.7734375 188.65625 C127.70177353 194.76365205 123.80872543 200.20939545 119.75 205.6875 C119.21818115 206.40784424 118.6863623 207.12818848 118.13842773 207.87036133 C117.63384033 208.53575928 117.12925293 209.20115723 116.609375 209.88671875 C116.15530273 210.48701904 115.70123047 211.08731934 115.23339844 211.70581055 C114.82637695 212.13289307 114.41935547 212.55997559 114 213 C113.34 213 112.68 213 112 213 C111.62875 213.804375 111.62875 213.804375 111.25 214.625 C109.69347463 217.5823982 107.96564327 220.29724051 106 223 C105.34 223 104.68 223 104 223 C103.7628125 223.54527344 103.525625 224.09054688 103.28125 224.65234375 C101.67082426 227.60315433 99.65847894 229.98704217 97.5 232.5625 C95.18760361 235.32911711 93.00082301 237.99876548 91 241 C90.34 241 89.68 241 89 241 C88.62875 241.804375 88.62875 241.804375 88.25 242.625 C86.69347463 245.5823982 84.96564327 248.29724051 83 251 C82.34 251 81.68 251 81 251 C80.34 252.32 79.68 253.64 79 255 C77.68 255 76.36 255 75 255 C72.78125 252.69921875 72.78125 252.69921875 70.5 249.6875 C66.85510837 244.67665514 66.85510837 244.67665514 62 241 C56.22021018 241.27092765 52.8497101 245.04939024 49 249 C47.17464009 251.26853623 45.59523212 253.55730082 44 256 C42.0625 255.1875 42.0625 255.1875 40 254 C39.67 253.01 39.34 252.02 39 251 C38.34 251 37.68 251 37 251 C35.08307133 248.78724901 33.28028372 246.56850904 31.5 244.25 C30.75169922 243.29867187 30.75169922 243.29867187 29.98828125 242.328125 C27.64229458 239.30916092 25.63750822 236.47068158 24 233 C23.34 233 22.68 233 22 233 C20.4921875 231.3203125 20.4921875 231.3203125 18.875 229.125 C18.33617187 228.40570313 17.79734375 227.68640625 17.2421875 226.9453125 C16 225 16 225 16 223 C15.34 223 14.68 223 14 223 C12.73046875 221.62890625 12.73046875 221.62890625 11.1875 219.5625 C8.80663768 216.3896772 6.40629078 213.24292968 3.9296875 210.14453125 C-16.43994794 184.47759414 -21.45461989 158.19783077 -24 126 C-20.64985937 127.56190156 -18.9397412 128.99187067 -16.75 132 C-16.22921875 132.70125 -15.7084375 133.4025 -15.171875 134.125 C-14 136 -14 136 -14 138 C-13.34 138 -12.68 138 -12 138 C-10.75450548 139.43067595 -9.57893578 140.92250342 -8.4375 142.4375 C-5.60863423 146.12172408 -2.73591764 149.19045907 0.75 152.25 C5.42082409 156.77710642 6.56935334 161.21066452 8.046875 167.4296875 C10.30289839 175.88052922 14.85339623 183.03694783 20 190 C20 190.66 20 191.32 20 192 C20.66 192 21.32 192 22 192 C23.515625 193.72265625 23.515625 193.72265625 25.25 196.0625 C27.55230899 199.12259204 29.89448754 202.07434582 32.4375 204.9375 C35 208 35 208 35 210 C35.66 210 36.32 210 37 210 C38.38938077 211.96147874 39.7260411 213.96166576 41 216 C41.09990539 212.03490861 41.17194834 208.07031837 41.21972656 204.10424805 C41.24940781 202.10243949 41.30027058 200.10098081 41.3515625 198.09960938 C41.45079056 188.25122404 39.99246612 181.31498289 33.875 173.5 C33.37742187 172.8503125 32.87984375 172.200625 32.3671875 171.53125 C31.05780177 169.87501104 31.05780177 169.87501104 29 169 C29 168.34 29 167.68 29 167 C28.43152344 166.89945313 27.86304688 166.79890625 27.27734375 166.6953125 C21.10587231 164.81105535 15.48019571 159.28526448 11.9921875 153.95703125 C10.06720019 150.16010746 8.98200391 146.12707048 8 142 C7.82082031 141.27683594 7.64164063 140.55367187 7.45703125 139.80859375 C6.77542841 135.61994039 6.63017245 131.42313529 6.4375 127.1875 C6.39431641 126.30384766 6.35113281 125.42019531 6.30664062 124.50976562 C6.20108464 122.34000377 6.10008929 120.1700209 6 118 C9 119 9 119 10.32421875 121.2578125 C10.77410156 122.20398438 11.22398438 123.15015625 11.6875 124.125 C17.21151974 134.56526225 26.39093778 140.24034662 37.546875 143.81640625 C39.34985655 144.27354519 41.17343673 144.64873783 43 145 C41.68700996 129.7340412 39.08779676 116.58853514 27 106 C23.4530484 103.44723045 19.75308807 101.23298257 16 99 C14.09080762 97.74932585 12.19419659 96.47917308 10.3125 95.1875 C9.48363281 94.62417969 8.65476563 94.06085938 7.80078125 93.48046875 C7.20652344 92.99191406 6.61226562 92.50335938 6 92 C6 91.34 6 90.68 6 90 C4.97519531 89.66548828 4.97519531 89.66548828 3.9296875 89.32421875 C0.20271654 87.63962788 -2.69940118 85.36239458 -5.875 82.8125 C-6.8026416 82.07700928 -6.8026416 82.07700928 -7.74902344 81.32666016 C-12.13421106 77.807183 -16.11139706 74.06535762 -20 70 C-20.66 69.67 -21.32 69.34 -22 69 C-22 68.34 -22 67.68 -22 67 C-22.66 67 -23.32 67 -24 67 C-31.60791184 58.00092714 -34.46619603 48.83130527 -34.3359375 37.19921875 C-33.81411153 32.22973657 -31.81306125 28.48618694 -29.375 24.1875 C-28.92898437 23.39730469 -28.48296875 22.60710938 -28.0234375 21.79296875 C-27.68570313 21.20128906 -27.34796875 20.60960938 -27 20 C-26.34 20 -25.68 20 -25 20 C-24.75121094 19.42894531 -24.50242187 18.85789062 -24.24609375 18.26953125 C-20.12871945 10.77048904 -8.91231243 0 0 0 Z M110.125 93.5625 C105.87560432 96.89029032 101.6027706 99.97809631 97 102.8125 C86.78373571 109.14391488 81.16383237 117.48650476 78 129 C77.22198753 134.30484807 77.07560528 139.6457712 77 145 C87.4690913 144.59734264 96.68608324 139.31391676 104 132 C104 131.34 104 130.68 104 130 C104.66 130 105.32 130 106 130 C106.40992188 129.21753906 106.81984375 128.43507812 107.2421875 127.62890625 C107.78101563 126.61699219 108.31984375 125.60507813 108.875 124.5625 C109.40867188 123.55316406 109.94234375 122.54382813 110.4921875 121.50390625 C112 119 112 119 114 118 C113.81824219 119.12921875 113.81824219 119.12921875 113.6328125 120.28125 C112.45923407 127.69445662 112.45923407 127.69445662 111.5625 135.14453125 C110.80408066 142.50171477 109.95011985 148.58105524 106 155 C105.32205824 156.32763594 104.65264475 157.65974739 104 159 C103.34 159 102.68 159 102 159 C102 159.66 102 160.32 102 161 C101.43023437 161.27457031 100.86046875 161.54914063 100.2734375 161.83203125 C89.52156984 167.35575708 83.43611167 173.83009831 79 185 C78.505 185.99 78.505 185.99 78 187 C77.91426606 189.25120742 77.89287812 191.50499303 77.90234375 193.7578125 C77.9037587 194.42086395 77.90517365 195.08391541 77.90663147 195.76705933 C77.91223246 197.88641863 77.924785 200.00567259 77.9375 202.125 C77.94251488 203.56119639 77.94707781 204.99739444 77.95117188 206.43359375 C77.96220218 209.95576345 77.97946741 213.47787145 78 217 C79.70884005 215.37660195 81.37446717 213.70680947 83 212 C83 211.34 83 210.68 83 210 C83.66 210 84.32 210 85 210 C86.67025668 208.23146091 86.67025668 208.23146091 88.4375 205.875 C89.50097656 204.50601563 89.50097656 204.50601563 90.5859375 203.109375 C91.38257813 202.08328125 92.17921875 201.0571875 93 200 C93.90649784 198.87829997 94.81543366 197.75856664 95.7265625 196.640625 C105.73771055 184.29590829 112.46109555 172.55124211 116 157 C116.16516113 156.29488281 116.33032227 155.58976562 116.50048828 154.86328125 C119.46226415 141.41124443 119.28631121 127.70252649 119.3125 114 C119.31617584 113.05246857 119.31985168 112.10493713 119.32363892 111.12869263 C119.32916513 108.39806494 119.31837811 105.66806761 119.30078125 102.9375 C119.30154663 102.1112059 119.30231201 101.2849118 119.30310059 100.43357849 C119.2514325 96.17597864 118.96308824 92.88416962 117 89 C114.64482957 89 111.98299549 92.09343015 110.125 93.5625 Z " fill="#E20F12" transform="translate(68,0)"/>
</svg>
