<?xml version="1.0" encoding="UTF-8"?>
<svg version="1.1" xmlns="http://www.w3.org/2000/svg" width="256" height="256">
<path d="M0 0 C0.84344971 0.00829834 1.68689941 0.01659668 2.5559082 0.02514648 C8.65118635 0.19119332 13.55545688 0.82250934 18.625 4.4375 C19.69621094 5.18386719 19.69621094 5.18386719 20.7890625 5.9453125 C27.03437907 10.82801454 29.98308876 16.77443188 31.625 24.4375 C33.12754092 38.97852201 32.77957963 53.67622116 32.75537109 68.27539062 C32.74967428 71.74108541 32.75307231 75.20670352 32.75879192 78.67239571 C32.82543759 125.62494864 32.82543759 125.62494864 24.8671875 135.65234375 C17.06789352 143.1200888 8.3580285 145.03721262 -2.11254883 144.91040039 C-10.41741551 144.5691045 -17.64530559 142.19336209 -23.73019409 136.32460022 C-29.41936205 129.79736801 -31.13065503 122.59747245 -31.1796875 114.16015625 C-31.20368622 113.17982925 -31.22768494 112.19950226 -31.25241089 111.18946838 C-31.32182562 107.93857658 -31.35177687 104.68903333 -31.375 101.4375 C-31.38809204 100.29158386 -31.40118408 99.14566772 -31.41467285 97.96502686 C-31.49678899 90.54419429 -31.51772162 83.12460795 -31.50537109 75.70336914 C-31.50000109 71.87577363 -31.5053594 68.04829516 -31.51171875 64.22070312 C-31.5159484 52.79811523 -31.4421843 41.38354005 -30.9921875 29.96875 C-30.96182404 29.08243393 -30.93146057 28.19611786 -30.900177 27.28294373 C-30.53986396 19.52193398 -28.9612818 13.92975943 -23.2890625 8.40625 C-15.9273857 2.27570687 -9.46120852 -0.11923921 0 0 Z M-9.375 22.4375 C-10.12856491 25.58884418 -10.04779748 28.68861165 -10.00610352 31.91601562 C-10.01325882 32.87577805 -10.02041412 33.83554047 -10.02778625 34.8243866 C-10.04469973 37.99799141 -10.02525456 41.17018893 -10.00390625 44.34375 C-10.0047347 46.5480562 -10.00719317 48.75236235 -10.01121521 50.95666504 C-10.01407504 55.57693064 -9.99935343 60.19671197 -9.97192383 64.81689453 C-9.93784123 70.74228184 -9.94385778 76.66680299 -9.9625864 82.59223175 C-9.97314977 87.14413687 -9.96422451 91.6958401 -9.94920158 96.24772644 C-9.94401447 98.43262635 -9.94450797 100.6175473 -9.95074654 102.80244446 C-9.95619057 105.85508641 -9.93584887 108.90648414 -9.90844727 111.95898438 C-9.91497314 112.86404221 -9.92149902 113.76910004 -9.92822266 114.70158386 C-9.88596959 119.70065073 -9.88596959 119.70065073 -7.46665955 123.96740723 C-3.59890377 126.68580364 -0.03357002 127.24962619 4.625 126.4375 C7.84454645 123.90296343 9.32932435 122.32452695 10.625 118.4375 C10.73716382 115.50250592 10.79270885 112.59065737 10.80200195 109.6550293 C10.80857315 108.75714691 10.81514435 107.85926453 10.82191467 106.93417358 C10.84164056 103.96002113 10.85330819 100.98591914 10.86328125 98.01171875 C10.86735678 96.99593058 10.8714323 95.9801424 10.87563133 94.93357277 C10.89648819 89.55801217 10.91079207 84.18247707 10.92016602 78.80688477 C10.93123474 73.25505408 10.96564127 67.70362372 11.00533772 62.15193462 C11.03148131 57.88224034 11.03985581 53.61264182 11.04344749 49.34287453 C11.04831861 47.29635728 11.05994748 45.24984446 11.07848549 43.20340538 C11.10283055 40.33799862 11.1019204 37.4736328 11.0949707 34.6081543 C11.11418579 33.34315346 11.11418579 33.34315346 11.13378906 32.05259705 C11.08671089 26.72071273 10.1816766 23.66237259 6.625 19.4375 C4.33952852 18.29476426 2.85620095 18.20622743 0.3125 18.125 C-0.44675781 18.08761719 -1.20601562 18.05023438 -1.98828125 18.01171875 C-5.52151404 18.6420336 -6.92131628 19.80363815 -9.375 22.4375 Z " fill="#EE3E68" transform="translate(201.375,55.5625)"/>
<path d="M0 0 C2.2421875 1.3984375 2.2421875 1.3984375 4.25 2.875 C4.91257813 3.32101563 5.57515625 3.76703125 6.2578125 4.2265625 C11.14443719 7.88641948 13.59776203 12.0444375 15.25 17.875 C16.573923 28.30077168 16.39821044 38.88456448 16.3828125 49.375 C16.38348861 51.02539077 16.38446118 52.67578144 16.38571167 54.32617188 C16.38717421 57.76172853 16.38508106 61.19725893 16.38037109 64.6328125 C16.37467472 68.99623709 16.37796153 73.35960012 16.38394356 77.72302246 C16.38758848 81.124028 16.38639269 84.52501938 16.38381577 87.92602539 C16.38315732 89.53328458 16.38393617 91.14054514 16.38629532 92.74780273 C16.42403074 125.66568908 16.42403074 125.66568908 8.19921875 133.9375 C5.96735264 135.7877517 3.71999729 137.36018054 1.25 138.875 C0.66863281 139.2359375 0.08726562 139.596875 -0.51171875 139.96875 C-8.01970034 143.61307365 -18.77300458 142.94834433 -26.79296875 141.21875 C-33.65363974 138.75103578 -39.48828478 134.78061733 -43.18174744 128.40260315 C-47.77556334 117.76614691 -47.46092041 107.43638298 -47.37890625 96.02734375 C-47.37973673 93.92232643 -47.38220285 91.81730919 -47.38621521 89.71229553 C-47.38905937 85.32061019 -47.37450628 80.92943874 -47.34692383 76.5378418 C-47.31282292 70.93745555 -47.31887987 65.33798582 -47.3375864 59.7375555 C-47.34820519 55.39722693 -47.33917472 51.05710792 -47.32420158 46.71679878 C-47.31905651 44.65294583 -47.31945638 42.58907065 -47.32574654 40.52522087 C-47.37494925 14.6908258 -47.37494925 14.6908258 -39.5 5.875 C-29.43968501 -3.01450247 -12.28601838 -5.94300424 0 0 Z M-24.75 20.875 C-26.05357381 24.78572143 -25.89745863 28.50521114 -25.89526367 32.58154297 C-25.89862228 33.47127808 -25.9019809 34.36101318 -25.90544128 35.27770996 C-25.91495402 38.22421661 -25.91689459 41.17066644 -25.91796875 44.1171875 C-25.92118119 46.16358463 -25.92454525 48.20998153 -25.92805481 50.25637817 C-25.93404694 54.54869113 -25.93589463 58.84098394 -25.93530273 63.13330078 C-25.93520113 68.6335365 -25.94885159 74.13364308 -25.96607494 79.63384819 C-25.97719349 83.8614664 -25.97922198 88.08905339 -25.97869301 92.31668472 C-25.97987341 94.34446787 -25.98429855 96.37225183 -25.99202538 98.4000206 C-26.00182188 101.2366617 -25.99894847 104.07302236 -25.99291992 106.90966797 C-25.99853943 107.7472464 -26.00415894 108.58482483 -26.00994873 109.44778442 C-25.98230086 114.56698839 -25.66795229 118.65017535 -22.1875 122.6875 C-18.5112752 124.47848131 -14.72711939 124.89443026 -10.75 123.875 C-8.04309852 121.86108801 -6.06282223 120.23584052 -5.28356552 116.84591484 C-5.09832573 114.31311388 -5.07451493 111.82247844 -5.10302734 109.28295898 C-5.09426575 108.32305054 -5.08550415 107.36314209 -5.07647705 106.37414551 C-5.05449723 103.20599978 -5.06903018 100.03925328 -5.0859375 96.87109375 C-5.08256925 94.66821525 -5.07771656 92.46533857 -5.07144165 90.26246643 C-5.06407245 85.64818611 -5.0747789 81.03439002 -5.09814453 76.42016602 C-5.1266485 70.5025379 -5.11021753 64.58604274 -5.08028221 58.66845608 C-5.06222515 54.12082868 -5.06795978 49.57347049 -5.08092117 45.02583504 C-5.0842587 42.84371876 -5.080156 40.66157811 -5.06852341 38.47949028 C-5.05583952 35.43154908 -5.07515754 32.38545024 -5.10302734 29.33764648 C-5.08784561 27.98241631 -5.08784561 27.98241631 -5.07235718 26.59980774 C-5.12996898 21.42614188 -5.12996898 21.42614188 -8.14785767 17.31898499 C-14.64962322 13.71101485 -20.29793009 14.89253105 -24.75 20.875 Z " fill="#EE3F69" transform="translate(143.75,58.125)"/>
<path d="M0 0 C9.714375 -0.020625 19.42875 -0.04125 29.4375 -0.0625 C34.04416626 -0.07615601 34.04416626 -0.07615601 38.74389648 -0.09008789 C41.16129513 -0.09300679 43.57869426 -0.09555541 45.99609375 -0.09765625 C47.2648938 -0.10277222 48.53369385 -0.10788818 49.84094238 -0.11315918 C51.03868286 -0.11328003 52.23642334 -0.11340088 53.47045898 -0.11352539 C55.03932106 -0.11685631 55.03932106 -0.11685631 56.63987732 -0.12025452 C59 0 59 0 60 1 C60.0983721 2.33043625 60.13078592 3.66593344 60.1328125 5 C60.13474609 6.2065625 60.13474609 6.2065625 60.13671875 7.4375 C60.13285156 8.283125 60.12898438 9.12875 60.125 10 C60.13080078 11.2684375 60.13080078 11.2684375 60.13671875 12.5625 C60.13542969 13.366875 60.13414063 14.17125 60.1328125 15 C60.13168457 15.7425 60.13055664 16.485 60.12939453 17.25 C60 19 60 19 59 20 C56.18859849 20.0886126 53.40120576 20.11529584 50.58984375 20.09765625 C49.84383911 20.09664917 49.09783447 20.09564209 48.32922363 20.09460449 C45.53196687 20.08935689 42.73473196 20.07539573 39.9375 20.0625 C33.688125 20.041875 27.43875 20.02125 21 20 C21 33.53 21 47.06 21 61 C21.66 61 22.32 61 23 61 C23.33 60.01 23.66 59.02 24 58 C25.5234375 56.6484375 25.5234375 56.6484375 27.375 55.375 C27.98085938 54.94960937 28.58671875 54.52421875 29.2109375 54.0859375 C34.0725137 51.13502443 39.51332035 51.48139603 45 52 C50.72534606 53.53392377 54.1905848 56.83041295 57.7734375 61.4140625 C61.38666389 69.03175635 61.45198698 77.90386509 61.75 86.1875 C61.79092773 87.3108374 61.83185547 88.4341748 61.87402344 89.59155273 C62.08367648 97.29089868 61.88859931 104.88731871 61.25 112.5625 C61.17620117 113.48248779 61.10240234 114.40247559 61.02636719 115.3503418 C60.26229123 123.12631701 58.87930602 131.43013114 53 137 C42.24359635 143.98570864 31.5535702 143.96392591 19 143 C15.24082192 142.17366587 12.26000752 141.02247755 9 139 C8.071875 138.46375 7.14375 137.9275 6.1875 137.375 C-2.42066937 128.02898754 -3.14452705 116.07495115 -3.25 104 C-3.25942627 103.16218994 -3.26885254 102.32437988 -3.27856445 101.46118164 C-3.27429443 100.6696167 -3.27002441 99.87805176 -3.265625 99.0625 C-3.26336914 98.35222656 -3.26111328 97.64195312 -3.25878906 96.91015625 C-3 95 -3 95 -1 92 C0.95532227 91.64355469 0.95532227 91.64355469 3.31640625 91.671875 C4.16267578 91.67703125 5.00894531 91.6821875 5.88085938 91.6875 C6.76580078 91.708125 7.65074219 91.72875 8.5625 91.75 C9.89571289 91.75773437 9.89571289 91.75773437 11.25585938 91.765625 C17.84605454 91.84605454 17.84605454 91.84605454 19 93 C19.12132735 94.72112052 19.17965019 96.44676709 19.2109375 98.171875 C19.23929688 99.22890625 19.26765625 100.2859375 19.296875 101.375 C19.34859294 103.60921503 19.39297017 105.84361311 19.4296875 108.078125 C19.460625 109.1403125 19.4915625 110.2025 19.5234375 111.296875 C19.54325684 112.26979492 19.56307617 113.24271484 19.58349609 114.24511719 C20.2129892 118.40877501 22.05966578 121.05966578 25 124 C29.23560704 124.70320889 32.86320552 124.73891641 36.5 122.375 C39.59235982 117.47876362 39.15921199 111.60128853 39.16796875 105.96875 C39.17129715 105.21460815 39.17462555 104.46046631 39.17805481 103.68347168 C39.18309356 102.09676723 39.18546408 100.51005229 39.18530273 98.92333984 C39.18749337 96.50730883 39.20569254 94.09173193 39.22460938 91.67578125 C39.22754319 90.12760571 39.22952807 88.57942803 39.23046875 87.03125 C39.23765427 86.31545776 39.24483978 85.59966553 39.25224304 84.86218262 C39.23269037 80.53486686 38.6839439 76.99413859 37 73 C34.39280658 70.77905746 32.95348022 71.00249213 29.5 71.1875 C26.03184276 71.99260793 24.39906266 72.42322899 22 75 C21.34 76.98 20.68 78.96 20 81 C13.4 81 6.8 81 0 81 C0 54.27 0 27.54 0 0 Z " fill="#EE406A" transform="translate(25,57)"/>
<path d="M0 0 C0.92039062 -0.01160156 1.84078125 -0.02320313 2.7890625 -0.03515625 C11.66556594 0.0023501 19.42077988 1.84670648 26.875 6.8125 C27.75929687 7.38871094 28.64359375 7.96492188 29.5546875 8.55859375 C31.95771189 10.34358791 34.01887551 12.13126134 36 14.375 C36 15.035 36 15.695 36 16.375 C36.66 16.375 37.32 16.375 38 16.375 C38.66 15.055 39.32 13.735 40 12.375 C40.66 12.375 41.32 12.375 42 12.375 C42.33 11.385 42.66 10.395 43 9.375 C45.21022857 7.8702881 47.36040372 6.54520343 49.6875 5.25 C50.30044922 4.89035156 50.91339844 4.53070313 51.54492188 4.16015625 C58.70971344 0.10289358 65.67780068 0.16863351 73.75 0.125 C74.6884375 0.104375 75.626875 0.08375 76.59375 0.0625 C88.52392055 -0.00341254 97.03906657 3.49982384 106 11.375 C114.23775238 19.9941298 117.61418951 28.61369238 117.51757812 40.44335938 C117.5245874 41.51286331 117.53159668 42.58236725 117.53881836 43.6842804 C117.55632716 47.19603963 117.54480023 50.70698352 117.53125 54.21875 C117.53394694 56.6729752 117.53783104 59.12719935 117.54284668 61.5814209 C117.54873213 66.71568004 117.54020911 71.84966011 117.52148438 76.98388672 C117.49869594 83.55092332 117.51182407 90.11730591 117.53577423 96.68431854 C117.55025769 101.74937835 117.54561442 106.8142842 117.53526306 111.87934875 C117.53260284 114.30015644 117.53584059 116.72097829 117.54518127 119.14176941 C117.55538841 122.5304342 117.53978613 125.91805331 117.51757812 129.30664062 C117.52567505 130.29807571 117.53377197 131.2895108 117.54211426 132.31098938 C117.43225803 141.40134684 114.34732213 148.0831971 109 155.375 C108.34 156.344375 107.68 157.31375 107 158.3125 C100.83786854 165.54298862 90.89747163 169.75487701 81.58862305 170.59179688 C67.34931929 171.25924287 55.29634021 170.62195017 43.9375 161.15625 C42.53848222 159.87005624 41.18948159 158.52872342 39.875 157.15625 C38.18936834 155.14541685 38.18936834 155.14541685 36 155.375 C34.83722792 156.53777208 33.67671344 157.70288451 32.52734375 158.87890625 C22.21676901 168.97852294 11.04265163 170.98722009 -2.98583984 170.84545898 C-16.51939944 170.41012832 -26.6133172 165.12517621 -36 155.375 C-36.38929687 155.81070313 -36.77859375 156.24640625 -37.1796875 156.6953125 C-45.51432504 165.56766859 -54.6307946 170.2413192 -66.828125 170.7109375 C-89.21930565 171.02615988 -89.21930565 171.02615988 -98 166.375 C-98.82242188 165.95089844 -99.64484375 165.52679688 -100.4921875 165.08984375 C-109.48871212 159.79516778 -114.76156029 150.09031912 -118 140.375 C-118.09095384 138.49752734 -118.12194944 136.61693264 -118.12025452 134.73725891 C-118.12162918 133.5635675 -118.12300385 132.3898761 -118.12442017 131.18061829 C-118.12082489 129.89165146 -118.11722961 128.60268463 -118.11352539 127.2746582 C-118.11324334 125.904775 -118.1134016 124.53489166 -118.1139679 123.16500854 C-118.11425518 119.44421727 -118.10836949 115.72345814 -118.10139394 112.00267434 C-118.09514904 108.11491829 -118.0945557 104.22716153 -118.09336853 100.33940125 C-118.09025858 92.97651443 -118.08204969 85.61364244 -118.07201904 78.25076216 C-118.05875921 68.30190676 -118.05335528 58.35304731 -118.04751682 48.4041853 C-118.0381096 32.72777909 -118.01818843 17.05140417 -118 1.375 C-88.96 1.375 -59.92 1.375 -30 1.375 C-30 4.015 -30 6.655 -30 9.375 C-29.46632813 8.97667969 -28.93265625 8.57835937 -28.3828125 8.16796875 C-27.63773437 7.63816406 -26.89265625 7.10835937 -26.125 6.5625 C-25.40570313 6.04042969 -24.68640625 5.51835938 -23.9453125 4.98046875 C-16.26309242 0.7929456 -8.63352093 -0.10882589 0 0 Z M-28.97265625 17.5078125 C-30.18764472 18.89993481 -31.38387749 20.30880392 -32.5546875 21.73828125 C-34 23.375 -34 23.375 -36 24.375 C-36 19.095 -36 13.815 -36 8.375 C-61.08 8.375 -86.16 8.375 -112 8.375 C-112.08746326 30.67869507 -112.08746326 30.67869507 -112.14648438 52.98242188 C-112.16425634 62.08330379 -112.18510147 71.18410213 -112.22631836 80.28491211 C-112.25632757 86.9142225 -112.27560021 93.54346481 -112.28226548 100.17284125 C-112.28615835 103.67934236 -112.29523356 107.18564879 -112.31719017 110.69208717 C-112.34156791 114.61743294 -112.34196264 118.54259253 -112.34057617 122.46801758 C-112.351362 123.61601334 -112.36214783 124.76400909 -112.3732605 125.9467926 C-112.33649063 135.6093209 -111.11760918 144.58895196 -105 152.375 C-104.38125 153.24125 -103.7625 154.1075 -103.125 155 C-96.2587449 162.67404982 -86.95103013 164.09261643 -76.953125 164.6640625 C-65.03546414 165.05499259 -53.12240243 163.75823543 -44 155.375 C-40.9674212 151.63226034 -38.52663138 147.95489414 -37 143.375 C-36.34 143.375 -35.68 143.375 -35 143.375 C-34.319375 145.0765625 -34.319375 145.0765625 -33.625 146.8125 C-30.36279992 153.26798044 -24.93170377 158.62820831 -18.30078125 161.57421875 C-15.86916989 162.31933135 -13.49800235 162.90478779 -11 163.375 C-10.20335938 163.55546875 -9.40671875 163.7359375 -8.5859375 163.921875 C2.44840839 165.85538576 14.36797016 164.58893119 23.9375 158.5625 C29.60286505 154.41336285 33.08490887 149.81888566 36 143.375 C36.66 143.375 37.32 143.375 38 143.375 C38.27972656 143.95507812 38.55945313 144.53515625 38.84765625 145.1328125 C41.77285988 150.83272697 44.86318111 154.5827176 50 158.375 C50.6084375 158.88933594 51.216875 159.40367187 51.84375 159.93359375 C60.64640067 165.81797436 73.74120671 165.29044591 83.765625 163.82421875 C93.32007006 161.78374516 99.91292623 158.10008841 106 150.375 C111.12699003 141.36843492 112.15089006 132.4665778 112.14526367 122.29370117 C112.14862228 121.41141342 112.1519809 120.52912567 112.15544128 119.62010193 C112.16489709 116.71937633 112.1668917 113.81870878 112.16796875 110.91796875 C112.17118509 108.88926673 112.17454945 106.86056494 112.17805481 104.8318634 C112.18403267 100.58443667 112.18589609 96.33703025 112.18530273 92.08959961 C112.1852012 86.66619902 112.19885081 81.24292959 112.21607494 75.81956005 C112.22723253 71.63034983 112.22922079 67.44117095 112.22869301 63.2519474 C112.22986756 61.25341655 112.23425963 59.25488475 112.24202538 57.25636864 C112.25190125 54.45231499 112.24891745 51.64854127 112.24291992 48.84448242 C112.24853943 48.03116455 112.25415894 47.21784668 112.25994873 46.37988281 C112.19988236 35.24251076 110.07355323 24.31463694 102.1875 16.0625 C92.6185148 7.19841242 82.5721164 5.87460781 69.80859375 6.14453125 C58.93787424 6.80234915 52.11675556 8.92099412 44.2578125 16.72265625 C41.36003545 20.12679227 39.61583569 23.21999393 38 27.375 C37.34 27.375 36.68 27.375 36 27.375 C35.74347656 26.818125 35.48695313 26.26125 35.22265625 25.6875 C31.26272141 17.79429656 25.79508411 11.38555402 17.25 8.4375 C15.84368067 8.04425145 14.4259206 7.68984743 13 7.375 C12.23300781 7.19324219 11.46601563 7.01148438 10.67578125 6.82421875 C-3.93519017 4.37128194 -18.64754274 6.34442245 -28.97265625 17.5078125 Z " fill="#EE3B64" transform="translate(128,42.625)"/>
</svg>
