<?xml version="1.0" encoding="UTF-8"?>
<svg version="1.1" xmlns="http://www.w3.org/2000/svg" width="256" height="256">
<path d="M0 0 C0.76596843 -0.00632635 1.53193686 -0.0126527 2.32111645 -0.01917076 C3.639631 -0.04053093 3.639631 -0.04053093 4.98478222 -0.06232262 C6.43495487 -0.06263985 6.43495487 -0.06263985 7.91442394 -0.06296349 C8.93080944 -0.07464561 9.94719494 -0.08632774 10.99438 -0.09836388 C14.36845753 -0.13207336 17.74209693 -0.14269989 21.11632824 -0.15036583 C23.45561922 -0.16253836 25.79490858 -0.17502409 28.13419628 -0.1878109 C33.04453565 -0.21032211 37.95471945 -0.21984465 42.86510754 -0.22214317 C49.16065692 -0.22742519 55.45491324 -0.27873656 61.75011444 -0.34165955 C66.58427058 -0.38250404 71.41811387 -0.39178523 76.2524271 -0.3922596 C78.57332547 -0.39765205 80.89422639 -0.41455247 83.21495533 -0.44310951 C86.46208679 -0.47972906 89.70626592 -0.47215391 92.95348644 -0.45358849 C93.91419552 -0.47404228 94.87490459 -0.49449608 95.86472607 -0.51556969 C102.2634076 -0.41493112 102.2634076 -0.41493112 104.86537266 2.00343132 C106.26395702 3.94133949 106.26395702 3.94133949 108.12804699 7.38869667 C112.66264795 5.99343484 116.82541421 4.17392133 121.07726574 2.09572792 C123.12804699 1.38869667 123.12804699 1.38869667 126.12804699 2.38869667 C127.31554699 4.95119667 127.31554699 4.95119667 128.12804699 7.38869667 C128.78804699 7.38869667 129.44804699 7.38869667 130.12804699 7.38869667 C131.08462517 8.75523693 132.02762571 10.13340975 132.89757824 11.55666542 C134.11453712 13.46582076 134.11453712 13.46582076 135.82726574 15.25197792 C140.19405597 20.14867079 140.19405597 20.14867079 140.01867199 23.44338417 C138.85402774 26.9761384 137.24121947 30.17355961 135.51085949 33.46291542 C133.90105618 36.84670596 132.70048426 39.67894814 132.12804699 43.38869667 C133.97057614 47.77284962 136.98544406 50.87124078 140.12804699 54.38869667 C141.33440044 56.17502775 142.50245572 57.98790625 143.62804699 59.82619667 C146.76981325 64.86024514 150.0722497 69.76904719 153.42882824 74.66213417 C155.00514101 77.19148202 156.12560566 79.59000259 157.12804699 82.38869667 C157.78804699 82.38869667 158.44804699 82.38869667 159.12804699 82.38869667 C158.50771268 85.40899914 157.53104545 87.64702704 155.90539074 90.25979042 C155.22730358 91.35867592 155.22730358 91.35867592 154.53551769 92.47976112 C154.05042736 93.25408485 153.56533703 94.02840858 153.06554699 94.82619667 C152.56821056 95.62952431 152.07087414 96.43285194 151.55846691 97.26052284 C150.5528487 98.88431049 149.54513817 100.50680435 148.53527355 102.12795448 C146.65753804 105.14458023 144.79910095 108.17271631 142.94054699 111.20119667 C142.30375011 112.23373573 141.66695324 113.2662748 141.01085949 114.33010292 C139.75099774 116.37672481 138.49581727 118.42623549 137.24523449 120.47854042 C133.48455254 126.63722807 129.63105698 132.71904406 125.69054699 138.76369667 C122.25382225 144.03929842 118.90199779 149.34793644 115.69054699 154.76369667 C110.85518432 162.91697592 105.78102233 170.91336299 100.69835949 178.9140873 C97.54789196 183.8788166 94.41428319 188.8542139 91.27721691 193.82741737 C88.74509974 197.8386549 86.19728238 201.83859404 83.62804699 205.82619667 C79.79997531 211.82163246 76.18567904 217.94562815 72.53698254 224.05105019 C69.38263663 229.32118241 66.19525643 234.56049565 62.85070324 239.71291542 C61.47667303 241.84718003 60.13776387 243.99432664 58.81164074 246.15822792 C58.0004567 247.46422612 57.1892589 248.77021578 56.37804699 250.07619667 C56.00075451 250.70187538 55.62346203 251.32755409 55.23473644 251.97219276 C54.14367199 253.71291542 54.14367199 253.71291542 52.12804699 256.38869667 C51.13804699 256.38869667 50.14804699 256.38869667 49.12804699 256.38869667 C47.69054699 254.39650917 47.69054699 254.39650917 46.12804699 251.51369667 C45.51445324 250.41670448 44.90085949 249.3197123 44.26867199 248.18947792 C43.92900402 247.58055702 43.58933605 246.97163612 43.23937511 246.34426308 C41.19666623 242.74977754 39.03605382 239.22726975 36.87804699 235.70119667 C36.41164806 234.9379911 35.94524914 234.17478554 35.46471691 233.38845253 C31.74812781 227.33626394 27.91076022 221.36814552 24.03429699 215.41750526 C20.76139725 210.3881027 17.58765429 205.30689783 14.46007824 200.18557167 C11.36375222 195.12725889 8.21089311 190.10410907 5.06554699 185.07619667 C4.42512463 184.05219765 3.78470226 183.02819862 3.12487316 181.97316933 C1.12629618 178.77811653 -0.87275066 175.58335819 -2.87195301 172.38869667 C-5.51833041 168.15987008 -8.16429496 163.93078609 -10.80945301 159.70119667 C-11.43988514 158.6931498 -12.07031727 157.68510292 -12.7198534 156.64650917 C-15.95612222 151.46779041 -19.17862767 146.28150156 -22.37195301 141.07619667 C-26.78353122 133.88589712 -31.26164042 126.74586677 -35.99695301 119.76369667 C-37.83299281 117.03120923 -39.50806309 114.29129717 -41.05945301 111.38869667 C-45.74310625 102.73010089 -51.41485623 94.57434184 -56.87195301 86.38869667 C-56.99695301 83.70119667 -56.99695301 83.70119667 -56.87195301 81.38869667 C-56.21195301 81.38869667 -55.55195301 81.38869667 -54.87195301 81.38869667 C-54.63347645 80.87822792 -54.39499989 80.36775917 -54.14929676 79.84182167 C-52.41094706 76.50333967 -50.42868058 73.32791935 -48.43445301 70.13869667 C-47.78488636 69.09600624 -47.78488636 69.09600624 -47.12219715 68.03225136 C-43.389645 62.0958874 -39.44343855 56.32155938 -35.36438465 50.61818886 C-32.30050169 46.34206725 -32.30050169 46.34206725 -30.87195301 41.38869667 C-31.37570415 39.40437115 -31.37570415 39.40437115 -32.34070301 37.45510292 C-32.6642577 36.72355995 -32.98781239 35.99201698 -33.32117176 35.23830605 C-34.02021105 33.71679116 -34.72072626 32.19595348 -35.42273426 30.67580605 C-38.52207409 23.65598654 -38.52207409 23.65598654 -36.87195301 19.38869667 C-34.93445301 16.07619667 -34.93445301 16.07619667 -32.87195301 13.38869667 C-32.21195301 13.38869667 -31.55195301 13.38869667 -30.87195301 13.38869667 C-30.66570301 12.70807167 -30.45945301 12.02744667 -30.24695301 11.32619667 C-28.41786435 7.41859817 -25.76916268 4.55011728 -22.87195301 1.38869667 C-16.95226299 3.14860451 -11.45560309 5.78564272 -5.87195301 8.38869667 C-5.58320301 7.62557167 -5.29445301 6.86244667 -4.99695301 6.07619667 C-2.68698135 0.55793105 -2.68698135 0.55793105 0 0 Z " fill="#FDFDFD" transform="translate(76.87195301055908,-0.38869667053222656)"/>
<path d="M0 0 C0.76596843 -0.00632635 1.53193686 -0.0126527 2.32111645 -0.01917076 C3.639631 -0.04053093 3.639631 -0.04053093 4.98478222 -0.06232262 C6.43495487 -0.06263985 6.43495487 -0.06263985 7.91442394 -0.06296349 C8.93080944 -0.07464561 9.94719494 -0.08632774 10.99438 -0.09836388 C14.36845753 -0.13207336 17.74209693 -0.14269989 21.11632824 -0.15036583 C23.45561922 -0.16253836 25.79490858 -0.17502409 28.13419628 -0.1878109 C33.04453565 -0.21032211 37.95471945 -0.21984465 42.86510754 -0.22214317 C49.16065692 -0.22742519 55.45491324 -0.27873656 61.75011444 -0.34165955 C66.58427058 -0.38250404 71.41811387 -0.39178523 76.2524271 -0.3922596 C78.57332547 -0.39765205 80.89422639 -0.41455247 83.21495533 -0.44310951 C86.46208679 -0.47972906 89.70626592 -0.47215391 92.95348644 -0.45358849 C93.91419552 -0.47404228 94.87490459 -0.49449608 95.86472607 -0.51556969 C102.2634076 -0.41493112 102.2634076 -0.41493112 104.86537266 2.00343132 C106.26395702 3.94133949 106.26395702 3.94133949 108.12804699 7.38869667 C112.66264795 5.99343484 116.82541421 4.17392133 121.07726574 2.09572792 C123.12804699 1.38869667 123.12804699 1.38869667 126.12804699 2.38869667 C127.31554699 4.95119667 127.31554699 4.95119667 128.12804699 7.38869667 C128.78804699 7.38869667 129.44804699 7.38869667 130.12804699 7.38869667 C131.08462517 8.75523693 132.02762571 10.13340975 132.89757824 11.55666542 C134.11453712 13.46582076 134.11453712 13.46582076 135.82726574 15.25197792 C140.19405597 20.14867079 140.19405597 20.14867079 140.01867199 23.44338417 C138.85402774 26.9761384 137.24121947 30.17355961 135.51085949 33.46291542 C133.90105618 36.84670596 132.70048426 39.67894814 132.12804699 43.38869667 C133.97057614 47.77284962 136.98544406 50.87124078 140.12804699 54.38869667 C141.33440044 56.17502775 142.50245572 57.98790625 143.62804699 59.82619667 C146.76981325 64.86024514 150.0722497 69.76904719 153.42882824 74.66213417 C155.00514101 77.19148202 156.12560566 79.59000259 157.12804699 82.38869667 C157.78804699 82.38869667 158.44804699 82.38869667 159.12804699 82.38869667 C158.50771268 85.40899914 157.53104545 87.64702704 155.90539074 90.25979042 C155.22730358 91.35867592 155.22730358 91.35867592 154.53551769 92.47976112 C154.05042736 93.25408485 153.56533703 94.02840858 153.06554699 94.82619667 C152.56821056 95.62952431 152.07087414 96.43285194 151.55846691 97.26052284 C150.5528487 98.88431049 149.54513817 100.50680435 148.53527355 102.12795448 C146.65753804 105.14458023 144.79910095 108.17271631 142.94054699 111.20119667 C142.30375011 112.23373573 141.66695324 113.2662748 141.01085949 114.33010292 C139.75099774 116.37672481 138.49581727 118.42623549 137.24523449 120.47854042 C133.48455254 126.63722807 129.63105698 132.71904406 125.69054699 138.76369667 C122.25382225 144.03929842 118.90199779 149.34793644 115.69054699 154.76369667 C110.85518432 162.91697592 105.78102233 170.91336299 100.69835949 178.9140873 C97.54789196 183.8788166 94.41428319 188.8542139 91.27721691 193.82741737 C88.74509974 197.8386549 86.19728238 201.83859404 83.62804699 205.82619667 C79.79997531 211.82163246 76.18567904 217.94562815 72.53698254 224.05105019 C69.38263663 229.32118241 66.19525643 234.56049565 62.85070324 239.71291542 C61.47667303 241.84718003 60.13776387 243.99432664 58.81164074 246.15822792 C58.0004567 247.46422612 57.1892589 248.77021578 56.37804699 250.07619667 C56.00075451 250.70187538 55.62346203 251.32755409 55.23473644 251.97219276 C54.14367199 253.71291542 54.14367199 253.71291542 52.12804699 256.38869667 C51.13804699 256.38869667 50.14804699 256.38869667 49.12804699 256.38869667 C47.69054699 254.39650917 47.69054699 254.39650917 46.12804699 251.51369667 C45.51445324 250.41670448 44.90085949 249.3197123 44.26867199 248.18947792 C43.92900402 247.58055702 43.58933605 246.97163612 43.23937511 246.34426308 C41.19666623 242.74977754 39.03605382 239.22726975 36.87804699 235.70119667 C36.41164806 234.9379911 35.94524914 234.17478554 35.46471691 233.38845253 C31.74812781 227.33626394 27.91076022 221.36814552 24.03429699 215.41750526 C20.76139725 210.3881027 17.58765429 205.30689783 14.46007824 200.18557167 C11.36375222 195.12725889 8.21089311 190.10410907 5.06554699 185.07619667 C4.42512463 184.05219765 3.78470226 183.02819862 3.12487316 181.97316933 C1.12629618 178.77811653 -0.87275066 175.58335819 -2.87195301 172.38869667 C-5.51833041 168.15987008 -8.16429496 163.93078609 -10.80945301 159.70119667 C-11.43988514 158.6931498 -12.07031727 157.68510292 -12.7198534 156.64650917 C-15.95612222 151.46779041 -19.17862767 146.28150156 -22.37195301 141.07619667 C-26.78353122 133.88589712 -31.26164042 126.74586677 -35.99695301 119.76369667 C-37.83299281 117.03120923 -39.50806309 114.29129717 -41.05945301 111.38869667 C-45.74310625 102.73010089 -51.41485623 94.57434184 -56.87195301 86.38869667 C-56.99695301 83.70119667 -56.99695301 83.70119667 -56.87195301 81.38869667 C-56.21195301 81.38869667 -55.55195301 81.38869667 -54.87195301 81.38869667 C-54.63347645 80.87822792 -54.39499989 80.36775917 -54.14929676 79.84182167 C-52.41094706 76.50333967 -50.42868058 73.32791935 -48.43445301 70.13869667 C-47.78488636 69.09600624 -47.78488636 69.09600624 -47.12219715 68.03225136 C-43.389645 62.0958874 -39.44343855 56.32155938 -35.36438465 50.61818886 C-32.30050169 46.34206725 -32.30050169 46.34206725 -30.87195301 41.38869667 C-31.37570415 39.40437115 -31.37570415 39.40437115 -32.34070301 37.45510292 C-32.6642577 36.72355995 -32.98781239 35.99201698 -33.32117176 35.23830605 C-34.02021105 33.71679116 -34.72072626 32.19595348 -35.42273426 30.67580605 C-38.52207409 23.65598654 -38.52207409 23.65598654 -36.87195301 19.38869667 C-34.93445301 16.07619667 -34.93445301 16.07619667 -32.87195301 13.38869667 C-32.21195301 13.38869667 -31.55195301 13.38869667 -30.87195301 13.38869667 C-30.66570301 12.70807167 -30.45945301 12.02744667 -30.24695301 11.32619667 C-28.41786435 7.41859817 -25.76916268 4.55011728 -22.87195301 1.38869667 C-16.95226299 3.14860451 -11.45560309 5.78564272 -5.87195301 8.38869667 C-5.58320301 7.62557167 -5.29445301 6.86244667 -4.99695301 6.07619667 C-2.68698135 0.55793105 -2.68698135 0.55793105 0 0 Z M-3.53186512 34.8593998 C-3.93388142 35.82241005 -4.33589771 36.7854203 -4.75009632 37.77761269 C-6.19673195 41.14460881 -8.01121653 43.82423757 -10.14929676 46.79494667 C-10.7446825 47.69342323 -11.34006824 48.5918998 -11.95349598 49.51760292 C-13.85068364 52.3568657 -15.77293597 55.17740341 -17.70291615 57.99440956 C-19.50095808 60.62191677 -21.28868226 63.25635689 -23.07532215 65.89162636 C-23.99317685 67.24029735 -24.91549667 68.58593879 -25.84192371 69.92873573 C-27.1984707 71.89716093 -28.53856258 73.87591076 -29.87585926 75.85744667 C-30.2933997 76.45537025 -30.71094013 77.05329384 -31.14113331 77.66933632 C-33.31635908 80.85179989 -33.31635908 80.85179989 -33.74744129 84.57473183 C-32.85296652 86.42803567 -31.94248921 88.19188694 -30.86023426 89.94338417 C-30.22770741 90.97411049 -30.22770741 90.97411049 -29.58240223 92.02565956 C-29.12107899 92.76421181 -28.65975574 93.50276405 -28.18445301 94.26369667 C-27.70766102 95.03512001 -27.23086903 95.80654335 -26.73962879 96.60134315 C-21.44000956 105.14526429 -16.05184067 113.63473265 -10.64539051 122.11135292 C-9.87847889 123.31416908 -9.87847889 123.31416908 -9.0960741 124.54128456 C-8.0029387 126.32400155 -8.0029387 126.32400155 -6.87195301 127.38869667 C-5.36878532 127.51112977 -3.86007134 127.56645952 -2.35217762 127.59401894 C-1.39125706 127.61396416 -0.43033649 127.63390938 0.55970287 127.654459 C1.60448299 127.67117149 2.64926311 127.68788399 3.72570324 127.70510292 C5.32169605 127.73627457 5.32169605 127.73627457 6.94993114 127.76807594 C10.36340139 127.83368921 13.77695128 127.8925109 17.19054699 127.95119667 C19.49849808 127.9943707 21.80644099 128.03798461 24.11437511 128.08205605 C29.78551381 128.18938251 35.45673251 128.29112659 41.12804699 128.38869667 C38.9853323 131.93225861 36.83838102 135.47323565 34.69054699 139.01369667 C33.74006481 140.58437904 33.74006481 140.58437904 32.77038097 142.18679237 C29.96696154 146.80199145 27.15929538 151.40198033 24.15929699 155.89260292 C23.73575939 156.5279496 23.31222179 157.16329628 22.87584972 157.81789589 C21.76386217 159.46743953 20.63594758 161.10621477 19.50695324 162.74416542 C17.91061601 165.18073068 17.91061601 165.18073068 18.39586926 167.29348183 C19.19656284 169.58476305 20.2102706 171.47809001 21.46398449 173.55666542 C21.9457716 174.35902626 22.42755871 175.1613871 22.92394543 175.9880619 C23.44504894 176.84214638 23.96615246 177.69623085 24.50304699 178.57619667 C25.30790539 179.90663002 25.30790539 179.90663002 26.12902355 181.26394081 C30.0548081 187.7179721 34.10488348 194.08406789 38.23815441 200.40676308 C42.32575256 206.65997118 46.25185732 213.00242429 50.12804699 219.38869667 C55.60786006 214.66617063 58.87875867 208.60282304 62.56554699 202.45119667 C63.99317463 200.09498266 65.42602887 197.74195871 66.85851574 195.38869667 C67.21785198 194.79690117 67.57718822 194.20510567 67.94741344 193.59537697 C71.34995863 187.99972914 74.84867331 182.4676717 78.37804699 176.95119667 C78.95079357 176.05497597 79.52354015 175.15875526 80.11364269 174.23537636 C81.24087875 172.47184669 82.3683951 170.70849616 83.49621105 168.9453373 C87.09116997 163.31301985 90.64985873 157.6577379 94.21398449 152.00588417 C96.13086998 148.9662332 98.05286066 145.92991702 99.97960949 142.89650917 C106.4963835 132.62621464 112.90083185 122.29132109 119.23815441 111.90920448 C122.29005489 106.9258759 125.36601413 101.97597101 128.62804699 97.12697792 C129.15003674 96.34790077 129.67202648 95.56882362 130.2098341 94.76613808 C131.16612785 93.3518009 132.13490304 91.94578695 133.11852551 90.55031776 C134.91358834 87.89535913 136.12804699 86.04430374 136.12804699 82.78713417 C134.90494387 79.85359778 133.3812053 77.43775999 131.56554699 74.82619667 C130.84238293 73.77303261 130.11921886 72.71986855 129.37414074 71.63479042 C128.6329298 70.56357948 127.89171886 69.49236855 127.12804699 68.38869667 C125.15848918 65.44764214 123.20104216 62.49883733 121.24563122 59.54836464 C119.92007495 57.57048927 118.57748149 55.60380903 117.21016979 53.65456581 C113.61381068 48.46616745 110.60708826 43.4475924 108.12658215 37.63479042 C104.55275731 29.91960298 100.38753915 21.02075105 92.08372021 17.52907753 C80.94032746 14.21622033 68.84486637 14.81565557 57.35363293 15.2187748 C52.46799049 15.38985343 47.61225671 15.34357854 42.72577572 15.23751259 C14.22289512 14.57549713 14.22289512 14.57549713 -3.53186512 34.8593998 Z " fill="#1E1F1D" transform="translate(76.87195301055908,-0.38869667053222656)"/>
<path d="M0 0 C0.76596843 -0.00632635 1.53193686 -0.0126527 2.32111645 -0.01917076 C3.639631 -0.04053093 3.639631 -0.04053093 4.98478222 -0.06232262 C6.43495487 -0.06263985 6.43495487 -0.06263985 7.91442394 -0.06296349 C8.93080944 -0.07464561 9.94719494 -0.08632774 10.99438 -0.09836388 C14.36845753 -0.13207336 17.74209693 -0.14269989 21.11632824 -0.15036583 C23.45561922 -0.16253836 25.79490858 -0.17502409 28.13419628 -0.1878109 C33.04453565 -0.21032211 37.95471945 -0.21984465 42.86510754 -0.22214317 C49.16065692 -0.22742519 55.45491324 -0.27873656 61.75011444 -0.34165955 C66.58427058 -0.38250404 71.41811387 -0.39178523 76.2524271 -0.3922596 C78.57332547 -0.39765205 80.89422639 -0.41455247 83.21495533 -0.44310951 C86.46208679 -0.47972906 89.70626592 -0.47215391 92.95348644 -0.45358849 C93.91419552 -0.47404228 94.87490459 -0.49449608 95.86472607 -0.51556969 C102.2634076 -0.41493112 102.2634076 -0.41493112 104.86537266 2.00343132 C106.26395702 3.94133949 106.26395702 3.94133949 108.12804699 7.38869667 C112.66264795 5.99343484 116.82541421 4.17392133 121.07726574 2.09572792 C123.12804699 1.38869667 123.12804699 1.38869667 126.12804699 2.38869667 C127.31554699 4.95119667 127.31554699 4.95119667 128.12804699 7.38869667 C128.78804699 7.38869667 129.44804699 7.38869667 130.12804699 7.38869667 C131.08462517 8.75523693 132.02762571 10.13340975 132.89757824 11.55666542 C134.11453712 13.46582076 134.11453712 13.46582076 135.82726574 15.25197792 C140.19405597 20.14867079 140.19405597 20.14867079 140.01867199 23.44338417 C138.85402774 26.9761384 137.24121947 30.17355961 135.51085949 33.46291542 C133.90105618 36.84670596 132.70048426 39.67894814 132.12804699 43.38869667 C133.97057614 47.77284962 136.98544406 50.87124078 140.12804699 54.38869667 C141.33440044 56.17502775 142.50245572 57.98790625 143.62804699 59.82619667 C146.76981325 64.86024514 150.0722497 69.76904719 153.42882824 74.66213417 C155.00514101 77.19148202 156.12560566 79.59000259 157.12804699 82.38869667 C157.78804699 82.38869667 158.44804699 82.38869667 159.12804699 82.38869667 C158.50771268 85.40899914 157.53104545 87.64702704 155.90539074 90.25979042 C155.22730358 91.35867592 155.22730358 91.35867592 154.53551769 92.47976112 C154.05042736 93.25408485 153.56533703 94.02840858 153.06554699 94.82619667 C152.56821056 95.62952431 152.07087414 96.43285194 151.55846691 97.26052284 C150.5528487 98.88431049 149.54513817 100.50680435 148.53527355 102.12795448 C146.65753804 105.14458023 144.79910095 108.17271631 142.94054699 111.20119667 C142.30375011 112.23373573 141.66695324 113.2662748 141.01085949 114.33010292 C139.75099774 116.37672481 138.49581727 118.42623549 137.24523449 120.47854042 C133.48455254 126.63722807 129.63105698 132.71904406 125.69054699 138.76369667 C122.25382225 144.03929842 118.90199779 149.34793644 115.69054699 154.76369667 C110.85518432 162.91697592 105.78102233 170.91336299 100.69835949 178.9140873 C97.54789196 183.8788166 94.41428319 188.8542139 91.27721691 193.82741737 C88.74509974 197.8386549 86.19728238 201.83859404 83.62804699 205.82619667 C79.79997531 211.82163246 76.18567904 217.94562815 72.53698254 224.05105019 C69.38263663 229.32118241 66.19525643 234.56049565 62.85070324 239.71291542 C61.47667303 241.84718003 60.13776387 243.99432664 58.81164074 246.15822792 C58.0004567 247.46422612 57.1892589 248.77021578 56.37804699 250.07619667 C56.00075451 250.70187538 55.62346203 251.32755409 55.23473644 251.97219276 C54.14367199 253.71291542 54.14367199 253.71291542 52.12804699 256.38869667 C51.13804699 256.38869667 50.14804699 256.38869667 49.12804699 256.38869667 C47.69054699 254.39650917 47.69054699 254.39650917 46.12804699 251.51369667 C45.51445324 250.41670448 44.90085949 249.3197123 44.26867199 248.18947792 C43.92900402 247.58055702 43.58933605 246.97163612 43.23937511 246.34426308 C41.19666623 242.74977754 39.03605382 239.22726975 36.87804699 235.70119667 C36.41164806 234.9379911 35.94524914 234.17478554 35.46471691 233.38845253 C31.74812781 227.33626394 27.91076022 221.36814552 24.03429699 215.41750526 C20.76139725 210.3881027 17.58765429 205.30689783 14.46007824 200.18557167 C11.36375222 195.12725889 8.21089311 190.10410907 5.06554699 185.07619667 C4.42512463 184.05219765 3.78470226 183.02819862 3.12487316 181.97316933 C1.12629618 178.77811653 -0.87275066 175.58335819 -2.87195301 172.38869667 C-5.51833041 168.15987008 -8.16429496 163.93078609 -10.80945301 159.70119667 C-11.43988514 158.6931498 -12.07031727 157.68510292 -12.7198534 156.64650917 C-15.95612222 151.46779041 -19.17862767 146.28150156 -22.37195301 141.07619667 C-26.78353122 133.88589712 -31.26164042 126.74586677 -35.99695301 119.76369667 C-37.83299281 117.03120923 -39.50806309 114.29129717 -41.05945301 111.38869667 C-45.74310625 102.73010089 -51.41485623 94.57434184 -56.87195301 86.38869667 C-56.99695301 83.70119667 -56.99695301 83.70119667 -56.87195301 81.38869667 C-56.21195301 81.38869667 -55.55195301 81.38869667 -54.87195301 81.38869667 C-54.63347645 80.87822792 -54.39499989 80.36775917 -54.14929676 79.84182167 C-52.41094706 76.50333967 -50.42868058 73.32791935 -48.43445301 70.13869667 C-47.78488636 69.09600624 -47.78488636 69.09600624 -47.12219715 68.03225136 C-43.389645 62.0958874 -39.44343855 56.32155938 -35.36438465 50.61818886 C-32.30050169 46.34206725 -32.30050169 46.34206725 -30.87195301 41.38869667 C-31.37570415 39.40437115 -31.37570415 39.40437115 -32.34070301 37.45510292 C-32.6642577 36.72355995 -32.98781239 35.99201698 -33.32117176 35.23830605 C-34.02021105 33.71679116 -34.72072626 32.19595348 -35.42273426 30.67580605 C-38.52207409 23.65598654 -38.52207409 23.65598654 -36.87195301 19.38869667 C-34.93445301 16.07619667 -34.93445301 16.07619667 -32.87195301 13.38869667 C-32.21195301 13.38869667 -31.55195301 13.38869667 -30.87195301 13.38869667 C-30.66570301 12.70807167 -30.45945301 12.02744667 -30.24695301 11.32619667 C-28.41786435 7.41859817 -25.76916268 4.55011728 -22.87195301 1.38869667 C-16.95226299 3.14860451 -11.45560309 5.78564272 -5.87195301 8.38869667 C-5.58320301 7.62557167 -5.29445301 6.86244667 -4.99695301 6.07619667 C-2.68698135 0.55793105 -2.68698135 0.55793105 0 0 Z M-3.87195301 12.38869667 C-3.87195301 13.04869667 -3.87195301 13.70869667 -3.87195301 14.38869667 C-4.91996082 13.88338417 -5.96796864 13.37807167 -7.04773426 12.85744667 C-8.42649614 12.2008934 -9.80541037 11.54466002 -11.18445301 10.88869667 C-11.87474598 10.55482948 -12.56503895 10.2209623 -13.27624989 9.87697792 C-17.39184073 7.9157619 -17.39184073 7.9157619 -21.87195301 7.38869667 C-28.87136302 14.74432222 -28.87136302 14.74432222 -31.99695301 24.00588417 C-31.19333417 26.35814349 -30.17325446 28.27259856 -28.87195301 30.38869667 C-28.12260797 31.96258055 -27.39314771 33.54609493 -26.68445301 35.13869667 C-26.34027332 35.83479042 -25.99609364 36.53088417 -25.64148426 37.24807167 C-24.70691195 39.84779567 -24.55103491 41.64163769 -24.87195301 44.38869667 C-26.05164051 46.53713417 -26.05164051 46.53713417 -27.74695301 48.76369667 C-30.88811689 53.0280646 -33.88925519 57.34698151 -36.80945301 61.76369667 C-39.27303836 65.48970458 -41.73691387 69.21141591 -44.28992176 72.87697792 C-45.01824207 73.93272011 -45.74656239 74.9884623 -46.49695301 76.07619667 C-47.14921864 77.00818886 -47.80148426 77.94018105 -48.47351551 78.90041542 C-50.19857723 81.49414799 -50.19857723 81.49414799 -49.87195301 85.38869667 C-49.01238428 87.39151078 -49.01238428 87.39151078 -47.73914051 89.38088417 C-47.26968006 90.15738319 -46.80021961 90.93388222 -46.31653309 91.73391151 C-45.79857166 92.56874062 -45.28061024 93.40356972 -44.74695301 94.26369667 C-43.94584095 95.57588173 -43.94584095 95.57588173 -43.12854481 96.91457558 C-38.46456145 104.51788573 -33.7685436 112.11678838 -28.8358202 119.54909706 C-25.7960785 124.15044613 -23.16528068 128.40492866 -21.54504871 133.70095253 C-19.8856212 136.8678963 -17.75553982 139.31567656 -14.87195301 141.38869667 C-12.08037233 142.05734662 -10.00486567 142.37595778 -7.20398426 142.45510292 C-6.4912183 142.49499336 -5.77845234 142.5348838 -5.04408741 142.57598305 C2.34729441 142.93036611 9.73999009 142.73334788 17.12804699 142.38869667 C16.78024181 142.93807899 16.43243664 143.48746132 16.07409191 144.05349159 C14.48730779 146.56067923 12.90141975 149.06843248 11.31554699 151.57619667 C10.76833996 152.44051308 10.22113293 153.30482948 9.65734386 154.1953373 C8.6021915 155.86439649 7.55108559 157.53602231 6.50451183 159.21047401 C5.42905849 160.91235317 4.31174258 162.58779714 3.17882824 164.25197792 C1.9431754 166.26605273 1.9431754 166.26605273 2.36388683 168.18410683 C3.33645094 170.98993874 4.73577846 173.2754237 6.30382824 175.79885292 C6.96068615 176.86120155 7.61754406 177.92355019 8.29430676 179.0180912 C9.00955518 180.16256282 9.72497256 181.30692886 10.44054699 182.45119667 C11.17522392 183.63438974 11.90951406 184.81782305 12.64342785 186.00148964 C17.73112692 194.1959 22.87048147 202.35783788 28.03820324 210.50197792 C32.41556142 217.40879796 36.73293526 224.35335207 41.05407238 231.29543495 C42.7387979 233.99740004 44.43186991 236.69391152 46.12804699 239.38869667 C46.54183605 240.05820351 46.95562511 240.72771034 47.38195324 241.41750526 C48.24345135 242.77690796 49.17621331 244.09094195 50.12804699 245.38869667 C50.78804699 245.38869667 51.44804699 245.38869667 52.12804699 245.38869667 C53.51825372 243.54991493 53.51825372 243.54991493 54.89367199 241.13088417 C55.44651867 240.20686806 55.99936535 239.28285194 56.56896496 238.33083534 C57.16596203 237.31867958 57.7629591 236.30652382 58.37804699 235.26369667 C59.65477491 233.13103691 60.93346917 230.99955326 62.21398449 228.86916542 C62.86721691 227.78168007 63.52044933 226.69419472 64.19347668 225.57375526 C67.05640902 220.86025005 70.02277115 216.21608046 73.00304699 211.57619667 C78.1353958 203.5679378 83.15953155 195.49958491 88.12804699 187.38869667 C93.68302156 178.32240152 99.3234668 169.31827679 105.05211926 160.36086464 C109.4853297 153.42132344 113.83736621 146.43478497 118.1617384 139.42702675 C127.00770395 125.09345964 135.9494391 110.81912635 144.94054699 96.57619667 C145.43820568 95.78777382 145.93586437 94.99935097 146.44860363 94.18703651 C148.31551415 91.23430007 150.19006914 88.29566344 152.12804699 85.38869667 C152.06716597 80.10279186 148.45934436 76.11584966 145.52648449 71.98244667 C144.38550048 70.33555992 143.2448866 68.68841669 142.10460949 67.04104042 C140.30151674 64.45654182 138.49377256 61.87553224 136.67882824 59.2993412 C134.92747096 56.80669631 133.19482804 54.30186138 131.46398449 51.79494667 C130.91511578 51.02710854 130.36624706 50.2592704 129.80074596 49.46816444 C126.10856597 44.09171281 126.10856597 44.09171281 126.20641613 40.56057167 C127.9396299 36.47615586 129.87805809 32.51808608 131.85070324 28.54494667 C133.47391829 24.5499771 133.47391829 24.5499771 133.12804699 20.38869667 C131.53175871 17.95720756 129.9660132 15.80410977 128.12804699 13.57619667 C127.4126173 12.67997597 127.4126173 12.67997597 126.68273449 11.7656498 C125.50860464 10.29798749 124.31973896 8.84213528 123.12804699 7.38869667 C117.87891939 9.03342332 113.03644252 10.87464042 108.12804699 13.38869667 C107.46804699 13.38869667 106.80804699 13.38869667 106.12804699 13.38869667 C105.24603538 11.93615797 104.41180638 10.45444496 103.60192394 8.96048927 C101.42143269 5.54014898 101.42143269 5.54014898 98.03390026 3.53568268 C95.50311819 3.22517353 93.09539632 3.18303348 90.54601574 3.24001503 C89.59892742 3.22585045 88.6518391 3.21168587 87.67605114 3.19709206 C84.55431471 3.16265638 81.43722072 3.19361803 78.31554699 3.22854042 C76.14130569 3.22501598 73.96706728 3.21867285 71.79284191 3.20963478 C67.23957956 3.20088528 62.68791057 3.22412001 58.13488293 3.27028847 C52.30312128 3.32716732 46.47458581 3.30802183 40.64280224 3.26533604 C36.15411261 3.24029241 31.66617897 3.25386091 27.17751598 3.27923203 C25.02776696 3.28707426 22.87794311 3.28334239 20.7282362 3.26776886 C17.72040471 3.25212367 14.71744823 3.28805637 11.71007824 3.33767128 C10.82470379 3.32304848 9.93932934 3.30842567 9.02712536 3.29335976 C2.15214192 3.49359343 -0.77055172 6.32227069 -3.87195301 12.38869667 Z " fill="#74E700" transform="translate(76.87195301055908,-0.38869667053222656)"/>
<path d="M0 0 C3.27853204 1.21164951 5.06733974 2.94897196 7.2421875 5.6328125 C7.83386719 6.35726562 8.42554688 7.08171875 9.03515625 7.828125 C9.64230469 8.58609375 10.24945313 9.3440625 10.875 10.125 C11.77412109 11.22714844 11.77412109 11.22714844 12.69140625 12.3515625 C13.88808511 13.82599546 15.07536996 15.30810462 16.25292969 16.79785156 C17.42047259 18.26951688 18.60896116 19.72479794 19.81738281 21.16308594 C20.37522461 21.84918945 20.93306641 22.53529297 21.5078125 23.2421875 C22.01199707 23.84659668 22.51618164 24.45100586 23.03564453 25.07373047 C24.38106819 27.76117166 23.86657192 29.16706005 23 32 C22.39637624 33.51054617 21.74053144 35.00108086 21.0390625 36.46875 C20.64976562 37.28730469 20.26046875 38.10585937 19.859375 38.94921875 C19.45203125 39.79097656 19.0446875 40.63273437 18.625 41.5 C18.22539062 42.34175781 17.82578125 43.18351562 17.4140625 44.05078125 C15.44881641 48.15581831 13.4442609 52.15226026 11 56 C7.79226799 52.86466472 4.81487072 49.67859943 2 46.1875 C1.23300781 45.24003906 0.46601563 44.29257813 -0.32421875 43.31640625 C-0.74493652 42.79449707 -1.1656543 42.27258789 -1.59912109 41.73486328 C-3.17209715 39.78687307 -4.75159185 37.84428338 -6.33203125 35.90234375 C-12.73541964 28.03345423 -12.73541964 28.03345423 -14.59228516 25.71972656 C-15.83505744 24.20150111 -17.13808882 22.73303668 -18.44921875 21.2734375 C-20 19 -20 19 -19.83105469 17.0715332 C-18.7737156 14.4359509 -17.45979412 13.3588756 -15.25390625 11.58203125 C-14.12178711 10.66067383 -14.12178711 10.66067383 -12.96679688 9.72070312 C-12.17337891 9.09099609 -11.37996094 8.46128906 -10.5625 7.8125 C-9.37817383 6.85053711 -9.37817383 6.85053711 -8.16992188 5.86914062 C-2.36453277 1.18226638 -2.36453277 1.18226638 0 0 Z " fill="#202020" transform="translate(158,44)"/>
<path d="M0 0 C3.62104791 1.28908199 6.26812542 2.79002898 9.20703125 5.2578125 C9.95791016 5.88300781 10.70878906 6.50820313 11.48242188 7.15234375 C12.25134766 7.80332031 13.02027344 8.45429687 13.8125 9.125 C14.60076172 9.78371094 15.38902344 10.44242188 16.20117188 11.12109375 C18.1389481 12.74177932 20.07161245 14.3681652 22 16 C21.40206762 19.21190226 20.39819881 21.06250444 18.296875 23.546875 C17.45346558 24.55596924 17.45346558 24.55596924 16.59301758 25.58544922 C15.98482178 26.29975098 15.37662598 27.01405273 14.75 27.75 C13.47722745 29.26769508 12.20510837 30.78593838 10.93359375 32.3046875 C10.28245605 33.0790918 9.63131836 33.85349609 8.96044922 34.65136719 C5.30979081 39.02488324 1.74667136 43.46969914 -1.82324219 47.90917969 C-2.58169434 48.84745605 -2.58169434 48.84745605 -3.35546875 49.8046875 C-4.01518677 50.62428955 -4.01518677 50.62428955 -4.68823242 51.46044922 C-6.05117809 53.06006496 -7.49524159 54.53405098 -9 56 C-9.77923828 54.44152344 -9.77923828 54.44152344 -10.57421875 52.8515625 C-10.9101001 52.18036377 -11.24598145 51.50916504 -11.59204102 50.81762695 C-12.32482027 49.35092526 -13.05576616 47.88330623 -13.78491211 46.41479492 C-15.37665002 43.21397529 -16.98209117 40.03319381 -18.6796875 36.88671875 C-19.13601562 36.03722656 -19.59234375 35.18773437 -20.0625 34.3125 C-20.46597656 33.58675781 -20.86945313 32.86101562 -21.28515625 32.11328125 C-22.26933082 29.20378157 -22.05809509 27.90012299 -21 25 C-19.22705033 22.66868631 -17.45990398 20.53519923 -15.5 18.375 C-14.410388 17.1415697 -13.32185906 15.90718185 -12.234375 14.671875 C-11.69103516 14.05892578 -11.14769531 13.44597656 -10.58789062 12.81445312 C-6.9381729 8.64398847 -3.48296878 4.3097341 0 0 Z " fill="#202020" transform="translate(96,44)"/>
<path d="M0 0 C11.22 0 22.44 0 34 0 C32.02 2.31 30.04 4.62 28 7 C27.319375 7.969375 26.63875 8.93875 25.9375 9.9375 C24 12 24 12 21.25 12.3125 C20.13625 12.1578125 20.13625 12.1578125 19 12 C19 14.97 19 17.94 19 21 C17.68 21 16.36 21 15 21 C15 18.03 15 15.06 15 12 C14.27296875 12.10054687 13.5459375 12.20109375 12.796875 12.3046875 C8.84786952 11.87448858 7.77160718 10.11200447 5.25 7.125 C4.47140625 6.22007813 3.6928125 5.31515625 2.890625 4.3828125 C1 2 1 2 0 0 Z " fill="#242424" transform="translate(111,88)"/>
<path d="M0 0 C4.18238834 0.54769371 6.59868545 2.89888889 9.75 5.5625 C11.22726563 6.80193359 11.22726563 6.80193359 12.734375 8.06640625 C13.48203125 8.70449219 14.2296875 9.34257813 15 10 C14 13 14 13 12 14 C7.81855989 14.39447548 5.69053952 14.45035186 2.125 12.125 C-0.50566574 9.49433426 -0.96967655 8.72776278 -1.125 5 C-1 2 -1 2 0 0 Z " fill="#F6F6F6" transform="translate(96,51)"/>
<path d="M0 0 C0.99 0 1.98 0 3 0 C4.47164835 7.2356044 4.47164835 7.2356044 2.1875 10.9375 C-0.67761136 13.63889071 -1.44195001 13.96956091 -5.4375 14.1875 C-9 14 -9 14 -12 12 C-10.74529745 8.23589234 -9.116163 7.2740914 -6 4.875 C-5.0925 4.17117187 -4.185 3.46734375 -3.25 2.7421875 C-2.5075 2.16726562 -1.765 1.59234375 -1 1 C-0.67 0.67 -0.34 0.34 0 0 Z " fill="#F7F7F7" transform="translate(157,51)"/>
</svg>
