<?xml version="1.0" encoding="UTF-8"?>
<svg version="1.1" xmlns="http://www.w3.org/2000/svg" width="256" height="256">
<path d="M0 0 C3.7114991 -0.56993057 4.9509345 -0.03374026 8.1015625 2.1328125 C9.28493814 3.11963663 10.45882576 4.11790646 11.625 5.125 C12.95806927 6.23522385 14.29415076 7.34183825 15.6328125 8.4453125 C16.33954102 9.02829102 17.04626953 9.61126953 17.77441406 10.21191406 C21.58534746 13.2737039 25.54438653 16.12921562 29.5 19 C36.2469284 23.91144217 42.84077484 28.96159728 49.28125 34.26953125 C50.83340888 35.53883657 52.41518202 36.77171454 54 38 C54.55131592 38.44021484 55.10263184 38.88042969 55.6706543 39.33398438 C59.53869674 40.43995018 62.73699355 38.51016471 66.2734375 36.984375 C67.07480133 36.65334778 67.87616516 36.32232056 68.70181274 35.98126221 C71.26585563 34.91864654 73.82036843 33.83502135 76.375 32.75 C78.9242523 31.6839578 81.47526844 30.62224504 84.02676392 29.56158447 C85.61343941 28.90016301 87.1984724 28.23478318 88.78158569 27.56488037 C92.80990704 25.86686058 96.82618196 24.31717798 101 23 C99.4989989 27.96484978 97.42259632 32.41683691 95.0859375 37.0234375 C94.71143463 37.76961334 94.33693176 38.51578918 93.95108032 39.28457642 C92.76282034 41.64996797 91.56900618 44.0125047 90.375 46.375 C89.56473474 47.98549127 88.75483502 49.59616651 87.9453125 51.20703125 C85.96776546 55.14016234 83.98523484 59.07074408 82 63 C84.32082504 65.38019572 86.61716363 67.58550119 89.29296875 69.55859375 C89.91526367 70.02072266 90.53755859 70.48285156 91.17871094 70.95898438 C91.84161133 71.44689453 92.50451172 71.93480469 93.1875 72.4375 C94.61375285 73.49806401 96.03951673 74.55928582 97.46484375 75.62109375 C98.20460449 76.1713623 98.94436523 76.72163086 99.70654297 77.28857422 C103.57015384 80.17168175 107.4132385 83.08129542 111.25 86 C111.96438232 86.53939209 112.67876465 87.07878418 113.41479492 87.63452148 C122.6053605 94.63669991 122.6053605 94.63669991 123.6875 98.375 C122.9028339 101.37099785 122.27079685 101.8660768 119.94921875 103.78515625 C119.31314697 104.31173828 118.6770752 104.83832031 118.02172852 105.38085938 C114.76061799 107.9925832 111.4564242 110.54125314 108.125 113.0625 C106.61714516 114.20957976 105.10933388 115.35671679 103.6015625 116.50390625 C102.8374707 117.08414551 102.07337891 117.66438477 101.28613281 118.26220703 C97.68450313 120.99996868 94.09254286 123.75033259 90.5 126.5 C89.08338421 127.58339986 87.66671743 128.66673305 86.25 129.75 C85.54875 130.28625 84.8475 130.8225 84.125 131.375 C82 133 79.875 134.625 77.75 136.25 C76.6986084 137.05401245 76.6986084 137.05401245 75.62597656 137.87426758 C74.20607316 138.96006647 72.78615122 140.04584112 71.36621094 141.1315918 C67.87391567 143.80200585 64.38191954 146.47280895 60.890625 149.14453125 C54.79081228 153.81172475 48.68935888 158.47667032 42.578125 163.12890625 C41.65161133 163.83426514 40.72509766 164.53962402 39.77050781 165.26635742 C37.97852493 166.63024147 36.18622832 167.99371345 34.39355469 169.35668945 C33.56243164 169.98921631 32.73130859 170.62174316 31.875 171.2734375 C31.06417969 171.88670898 30.25335938 172.49998047 29.41796875 173.13183594 C27.77274898 174.40296091 26.15078256 175.70463377 24.55078125 177.03222656 C23.38095703 177.99467285 23.38095703 177.99467285 22.1875 178.9765625 C21.50042969 179.55744629 20.81335938 180.13833008 20.10546875 180.73681641 C17.5401247 182.27590385 15.94347124 182.32170791 13 182 C12.67 181.67 12.34 181.34 12 181 C12.3470167 174.44227406 14.91252951 168.99957018 17.5625 163.0625 C17.98724609 162.09248047 18.41199219 161.12246094 18.84960938 160.12304688 C19.89210953 157.74520943 20.94237239 155.37113802 22 153 C21.38745361 153.26401611 20.77490723 153.52803223 20.14379883 153.80004883 C4.35293775 160.59994802 -11.47042153 167.32036984 -27.3125 174 C-60.25450437 187.89118975 -93.15432108 201.88246746 -126 216 C-126.33 215.34 -126.66 214.68 -127 214 C-126.0952301 211.70944214 -126.0952301 211.70944214 -124.63500977 208.81591797 C-124.09437393 207.73494843 -123.5537381 206.65397888 -122.99671936 205.54025269 C-122.10308937 203.78396042 -122.10308937 203.78396042 -121.19140625 201.9921875 C-120.58393473 200.78470232 -119.97716736 199.57686265 -119.37107849 198.36868286 C-117.77191407 195.18564591 -116.16319924 192.00752943 -114.55249023 188.83032227 C-112.9113921 185.58900168 -111.27931368 182.34314782 -109.64648438 179.09765625 C-106.43983399 172.7272891 -103.22307862 166.36207321 -100 160 C-103.76510066 160 -106.16077248 161.16783475 -109.63671875 162.625 C-110.27615921 162.89135254 -110.91559967 163.15770508 -111.57441711 163.43212891 C-113.61422485 164.28313026 -115.6508573 165.14145535 -117.6875 166 C-119.07076062 166.57861036 -120.45422192 167.15674121 -121.83789062 167.734375 C-125.22760587 169.15069533 -128.61451212 170.57359965 -132 172 C-133 169 -133 169 -131.69921875 165.875 C-131.03905257 164.57798364 -130.36757048 163.28669148 -129.6875 162 C-129.32648193 161.29721924 -128.96546387 160.59443848 -128.59350586 159.87036133 C-126.61069626 156.02658604 -124.58168417 152.20732482 -122.5546875 148.38671875 C-121.72386901 146.82035987 -120.89314087 145.25395307 -120.0625 143.6875 C-119.4296106 142.49640625 -119.4296106 142.49640625 -118.78393555 141.28125 C-115.86788833 135.75505409 -113.13869368 130.16326712 -110.5 124.5 C-106.7525936 116.46571268 -102.73070184 108.61187132 -98.546875 100.796875 C-96.78092836 97.49626903 -95.06970567 94.17373716 -93.390625 90.828125 C-92.9587085 89.97798828 -92.52679199 89.12785156 -92.08178711 88.25195312 C-91.26472142 86.64139549 -90.45742268 85.02582617 -89.66235352 83.40429688 C-83.83966508 72.03008986 -75.38324655 67.75450614 -64 63 C-63.33145996 62.71892395 -62.66291992 62.4378479 -61.97412109 62.14825439 C-57.75748342 60.38450105 -53.52227722 58.66961838 -49.27816772 56.97317505 C-45.28234688 55.37588513 -41.29205026 53.76487185 -37.30078125 52.15625 C-36.47129471 51.82238785 -35.64180817 51.4885257 -34.78718567 51.14454651 C-24.90206019 47.1625456 -15.04472328 43.1129613 -5.1875 39.0625 C-3.45508428 38.35097785 -1.72266256 37.6394703 0.00976562 36.92797852 C4.00684814 35.28613973 8.00354817 33.64337333 12 32 C12 28.51220908 11.11849191 26.77253479 9.62890625 23.6328125 C9.13712891 22.58222656 8.64535156 21.53164063 8.13867188 20.44921875 C7.3584668 18.80373047 7.3584668 18.80373047 6.5625 17.125 C5.53793794 14.96331476 4.51821683 12.79932687 3.50390625 10.6328125 C3.04830322 9.67262207 2.5927002 8.71243164 2.12329102 7.72314453 C1.05432841 5.13170596 0.44148279 2.76060097 0 0 Z " fill="#000000" transform="translate(133,20)"/>
<path d="M0 0 C-1.43408718 4.68645638 -3.35723221 8.99292787 -5.5625 13.35546875 C-5.91328613 14.05658279 -6.26407227 14.75769684 -6.62548828 15.48005676 C-7.37001126 16.96609033 -8.11647138 18.45115476 -8.86474609 19.93530273 C-9.97288175 22.1337009 -11.07488897 24.33507675 -12.17578125 26.53710938 C-15.9443463 34.05476423 -19.79293752 41.52287273 -23.73828125 48.94921875 C-27.76426906 56.5399528 -31.61622421 64.20878758 -35.41796875 71.9140625 C-35.97042267 73.03156387 -36.52287659 74.14906525 -37.09207153 75.3004303 C-39.37156057 79.91339919 -41.64972341 84.52692214 -43.9128418 89.14794922 C-45.59277113 92.57465173 -47.2855459 95.99475654 -48.98046875 99.4140625 C-49.73229683 100.96113388 -49.73229683 100.96113388 -50.49931335 102.53945923 C-54.6912666 110.95435279 -59.48203054 118.78411844 -67.3125 124.25 C-68.15425781 124.85328125 -68.99601562 125.4565625 -69.86328125 126.078125 C-78.28873312 131.2404193 -87.41206452 134.98841929 -96.5 138.8125 C-97.67820312 139.31458984 -98.85640625 139.81667969 -100.0703125 140.33398438 C-101.19179687 140.80771484 -102.31328125 141.28144531 -103.46875 141.76953125 C-104.99145508 142.41305542 -104.99145508 142.41305542 -106.54492188 143.06958008 C-109 144 -109 144 -111 144 C-109.27358422 137.97059955 -106.40554039 132.55894599 -103.58984375 126.984375 C-103.06234024 125.93219788 -102.53483673 124.88002075 -101.99134827 123.79595947 C-100.31048891 120.4454045 -98.62408138 117.0976777 -96.9375 113.75 C-95.79846003 111.48195566 -94.65978403 109.21372849 -93.52148438 106.9453125 C-91.0236588 101.96931307 -88.52233994 96.995088 -86.01792908 92.0223999 C-85.34351563 90.68248957 -84.67084919 89.34169838 -84 88 C-85.43835205 88.59856812 -85.43835205 88.59856812 -86.90576172 89.20922852 C-90.45463655 90.68369514 -94.00764491 92.14795869 -97.56201172 93.60913086 C-99.10157649 94.24370975 -100.63999667 94.88107285 -102.17724609 95.52124023 C-104.38346116 96.43942968 -106.59356072 97.34762032 -108.8046875 98.25390625 C-109.83914505 98.68818687 -109.83914505 98.68818687 -110.89450073 99.13124084 C-112.57336841 99.81363967 -114.28485028 100.41474254 -116 101 C-116.66 100.67 -117.32 100.34 -118 100 C-114.16469802 92.25976949 -110.32285377 84.52283185 -106.47270584 76.78997517 C-104.68497635 73.19888568 -102.89948824 69.60671855 -101.11914062 66.01196289 C-99.39971441 62.54042439 -97.67437759 59.0718825 -95.94496918 55.60530663 C-95.28744573 54.28473287 -94.6320294 52.96310772 -93.97879791 51.64040565 C-93.06082204 49.78255747 -92.13530523 47.92864873 -91.20800781 46.07543945 C-90.68394348 45.02064896 -90.15987915 43.96585846 -89.61993408 42.87910461 C-84.82166567 34.3511547 -78.20932453 30.8397744 -69.421875 27.3828125 C-68.58928162 27.04864822 -67.75668823 26.71448395 -66.89886475 26.37019348 C-64.18500152 25.28228512 -61.46755384 24.20365204 -58.75 23.125 C-55.91964223 21.99338058 -53.09025188 20.85936845 -50.26098633 19.72502136 C-48.341844 18.95558722 -46.42240844 18.18688404 -44.50268555 17.41889954 C-38.23071357 14.90680277 -31.97584894 12.35643457 -25.734375 9.76953125 C-24.94238708 9.4414447 -24.15039917 9.11335815 -23.33441162 8.77532959 C-20.31690009 7.52412015 -17.30000723 6.27148681 -14.28552246 5.01300049 C-12.24361106 4.16074509 -10.20007289 3.31250235 -8.15625 2.46484375 C-7.00962891 1.986521 -5.86300781 1.50819824 -4.68164062 1.01538086 C-2 0 -2 0 0 0 Z " fill="#FDFDFD" transform="translate(143,67)"/>
<path d="M0 0 C0.495 0.99 0.495 0.99 1 2 C-0.57028747 6.22249136 -2.6801681 10.22032914 -4.6875 14.25 C-5.12991531 15.13903015 -5.12991531 15.13903015 -5.58126831 16.04602051 C-10.20717851 25.26187811 -15.30344736 33.03162549 -22.48974609 40.41259766 C-25.24555577 43.3091826 -27.79338701 46.38624585 -30.375 49.4375 C-31.31945606 50.5410981 -32.26473843 51.6439897 -33.2109375 52.74609375 C-33.66049805 53.27058105 -34.11005859 53.79506836 -34.57324219 54.33544922 C-37.04882812 57.22363281 -39.52441406 60.11181641 -42 63 C-34.99593453 60.76188601 -28.22723357 58.12994735 -21.4375 55.3125 C-20.42880859 54.89677734 -19.42011719 54.48105469 -18.38085938 54.05273438 C-15.9194494 53.03784021 -13.45920717 52.02021747 -11 51 C-10.67 51.66 -10.34 52.32 -10 53 C-10.75683594 54.8918457 -10.75683594 54.8918457 -11.984375 57.17578125 C-12.64566406 58.41811523 -12.64566406 58.41811523 -13.3203125 59.68554688 C-13.79210937 60.55244141 -14.26390625 61.41933594 -14.75 62.3125 C-15.20632812 63.16779297 -15.66265625 64.02308594 -16.1328125 64.90429688 C-17.02162432 66.56247037 -17.92301539 68.21397308 -18.83789062 69.85791016 C-20.08100356 72.07247775 -20.08100356 72.07247775 -21.203125 74.79296875 C-26.544937 81.35410741 -37.89857057 84.13062384 -45.54296875 87.23046875 C-46.71080399 87.70696365 -47.87863922 88.18345856 -49.0818634 88.6743927 C-51.53419675 89.67379519 -53.98710116 90.67161374 -56.44116211 91.66674805 C-59.5699457 92.93572589 -62.69587848 94.21156192 -65.82102489 95.48946667 C-68.83103847 96.71924265 -71.84334626 97.9433692 -74.85546875 99.16796875 C-75.96915329 99.62318405 -77.08283783 100.07839935 -78.23027039 100.54740906 C-83.43865167 102.65481346 -88.55248887 104.61276972 -94 106 C-81.93596233 79.83304588 -81.93596233 79.83304588 -72.35546875 69.5625 C-68.36013757 65.21600373 -64.70909629 60.59040293 -61 56 C-59.31534974 53.93515378 -57.62630626 51.87395366 -55.9375 49.8125 C-55.18339844 48.89082031 -54.42929688 47.96914062 -53.65234375 47.01953125 C-53.10707031 46.35308594 -52.56179687 45.68664062 -52 45 C-56.35867601 46.376424 -60.63987218 47.83110957 -64.8671875 49.5703125 C-65.53806396 49.84601074 -66.20894043 50.12170898 -66.90014648 50.40576172 C-68.25144617 50.9657131 -69.59997989 51.5323896 -70.94555664 52.10595703 C-72.60781211 52.79451085 -74.30234624 53.40403749 -76 54 C-76.66 53.67 -77.32 53.34 -78 53 C-76.3268323 49.35488466 -74.62119235 45.72698787 -72.88525391 42.11132812 C-72.30048917 40.88180625 -71.72444588 39.64809396 -71.15771484 38.41015625 C-70.33708521 36.62178938 -69.48126432 34.84970635 -68.625 33.078125 C-68.12226563 32.00981445 -67.61953125 30.94150391 -67.1015625 29.84082031 C-64.25757673 25.99641762 -61.35115918 24.78806586 -57 23 C-56.08374847 22.61029022 -55.16749695 22.22058044 -54.22348022 21.81906128 C-50.99631962 20.46412081 -47.75621733 19.1448922 -44.51171875 17.83203125 C-43.33156693 17.35174973 -42.1514151 16.8714682 -40.9355011 16.37663269 C-38.45425479 15.36751524 -35.97257431 14.35957106 -33.48999023 13.35375977 C-30.31018147 12.06544454 -27.13186567 10.77349545 -23.95407391 9.48021412 C-20.91129798 8.24206623 -17.86777354 7.0057631 -14.82421875 5.76953125 C-13.68361496 5.30601761 -12.54301117 4.84250397 -11.36784363 4.36494446 C-10.31277115 3.93747421 -9.25769867 3.51000397 -8.1706543 3.06958008 C-7.24214157 2.69303787 -6.31362885 2.31649567 -5.35697937 1.92854309 C-3.59121316 1.2329112 -1.80045845 0.60015282 0 0 Z " fill="#FDFDFD" transform="translate(207,67)"/>
<path d="M0 0 C3.55921025 1.28259128 6.28671741 2.77331329 9.25 5.1171875 C10.41015625 6.02791016 10.41015625 6.02791016 11.59375 6.95703125 C12.3878125 7.58996094 13.181875 8.22289063 14 8.875 C15.19109375 9.81279297 15.19109375 9.81279297 16.40625 10.76953125 C20.28562937 13.82777532 24.14715176 16.9084 28 20 C27.7424176 23.21610022 26.93103713 24.0619062 24.48046875 26.26171875 C23.39089366 27.08116931 22.29264143 27.88916703 21.1875 28.6875 C20.0064853 29.5624661 18.82549633 30.43746693 17.64453125 31.3125 C17.0407666 31.75464844 16.43700195 32.19679687 15.81494141 32.65234375 C14.04296567 33.96809651 12.30556867 35.31887567 10.57421875 36.6875 C9.76658081 37.31845581 9.76658081 37.31845581 8.94262695 37.9621582 C7.446272 39.13178996 5.95351207 40.30601664 4.4609375 41.48046875 C3.64882812 41.98191406 2.83671875 42.48335937 2 43 C1.01 42.67 0.02 42.34 -1 42 C-0.36771484 40.87851563 -0.36771484 40.87851563 0.27734375 39.734375 C0.82519531 38.74953125 1.37304688 37.7646875 1.9375 36.75 C2.75541016 35.28820312 2.75541016 35.28820312 3.58984375 33.796875 C6.72020107 27.58818846 7.31042128 20.16480426 5.2109375 13.4921875 C4.22465246 11.27116394 3.15559582 9.13723098 2 7 C1.4225 5.824375 0.845 4.64875 0.25 3.4375 C-0.1625 2.633125 -0.575 1.82875 -1 1 C-0.67 0.67 -0.34 0.34 0 0 Z " fill="#BCD431" transform="translate(214,97)"/>
<path d="M0 0 C-3.48008904 10.39055157 -3.48008904 10.39055157 -7.65820312 13.05908203 C-11.62264401 14.87559635 -15.7588041 16.00070453 -20 17 C-16.11559606 4.82655552 -16.11559606 4.82655552 -10.5546875 1.56640625 C-3.8166452 -1.27221507 -3.8166452 -1.27221507 0 0 Z " fill="#050505" transform="translate(89,113)"/>
</svg>
