<?xml version="1.0" encoding="UTF-8"?>
<svg version="1.1" xmlns="http://www.w3.org/2000/svg" width="320" height="320">
<path d="M0 0 C19.8 0 39.6 0 60 0 C60.60969364 45.72702267 60.60969364 45.72702267 56 60 C55.76442383 60.73025391 55.52884766 61.46050781 55.28613281 62.21289062 C52.75569506 69.80089611 49.5864485 76.827103 46 84 C53.92 76.08 61.84 68.16 70 60 C73.64066196 61.82033098 75.46363572 63.20558052 78.28413391 66.00325012 C79.13249313 66.84018906 79.98085236 67.67712799 80.85491943 68.53942871 C81.77718323 69.45945679 82.69944702 70.37948486 83.6496582 71.32739258 C84.63669723 72.30517056 85.62412892 73.2825523 86.61192322 74.25956726 C89.29018126 76.91162968 91.96178157 79.57029953 94.63141656 82.23103929 C96.29892892 83.89268543 97.96760642 85.55315272 99.63664818 87.21326256 C104.85724927 92.40653579 110.07384453 97.60378347 115.28466254 102.80687314 C121.30280243 108.81603809 127.33381231 114.81187998 133.37632495 120.79653436 C138.04595183 125.42298958 142.70404504 130.06085064 147.35347432 134.70760268 C150.13131427 137.48334329 152.91383355 140.25397804 155.70839882 143.01288795 C158.33423413 145.60586513 160.94549851 148.21266355 163.54613686 150.83090401 C164.9616335 152.24868528 166.39201481 153.65155647 167.82272339 155.0539856 C168.65698349 155.899384 169.49124359 156.74478241 170.3507843 157.61579895 C171.08394521 158.34602674 171.81710611 159.07625452 172.57248402 159.82861042 C174 162 174 162 173.82365322 164.64584827 C172.83205476 167.48001824 171.58322466 168.93659268 169.47753906 171.07177734 C168.73296448 171.83541595 167.98838989 172.59905457 167.22125244 173.38583374 C166.41089539 174.19436798 165.60053833 175.00290222 164.765625 175.8359375 C163.93544861 176.67468414 163.10527222 177.51343079 162.24993896 178.37759399 C160.49302834 180.14598433 158.73086041 181.90916473 156.96386719 183.66748047 C154.25659896 186.36841648 151.57707433 189.09492096 148.8984375 191.82421875 C147.18912268 193.53807824 145.47823703 195.25037281 143.765625 196.9609375 C142.96336487 197.78161713 142.16110474 198.60229675 141.33453369 199.44784546 C140.57735046 200.19257111 139.82016724 200.93729675 139.04003906 201.70458984 C138.37909241 202.36679535 137.71814575 203.02900085 137.03717041 203.71127319 C135 205 135 205 132.4130249 204.84487915 C128.95933599 203.6356294 127.14705275 201.56433717 124.625 198.9375 C123.73039063 198.01839844 122.83578125 197.09929687 121.9140625 196.15234375 C119.8236355 193.92722332 117.82125696 191.64038537 115.83226013 189.32446289 C111.98481478 184.92063471 107.91365924 180.77978759 103.76977539 176.65625 C102.58318329 175.46943886 102.58318329 175.46943886 101.37261963 174.25865173 C98.78333101 171.67005421 96.19052915 169.08500688 93.59765625 166.5 C91.79140209 164.69561288 89.98537005 162.89100339 88.17955017 161.08618164 C83.92817273 156.8382192 79.67457853 152.59248912 75.41987652 148.34785748 C70.57137828 143.5105833 65.72576009 138.67042841 60.8803674 133.83004379 C50.92341923 123.88351437 40.9629062 113.94056132 31 104 C25.17949818 108.82806406 19.8516521 114.03094588 14.53222656 119.40185547 C13.11587291 120.82538127 11.69951725 122.24890508 10.28308535 123.67235303 C8.77380121 125.18999534 7.26574376 126.70884753 5.75797272 128.22799301 C2.60977671 131.39938174 -0.54340909 134.5657776 -3.6975708 137.73123169 C-12.66129607 146.72829199 -21.62068995 155.72963569 -30.56982422 164.74121094 C-35.5224437 169.72830247 -40.48036297 174.71006005 -45.44429612 179.68589127 C-48.58307005 182.83277367 -51.71515264 185.9861231 -54.84252977 189.14432979 C-57.23892036 191.56042445 -59.64507648 193.96671594 -62.04980469 196.37451172 C-62.91634171 197.25340561 -63.78287872 198.1322995 -64.67567444 199.03782654 C-65.8657032 200.22383705 -65.8657032 200.22383705 -67.07977295 201.43380737 C-67.76847851 202.12657713 -68.45718407 202.81934689 -69.16675949 203.53310966 C-71 205 -71 205 -74 205 C-75.54516602 203.52630615 -75.54516602 203.52630615 -77.19140625 201.49121094 C-80.87170452 197.10199486 -84.828282 193.12548508 -88.9375 189.140625 C-90.42375736 187.68158045 -91.90941794 186.22192778 -93.39453125 184.76171875 C-95.71087552 182.48888319 -98.03075884 180.22018269 -100.36083984 177.96142578 C-102.6269213 175.76159018 -104.87705269 173.54646748 -107.125 171.328125 C-107.83003662 170.65203186 -108.53507324 169.97593872 -109.26147461 169.27935791 C-109.89964111 168.64479675 -110.53780762 168.0102356 -111.1953125 167.35644531 C-111.76266113 166.80321594 -112.33000977 166.24998657 -112.91455078 165.67999268 C-114 164 -114 164 -113.8195982 162.16762352 C-112.73515754 159.29956075 -111.1514146 157.79468422 -108.97187805 155.63803101 C-108.10410233 154.77191193 -107.2363266 153.90579285 -106.34225464 153.01342773 C-105.37322945 152.06139971 -104.40407847 151.10949972 -103.43481445 150.15771484 C-102.41911287 149.14940866 -101.40409963 148.14040867 -100.38972473 147.13076782 C-98.20310199 144.95702181 -96.01195522 142.7879774 -93.81728554 140.62235641 C-90.34140629 137.19184785 -86.87755707 133.74936331 -83.41557312 130.30484009 C-74.80993422 121.74626893 -66.18938101 113.20276127 -57.56414795 104.66394043 C-50.86954034 98.03617231 -44.17952902 91.40390617 -37.50328797 84.75763094 C-34.06883156 81.33959986 -30.62523839 77.93114433 -27.17426932 74.52978969 C-25.0184634 72.40082691 -22.87120279 70.26339772 -20.72610283 68.12365341 C-19.73721925 67.14061162 -18.74492639 66.16098426 -17.74881744 65.18526459 C-6.56244351 54.21976691 -0.81549557 44.65946873 -0.5859375 28.90625 C-0.56829346 28.16729492 -0.55064941 27.42833984 -0.5324707 26.66699219 C-0.47009573 23.94487 -0.42343403 21.22240592 -0.375 18.5 C-0.189375 9.3425 -0.189375 9.3425 0 0 Z " fill="#44D62C" transform="translate(130,57)"/>
</svg>
