<?xml version="1.0" encoding="UTF-8"?>
<svg version="1.1" xmlns="http://www.w3.org/2000/svg" width="256" height="256">
<path d="M0 0 C0.99 0.99 0.99 0.99 2 2 C3.97575299 2.09082076 3.97575299 2.09082076 6.234375 1.7578125 C7.10731201 1.66089111 7.98024902 1.56396973 8.87963867 1.46411133 C9.82685791 1.35220459 10.77407715 1.24029785 11.75 1.125 C27.5902384 -0.52521448 43.31128819 -0.370015 59.18823242 0.73168945 C63.21647983 1.12844107 63.21647983 1.12844107 67 0 C74.74406826 0.07134238 82.28281514 2.08182891 89.75 3.9375 C90.84699219 4.20240234 91.94398438 4.46730469 93.07421875 4.74023438 C98.12333455 5.97344266 103.10637 7.22905348 108 9 C108 9.66 108 10.32 108 11 C108.9075 11.0825 109.815 11.165 110.75 11.25 C115.85028599 12.42698907 117.28482079 14.89472304 120.0625 19.1875 C124.05642037 27.55421065 125.55365462 38.82040641 125 48 C124.1328125 50.203125 124.1328125 50.203125 123.125 52.25 C120.4726115 60.3948345 124.62859497 69.53749105 128 77 C129.58891032 79.5987511 131.23006694 81.75942783 133.25 84.02734375 C137.24505625 88.53069957 140.86015179 93.38950011 141.1875 99.5 C137.18601896 111.29383886 137.18601896 111.29383886 132.4375 115 C130 116 130 116 127.9375 116.65625 C125.69731649 117.91174445 125.69731649 117.91174445 125.12890625 120.90625 C124.84853516 122.68515625 124.84853516 122.68515625 124.5625 124.5 C122.97113722 132.82274226 120.63091562 139.46232113 114.625 145.5625 C110.41553349 149.98152869 108.64511812 155.30608888 106.74853516 161.01000977 C105.35359273 164.87732823 104.22846376 167.26629306 100.62109375 169.40625 C97.6016414 170.7351999 94.73844629 171.87987773 91.5625 172.75 C90.69753906 172.99234375 89.83257812 173.2346875 88.94140625 173.484375 C88.30074219 173.65453125 87.66007813 173.8246875 87 174 C87.11859375 175.2065625 87.2371875 176.413125 87.359375 177.65625 C87.49078664 179.27073584 87.62092727 180.88532549 87.75 182.5 C87.87181641 183.68722656 87.87181641 183.68722656 87.99609375 184.8984375 C88.44884733 191.03576378 87.13408389 194.77652686 84 200 C83.62359375 200.81210938 83.2471875 201.62421875 82.859375 202.4609375 C80.85558029 205.91818893 79.03467045 207.71876613 75.12036133 208.78271484 C62.65989081 210.26455533 50.22894337 210.30342959 37.69116211 210.26074219 C33.94173041 210.25001211 30.19277666 210.26069355 26.44335938 210.2734375 C-6.5850016 210.30027802 -6.5850016 210.30027802 -11.41040039 205.70410156 C-13.27798314 203.21266934 -14.65422791 200.80504303 -16 198 C-16.56847656 197.08476562 -17.13695312 196.16953125 -17.72265625 195.2265625 C-19.44149361 190.88478984 -18.90518559 187.65371118 -18.1875 183.125 C-18.02411133 181.949375 -18.02411133 181.949375 -17.85742188 180.75 C-17.58828286 178.83092181 -17.296428 176.91505283 -17 175 C-17.556875 174.82984375 -18.11375 174.6596875 -18.6875 174.484375 C-21.14393112 173.70429214 -23.57167305 172.86348893 -26 172 C-26.72703125 171.75636719 -27.4540625 171.51273438 -28.203125 171.26171875 C-33.69668768 169.04961622 -35.56752245 166.01302305 -37.90625 160.671875 C-38.44765625 159.34929687 -38.44765625 159.34929687 -39 158 C-39.74766939 156.35310661 -40.49752202 154.70720187 -41.25 153.0625 C-42.2905613 150.71270788 -43.18543236 148.44370293 -44 146 C-44.92619141 145.57460938 -44.92619141 145.57460938 -45.87109375 145.140625 C-50.47065029 142.67627544 -52.18121597 136.64743115 -54 132 C-54.88113341 128.28638195 -55.5894258 124.60855236 -56.1640625 120.8359375 C-56.71436923 117.91530206 -56.71436923 117.91530206 -58.8984375 116.6015625 C-61.11636701 115.86240344 -61.11636701 115.86240344 -64 116 C-67.99857794 111.40788315 -71.07980308 105.76059077 -73 100 C-72.28662153 94.75774914 -68.75131761 90.38555889 -66 86 C-65.59910156 85.34515625 -65.19820312 84.6903125 -64.78515625 84.015625 C-63.91590664 82.63794638 -62.96631254 81.31142417 -62 80 C-61.34 80 -60.68 80 -60 80 C-58.04810079 74.26299894 -56.20609365 68.4969855 -54.40625 62.7109375 C-54.05481934 61.58307831 -54.05481934 61.58307831 -53.69628906 60.43243408 C-52.71577707 57.28472264 -51.73573188 54.13688295 -50.76123047 50.98730469 C-50.04213136 48.66494469 -49.3183119 46.34409806 -48.59375 44.0234375 C-48.37803345 43.32221771 -48.16231689 42.62099792 -47.94006348 41.89852905 C-46.90089575 38.58243756 -45.77212486 35.39546054 -44.35351562 32.22119141 C-42.39823583 27.56787943 -42.64698111 23.76509444 -43.625 18.875 C-44.06904668 15.47064211 -43.74950603 13.94235105 -42 11 C-38.1627537 8.26596201 -34.2090486 7.05232287 -29.6875 5.95703125 C-28.99615967 5.78370773 -28.30481934 5.61038422 -27.5925293 5.43180847 C-26.13786599 5.06913812 -24.6821905 4.71050614 -23.22558594 4.35571289 C-21.00436568 3.81356556 -18.78730407 3.25642489 -16.5703125 2.69726562 C-15.15126384 2.34545681 -13.73199968 1.99451584 -12.3125 1.64453125 C-11.65403076 1.47895218 -10.99556152 1.31337311 -10.31713867 1.14277649 C-6.82533299 0.30089727 -3.59207167 -0.37741023 0 0 Z " fill="#0E0B0C" transform="translate(94,23)"/>
<path d="M0 0 C5.8492245 1.51987723 11.66668809 3.14166308 17.4375 4.9375 C18.40558594 5.23527344 19.37367188 5.53304687 20.37109375 5.83984375 C24.4977405 7.66096423 26.53599418 9.82777478 28.1875 14 C29.45828285 19.19659414 29.89055272 24.66234028 30 30 C29.67 30.33 29.34 30.66 29 31 C26.66055264 30.71269945 24.3260857 30.38063221 22 30 C22.33 32.64 22.66 35.28 23 38 C23.66 38 24.32 38 25 38 C25.75207536 40.22848559 26.50210666 42.45760976 27.25 44.6875 C27.47671387 45.36288818 27.70342773 46.03827637 27.93701172 46.73413086 C29.74503667 52.15503375 31.41173858 57.61026937 33.0078125 63.09765625 C34.07909919 66.23138069 35.45977728 69.07183647 37 72 C35.824375 71.67 34.64875 71.34 33.4375 71 C29.4988324 70.0030467 26.04860871 69.83130797 22 70 C21.67 70.66 21.34 71.32 21 72 C24.63 72.99 28.26 73.98 32 75 C32.3396019 76.87387477 32.67138691 78.74916697 33 80.625 C33.185625 81.66914062 33.37125 82.71328125 33.5625 83.7890625 C34.67381637 91.94533089 34.67381637 91.94533089 32.5625 95.25 C30.90913638 98.15991997 30.7602397 99.60240792 30.5625 102.875 C30.21570084 107.91112692 28.80319707 110.84041725 26 115 C25.34 115 24.68 115 24 115 C23.92652344 115.54527344 23.85304687 116.09054688 23.77734375 116.65234375 C22.69848529 119.91060473 20.77871267 121.9562339 18.5625 124.5625 C16.22275057 127.33038978 14.01124027 129.9831396 12 133 C7.62310792 134.9156832 3.86708616 135.22177727 -0.875 135.125 C-2.02742188 135.10695312 -3.17984375 135.08890625 -4.3671875 135.0703125 C-5.23601562 135.04710937 -6.10484375 135.02390625 -7 135 C-6.94199219 134.29617187 -6.88398438 133.59234375 -6.82421875 132.8671875 C-6.47347763 125.1909675 -8.01686654 119.64999853 -10.828125 112.55078125 C-12.37513368 107.86334496 -12.64797426 103.4558479 -12.76171875 98.546875 C-12.74244916 95.83210804 -12.74244916 95.83210804 -15 94 C-14.82597656 95.07701172 -14.82597656 95.07701172 -14.6484375 96.17578125 C-13.68200307 107.26216474 -18.49917233 114.54038415 -23.85546875 123.88427734 C-25.27288254 126.50443687 -26.29289809 129.18232498 -27.25 132 C-28.48620207 135.32157098 -28.83492736 135.88157832 -31.875 138.0625 C-41.67287061 141.00186118 -53.18751138 141.64163201 -62.77734375 137.6953125 C-66.51756508 134.8424899 -66.91245583 131.14502222 -67.8984375 126.703125 C-69.19612964 122.34067058 -71.23993644 119.1845252 -73.75 115.4375 C-78.01913442 108.8999922 -79.08632201 103.87248173 -78 96 C-78 95.34 -78 94.68 -78 94 C-78.99 94.66 -79.98 95.32 -81 96 C-80.7525 96.7734375 -80.7525 96.7734375 -80.5 97.5625 C-79.15461094 104.12127166 -80.51975261 109.59153066 -82.4375 115.8125 C-84.33558365 122.25268533 -85.67385425 128.25965453 -86 135 C-88.39652528 135.08139142 -90.79025436 135.14067009 -93.1875 135.1875 C-93.86103516 135.21263672 -94.53457031 135.23777344 -95.22851562 135.26367188 C-99.73016591 135.32954968 -102.44838871 134.78386404 -106 132 C-107.7734375 130.08984375 -107.7734375 130.08984375 -109.375 127.9375 C-109.96539062 127.14601563 -110.55578125 126.35453125 -111.1640625 125.5390625 C-111.76992187 124.70117188 -112.37578125 123.86328125 -113 123 C-113.62648438 122.14148438 -114.25296875 121.28296875 -114.8984375 120.3984375 C-119.63673443 113.78081606 -123.23936771 108.52977981 -123.59375 100.24609375 C-123.87337287 97.85828805 -123.87337287 97.85828805 -125.54296875 95.6640625 C-127.45899156 92.16077146 -127.17115409 89.88269495 -126.8125 85.9375 C-126.71582031 84.72964844 -126.61914062 83.52179688 -126.51953125 82.27734375 C-125.73897351 77.35337424 -125.73897351 77.35337424 -124 75 C-121.8359375 73.953125 -121.8359375 73.953125 -119.375 73.25 C-118.55773437 73.00765625 -117.74046875 72.7653125 -116.8984375 72.515625 C-116.27195312 72.34546875 -115.64546875 72.1753125 -115 72 C-115.33 71.34 -115.66 70.68 -116 70 C-121.19209404 69.78807779 -125.126739 70.4087311 -130 72 C-129.73058594 71.4946875 -129.46117187 70.989375 -129.18359375 70.46875 C-124.67424036 61.063102 -119 48.51680705 -119 38 C-117.23141309 37.32739649 -115.46003984 36.66211605 -113.6875 36 C-112.70136719 35.62875 -111.71523437 35.2575 -110.69921875 34.875 C-108 34 -108 34 -105 34 C-105 31.03 -105 28.06 -105 25 C-105.66 25 -106.32 25 -107 25 C-107.0825 25.94875 -107.165 26.8975 -107.25 27.875 C-108 31 -108 31 -109.875 32.375 C-112 33 -112 33 -115 33 C-113.38911325 25.21404737 -111.22479164 17.63034006 -109 10 C-108.33060568 7.6674359 -107.66510147 5.33379354 -107 3 C-104.36 3 -101.72 3 -99 3 C-98.94180084 3.66763367 -98.88360168 4.33526733 -98.82363892 5.02313232 C-98.21673512 11.96683221 -97.59849281 18.90945592 -96.97363281 25.8515625 C-96.74187456 28.44310016 -96.51301637 31.03489885 -96.28710938 33.62695312 C-95.96204081 37.35098417 -95.62658124 41.07395431 -95.2890625 44.796875 C-95.19001617 45.95741394 -95.09096985 47.11795288 -94.98892212 48.31365967 C-94.88896942 49.39447815 -94.78901672 50.47529663 -94.68603516 51.58886719 C-94.60165192 52.53928894 -94.51726868 53.48971069 -94.43032837 54.46893311 C-94.06643025 57.35208767 -94.06643025 57.35208767 -92 61 C-95.96 61.99 -99.92 62.98 -104 64 C-103.34 64.99 -102.68 65.98 -102 67 C-96.85378013 67.34889626 -92.07318687 66.84553115 -87 66 C-87.13277344 66.54527344 -87.26554687 67.09054688 -87.40234375 67.65234375 C-88.67789247 73.09902987 -89.46963843 78.43120352 -90 84 C-89.175 84.0825 -88.35 84.165 -87.5 84.25 C-83.23246079 85.16447269 -79.80763106 86.92223178 -76 89 C-76 88.34 -76 87.68 -76 87 C-76.99 86.67 -77.98 86.34 -79 86 C-79.18650502 79.96276356 -78.58053213 74.52304984 -77.3125 68.625 C-77.16361328 67.81933594 -77.01472656 67.01367188 -76.86132812 66.18359375 C-75.63321346 60.43312742 -75.63321346 60.43312742 -72.8984375 58.5625 C-71.46371094 58.2840625 -71.46371094 58.2840625 -70 58 C-69.36312256 57.86384277 -68.72624512 57.72768555 -68.07006836 57.58740234 C-54.800004 54.87083901 -43.33528835 54.47295432 -30 57 C-27.91676407 57.3755407 -25.83343584 57.75056994 -23.75 58.125 C-22.16649915 58.41575581 -20.58309905 58.70706435 -19 59 C-15.95971262 67.80361475 -13.44888779 76.63109239 -14 86 C-15.485 86.495 -15.485 86.495 -17 87 C-17 87.66 -17 88.32 -17 89 C-16.48050781 88.73445313 -15.96101563 88.46890625 -15.42578125 88.1953125 C-14.72839844 87.84210938 -14.03101563 87.48890625 -13.3125 87.125 C-12.62800781 86.77695313 -11.94351563 86.42890625 -11.23828125 86.0703125 C-8.87385597 84.93967982 -6.43339502 83.97335801 -4 83 C-4 79.37 -4 75.74 -4 72 C-4.66 72 -5.32 72 -6 72 C-6.99 66.555 -6.99 66.555 -8 61 C-4.7 61 -1.4 61 2 61 C1 63 0 65 -1 67 C5.38226945 67.82351864 11.56744599 68.12086218 18 68 C17.17798016 65.80882227 17.17798016 65.80882227 14.93359375 65.1484375 C14.10988281 64.89320312 13.28617188 64.63796875 12.4375 64.375 C11.19806641 63.98441406 11.19806641 63.98441406 9.93359375 63.5859375 C8.97646484 63.29589844 8.97646484 63.29589844 8 63 C7.96261719 62.01644531 7.92523438 61.03289062 7.88671875 60.01953125 C7.50867655 51.5631611 6.76852842 43.20108197 5.625 34.8125 C5.51115967 33.92860596 5.39731934 33.04471191 5.2800293 32.1340332 C4.5711695 27.19093019 3.45991593 23.41822889 1 19 C1 18.34 1 17.68 1 17 C1.59425781 17.18175781 2.18851563 17.36351563 2.80078125 17.55078125 C9.17168981 19.48286083 15.5714777 21.269244 22 23 C21.01 18.05 21.01 18.05 20 13 C16.7 12.01 13.4 11.02 10 10 C10 11.32 10 12.64 10 14 C7.69 13.67 5.38 13.34 3 13 C2.8046875 10.98177083 2.609375 8.96354167 2.4140625 6.9453125 C2.13625251 4.77331755 2.13625251 4.77331755 0 3 C0 2.01 0 1.02 0 0 Z " fill="#2E4233" transform="translate(175,39)"/>
<path d="M0 0 C0.99 0.99 0.99 0.99 2 2 C3.97575299 2.09082076 3.97575299 2.09082076 6.234375 1.7578125 C7.10731201 1.66089111 7.98024902 1.56396973 8.87963867 1.46411133 C9.82685791 1.35220459 10.77407715 1.24029785 11.75 1.125 C27.5902384 -0.52521448 43.31128819 -0.370015 59.18823242 0.73168945 C63.21647983 1.12844107 63.21647983 1.12844107 67 0 C74.74406826 0.07134238 82.28281514 2.08182891 89.75 3.9375 C90.84699219 4.20240234 91.94398438 4.46730469 93.07421875 4.74023438 C98.12333455 5.97344266 103.10637 7.22905348 108 9 C108 9.66 108 10.32 108 11 C108.9075 11.0825 109.815 11.165 110.75 11.25 C115.85028599 12.42698907 117.28482079 14.89472304 120.0625 19.1875 C124.05642037 27.55421065 125.55365462 38.82040641 125 48 C124.1328125 50.203125 124.1328125 50.203125 123.125 52.25 C120.4726115 60.3948345 124.62859497 69.53749105 128 77 C129.58891032 79.5987511 131.23006694 81.75942783 133.25 84.02734375 C137.24505625 88.53069957 140.86015179 93.38950011 141.1875 99.5 C137.18601896 111.29383886 137.18601896 111.29383886 132.4375 115 C130 116 130 116 127.9375 116.65625 C125.69731649 117.91174445 125.69731649 117.91174445 125.12890625 120.90625 C124.84853516 122.68515625 124.84853516 122.68515625 124.5625 124.5 C122.97113722 132.82274226 120.63091562 139.46232113 114.625 145.5625 C110.41553349 149.98152869 108.64511812 155.30608888 106.74853516 161.01000977 C105.35359273 164.87732823 104.22846376 167.26629306 100.62109375 169.40625 C97.6016414 170.7351999 94.73844629 171.87987773 91.5625 172.75 C90.69753906 172.99234375 89.83257812 173.2346875 88.94140625 173.484375 C88.30074219 173.65453125 87.66007813 173.8246875 87 174 C87.11859375 175.2065625 87.2371875 176.413125 87.359375 177.65625 C87.49078664 179.27073584 87.62092727 180.88532549 87.75 182.5 C87.87181641 183.68722656 87.87181641 183.68722656 87.99609375 184.8984375 C88.44884733 191.03576378 87.13408389 194.77652686 84 200 C83.62359375 200.81210938 83.2471875 201.62421875 82.859375 202.4609375 C80.85558029 205.91818893 79.03467045 207.71876613 75.12036133 208.78271484 C62.65989081 210.26455533 50.22894337 210.30342959 37.69116211 210.26074219 C33.94173041 210.25001211 30.19277666 210.26069355 26.44335938 210.2734375 C-6.5850016 210.30027802 -6.5850016 210.30027802 -11.41040039 205.70410156 C-13.27798314 203.21266934 -14.65422791 200.80504303 -16 198 C-16.56847656 197.08476562 -17.13695312 196.16953125 -17.72265625 195.2265625 C-19.44149361 190.88478984 -18.90518559 187.65371118 -18.1875 183.125 C-18.02411133 181.949375 -18.02411133 181.949375 -17.85742188 180.75 C-17.58828286 178.83092181 -17.296428 176.91505283 -17 175 C-17.556875 174.82984375 -18.11375 174.6596875 -18.6875 174.484375 C-21.14393112 173.70429214 -23.57167305 172.86348893 -26 172 C-26.72703125 171.75636719 -27.4540625 171.51273438 -28.203125 171.26171875 C-33.69668768 169.04961622 -35.56752245 166.01302305 -37.90625 160.671875 C-38.44765625 159.34929687 -38.44765625 159.34929687 -39 158 C-39.74766939 156.35310661 -40.49752202 154.70720187 -41.25 153.0625 C-42.2905613 150.71270788 -43.18543236 148.44370293 -44 146 C-44.92619141 145.57460938 -44.92619141 145.57460938 -45.87109375 145.140625 C-50.47065029 142.67627544 -52.18121597 136.64743115 -54 132 C-54.88113341 128.28638195 -55.5894258 124.60855236 -56.1640625 120.8359375 C-56.71436923 117.91530206 -56.71436923 117.91530206 -58.8984375 116.6015625 C-61.11636701 115.86240344 -61.11636701 115.86240344 -64 116 C-67.99857794 111.40788315 -71.07980308 105.76059077 -73 100 C-72.28662153 94.75774914 -68.75131761 90.38555889 -66 86 C-65.59910156 85.34515625 -65.19820312 84.6903125 -64.78515625 84.015625 C-63.91590664 82.63794638 -62.96631254 81.31142417 -62 80 C-61.34 80 -60.68 80 -60 80 C-58.04810079 74.26299894 -56.20609365 68.4969855 -54.40625 62.7109375 C-54.05481934 61.58307831 -54.05481934 61.58307831 -53.69628906 60.43243408 C-52.71577707 57.28472264 -51.73573188 54.13688295 -50.76123047 50.98730469 C-50.04213136 48.66494469 -49.3183119 46.34409806 -48.59375 44.0234375 C-48.37803345 43.32221771 -48.16231689 42.62099792 -47.94006348 41.89852905 C-46.90089575 38.58243756 -45.77212486 35.39546054 -44.35351562 32.22119141 C-42.39823583 27.56787943 -42.64698111 23.76509444 -43.625 18.875 C-44.06904668 15.47064211 -43.74950603 13.94235105 -42 11 C-38.1627537 8.26596201 -34.2090486 7.05232287 -29.6875 5.95703125 C-28.99615967 5.78370773 -28.30481934 5.61038422 -27.5925293 5.43180847 C-26.13786599 5.06913812 -24.6821905 4.71050614 -23.22558594 4.35571289 C-21.00436568 3.81356556 -18.78730407 3.25642489 -16.5703125 2.69726562 C-15.15126384 2.34545681 -13.73199968 1.99451584 -12.3125 1.64453125 C-11.65403076 1.47895218 -10.99556152 1.31337311 -10.31713867 1.14277649 C-6.82533299 0.30089727 -3.59207167 -0.37741023 0 0 Z M-15.5625 9.75 C-16.26052734 9.92756836 -16.95855469 10.10513672 -17.67773438 10.28808594 C-23.88441189 11.90068845 -29.95875816 13.84895177 -36 16 C-36 17.65 -36 19.3 -36 21 C-35.34 21 -34.68 21 -34 21 C-34.72996706 28.84714593 -36.89861829 36.88571581 -40.484375 43.90625 C-42.23631105 47.48236689 -43.31698023 51.11680004 -44.375 54.9375 C-44.81785947 56.45866888 -45.26189187 57.97949673 -45.70703125 59.5 C-46.50922233 62.26447386 -47.27321003 65.0295482 -48.01171875 67.8125 C-50.59471932 76.72337187 -54.5342208 83.42509228 -60.07446289 90.83569336 C-63.30371017 95.14994112 -63.30371017 95.14994112 -63.91796875 100.37890625 C-63.09926681 102.71656157 -62.23742188 104.8551354 -61 107 C-58.03 106.505 -58.03 106.505 -55 106 C-54.9175 106.7425 -54.835 107.485 -54.75 108.25 C-54.23145906 111.11355916 -54.23145906 111.11355916 -52.0078125 112.828125 C-49.54570559 115.49141575 -49.44142163 116.93306526 -49.125 120.5 C-47.82627798 129.83029243 -43.74412412 137.49948235 -37.37890625 144.36328125 C-33.95820539 148.42354658 -32.21212521 153.29776888 -30.6875 158.3125 C-29.47114753 161.65419952 -29.11925501 161.92984999 -25.8125 163.875 C-23.9253125 164.431875 -23.9253125 164.431875 -22 165 C-21.33226562 165.20238281 -20.66453125 165.40476563 -19.9765625 165.61328125 C-15.87600759 166.76803522 -12.28300182 167.07897734 -8 167 C-8.13277344 167.72703125 -8.26554687 168.4540625 -8.40234375 169.203125 C-8.97497072 172.46333692 -9.49331637 175.72891009 -10 179 C-10.1753125 180.02867187 -10.350625 181.05734375 -10.53125 182.1171875 C-11.54215745 189.60179077 -10.41960081 194.78126966 -6 201 C10.49821493 209.24910747 46.21094389 203.68621519 64.4375 202.5 C65.24558105 202.47188232 66.05366211 202.44376465 66.88623047 202.41479492 C70.37968368 202.10834496 72.28488983 201.71031592 74.82080078 199.19140625 C81.44298203 190.53148019 80.27055533 182.87358654 79.31640625 172.34765625 C79.05445467 169.85222938 79.05445467 169.85222938 78 167 C78.90878906 166.96132813 78.90878906 166.96132813 79.8359375 166.921875 C86.21476533 166.49007742 92.73544094 165.89897576 98 162 C99.68958894 159.10479644 100.76826592 156.25968907 101.86328125 153.09375 C103.53673162 148.53920465 106.18847424 144.91630666 109 141 C110.09093825 139.42189693 111.17437274 137.83857847 112.25 136.25 C112.72953125 135.55390625 113.2090625 134.8578125 113.703125 134.140625 C117.16248396 128.43059877 117.29736704 123.42840491 117.4609375 116.86328125 C117.72777344 115.44595703 117.72777344 115.44595703 118 114 C119.9140625 112.73046875 119.9140625 112.73046875 122 112 C122.66 111.34 123.32 110.68 124 110 C124 108.68 124 107.36 124 106 C126.97 106.495 126.97 106.495 130 107 C132.38531524 103.07256006 132.38531524 103.07256006 132.796875 98.6328125 C131.85876145 95.53335891 130.47477615 93.26063638 128.6875 90.5625 C128.05585938 89.59183594 127.42421875 88.62117188 126.7734375 87.62109375 C125.5079662 85.75076062 124.17990232 83.92215734 122.8125 82.125 C120.41324188 77.98834807 119.23647874 73.70566301 117.9296875 69.12109375 C117.06624766 66.03782566 117.06624766 66.03782566 115.90234375 63.3046875 C114.07947567 58.64887725 114.62416124 54.59740548 116.5625 50.125 C118.44932403 45.45712254 117.9911356 41.85656442 117 37 C116.71769531 35.53626953 116.71769531 35.53626953 116.4296875 34.04296875 C115.75712784 30.97006687 114.93666936 28.00225026 114 25 C113.77699219 24.21882813 113.55398437 23.43765625 113.32421875 22.6328125 C112.19710566 20.00122688 111.26981247 18.78342408 109 17 C103.13727881 14.68837737 97.14456805 13.34130265 91 12 C89.30673844 11.60523002 87.61402286 11.20811051 85.921875 10.80859375 C78.03898786 8.7958086 78.03898786 8.7958086 70 8 C70 8.66 70 9.32 70 10 C68.82775879 9.78778809 68.82775879 9.78778809 67.63183594 9.57128906 C57.98507898 7.99353548 48.59865861 7.69138069 38.84277344 7.73925781 C36.26733548 7.74992818 33.69260375 7.73932667 31.1171875 7.7265625 C19.95294713 7.71857321 9.06474101 8.52939107 -2 10 C-2.495 9.01 -2.495 9.01 -3 8 C-7.39721213 7.76277083 -11.3394537 8.6528162 -15.5625 9.75 Z " fill="#A30608" transform="translate(94,23)"/>
<path d="M0 0 C5.8492245 1.51987723 11.66668809 3.14166308 17.4375 4.9375 C18.88962891 5.38416016 18.88962891 5.38416016 20.37109375 5.83984375 C24.4977405 7.66096423 26.53599418 9.82777478 28.1875 14 C29.45828285 19.19659414 29.89055272 24.66234028 30 30 C29.505 30.495 29.505 30.495 29 31 C26.66055264 30.71269945 24.3260857 30.38063221 22 30 C22.495 33.96 22.495 33.96 23 38 C23.66 38 24.32 38 25 38 C25.75207536 40.22848559 26.50210666 42.45760976 27.25 44.6875 C27.47671387 45.36288818 27.70342773 46.03827637 27.93701172 46.73413086 C29.74503667 52.15503375 31.41173858 57.61026937 33.0078125 63.09765625 C34.07909919 66.23138069 35.45977728 69.07183647 37 72 C35.824375 71.67 34.64875 71.34 33.4375 71 C29.4988324 70.0030467 26.04860871 69.83130797 22 70 C21.67 70.66 21.34 71.32 21 72 C24.63 72.99 28.26 73.98 32 75 C32.3396019 76.87387477 32.67138691 78.74916697 33 80.625 C33.185625 81.66914062 33.37125 82.71328125 33.5625 83.7890625 C34.67381637 91.94533089 34.67381637 91.94533089 32.5625 95.25 C30.90913638 98.15991997 30.7602397 99.60240792 30.5625 102.875 C30.21570084 107.91112692 28.80319707 110.84041725 26 115 C25.34 115 24.68 115 24 115 C23.92652344 115.54527344 23.85304688 116.09054688 23.77734375 116.65234375 C22.69848529 119.91060473 20.77871267 121.9562339 18.5625 124.5625 C16.22275057 127.33038978 14.01124027 129.9831396 12 133 C7.62310792 134.9156832 3.86708616 135.22177727 -0.875 135.125 C-2.02742188 135.10695312 -3.17984375 135.08890625 -4.3671875 135.0703125 C-5.23601562 135.04710937 -6.10484375 135.02390625 -7 135 C-6.91298828 133.94425781 -6.91298828 133.94425781 -6.82421875 132.8671875 C-6.47347763 125.1909675 -8.01686654 119.64999853 -10.828125 112.55078125 C-12.37513368 107.86334496 -12.64797426 103.4558479 -12.76171875 98.546875 C-12.74244916 95.83210804 -12.74244916 95.83210804 -15 94 C-14.96519531 94.90363281 -14.93039063 95.80726563 -14.89453125 96.73828125 C-14.86746094 97.91777344 -14.84039062 99.09726563 -14.8125 100.3125 C-14.77769531 101.48425781 -14.74289063 102.65601563 -14.70703125 103.86328125 C-15 107 -15 107 -18 110 C-18.66 106.04 -19.32 102.08 -20 98 C-21.98 97.67 -23.96 97.34 -26 97 C-26 96.34 -26 95.68 -26 95 C-24.515 94.01 -24.515 94.01 -23 93 C-24.485 93.495 -24.485 93.495 -26 94 C-27.9375 94.1328125 -27.9375 94.1328125 -30 94.125 C-31.0209375 94.12886719 -31.0209375 94.12886719 -32.0625 94.1328125 C-34 94 -34 94 -37 93 C-37.495 93.99 -37.495 93.99 -38 95 C-39.32 94.01 -40.64 93.02 -42 92 C-41.02703346 89.34645489 -40.34207577 88.20122104 -37.875 86.75 C-35.27325917 86.071285 -33.45958193 85.9423503 -30.8125 86 C-29.554375 86 -28.29625 86 -27 86 C-26.01 85.01 -26.01 85.01 -25 84 C-22.90625 83.734375 -22.90625 83.734375 -20.5 83.75 C-19.7059375 83.74484375 -18.911875 83.7396875 -18.09375 83.734375 C-16 84 -16 84 -14 86 C-15.485 86.495 -15.485 86.495 -17 87 C-17 87.66 -17 88.32 -17 89 C-16.22076172 88.60167969 -16.22076172 88.60167969 -15.42578125 88.1953125 C-14.72839844 87.84210938 -14.03101563 87.48890625 -13.3125 87.125 C-12.62800781 86.77695313 -11.94351563 86.42890625 -11.23828125 86.0703125 C-8.87385597 84.93967982 -6.43339502 83.97335801 -4 83 C-4 79.37 -4 75.74 -4 72 C-4.66 72 -5.32 72 -6 72 C-6.66 68.37 -7.32 64.74 -8 61 C-4.7 61 -1.4 61 2 61 C1 63 0 65 -1 67 C5.38226945 67.82351864 11.56744599 68.12086218 18 68 C17.17798016 65.80882227 17.17798016 65.80882227 14.93359375 65.1484375 C14.10988281 64.89320312 13.28617188 64.63796875 12.4375 64.375 C11.61121094 64.11460938 10.78492188 63.85421875 9.93359375 63.5859375 C9.29550781 63.39257812 8.65742188 63.19921875 8 63 C7.96261719 62.01644531 7.92523438 61.03289062 7.88671875 60.01953125 C7.50867655 51.5631611 6.76852842 43.20108197 5.625 34.8125 C5.51115967 33.92860596 5.39731934 33.04471191 5.2800293 32.1340332 C4.5711695 27.19093019 3.45991593 23.41822889 1 19 C1 18.34 1 17.68 1 17 C1.59425781 17.18175781 2.18851563 17.36351563 2.80078125 17.55078125 C9.17168981 19.48286083 15.5714777 21.269244 22 23 C21.34 19.7 20.68 16.4 20 13 C16.7 12.01 13.4 11.02 10 10 C10 11.32 10 12.64 10 14 C7.69 13.67 5.38 13.34 3 13 C2.8046875 10.98177083 2.609375 8.96354167 2.4140625 6.9453125 C2.13625251 4.77331755 2.13625251 4.77331755 0 3 C0 2.01 0 1.02 0 0 Z " fill="#2E4031" transform="translate(175,39)"/>
<path d="M0 0 C0.99 0.99 0.99 0.99 2 2 C4.58354218 2.16687448 4.58354218 2.16687448 7 2 C6.67 2.66 6.34 3.32 6 4 C5.34 4 4.68 4 4 4 C4 5.32 4 6.64 4 8 C4.99 8.495 4.99 8.495 6 9 C3.03 9.66 0.06 10.32 -3 11 C-3 10.01 -3 9.02 -3 8 C-3.6798999 8.17128418 -4.3597998 8.34256836 -5.06030273 8.51904297 C-8.18571486 9.30564087 -11.31160275 10.09033227 -14.4375 10.875 C-15.50677734 11.14441406 -16.57605469 11.41382813 -17.67773438 11.69140625 C-23.76794123 13.21861409 -29.86348447 14.67074427 -36 16 C-36 17.65 -36 19.3 -36 21 C-35.34 21 -34.68 21 -34 21 C-32.23188075 25.16154897 -33.90594932 28.82799659 -35.25 32.875 C-35.57677734 33.91720703 -35.57677734 33.91720703 -35.91015625 34.98046875 C-36.92919009 38.14483698 -38.01875123 41.03706974 -39.5234375 44.01171875 C-41.2701186 47.5466686 -42.32748249 51.1547256 -43.375 54.9375 C-43.81785947 56.45866888 -44.26189187 57.97949673 -44.70703125 59.5 C-45.50922233 62.26447386 -46.27321003 65.0295482 -47.01171875 67.8125 C-49.59471932 76.72337187 -53.5342208 83.42509228 -59.07446289 90.83569336 C-62.31175983 95.14778662 -62.31175983 95.14778662 -62.88671875 100.37890625 C-62.59410156 101.24386719 -62.30148438 102.10882813 -62 103 C-61.814375 103.78375 -61.62875 104.5675 -61.4375 105.375 C-61.293125 105.91125 -61.14875 106.4475 -61 107 C-58.03 106.505 -58.03 106.505 -55 106 C-54.7525 106.7425 -54.505 107.485 -54.25 108.25 C-53.18550184 111.07624258 -53.18550184 111.07624258 -50.9765625 112.828125 C-48.55261426 115.49159382 -48.43939169 116.95594825 -48.125 120.5 C-46.82627798 129.83029243 -42.74412412 137.49948235 -36.37890625 144.36328125 C-33.56018421 147.70901648 -31.42047233 151.84262328 -30.58203125 156.14453125 C-30.0440575 158.62288896 -29.61268364 160.01820075 -28 162 C-21.62962852 164.79458774 -14.83693907 165.92158542 -8 167 C-8.0815332 167.68513672 -8.16306641 168.37027344 -8.24707031 169.07617188 C-8.60632697 172.21516364 -8.92838432 175.35693768 -9.25 178.5 C-9.37890625 179.57765625 -9.5078125 180.6553125 -9.640625 181.765625 C-10.33982841 188.93246 -9.76389665 192.8513444 -6 199 C-6 199.66 -6 200.32 -6 201 C-1.71 201.33 2.58 201.66 7 202 C7 204 7 204 5.5 205.625 C5.005 206.07875 4.51 206.5325 4 207 C5.98 207.66 7.96 208.32 10 209 C3.85640497 211.06860288 -2.95104929 209.85673674 -9 208 C-12.28812301 205.09188478 -14.11528503 201.92838182 -16 198 C-16.56847656 197.08476562 -17.13695312 196.16953125 -17.72265625 195.2265625 C-19.44149361 190.88478984 -18.90518559 187.65371118 -18.1875 183.125 C-18.02411133 181.949375 -18.02411133 181.949375 -17.85742188 180.75 C-17.58828286 178.83092181 -17.296428 176.91505283 -17 175 C-17.556875 174.82984375 -18.11375 174.6596875 -18.6875 174.484375 C-21.14393112 173.70429214 -23.57167305 172.86348893 -26 172 C-26.72703125 171.75636719 -27.4540625 171.51273438 -28.203125 171.26171875 C-33.69668768 169.04961622 -35.56752245 166.01302305 -37.90625 160.671875 C-38.44765625 159.34929687 -38.44765625 159.34929687 -39 158 C-39.74766939 156.35310661 -40.49752202 154.70720187 -41.25 153.0625 C-42.2905613 150.71270788 -43.18543236 148.44370293 -44 146 C-44.92619141 145.57460938 -44.92619141 145.57460938 -45.87109375 145.140625 C-50.47065029 142.67627544 -52.18121597 136.64743115 -54 132 C-54.88113341 128.28638195 -55.5894258 124.60855236 -56.1640625 120.8359375 C-56.71436923 117.91530206 -56.71436923 117.91530206 -58.8984375 116.6015625 C-61.11636701 115.86240344 -61.11636701 115.86240344 -64 116 C-67.99857794 111.40788315 -71.07980308 105.76059077 -73 100 C-72.28662153 94.75774914 -68.75131761 90.38555889 -66 86 C-65.59910156 85.34515625 -65.19820312 84.6903125 -64.78515625 84.015625 C-63.91590664 82.63794638 -62.96631254 81.31142417 -62 80 C-61.34 80 -60.68 80 -60 80 C-58.04810079 74.26299894 -56.20609365 68.4969855 -54.40625 62.7109375 C-54.05481934 61.58307831 -54.05481934 61.58307831 -53.69628906 60.43243408 C-52.71577707 57.28472264 -51.73573188 54.13688295 -50.76123047 50.98730469 C-50.04213136 48.66494469 -49.3183119 46.34409806 -48.59375 44.0234375 C-48.37803345 43.32221771 -48.16231689 42.62099792 -47.94006348 41.89852905 C-46.90089575 38.58243756 -45.77212486 35.39546054 -44.35351562 32.22119141 C-42.39823583 27.56787943 -42.64698111 23.76509444 -43.625 18.875 C-44.06904668 15.47064211 -43.74950603 13.94235105 -42 11 C-38.1627537 8.26596201 -34.2090486 7.05232287 -29.6875 5.95703125 C-28.99615967 5.78370773 -28.30481934 5.61038422 -27.5925293 5.43180847 C-26.13786599 5.06913812 -24.6821905 4.71050614 -23.22558594 4.35571289 C-21.00436568 3.81356556 -18.78730407 3.25642489 -16.5703125 2.69726562 C-15.15126384 2.34545681 -13.73199968 1.99451584 -12.3125 1.64453125 C-11.65403076 1.47895218 -10.99556152 1.31337311 -10.31713867 1.14277649 C-6.82533299 0.30089727 -3.59207167 -0.37741023 0 0 Z " fill="#F61D0F" transform="translate(94,23)"/>
<path d="M0 0 C2.64 0 5.28 0 8 0 C8.05819916 0.66763367 8.11639832 1.33526733 8.17636108 2.02313232 C8.78326488 8.96683221 9.40150719 15.90945592 10.02636719 22.8515625 C10.25812544 25.44310016 10.48698363 28.03489885 10.71289062 30.62695312 C11.03795919 34.35098417 11.37341876 38.07395431 11.7109375 41.796875 C11.80998383 42.95741394 11.90903015 44.11795288 12.01107788 45.31365967 C12.11103058 46.39447815 12.21098328 47.47529663 12.31396484 48.58886719 C12.39834808 49.53928894 12.48273132 50.48971069 12.56967163 51.46893311 C12.93356975 54.35208767 12.93356975 54.35208767 15 58 C11.04 58.99 7.08 59.98 3 61 C3.66 61.99 4.32 62.98 5 64 C10.1706348 64.35055151 14.872152 63.76886717 20 63 C19.52294177 65.27127721 19.04328294 67.54200832 18.5625 69.8125 C18.29566406 71.07707031 18.02882812 72.34164062 17.75390625 73.64453125 C17 77 17 77 16 80 C11.38211328 81.4088468 6.77577488 82.28363377 2 83 C-0.13604308 79.79593538 -0.24208908 79.00399253 -0.1953125 75.33203125 C-0.18886719 74.43935547 -0.18242188 73.54667969 -0.17578125 72.62695312 C-0.15902344 71.69818359 -0.14226562 70.76941406 -0.125 69.8125 C-0.11597656 68.87212891 -0.10695313 67.93175781 -0.09765625 66.96289062 C-0.07409056 64.64167032 -0.04119116 62.32096356 0 60 C1.98 59.505 1.98 59.505 4 59 C3.67 52.07 3.34 45.14 3 38 C0.69 38.66 -1.62 39.32 -4 40 C-5.36703704 42.70035792 -6.15219284 44.70050254 -6.875 47.5625 C-7.26654984 48.93928078 -7.6596962 50.31560885 -8.0546875 51.69140625 C-8.36664063 52.78324219 -8.67859375 53.87507813 -9 55 C-9.495 55.495 -9.495 55.495 -10 56 C-10.23192865 57.51469448 -10.41215238 59.03754562 -10.5625 60.5625 C-10.64628906 61.38878906 -10.73007812 62.21507812 -10.81640625 63.06640625 C-10.87699219 63.70449219 -10.93757813 64.34257813 -11 65 C-12.6232687 65.6708712 -14.24867578 66.33657029 -15.875 67 C-16.77992187 67.37125 -17.68484375 67.7425 -18.6171875 68.125 C-21 69 -21 69 -23 69 C-22.73058594 68.4946875 -22.46117187 67.989375 -22.18359375 67.46875 C-17.67424036 58.063102 -12 45.51680705 -12 35 C-10.23141309 34.32739649 -8.46003984 33.66211605 -6.6875 33 C-5.70136719 32.62875 -4.71523438 32.2575 -3.69921875 31.875 C-1 31 -1 31 2 31 C2 28.03 2 25.06 2 22 C1.34 22 0.68 22 0 22 C-0.0825 22.94875 -0.165 23.8975 -0.25 24.875 C-1 28 -1 28 -2.875 29.375 C-5 30 -5 30 -8 30 C-6.38911325 22.21404737 -4.22479164 14.63034006 -2 7 C-1.33060568 4.6674359 -0.66510147 2.33379354 0 0 Z " fill="#EDEDED" transform="translate(68,42)"/>
<path d="M0 0 C0.99 0.33 1.98 0.66 3 1 C1.02 1.99 1.02 1.99 -1 3 C-1 3.66 -1 4.32 -1 5 C0.98 5 2.96 5 5 5 C7.81398547 9.99882784 7.97089462 14.38681452 7 20 C5.11497411 25.20573292 2.53913015 30.10966951 -0.01293945 35.01318359 C-0.9731873 36.94602973 -1.79229597 38.89544855 -2.59375 40.8984375 C-4 44 -4 44 -6.6875 45.875 C-10.54074634 47.1836497 -13.95062318 47.65091579 -18 48 C-18.061875 46.88625 -18.061875 46.88625 -18.125 45.75 C-19.3447004 41.9166559 -21.69911212 41.15568188 -25 39 C-26.375 36.25 -26.375 36.25 -27 34 C-25.02 34 -23.04 34 -21 34 C-21 33.34 -21 32.68 -21 32 C-19.02 31.34 -17.04 30.68 -15 30 C-17.12493141 29.97306425 -19.24995912 29.95363372 -21.375 29.9375 C-22.55835937 29.92589844 -23.74171875 29.91429687 -24.9609375 29.90234375 C-27.91921521 29.78533407 -27.91921521 29.78533407 -30 31 C-30.99 30.01 -31.98 29.02 -33 28 C-28.51925805 24.63944354 -25.39449293 24.72570375 -20 25 C-20.34444881 22.52733235 -20.34444881 22.52733235 -21 20 C-21.66 19.67 -22.32 19.34 -23 19 C-23.33 19.66 -23.66 20.32 -24 21 C-24 20.34 -24 19.68 -24 19 C-25.98 18.67 -27.96 18.34 -30 18 C-30 16.68 -30 15.36 -30 14 C-23.63392191 12.33482867 -19.20107925 11.57349073 -13 14 C-14.86566488 10.37206002 -14.86566488 10.37206002 -18 8 C-18 6.02 -18 4.04 -18 2 C-17.67 2 -17.34 2 -17 2 C-17 3.65 -17 5.3 -17 7 C-16.34 7 -15.68 7 -15 7 C-14.67 6.01 -14.34 5.02 -14 4 C-10.82991003 1.88660669 -9.55848959 1.68986736 -5.875 1.4375 C-2.63079025 1.45515121 -2.63079025 1.45515121 0 0 Z " fill="#647765" transform="translate(150,131)"/>
<path d="M0 0 C2.29013653 3.4352048 2.17842973 4.985331 2 9 C2.9590625 9.37125 2.9590625 9.37125 3.9375 9.75 C6 11 6 11 6.62890625 13.078125 C6.75136719 13.71234375 6.87382812 14.3465625 7 15 C6.35933594 14.91621094 5.71867187 14.83242187 5.05859375 14.74609375 C-0.23075314 14.12335395 -4.77045499 13.97682815 -10 15 C-10 16.32 -10 17.64 -10 19 C-9.04287109 19.09087891 -9.04287109 19.09087891 -8.06640625 19.18359375 C-7.24011719 19.26738281 -6.41382812 19.35117188 -5.5625 19.4375 C-4.32693359 19.55931641 -4.32693359 19.55931641 -3.06640625 19.68359375 C-1 20 -1 20 0 21 C0.04063832 22.66617115 0.042721 24.33388095 0 26 C-0.69867188 26.12117188 -1.39734375 26.24234375 -2.1171875 26.3671875 C-3.02726562 26.53476563 -3.93734375 26.70234375 -4.875 26.875 C-6.23238281 27.11863281 -6.23238281 27.11863281 -7.6171875 27.3671875 C-10.16505988 27.83044703 -10.16505988 27.83044703 -12 30 C-11.01 30 -10.02 30 -9 30 C-4 30 1 30 6 30 C4.75 31.5 4.75 31.5 3 33 C1.68 33 0.36 33 -1 33 C-1 33.66 -1 34.32 -1 35 C-2.98 35 -4.96 35 -7 35 C-4.90814081 39.07362052 -3.00757642 40.84207424 1 43 C1.66 43.66 2.32 44.32 3 45 C2.625 47.125 2.625 47.125 2 49 C-5.56324812 49.52664784 -13.67432864 49.70672835 -20 45 C-21.54929168 41.81731224 -22.3258734 38.81518565 -23.09765625 35.36328125 C-24.01560296 31.94184351 -25.20237332 29.91404477 -27.25 27.0625 C-31.0950856 21.16864404 -30.95406903 14.82526303 -30 8 C-28 6 -28 6 -24.875 5.875 C-23.92625 5.91625 -22.9775 5.9575 -22 6 C-22 5.34 -22 4.68 -22 4 C-23.32 3.34 -24.64 2.68 -26 2 C-23.18185434 0.59092717 -21.82722796 1.49127309 -18.875 2.4375 C-17.50988281 2.86869141 -17.50988281 2.86869141 -16.1171875 3.30859375 C-15.41851562 3.53675781 -14.71984375 3.76492187 -14 4 C-14 4.66 -14 5.32 -14 6 C-12.02 6 -10.04 6 -8 6 C-8 6.66 -8 7.32 -8 8 C-7.34 8 -6.68 8 -6 8 C-6.061875 7.236875 -6.12375 6.47375 -6.1875 5.6875 C-6 3 -6 3 -4.6875 1.1875 C-3 0 -3 0 0 0 Z " fill="#ABB4AB" transform="translate(130,130)"/>
<path d="M0 0 C5.8492245 1.51987723 11.66668809 3.14166308 17.4375 4.9375 C18.88962891 5.38416016 18.88962891 5.38416016 20.37109375 5.83984375 C24.4977405 7.66096423 26.53599418 9.82777478 28.1875 14 C29.45828285 19.19659414 29.89055272 24.66234028 30 30 C29.67 30.33 29.34 30.66 29 31 C26.66055264 30.71269945 24.3260857 30.38063221 22 30 C22.33 32.64 22.66 35.28 23 38 C23.66 38 24.32 38 25 38 C25.75207536 40.22848559 26.50210666 42.45760976 27.25 44.6875 C27.47671387 45.36288818 27.70342773 46.03827637 27.93701172 46.73413086 C29.74503667 52.15503375 31.41173858 57.61026937 33.0078125 63.09765625 C34.07909919 66.23138069 35.45977728 69.07183647 37 72 C33 70.66666667 29 69.33333333 25 68 C24.505 62.06 24.505 62.06 24 56 C23.34 56 22.68 56 22 56 C20.82452599 52.08592163 19.66115777 48.16834707 18.5 44.25 C18.16613281 43.13882813 17.83226562 42.02765625 17.48828125 40.8828125 C17.17246094 39.81289062 16.85664063 38.74296875 16.53125 37.640625 C16.23798828 36.65610352 15.94472656 35.67158203 15.64257812 34.65722656 C15 32 15 32 15 28 C14.34 28 13.68 28 13 28 C13.08564209 28.57854736 13.17128418 29.15709473 13.25952148 29.75317383 C16.06044181 48.7619856 16.06044181 48.7619856 16.5625 55.4375 C16.85084629 59.21003068 17.56690908 62.46504239 19 66 C15.37 65.01 11.74 64.02 8 63 C7.96261719 62.01644531 7.92523438 61.03289062 7.88671875 60.01953125 C7.50867655 51.5631611 6.76852842 43.20108197 5.625 34.8125 C5.51115967 33.92860596 5.39731934 33.04471191 5.2800293 32.1340332 C4.5711695 27.19093019 3.45991593 23.41822889 1 19 C1 18.34 1 17.68 1 17 C1.59425781 17.18175781 2.18851563 17.36351563 2.80078125 17.55078125 C9.17168981 19.48286083 15.5714777 21.269244 22 23 C21.34 19.7 20.68 16.4 20 13 C16.7 12.01 13.4 11.02 10 10 C10 11.32 10 12.64 10 14 C7.69 13.67 5.38 13.34 3 13 C2.8046875 10.98177083 2.609375 8.96354167 2.4140625 6.9453125 C2.13625251 4.77331755 2.13625251 4.77331755 0 3 C0 2.01 0 1.02 0 0 Z " fill="#ECECEC" transform="translate(175,39)"/>
<path d="M0 0 C0.66 0 1.32 0 2 0 C3.17300089 4.10238344 4.33731306 8.20718259 5.5 12.3125 C5.83386719 13.47974609 6.16773438 14.64699219 6.51171875 15.84960938 C6.82753906 16.96787109 7.14335937 18.08613281 7.46875 19.23828125 C7.90864258 20.7857605 7.90864258 20.7857605 8.35742188 22.36450195 C9 25 9 25 9 28 C9.66 28 10.32 28 11 28 C11.96070434 30.88211302 12.10581883 32.69850044 12.0625 35.6875 C12.05347656 36.49574219 12.04445312 37.30398437 12.03515625 38.13671875 C12.02355469 38.75160156 12.01195312 39.36648437 12 40 C13.65 40 15.3 40 17 40 C17.33 40.66 17.66 41.32 18 42 C15.03 42 12.06 42 9 42 C8.67 42.66 8.34 43.32 8 44 C11.63 44.99 15.26 45.98 19 47 C19.33848652 48.89492006 19.67056911 50.79098466 20 52.6875 C20.185625 53.74324219 20.37125 54.79898438 20.5625 55.88671875 C20.95068074 58.64904062 21.08259976 61.21742043 21 64 C20.2575 63.525625 19.515 63.05125 18.75 62.5625 C13.89539916 60.07656914 8.34522062 60.2508275 3 60 C2.34 58.02 1.68 56.04 1 54 C0.34 55.32 -0.32 56.64 -1 58 C-5.92462589 58.4765767 -10.65803909 57.31801897 -15 55 C-16.99567921 51.32795025 -17.24324235 48.13511998 -17 44 C-17.66 44 -18.32 44 -19 44 C-19.99 38.555 -19.99 38.555 -21 33 C-17.7 33 -14.4 33 -11 33 C-12 35 -13 37 -14 39 C-7.61773055 39.82351864 -1.43255401 40.12086218 5 40 C4.43260132 35.87026372 4.43260132 35.87026372 3 32 C2.70893123 30.11508764 2.46539021 28.2227291 2.24609375 26.328125 C2.04790039 24.61882812 2.04790039 24.61882812 1.84570312 22.875 C1.71099609 21.67875 1.57628906 20.4825 1.4375 19.25 C1.29892578 18.06921875 1.16035156 16.8884375 1.01757812 15.671875 C0.41622784 10.41080062 -0.07878124 5.30163071 0 0 Z " fill="#546856" transform="translate(188,67)"/>
<path d="M0 0 C0.08690253 4.43737712 0.14035926 8.87453634 0.1875 13.3125 C0.21263672 14.57513672 0.23777344 15.83777344 0.26367188 17.13867188 C0.27333984 18.34716797 0.28300781 19.55566406 0.29296875 20.80078125 C0.3086792 21.91622314 0.32438965 23.03166504 0.34057617 24.1809082 C0 27 0 27 -1.3269043 28.90307617 C-3 30 -3 30 -6.0625 29.75 C-9 29 -9 29 -11 28 C-18.60882556 27.57063058 -25.71964202 27.67028545 -33 30 C-33.20453169 24.34128999 -32.48876088 19.21727814 -31.3125 13.6875 C-31.16361328 12.87732422 -31.01472656 12.06714844 -30.86132812 11.23242188 C-29.6305547 5.43572038 -29.6305547 5.43572038 -26.9140625 3.55859375 C-25.95242187 3.37425781 -24.99078125 3.18992187 -24 3 C-23.34185303 2.86392334 -22.68370605 2.72784668 -22.00561523 2.58764648 C-19.69754281 2.13110748 -17.38566484 1.74670637 -15.0625 1.375 C-14.27681641 1.2409375 -13.49113281 1.106875 -12.68164062 0.96875 C-8.39134769 0.26507015 -4.36107194 -0.05853788 0 0 Z " fill="#A9B2A9" transform="translate(129,94)"/>
<path d="M0 0 C1.33341652 0.14507078 2.66672764 0.2911103 4 0.4375 C4.81726563 0.52515625 5.63453125 0.6128125 6.4765625 0.703125 C8.07936091 0.89168952 9.67937839 1.10739315 11.2734375 1.359375 C15.88881848 2.14492855 15.88881848 2.14492855 20 0 C20.99 0 21.98 0 23 0 C23.33569297 1.62451419 23.6684796 3.24962917 24 4.875 C24.185625 5.77992188 24.37125 6.68484375 24.5625 7.6171875 C25 10 25 10 25 12 C22.36 12.33 19.72 12.66 17 13 C17 13.99 17 14.98 17 16 C18.98 16.33 20.96 16.66 23 17 C23 18.98 23 20.96 23 23 C21.88625 22.979375 20.7725 22.95875 19.625 22.9375 C16.16784079 22.73619282 16.16784079 22.73619282 14 24 C14.62648437 24.04898438 15.25296875 24.09796875 15.8984375 24.1484375 C16.71570313 24.22320312 17.53296875 24.29796875 18.375 24.375 C19.18710938 24.44460937 19.99921875 24.51421875 20.8359375 24.5859375 C23 25 23 25 25 27 C25 27.99 25 28.98 25 30 C22.03 29.67 19.06 29.34 16 29 C17.58494128 32.95791206 17.58494128 32.95791206 20.125 34.5 C20.74375 34.995 21.3625 35.49 22 36 C22 37.32 22 38.64 22 40 C17.92276266 41.95031692 14.68307578 42.21581971 10.1875 42.125 C9.02605469 42.10695312 7.86460937 42.08890625 6.66796875 42.0703125 C5.34732422 42.03550781 5.34732422 42.03550781 4 42 C4.05800781 41.29617187 4.11601562 40.59234375 4.17578125 39.8671875 C4.4630783 33.57948634 3.80779509 28.82075227 1.5 22.9375 C-1.63285137 14.93722418 -1.81007012 8.32335522 0 0 Z " fill="#A9B2A9" transform="translate(164,132)"/>
<path d="M0 0 C13.89655172 0 13.89655172 0 19.625 1.125 C21.37683594 1.43824219 21.37683594 1.43824219 23.1640625 1.7578125 C26 3 26 3 27.296875 5.71484375 C27.52890625 6.79894531 27.7609375 7.88304688 28 9 C28.28101563 10.05058594 28.56203125 11.10117188 28.8515625 12.18359375 C30.20999719 17.89862452 31.41036023 23.11817007 31 29 C29.90945312 28.7834375 29.90945312 28.7834375 28.796875 28.5625 C18.87598922 26.73095186 9.99259081 26.57248703 0 28 C0 18.76 0 9.52 0 0 Z " fill="#657866" transform="translate(130,95)"/>
<path d="M0 0 C2.95857409 -0.05379226 5.91617721 -0.09357093 8.875 -0.125 C9.71675781 -0.14175781 10.55851563 -0.15851563 11.42578125 -0.17578125 C12.23144531 -0.18222656 13.03710938 -0.18867188 13.8671875 -0.1953125 C14.98262939 -0.21102295 14.98262939 -0.21102295 16.12060547 -0.22705078 C18 0 18 0 20 2 C20.85064848 5.53081224 21.21911105 9.15055781 21.6875 12.75 C21.82994141 13.74 21.97238281 14.73 22.11914062 15.75 C22.78866084 20.7330957 23.25446148 25.04950771 22 30 C15.07030839 31.31994126 8.03403491 31.32058604 1 31 C-2.98011095 27.01988905 -1.11966251 9.85718856 -1.1328125 4.51171875 C-1 2 -1 2 0 0 Z " fill="#F3F3F3" transform="translate(143,185)"/>
<path d="M0 0 C4.34862851 0.8697257 7.16270693 1.9474944 11 4 C11 3.34 11 2.68 11 2 C15.29 1.34 19.58 0.68 24 0 C24.33 1.65 24.66 3.3 25 5 C25.33 5.66 25.66 6.32 26 7 C26.40278844 12.76353643 25.23512376 17.38668574 23.5625 22.8125 C21.66441635 29.25268533 20.32614575 35.25965453 20 42 C17.85423363 42.02685938 15.70837355 42.04633088 13.5625 42.0625 C12.36753906 42.07410156 11.17257813 42.08570313 9.94140625 42.09765625 C7 42 7 42 6 41 C5.95936168 39.33382885 5.957279 37.66611905 6 36 C6.639375 35.87625 7.27875 35.7525 7.9375 35.625 C8.618125 35.41875 9.29875 35.2125 10 35 C10.33 34.34 10.66 33.68 11 33 C10.01 33.495 10.01 33.495 9 34 C7.00039988 34.039992 4.99952758 34.04346799 3 34 C2.67 33.34 2.34 32.68 2 32 C3.5778125 31.9071875 3.5778125 31.9071875 5.1875 31.8125 C9.77683376 30.83444526 11.1345398 29.66142136 14 26 C14.99 23.69 15.98 21.38 17 19 C11.72 19.33 6.44 19.66 1 20 C1 19.01 1 18.02 1 17 C2.98 16.67 4.96 16.34 7 16 C6.67 15.34 6.34 14.68 6 14 C3.6859378 13.26924352 1.35171131 12.59861742 -1 12 C-0.67 8.04 -0.34 4.08 0 0 Z " fill="#AAB2A9" transform="translate(69,132)"/>
<path d="M0 0 C9.24 0 18.48 0 28 0 C28 2.31 28 4.62 28 7 C24.7 6.34 21.4 5.68 18 5 C18.11819525 10.6418279 18.24244003 16.28347768 18.37231445 21.92504883 C18.4156494 23.84460825 18.45732552 25.76420585 18.49731445 27.68383789 C18.55505178 30.44168614 18.61873635 33.19934241 18.68359375 35.95703125 C18.70030624 36.81649857 18.71701874 37.67596588 18.73423767 38.56147766 C18.75418289 39.36208115 18.77412811 40.16268463 18.79467773 40.98754883 C18.81799416 42.04344963 18.81799416 42.04344963 18.84178162 43.12068176 C18.94481604 45.22699083 18.94481604 45.22699083 20 48 C16.37 48 12.74 48 9 48 C9.33 34.14 9.66 20.28 10 6 C6.7 6.33 3.4 6.66 0 7 C0 4.69 0 2.38 0 0 Z " fill="#D7150D" transform="translate(115,37)"/>
<path d="M0 0 C0.66 0.66 1.32 1.32 2 2 C1.9765625 4.6015625 1.9765625 4.6015625 1.625 7.625 C1.45871094 9.12933594 1.45871094 9.12933594 1.2890625 10.6640625 C1.14597656 11.82035156 1.14597656 11.82035156 1 13 C3.31 13 5.62 13 8 13 C8 13.66 8 14.32 8 15 C8.53109375 14.83628906 9.0621875 14.67257813 9.609375 14.50390625 C12.53876764 13.88643623 15.25822936 13.90498075 18.25 13.9375 C19.32765625 13.94652344 20.4053125 13.95554688 21.515625 13.96484375 C22.33546875 13.97644531 23.1553125 13.98804688 24 14 C22.78992241 19.33791235 20.3102489 23.55180088 16 27 C12.75 27.75 12.75 27.75 10 28 C12.64 28 15.28 28 18 28 C17.67 28.99 17.34 29.98 17 31 C15.68 31 14.36 31 13 31 C13.33 32.98 13.66 34.96 14 37 C6.74594637 35.10674345 4.27203971 30.81654638 0 25 C-1.00546875 23.81664062 -1.00546875 23.81664062 -2.03125 22.609375 C-7.53994717 15.79123343 -8.08699247 9.6246823 -8 1 C-1.9453125 0.0234375 -1.9453125 0.0234375 0 0 Z " fill="#738574" transform="translate(62,137)"/>
<path d="M0 0 C7.67028737 0.62915097 15.33667323 1.29099142 23 2 C23.33 4.64 23.66 7.28 24 10 C23.40832031 9.86722656 22.81664062 9.73445313 22.20703125 9.59765625 C18.14553475 8.68994822 14.08625829 7.7908887 10 7 C10.16371094 7.62261719 10.32742187 8.24523438 10.49609375 8.88671875 C11.19534902 13.20692382 11.10484393 17.44456045 11.0625 21.8125 C11.05798828 22.69615234 11.05347656 23.57980469 11.04882812 24.49023438 C11.03709866 26.66018559 11.01916495 28.83010172 11 31 C16.28 31.33 21.56 31.66 27 32 C26.67 33.98 26.34 35.96 26 38 C17.53795229 38.30221599 9.36254017 37.14920797 1 36 C1 35.01 1 34.02 1 33 C1.66 33 2.32 33 3 33 C2.9278125 32.01902344 2.855625 31.03804687 2.78125 30.02734375 C2.12595631 20.66400293 1.87862211 11.38655698 2 2 C1.34 2 0.68 2 0 2 C0 1.34 0 0.68 0 0 Z " fill="#F1F1F1" transform="translate(148,51)"/>
<path d="M0 0 C-0.33 0.99 -0.66 1.98 -1 3 C-1.20937907 5.43784854 -1.37407975 7.85859018 -1.5 10.30078125 C-1.54060547 11.01477585 -1.58121094 11.72877045 -1.62304688 12.46440125 C-1.75259556 14.74690274 -1.87682358 17.02964635 -2 19.3125 C-2.12345604 21.58462161 -2.24818422 23.85663671 -2.37695312 26.12846375 C-2.45694847 27.54073269 -2.53393748 28.95317626 -2.60742188 30.36579895 C-2.82985399 34.30454862 -3.27826556 38.12180512 -4 42 C-2.27054347 41.85764543 -0.54144346 41.71095618 1.1875 41.5625 C2.15042969 41.48128906 3.11335938 41.40007812 4.10546875 41.31640625 C6.78649602 41.02333849 9.3662986 40.57296246 12 40 C10.125 45.875 10.125 45.875 9 47 C6.26920014 47.40532999 3.55451593 47.75479248 0.8125 48.0625 C0.05646484 48.15337891 -0.69957031 48.24425781 -1.47851562 48.33789062 C-5.67718446 48.82221236 -9.76523344 49.1013102 -14 49 C-13.52457764 48.2570166 -13.52457764 48.2570166 -13.03955078 47.49902344 C-11.60966466 44.06165511 -11.53263987 40.68708228 -11.3671875 37.015625 C-11.32562531 36.24120056 -11.28406311 35.46677612 -11.24124146 34.66888428 C-11.11086009 32.19627157 -10.99302519 29.72322991 -10.875 27.25 C-10.78852778 25.60152207 -10.70129606 23.95308379 -10.61328125 22.3046875 C-10.53056928 20.70836846 -10.44851709 19.11201507 -10.3671875 17.515625 C-10.32971405 16.78200745 -10.2922406 16.04838989 -10.25363159 15.2925415 C-10.02712466 10.52292354 -9.96839956 5.7750284 -10 1 C-6.59437148 0.22157062 -3.49234244 -0.09978121 0 0 Z " fill="#EFEFEF" transform="translate(102,39)"/>
<path d="M0 0 C1.58206057 0.00667536 3.16410534 0.0186375 4.74609375 0.03515625 C5.55240234 0.03966797 6.35871094 0.04417969 7.18945312 0.04882812 C9.18753131 0.06065107 11.18557158 0.07858711 13.18359375 0.09765625 C13.18359375 1.08765625 13.18359375 2.07765625 13.18359375 3.09765625 C9.22359375 3.09765625 5.26359375 3.09765625 1.18359375 3.09765625 C1.18359375 10.68765625 1.18359375 18.27765625 1.18359375 26.09765625 C3.82359375 26.09765625 6.46359375 26.09765625 9.18359375 26.09765625 C8.85359375 22.46765625 8.52359375 18.83765625 8.18359375 15.09765625 C10.82359375 15.09765625 13.46359375 15.09765625 16.18359375 15.09765625 C16.23746004 17.22238201 16.27632446 19.34749277 16.30859375 21.47265625 C16.33179688 22.65601563 16.355 23.839375 16.37890625 25.05859375 C16.18359375 28.09765625 16.18359375 28.09765625 14.18359375 30.09765625 C12.22827148 30.34057617 12.22827148 30.34057617 9.8671875 30.328125 C9.02091797 30.32619141 8.17464844 30.32425781 7.30273438 30.32226562 C5.97532227 30.30389648 5.97532227 30.30389648 4.62109375 30.28515625 C3.73228516 30.28451172 2.84347656 30.28386719 1.92773438 30.28320312 C-4.67619528 30.23786722 -4.67619528 30.23786722 -5.81640625 29.09765625 C-5.91817615 26.27503801 -5.95740671 23.48269348 -5.94140625 20.66015625 C-5.93874756 19.84426025 -5.93608887 19.02836426 -5.93334961 18.18774414 C-5.79175758 0.1482026 -5.79175758 0.1482026 0 0 Z " fill="#F7F6F6" transform="translate(122.81640625,186.90234375)"/>
<path d="M0 0 C2.97 0.33 5.94 0.66 9 1 C8.85936865 3.29199177 8.71234057 5.58359186 8.5625 7.875 C8.48128906 9.15117187 8.40007812 10.42734375 8.31640625 11.7421875 C8 15 8 15 7 17 C6.34 17 5.68 17 5 17 C4.92523438 17.54527344 4.85046875 18.09054688 4.7734375 18.65234375 C3.70392515 21.89869184 1.81819501 23.95408846 -0.375 26.5625 C-1.16648438 27.51253906 -1.95796875 28.46257812 -2.7734375 29.44140625 C-4.45989355 31.37935136 -6.14712551 33.2248267 -8 35 C-8.04125 34.443125 -8.0825 33.88625 -8.125 33.3125 C-9.46930374 29.75969726 -12.00974189 28.29041047 -15 26 C-14.67 25.01 -14.34 24.02 -14 23 C-8.375 22.75 -8.375 22.75 -5 25 C-5.62628423 22.95310804 -5.62628423 22.95310804 -7 21 C-9.41679707 20.29823412 -9.41679707 20.29823412 -12.125 20.25 C-13.03507813 20.19328125 -13.94515625 20.1365625 -14.8828125 20.078125 C-15.93082031 20.03945312 -15.93082031 20.03945312 -17 20 C-15.73046875 18.48046875 -15.73046875 18.48046875 -14 17 C-10.3125 17.3125 -10.3125 17.3125 -7 18 C-7 16.68 -7 15.36 -7 14 C-5.02 13.67 -3.04 13.34 -1 13 C-1.33 9.37 -1.66 5.74 -2 2 C-1.34 2 -0.68 2 0 2 C0 1.34 0 0.68 0 0 Z " fill="#637564" transform="translate(194,137)"/>
<path d="M0 0 C3.3 0 6.6 0 10 0 C9 2 8 4 7 6 C7.58007812 6.04898438 8.16015625 6.09796875 8.7578125 6.1484375 C13.43923092 6.59649405 17.57485459 7.298021 22 9 C22.05423638 10.91635217 22.09289963 12.83314925 22.125 14.75 C22.14820313 15.81734375 22.17140625 16.8846875 22.1953125 17.984375 C22.00487687 20.92470106 21.52670104 22.52361878 20 25 C15.07537411 25.4765767 10.34196091 24.31801897 6 22 C4.00432079 18.32795025 3.75675765 15.13511998 4 11 C3.34 11 2.68 11 2 11 C1.34 7.37 0.68 3.74 0 0 Z " fill="#ACB5AC" transform="translate(167,100)"/>
<path d="M0 0 C1.32 0.33 2.64 0.66 4 1 C3.34 1.66 2.68 2.32 2 3 C1.62792646 5.71615864 1.62792646 5.71615864 1.5859375 8.8828125 C1.54726562 10.04941406 1.50859375 11.21601562 1.46875 12.41796875 C1.4378125 13.64128906 1.406875 14.86460938 1.375 16.125 C1.33632812 17.35605469 1.29765625 18.58710937 1.2578125 19.85546875 C1.1633001 22.90349376 1.07774506 25.95150862 1 29 C2.546875 28.51080078 2.546875 28.51080078 4.125 28.01171875 C11.51009685 25.90726334 19.51513015 26.63911457 27 28 C27 28.33 27 28.66 27 29 C26.05125 29.12375 25.1025 29.2475 24.125 29.375 C20.91332809 29.71687177 20.91332809 29.71687177 19 32 C17.03626096 31.96727102 15.0724424 31.93199183 13.109375 31.87109375 C9.96379554 32.06332361 7.66270779 33.40237532 5 35 C5 35.66 5 36.32 5 37 C7.71549154 39.30671915 7.71549154 39.30671915 10.1875 38.625 C10.785625 38.41875 11.38375 38.2125 12 38 C11.67 38.99 11.34 39.98 11 41 C9.67696283 41.3721042 8.34262065 41.70630173 7 42 C6.505 42.99 6.505 42.99 6 44 C5.34 44 4.68 44 4 44 C4 42.35 4 40.7 4 39 C2.515 38.505 2.515 38.505 1 38 C1 37.34 1 36.68 1 36 C-1.53884453 37.15565651 -1.53884453 37.15565651 -4 39 C-4.88658466 41.59122743 -4.88658466 41.59122743 -5 44 C-5.66 44 -6.32 44 -7 44 C-7 43.34 -7 42.68 -7 42 C-8.98 42 -10.96 42 -13 42 C-13 41.34 -13 40.68 -13 40 C-14.65 40 -16.3 40 -18 40 C-18 39.67 -18 39.34 -18 39 C-10.25 38 -10.25 38 -8 38 C-7.01 37.505 -7.01 37.505 -6 37 C-6.66920053 33.9543422 -6.66920053 33.9543422 -8.765625 32.8515625 C-11.15331901 31.94156723 -13.20909095 31.59919786 -15.75 31.375 C-16.54921875 31.30023438 -17.3484375 31.22546875 -18.171875 31.1484375 C-18.77515625 31.09945312 -19.3784375 31.05046875 -20 31 C-19.67 30.34 -19.34 29.68 -19 29 C-21.97 29 -24.94 29 -28 29 C-24.33244001 26.55496001 -22.42521863 26.73168848 -18.0625 26.75 C-16.83660156 26.74484375 -15.61070313 26.7396875 -14.34765625 26.734375 C-11.1961783 26.98443393 -9.68432207 27.49993767 -7 29 C-3.68449798 28.72455805 -3.68449798 28.72455805 -1 27 C-0.84174742 25.00217874 -0.74880829 22.99911166 -0.68359375 20.99609375 C-0.64169922 19.78115234 -0.59980469 18.56621094 -0.55664062 17.31445312 C-0.51732422 16.03505859 -0.47800781 14.75566406 -0.4375 13.4375 C-0.39431641 12.15423828 -0.35113281 10.87097656 -0.30664062 9.54882812 C-0.200152 6.36600147 -0.09814038 3.18309326 0 0 Z " fill="#344838" transform="translate(129,94)"/>
<path d="M0 0 C0.99 0.66 1.98 1.32 3 2 C2.34 2 1.68 2 1 2 C1.99 3.485 1.99 3.485 3 5 C8.1706348 5.35055151 12.872152 4.76886717 18 4 C17.52294177 6.27127721 17.04328294 8.54200832 16.5625 10.8125 C16.29566406 12.07707031 16.02882813 13.34164062 15.75390625 14.64453125 C15 18 15 18 14 21 C9.38211328 22.4088468 4.77577488 23.28363377 0 24 C-2.13604308 20.79593538 -2.24208908 20.00399253 -2.1953125 16.33203125 C-2.18564453 14.99301758 -2.18564453 14.99301758 -2.17578125 13.62695312 C-2.15902344 12.69818359 -2.14226562 11.76941406 -2.125 10.8125 C-2.11597656 9.87212891 -2.10695313 8.93175781 -2.09765625 7.96289062 C-2.07409056 5.64167032 -2.04119116 3.32096356 -2 1 C-1.34 0.67 -0.68 0.34 0 0 Z " fill="#ABB4AB" transform="translate(70,101)"/>
<path d="M0 0 C0.33 0 0.66 0 1 0 C1 2.64 1 5.28 1 8 C2.32 8 3.64 8 5 8 C5.66 8 6.32 8 7 8 C7.33 7.34 7.66 6.68 8 6 C10.38812446 8.38812446 9.482011 14.27433639 9.625 17.5 C9.70234375 18.98306641 9.70234375 18.98306641 9.78125 20.49609375 C9.82507813 21.43582031 9.86890625 22.37554687 9.9140625 23.34375 C9.9548291 24.21193359 9.9955957 25.08011719 10.03759766 25.97460938 C10 28 10 28 9 29 C5.76744024 29.24655117 2.53572508 29.38421091 -0.703125 29.5234375 C-4.18019849 30.02604765 -6.15162778 30.99757291 -9 33 C-8.88556397 30.9160597 -8.75804453 28.83283507 -8.625 26.75 C-8.55539063 25.58984375 -8.48578125 24.4296875 -8.4140625 23.234375 C-8.02884502 20.22531771 -7.79276659 18.4202349 -6 16 C-3.8359375 14.953125 -3.8359375 14.953125 -1.375 14.25 C-0.55773438 14.00765625 0.25953125 13.7653125 1.1015625 13.515625 C2.04128906 13.26039062 2.04128906 13.26039062 3 13 C2.67 12.34 2.34 11.68 2 11 C-0.52733235 10.34444881 -0.52733235 10.34444881 -3 10 C-2.01 9.67 -1.02 9.34 0 9 C0 6.03 0 3.06 0 0 Z " fill="#5C6F5D" transform="translate(57,98)"/>
<path d="M0 0 C0.7940625 0.00515625 1.588125 0.0103125 2.40625 0.015625 C3.2003125 0.01046875 3.994375 0.0053125 4.8125 0 C6.90625 0.265625 6.90625 0.265625 8.90625 2.265625 C7.91625 2.595625 6.92625 2.925625 5.90625 3.265625 C5.90625 3.925625 5.90625 4.585625 5.90625 5.265625 C8.21625 4.605625 10.52625 3.945625 12.90625 3.265625 C12.41125 3.86375 11.91625 4.461875 11.40625 5.078125 C9.62348582 7.23592494 9.62348582 7.23592494 9.90625 10.265625 C9.24625 10.265625 8.58625 10.265625 7.90625 10.265625 C7.95845703 11.62107422 7.95845703 11.62107422 8.01171875 13.00390625 C8.03878906 14.18339844 8.06585938 15.36289063 8.09375 16.578125 C8.14595703 18.33576172 8.14595703 18.33576172 8.19921875 20.12890625 C7.90625 23.265625 7.90625 23.265625 4.90625 26.265625 C4.24625 22.305625 3.58625 18.345625 2.90625 14.265625 C-0.06375 13.770625 -0.06375 13.770625 -3.09375 13.265625 C-3.09375 12.605625 -3.09375 11.945625 -3.09375 11.265625 C-2.10375 10.605625 -1.11375 9.945625 -0.09375 9.265625 C-1.08375 9.595625 -2.07375 9.925625 -3.09375 10.265625 C-5.03125 10.3984375 -5.03125 10.3984375 -7.09375 10.390625 C-8.1146875 10.39449219 -8.1146875 10.39449219 -9.15625 10.3984375 C-11.09375 10.265625 -11.09375 10.265625 -14.09375 9.265625 C-14.42375 9.925625 -14.75375 10.585625 -15.09375 11.265625 C-16.41375 10.275625 -17.73375 9.285625 -19.09375 8.265625 C-18.12078346 5.61207989 -17.43582577 4.46684604 -14.96875 3.015625 C-12.36700917 2.33691 -10.55333193 2.2079753 -7.90625 2.265625 C-6.648125 2.265625 -5.39 2.265625 -4.09375 2.265625 C-2.09375 0.265625 -2.09375 0.265625 0 0 Z " fill="#2C4031" transform="translate(152.09375,122.734375)"/>
<path d="M0 0 C0.93854006 7.03905044 1.10808032 13.90272572 1 21 C-2.0469629 22.69433918 -4.82821466 23.49467112 -8.25 24.125 C-9.14203125 24.29257813 -10.0340625 24.46015625 -10.953125 24.6328125 C-11.62859375 24.75398438 -12.3040625 24.87515625 -13 25 C-13.58405712 19.27624025 -12.46921677 14.55836053 -10.6875 9.125 C-10.47456299 8.45847412 -10.26162598 7.79194824 -10.04223633 7.10522461 C-8.06985996 1.35852058 -6.06686172 -0.32793847 0 0 Z " fill="#0F0E0F" transform="translate(71,80)"/>
<path d="M0 0 C2.97 0 5.94 0 9 0 C10.30386819 8.07932613 11.24812636 15.81183003 11 24 C7.7 24 4.4 24 1 24 C0.02646717 15.96835418 -0.10486288 8.08609351 0 0 Z " fill="#1A191A" transform="translate(148,189)"/>
<path d="M0 0 C5.94 0.33 11.88 0.66 18 1 C18 2.32 18 3.64 18 5 C14.37 4.67 10.74 4.34 7 4 C6.93941406 4.90363281 6.87882812 5.80726563 6.81640625 6.73828125 C6.73261719 7.91777344 6.64882812 9.09726563 6.5625 10.3125 C6.48128906 11.48425781 6.40007812 12.65601563 6.31640625 13.86328125 C6 17 6 17 5 20 C9.29 20 13.58 20 18 20 C17.67 20.99 17.34 21.98 17 23 C14.37405216 22.8863485 11.74988453 22.75960946 9.125 22.625 C8.37863281 22.5940625 7.63226563 22.563125 6.86328125 22.53125 C1.2265625 22.2265625 1.2265625 22.2265625 -1 20 C-1.13525391 18.04467773 -1.13525391 18.04467773 -0.9765625 15.68359375 C-0.925 14.83732422 -0.8734375 13.99105469 -0.8203125 13.11914062 C-0.75585938 12.23419922 -0.69140625 11.34925781 -0.625 10.4375 C-0.56828125 9.54869141 -0.5115625 8.65988281 -0.453125 7.74414062 C-0.34806291 6.10442164 -0.23860958 4.46497449 -0.12353516 2.82592773 C-0.05988937 1.88520275 0 0.94287554 0 0 Z " fill="#F2F2F2" transform="translate(93,193)"/>
<path d="M0 0 C1.65 0 3.3 0 5 0 C6.2113078 8.71709003 7.27574313 17.17621971 7 26 C10.3 26 13.6 26 17 26 C16.67 26.99 16.34 27.98 16 29 C13.68756208 29.02685412 11.3750373 29.04632841 9.0625 29.0625 C7.77472656 29.07410156 6.48695313 29.08570313 5.16015625 29.09765625 C2 29 2 29 1 28 C-0.00745053 18.69662965 -0.1418879 9.34883581 0 0 Z " fill="#F6F6F6" transform="translate(142,187)"/>
<path d="M0 0 C0.680625 0.165 1.36125 0.33 2.0625 0.5 C2.08948189 2.12490954 2.10888757 3.74994633 2.125 5.375 C2.13660156 6.27992188 2.14820312 7.18484375 2.16015625 8.1171875 C2.0625 10.5 2.0625 10.5 1.0625 12.5 C3.3725 12.83 5.6825 13.16 8.0625 13.5 C8.3925 14.49 8.7225 15.48 9.0625 16.5 C4.55896738 18.25747614 0.88610189 18.69294408 -3.9375 18.5 C-3.9375 14.21 -3.9375 9.92 -3.9375 5.5 C-6.9075 5.5 -9.8775 5.5 -12.9375 5.5 C-12.9375 4.18 -12.9375 2.86 -12.9375 1.5 C-8.65215609 -1.35689594 -4.97351927 -0.84655647 0 0 Z " fill="#314435" transform="translate(66.9375,131.5)"/>
<path d="M0 0 C0.33 0 0.66 0 1 0 C1 7.59 1 15.18 1 23 C3.64 23 6.28 23 9 23 C8.67 19.37 8.34 15.74 8 12 C10.64 12 13.28 12 16 12 C16.05386629 14.12472576 16.09273071 16.24983652 16.125 18.375 C16.14820313 19.55835938 16.17140625 20.74171875 16.1953125 21.9609375 C16 25 16 25 14 27 C12.04467773 27.24291992 12.04467773 27.24291992 9.68359375 27.23046875 C8.83732422 27.22853516 7.99105469 27.22660156 7.11914062 27.22460938 C5.79172852 27.20624023 5.79172852 27.20624023 4.4375 27.1875 C3.54869141 27.18685547 2.65988281 27.18621094 1.74414062 27.18554688 C-4.85978903 27.14021097 -4.85978903 27.14021097 -6 26 C-6.08631874 24.65732587 -6.10706473 23.31025678 -6.09765625 21.96484375 C-6.09443359 21.15595703 -6.09121094 20.34707031 -6.08789062 19.51367188 C-6.07951172 18.66353516 -6.07113281 17.81339844 -6.0625 16.9375 C-6.05798828 16.08349609 -6.05347656 15.22949219 -6.04882812 14.34960938 C-6.03700373 12.23304337 -6.01906769 10.11651315 -6 8 C-5.67 8 -5.34 8 -5 8 C-4.67 13.61 -4.34 19.22 -4 25 C-2.35 25 -0.7 25 1 25 C0.67 24.67 0.34 24.34 0 24 C-0.08726223 22.21928754 -0.10699041 20.4351686 -0.09765625 18.65234375 C-0.09443359 17.57275391 -0.09121094 16.49316406 -0.08789062 15.38085938 C-0.07951172 14.24455078 -0.07113281 13.10824219 -0.0625 11.9375 C-0.05798828 10.79732422 -0.05347656 9.65714844 -0.04882812 8.48242188 C-0.03699747 5.65489649 -0.0205141 2.8274736 0 0 Z " fill="#D2D2D2" transform="translate(123,190)"/>
<path d="M0 0 C0.66 0 1.32 0 2 0 C3.13251162 3.80120618 4.25294135 7.60575971 5.36303711 11.41357422 C5.92534882 13.33351144 6.49675596 15.25077734 7.06835938 17.16796875 C9.09016562 24.12589656 10.67090118 30.74712766 11 38 C8.6875 37.8125 8.6875 37.8125 6 37 C3.35082453 33.41321986 2.5222367 30.42884477 2.05078125 26.03515625 C1.92509766 24.90529297 1.79941406 23.77542969 1.66992188 22.61132812 C1.49299805 20.8546582 1.49299805 20.8546582 1.3125 19.0625 C1.18294922 17.89525391 1.05339844 16.72800781 0.91992188 15.52539062 C0.35923533 10.3190156 -0.06889225 5.24118572 0 0 Z " fill="#111111" transform="translate(188,67)"/>
<path d="M0 0 C5.0220223 -0.09119107 9.8321527 0.22949138 14.8125 0.875 C16.11832031 1.03742187 17.42414063 1.19984375 18.76953125 1.3671875 C22 2 22 2 24 4 C24 5.98 24 7.96 24 10 C19.38 9.01 14.76 8.02 10 7 C10 7.99 10 8.98 10 10 C4.25 10.125 4.25 10.125 2 9 C1.3671875 6.93359375 1.3671875 6.93359375 0.875 4.4375 C0.70742187 3.61121094 0.53984375 2.78492188 0.3671875 1.93359375 C0.24601563 1.29550781 0.12484375 0.65742187 0 0 Z " fill="#DEDEDE" transform="translate(148,38)"/>
<path d="M0 0 C-1.07335463 4.76933992 -3.13337923 8.89241564 -7 12 C-9.26171875 12.29296875 -9.26171875 12.29296875 -11.6875 12.1875 C-12.89986328 12.14689453 -12.89986328 12.14689453 -14.13671875 12.10546875 C-14.75160156 12.07066406 -15.36648437 12.03585938 -16 12 C-16.33 10.35 -16.66 8.7 -17 7 C-15.23050388 6.49528803 -13.45934777 5.99639315 -11.6875 5.5 C-10.70136719 5.2215625 -9.71523437 4.943125 -8.69921875 4.65625 C-6 4 -6 4 -3 4 C-3 3.34 -3 2.68 -3 2 C-3.70511719 2.32742187 -4.41023438 2.65484375 -5.13671875 2.9921875 C-8.23867167 4.08400722 -10.54006053 4.20385396 -13.8125 4.125 C-15.27623047 4.09792969 -15.27623047 4.09792969 -16.76953125 4.0703125 C-17.50558594 4.04710937 -18.24164063 4.02390625 -19 4 C-19 3.34 -19 2.68 -19 2 C-12.65176798 -0.30844801 -6.70518586 -0.19818283 0 0 Z " fill="#233428" transform="translate(86,151)"/>
<path d="M0 0 C0.71607422 0.00064453 1.43214844 0.00128906 2.16992188 0.00195312 C5.59757923 0.03054341 8.78692328 0.11844754 12.0625 1.1875 C12.0625 3.1875 12.0625 3.1875 9.875 5.4375 C8.946875 6.345 8.01875 7.2525 7.0625 8.1875 C5.35050793 10.15397738 3.70879473 12.16490933 2.0625 14.1875 C-0.3125 14 -0.3125 14 -2.9375 13.1875 C-4.25 10.625 -4.25 10.625 -4.9375 8.1875 C-2.9575 8.1875 -0.9775 8.1875 1.0625 8.1875 C1.0625 7.5275 1.0625 6.8675 1.0625 6.1875 C3.0425 5.5275 5.0225 4.8675 7.0625 4.1875 C4.93756859 4.16056425 2.81254088 4.14113372 0.6875 4.125 C-1.08753906 4.10759766 -1.08753906 4.10759766 -2.8984375 4.08984375 C-5.85671521 3.97283407 -5.85671521 3.97283407 -7.9375 5.1875 C-8.9275 4.1975 -9.9175 3.2075 -10.9375 2.1875 C-7.20653192 -0.29981205 -4.31028041 -0.07331721 0 0 Z " fill="#353B36" transform="translate(127.9375,156.8125)"/>
<path d="M0 0 C2.34576488 1.11291913 3.97143135 2.33553342 6 4 C5 7 5 7 2.9375 8.1875 C2.298125 8.455625 1.65875 8.72375 1 9 C1 8.34 1 7.68 1 7 C0.01 7.495 0.01 7.495 -1 8 C-5.72722742 8.56652431 -9.00700352 8.64848749 -13.0625 6 C-13.701875 5.34 -14.34125 4.68 -15 4 C-10.17435232 0.04049421 -6.23204151 -1.15531607 0 0 Z " fill="#090909" transform="translate(118,125)"/>
<path d="M0 0 C1.65234375 1.1015625 1.65234375 1.1015625 4.15234375 3.1015625 C1.1955026 6.05840365 -0.82638417 7.39111265 -4.97265625 7.4140625 C-8.84765625 7.1015625 -8.84765625 7.1015625 -11.84765625 6.1015625 C-12.17765625 6.7615625 -12.50765625 7.4215625 -12.84765625 8.1015625 C-14.16765625 7.1115625 -15.48765625 6.1215625 -16.84765625 5.1015625 C-15.87468971 2.44801739 -15.18973202 1.30278354 -12.72265625 -0.1484375 C-8.37902931 -1.28155757 -4.12785213 -2.00720082 0 0 Z " fill="#120C0B" transform="translate(149.84765625,125.8984375)"/>
<path d="M0 0 C3 2 3 2 5 4 C0.44573816 6.66590937 -2.73946963 7.31563182 -8 7 C-8 7.66 -8 8.32 -8 9 C-9.65 8.67 -11.3 8.34 -13 8 C-13 4 -13 4 -11 1.75 C-7.1951286 -0.46950832 -4.31109457 -0.90393918 0 0 Z " fill="#131110" transform="translate(88,127)"/>
<path d="M0 0 C2 2 2 2 2 5 C1.030625 5.12375 0.06125 5.2475 -0.9375 5.375 C-2.4534375 5.684375 -2.4534375 5.684375 -4 6 C-4.33 6.66 -4.66 7.32 -5 8 C-5.99 7.34 -6.98 6.68 -8 6 C-8.33 6.66 -8.66 7.32 -9 8 C-9 7.34 -9 6.68 -9 6 C-11.97 5.505 -11.97 5.505 -15 5 C-15 3.68 -15 2.36 -15 1 C-9.4761763 -0.95635423 -5.76825978 -1.17320538 0 0 Z " fill="#384D3C" transform="translate(135,144)"/>
<path d="M0 0 C3.4375 2 3.4375 2 6 4 C5.67 5.32 5.34 6.64 5 8 C2.91549283 7.7168444 0.83241633 7.42314331 -1.25 7.125 C-2.99023438 6.88136719 -2.99023438 6.88136719 -4.765625 6.6328125 C-7.58193313 6.08179569 -9.55217557 5.44203518 -12 4 C-8.13930402 -0.03618216 -5.66274613 -0.47189551 0 0 Z " fill="#090909" transform="translate(176,127)"/>
<path d="M0 0 C2.81920851 0.07176167 4.07116885 0.28423865 6.625 1.625 C8.125 3.3125 8.125 3.3125 8.125 6.3125 C3.45833333 6.3125 -1.20833333 6.3125 -5.875 6.3125 C-5.875 0.9307202 -5.33784255 0.43047117 0 0 Z " fill="#0E0B0A" transform="translate(195.875,130.6875)"/>
<path d="M0 0 C6.11090483 -0.09945415 11.97403427 -0.0712828 18 1 C18 2.32 18 3.64 18 5 C12.06 5 6.12 5 0 5 C0 3.35 0 1.7 0 0 Z " fill="#D9D8D9" transform="translate(95,185)"/>
<path d="M0 0 C2.4375 1.5 2.4375 1.5 4 3 C3.34 4.32 2.68 5.64 2 7 C1.34 7 0.68 7 0 7 C0 6.34 0 5.68 0 5 C-0.99 5.495 -0.99 5.495 -2 6 C-4.6723621 6.13415472 -7.32250488 6.04318541 -10 6 C-10 4.68 -10 3.36 -10 2 C-6.28986601 -0.47342266 -4.38939738 -0.38503486 0 0 Z " fill="#070808" transform="translate(64,131)"/>
<path d="M0 0 C7.67028737 0.62915097 15.33667323 1.29099142 23 2 C23.33 4.64 23.66 7.28 24 10 C23.40832031 9.86722656 22.81664062 9.73445313 22.20703125 9.59765625 C18.14553475 8.68994822 14.08625829 7.7908887 10 7 C10 6.67 10 6.34 10 6 C14.54805635 5.82164485 17.8794254 6.00214565 22 8 C22 6.35 22 4.7 22 3 C21.29875 3.01160156 20.5975 3.02320313 19.875 3.03515625 C14.13886898 3.08971184 8.67221747 2.85618377 3 2 C3 6.95 3 11.9 3 17 C2.67 17 2.34 17 2 17 C2 12.05 2 7.1 2 2 C1.34 2 0.68 2 0 2 C0 1.34 0 0.68 0 0 Z " fill="#A1A1A1" transform="translate(148,51)"/>
<path d="M0 0 C2.97 0 5.94 0 9 0 C9 0.33 9 0.66 9 1 C7.02 1.33 5.04 1.66 3 2 C5.64 2 8.28 2 11 2 C10.67 2.99 10.34 3.98 10 5 C8.68 5 7.36 5 6 5 C6.33 6.98 6.66 8.96 7 11 C5.02 10.34 3.04 9.68 1 9 C1 8.01 1 7.02 1 6 C0.67 5.67 0.34 5.34 0 5 C-0.04063832 3.33382885 -0.042721 1.66611905 0 0 Z " fill="#5D6A5E" transform="translate(69,163)"/>
<path d="M0 0 C0.22531972 3.29073662 0.42735982 6.58249419 0.625 9.875 C0.68945312 10.81214844 0.75390625 11.74929687 0.8203125 12.71484375 C0.871875 13.61074219 0.9234375 14.50664063 0.9765625 15.4296875 C1.02893066 16.25710449 1.08129883 17.08452148 1.13525391 17.93701172 C1 20 1 20 -1 22 C-2.10789535 17.94691667 -2.33731267 13.92888626 -2.5625 9.75 C-2.60568359 9.00492188 -2.64886719 8.25984375 -2.69335938 7.4921875 C-2.79896725 5.661651 -2.89994201 3.83084824 -3 2 C-5.475 3.485 -5.475 3.485 -8 5 C-8 4.34 -8 3.68 -8 3 C-8.66 2.67 -9.32 2.34 -10 2 C-6.57602277 -0.10706291 -3.96057533 -0.08680713 0 0 Z " fill="#445847" transform="translate(68,103)"/>
<path d="M0 0 C0.66 0 1.32 0 2 0 C2 2.97 2 5.94 2 9 C0.3767313 9.6708712 -1.24867578 10.33657029 -2.875 11 C-4.23238281 11.556875 -4.23238281 11.556875 -5.6171875 12.125 C-8 13 -8 13 -10 13 C-10 12.34 -10 11.68 -10 11 C-9.01 11 -8.02 11 -7 11 C-7 10.34 -7 9.68 -7 9 C-7.66 9 -8.32 9 -9 9 C-8.67 8.01 -8.34 7.02 -8 6 C-8 6.66 -8 7.32 -8 8 C-5.69 7.34 -3.38 6.68 -1 6 C-0.67 4.02 -0.34 2.04 0 0 Z " fill="#383838" transform="translate(68,64)"/>
<path d="M0 0 C0.91007813 0.00902344 1.82015625 0.01804687 2.7578125 0.02734375 C3.45648438 0.03894531 4.15515625 0.05054687 4.875 0.0625 C4.875 0.3925 4.875 0.7225 4.875 1.0625 C3.905625 1.330625 2.93625 1.59875 1.9375 1.875 C0.926875 2.266875 -0.08375 2.65875 -1.125 3.0625 C-1.455 4.0525 -1.785 5.0425 -2.125 6.0625 C-2.785 6.0625 -3.445 6.0625 -4.125 6.0625 C-4.455 6.7225 -4.785 7.3825 -5.125 8.0625 C-6.445 7.0725 -7.765 6.0825 -9.125 5.0625 C-6.91386358 0.16641221 -5.24075958 -0.06718923 0 0 Z " fill="#0A0506" transform="translate(142.125,125.9375)"/>
<path d="M0 0 C3.3 0 6.6 0 10 0 C9.01 1.98 8.02 3.96 7 6 C4.625 5.8125 4.625 5.8125 2 5 C0.6875 2.4375 0.6875 2.4375 0 0 Z " fill="#39443B" transform="translate(123,165)"/>
<path d="M0 0 C2.13586678 3.20380017 2.23132175 4.01939967 2.125 7.6875 C2.10695312 8.49574219 2.08890625 9.30398437 2.0703125 10.13671875 C2.03550781 11.05904297 2.03550781 11.05904297 2 12 C3.65 12 5.3 12 7 12 C7.33 12.66 7.66 13.32 8 14 C7.37351563 13.97679688 6.74703125 13.95359375 6.1015625 13.9296875 C5.28429687 13.91164063 4.46703125 13.89359375 3.625 13.875 C2.40683594 13.84019531 2.40683594 13.84019531 1.1640625 13.8046875 C-1.21342243 13.78629949 -1.21342243 13.78629949 -3 16 C-3 14.68 -3 13.36 -3 12 C-3.66 11.34 -4.32 10.68 -5 10 C-3 9 -3 9 1 10 C0.67 6.7 0.34 3.4 0 0 Z " fill="#656D66" transform="translate(198,95)"/>
<path d="M0 0 C1.24910156 -0.00515625 2.49820313 -0.0103125 3.78515625 -0.015625 C6.9375 0.25 6.9375 0.25 8.9375 2.25 C5.30326791 4.57590854 2.16661669 4.41265833 -2.0625 4.25 C-1.7325 3.59 -1.4025 2.93 -1.0625 2.25 C-4.0325 2.25 -7.0025 2.25 -10.0625 2.25 C-6.37155532 -0.21062979 -4.39205805 -0.01816777 0 0 Z " fill="#4B5D4F" transform="translate(111.0625,120.75)"/>
<path d="M0 0 C6.0546875 -0.1953125 6.0546875 -0.1953125 8 0 C10 2 10 2 10 5 C6.53058454 4.54177532 3.32604951 4.10868317 0 3 C0 2.01 0 1.02 0 0 Z " fill="#213025" transform="translate(181,145)"/>
<path d="M0 0 C1.98 0 3.96 0 6 0 C6 0.66 6 1.32 6 2 C6.99 2.33 7.98 2.66 9 3 C7.02 3 5.04 3 3 3 C3 3.66 3 4.32 3 5 C5.64 5 8.28 5 11 5 C11 5.33 11 5.66 11 6 C7.7 6 4.4 6 1 6 C0.67 4.02 0.34 2.04 0 0 Z " fill="#546155" transform="translate(64,150)"/>
<path d="M0 0 C1.670625 0.061875 1.670625 0.061875 3.375 0.125 C3.705 1.115 4.035 2.105 4.375 3.125 C1.405 3.785 -1.565 4.445 -4.625 5.125 C-4.955 4.135 -5.285 3.145 -5.625 2.125 C-3.625 0.125 -3.625 0.125 0 0 Z " fill="#202F24" transform="translate(71.625,144.875)"/>
<path d="M0 0 C0.66 0.66 1.32 1.32 2 2 C2.66 1.67 3.32 1.34 4 1 C3.67 5.62 3.34 10.24 3 15 C0 12 0 12 -0.29296875 9.08203125 C-0.25816406 8.00308594 -0.22335938 6.92414063 -0.1875 5.8125 C-0.16042969 4.72582031 -0.13335937 3.63914063 -0.10546875 2.51953125 C-0.07066406 1.68808594 -0.03585938 0.85664063 0 0 Z " fill="#2C3E30" transform="translate(97,135)"/>
<path d="M0 0 C2.125 0.375 2.125 0.375 4 1 C4.33 2.65 4.66 4.3 5 6 C3.02 6 1.04 6 -1 6 C-1.625 4.125 -1.625 4.125 -2 2 C-1.34 1.34 -0.68 0.68 0 0 Z " fill="#770707" transform="translate(142,127)"/>
<path d="M0 0 C0.80050781 0.12761719 1.60101563 0.25523437 2.42578125 0.38671875 C3.23402344 0.50660156 4.04226562 0.62648437 4.875 0.75 C5.48988281 0.85699219 6.10476562 0.96398437 6.73828125 1.07421875 C7.06828125 2.72421875 7.39828125 4.37421875 7.73828125 6.07421875 C6.74828125 5.41421875 5.75828125 4.75421875 4.73828125 4.07421875 C2.22931439 3.61820614 2.22931439 3.61820614 -0.44921875 3.44921875 C-1.35027344 3.37445313 -2.25132812 3.2996875 -3.1796875 3.22265625 C-3.86675781 3.17367187 -4.55382812 3.1246875 -5.26171875 3.07421875 C-3.53640014 0.90221572 -2.83921072 0.09316926 0 0 Z " fill="#272927" transform="translate(182.26171875,153.92578125)"/>
<path d="M0 0 C-0.33 0.66 -0.66 1.32 -1 2 C-4.14930893 3.04976964 -6.38814456 3.10131595 -9.6875 3.0625 C-10.68136719 3.05347656 -11.67523438 3.04445312 -12.69921875 3.03515625 C-13.83810547 3.01775391 -13.83810547 3.01775391 -15 3 C-15 2.34 -15 1.68 -15 1 C-9.94997778 -0.03590199 -5.12583611 -0.10251672 0 0 Z " fill="#181918" transform="translate(82,152)"/>
<path d="M0 0 C0.04254356 1.99954746 0.04080783 4.00041636 0 6 C-1 7 -1 7 -4.0625 7.0625 C-5.031875 7.041875 -6.00125 7.02125 -7 7 C-5.68 6.67 -4.36 6.34 -3 6 C-3 5.01 -3 4.02 -3 3 C-3.99 2.67 -4.98 2.34 -6 2 C-6.99 1.34 -7.98 0.68 -9 0 C-5.67465243 -1.10844919 -3.37817425 -0.84454356 0 0 Z " fill="#374B3B" transform="translate(194,144)"/>
<path d="M0 0 C5.56784792 0.07684608 10.9419105 0.23340134 16.42578125 1.23046875 C16.42578125 1.56046875 16.42578125 1.89046875 16.42578125 2.23046875 C15.47703125 2.35421875 14.52828125 2.47796875 13.55078125 2.60546875 C10.33910934 2.94734052 10.33910934 2.94734052 8.42578125 5.23046875 C7.84376953 4.49376953 7.84376953 4.49376953 7.25 3.7421875 C4.81366429 1.72321122 3.35647453 1.9214807 0.23828125 2.04296875 C-1.11330078 2.08357422 -1.11330078 2.08357422 -2.4921875 2.125 C-3.17925781 2.15980469 -3.86632812 2.19460937 -4.57421875 2.23046875 C-2.57421875 0.23046875 -2.57421875 0.23046875 0 0 Z " fill="#3B5040" transform="translate(139.57421875,120.76953125)"/>
<path d="M0 0 C0.66 0 1.32 0 2 0 C2.433125 1.216875 2.86625 2.43375 3.3125 3.6875 C4.56079535 7.04600891 6.11477808 9.94773594 8 13 C8 13.66 8 14.32 8 15 C8.66 15.33 9.32 15.66 10 16 C9.34 16.66 8.68 17.32 8 18 C0.14806378 6.66287016 0.14806378 6.66287016 0 0 Z " fill="#830509" transform="translate(213,95)"/>
<path d="M0 0 C1.65 0.33 3.3 0.66 5 1 C1.49102731 5.18423892 -2.08060535 9.19588166 -6 13 C-6.3125 10.75 -6.3125 10.75 -6 8 C-4.37064759 6.62131719 -2.70250393 5.28725907 -1 4 C-0.13034494 1.87053397 -0.13034494 1.87053397 0 0 Z " fill="#7F0509" transform="translate(218,129)"/>
<path d="M0 0 C0.33 0 0.66 0 1 0 C1.33 5.61 1.66 11.22 2 17 C3.98 17.33 5.96 17.66 8 18 C8 18.33 8 18.66 8 19 C4.7 19 1.4 19 -2 19 C-2 18.01 -2 17.02 -2 16 C-1.34 16 -0.68 16 0 16 C0 10.72 0 5.44 0 0 Z " fill="#8F8E8F" transform="translate(151,68)"/>
<path d="M0 0 C3.96 0 7.92 0 12 0 C11 4 11 4 9 7 C8.01 7.33 7.02 7.66 6 8 C6 6.68 6 5.36 6 4 C6.99 4 7.98 4 9 4 C8.67 3.34 8.34 2.68 8 2 C6.10466658 1.53476937 6.10466658 1.53476937 3.9375 1.375 C2.638125 1.25125 1.33875 1.1275 0 1 C0 0.67 0 0.34 0 0 Z " fill="#475449" transform="translate(74,151)"/>
<path d="M0 0 C3.63 0.33 7.26 0.66 11 1 C9.02 1.99 9.02 1.99 7 3 C7.66 4.32 8.32 5.64 9 7 C5.66666667 5.33333333 2.33333333 3.66666667 -1 2 C-0.67 1.34 -0.34 0.68 0 0 Z " fill="#283E2E" transform="translate(117,123)"/>
<path d="M0 0 C3.3 0 6.6 0 10 0 C8.02 0.99 8.02 0.99 6 2 C8.64 2.33 11.28 2.66 14 3 C14 3.33 14 3.66 14 4 C11.03 4 8.06 4 5 4 C4.67 5.32 4.34 6.64 4 8 C4 6.02 4 4.04 4 2 C2.68 2 1.36 2 0 2 C0 1.34 0 0.68 0 0 Z " fill="#A6A6A6" transform="translate(143,185)"/>
<path d="M0 0 C1.11375 0.3403125 1.11375 0.3403125 2.25 0.6875 C2.25 1.6775 2.25 2.6675 2.25 3.6875 C1.280625 3.81125 0.31125 3.935 -0.6875 4.0625 C-2.2034375 4.371875 -2.2034375 4.371875 -3.75 4.6875 C-4.08 5.3475 -4.41 6.0075 -4.75 6.6875 C-4.75 5.6975 -4.75 4.7075 -4.75 3.6875 C-5.41 3.3575 -6.07 3.0275 -6.75 2.6875 C-4.29511132 0.41445492 -3.41240272 -0.38777304 0 0 Z " fill="#223226" transform="translate(134.75,145.3125)"/>
<path d="M0 0 C0.99 0.66 1.98 1.32 3 2 C2.34 2 1.68 2 1 2 C-0.585869 5.171738 -0.37866445 8.63513822 -0.5625 12.125 C-0.60568359 12.87910156 -0.64886719 13.63320312 -0.69335938 14.41015625 C-0.7994832 16.27321888 -0.90025001 18.13658524 -1 20 C-0.34 20.33 0.32 20.66 1 21 C0.34 21.66 -0.32 22.32 -1 23 C-2.20029908 20.59940183 -2.11459743 19.10639351 -2.09765625 16.4296875 C-2.09443359 15.53378906 -2.09121094 14.63789062 -2.08789062 13.71484375 C-2.07951172 12.77769531 -2.07113281 11.84054688 -2.0625 10.875 C-2.05798828 9.93011719 -2.05347656 8.98523438 -2.04882812 8.01171875 C-2.03702357 5.67441613 -2.02055759 3.33723939 -2 1 C-1.34 0.67 -0.68 0.34 0 0 Z " fill="#949E95" transform="translate(70,101)"/>
<path d="M0 0 C0.7425 0.515625 1.485 1.03125 2.25 1.5625 C4.83215454 3.24942772 4.83215454 3.24942772 7.3125 2.6875 C7.869375 2.460625 8.42625 2.23375 9 2 C8.67 2.99 8.34 3.98 8 5 C6.67696283 5.3721042 5.34262065 5.70630173 4 6 C3.67 6.66 3.34 7.32 3 8 C2.34 8 1.68 8 1 8 C0.67 5.36 0.34 2.72 0 0 Z " fill="#29382B" transform="translate(132,130)"/>
<path d="M0 0 C1.98567708 0.09765625 3.97135417 0.1953125 5.95703125 0.29296875 C5.95703125 1.61296875 5.95703125 2.93296875 5.95703125 4.29296875 C2.32703125 3.96296875 -1.30296875 3.63296875 -5.04296875 3.29296875 C-2.04296875 0.29296875 -2.04296875 0.29296875 0 0 Z " fill="#E7E7E7" transform="translate(105.04296875,193.70703125)"/>
<path d="M0 0 C0.33 0 0.66 0 1 0 C0.7444669 5.86448454 0.34242429 9.65757571 -4 14 C-4.66 13.67 -5.32 13.34 -6 13 C-5.73445312 12.48050781 -5.46890625 11.96101562 -5.1953125 11.42578125 C-3.29301903 7.66979306 -1.48040295 3.94774121 0 0 Z " fill="#708372" transform="translate(199,148)"/>
<path d="M0 0 C3.96 0 7.92 0 12 0 C12.33 1.32 12.66 2.64 13 4 C8.71 3.01 4.42 2.02 0 1 C0 0.67 0 0.34 0 0 Z " fill="#BAC3BA" transform="translate(176,158)"/>
<path d="M0 0 C0.66 0 1.32 0 2 0 C2 1.98 2 3.96 2 6 C-1.3 5.34 -4.6 4.68 -8 4 C-8 3.34 -8 2.68 -8 2 C-5.36 2.33 -2.72 2.66 0 3 C0 2.01 0 1.02 0 0 Z " fill="#C40908" transform="translate(141,38)"/>
<path d="M0 0 C1.98 0.495 1.98 0.495 4 1 C4.33 2.32 4.66 3.64 5 5 C3.02 5 1.04 5 -1 5 C-0.67 3.35 -0.34 1.7 0 0 Z " fill="#6A0F0F" transform="translate(82,129)"/>
<path d="M0 0 C0.33 0 0.66 0 1 0 C1.33 2.31 1.66 4.62 2 7 C1.40832031 6.86722656 0.81664062 6.73445313 0.20703125 6.59765625 C-3.85446525 5.68994822 -7.91374171 4.7908887 -12 4 C-12 3.67 -12 3.34 -12 3 C-7.45194365 2.82164485 -4.1205746 3.00214565 0 5 C0 3.35 0 1.7 0 0 Z " fill="#B8B8B8" transform="translate(170,54)"/>
<path d="M0 0 C0.99 0.33 1.98 0.66 3 1 C2.67 1.66 2.34 2.32 2 3 C2.66 2.67 3.32 2.34 4 2 C5.99960012 1.960008 8.00047242 1.95653201 10 2 C9.67 2.66 9.34 3.32 9 4 C6.93359375 4.4140625 6.93359375 4.4140625 4.4375 4.625 C3.61121094 4.69976562 2.78492187 4.77453125 1.93359375 4.8515625 C0.97646484 4.92503906 0.97646484 4.92503906 0 5 C0 3.35 0 1.7 0 0 Z " fill="#C70908" transform="translate(116,38)"/>
<path d="M0 0 C0.66 0.33 1.32 0.66 2 1 C2 2.65 2 4.3 2 6 C-0.97 6 -3.94 6 -7 6 C-6.67 5.34 -6.34 4.68 -6 4 C-4.02 4 -2.04 4 0 4 C0 2.68 0 1.36 0 0 Z " fill="#B1BAB1" transform="translate(128,150)"/>
<path d="M0 0 C1.32 0.66 2.64 1.32 4 2 C4 2.99 4 3.98 4 5 C2.02 5 0.04 5 -2 5 C-1.125 1.125 -1.125 1.125 0 0 Z " fill="#5F0909" transform="translate(196,132)"/>
<path d="M0 0 C3.3 0 6.6 0 10 0 C9.67 0.66 9.34 1.32 9 2 C7.02 2 5.04 2 3 2 C3 4.97 3 7.94 3 11 C0.43383368 7.15075052 0.44902324 4.5650696 0 0 Z " fill="#727672" transform="translate(167,100)"/>
<path d="M0 0 C2.875 -0.125 2.875 -0.125 6 0 C8 2 8 2 8.125 5.125 C8.08375 6.07375 8.0425 7.0225 8 8 C6.68 7.34 5.36 6.68 4 6 C4.66 6 5.32 6 6 6 C6 4.68 6 3.36 6 2 C3.03 1.505 3.03 1.505 0 1 C0 0.67 0 0.34 0 0 Z " fill="#A4A3A4" transform="translate(164,40)"/>
<path d="M0 0 C3.96 0 7.92 0 12 0 C11.67 1.32 11.34 2.64 11 4 C7.04992447 2.93651813 3.67673838 1.83836919 0 0 Z " fill="#F6F6F6" transform="translate(101,186)"/>
<path d="M0 0 C2.475 0.495 2.475 0.495 5 1 C5 2.98 5 4.96 5 7 C3.35 6.67 1.7 6.34 0 6 C0.66 5.67 1.32 5.34 2 5 C1.34 3.35 0.68 1.7 0 0 Z " fill="#95A096" transform="translate(182,148)"/>
<path d="M0 0 C2.64 0 5.28 0 8 0 C7.67 0.99 7.34 1.98 7 3 C4.36 3.33 1.72 3.66 -1 4 C-0.67 2.68 -0.34 1.36 0 0 Z " fill="#2A3E2F" transform="translate(139,122)"/>
<path d="M0 0 C2.97 0.495 2.97 0.495 6 1 C6 1.99 6 2.98 6 4 C4.02 4 2.04 4 0 4 C0 2.68 0 1.36 0 0 Z " fill="#212E25" transform="translate(120,145)"/>
<path d="M0 0 C2.0625 0.4375 2.0625 0.4375 4 1 C2.515 4.465 2.515 4.465 1 8 C0.34 8 -0.32 8 -1 8 C-1.04241723 5.66705225 -1.04092937 3.33297433 -1 1 C-0.67 0.67 -0.34 0.34 0 0 Z " fill="#6F8270" transform="translate(51,114)"/>
<path d="M0 0 C0 0.99 0 1.98 0 3 C-1.65 3 -3.3 3 -5 3 C-5 2.34 -5 1.68 -5 1 C-6.65 1 -8.3 1 -10 1 C-10 0.67 -10 0.34 -10 0 C-6.33694766 -0.74926071 -3.57644848 -1.2380014 0 0 Z " fill="#49524A" transform="translate(121,133)"/>
<path d="M0 0 C0.89203125 0.01804687 1.7840625 0.03609375 2.703125 0.0546875 C3.71632813 0.08949219 3.71632813 0.08949219 4.75 0.125 C4.75 0.455 4.75 0.785 4.75 1.125 C3.96625 1.24875 3.1825 1.3725 2.375 1.5 C-0.39057822 1.91617993 -0.39057822 1.91617993 -2.25 4.125 C-2.25 3.465 -2.25 2.805 -2.25 2.125 C-4.56 2.125 -6.87 2.125 -9.25 2.125 C-6.03817851 0.21891902 -3.71117397 -0.09766247 0 0 Z " fill="#263B2B" transform="translate(110.25,121.875)"/>
<path d="M0 0 C3.68754757 0.49831724 5.60490662 1.10067643 8 4 C5.37886292 4 3.49064888 3.68707555 1 3 C0.67 3.66 0.34 4.32 0 5 C0 3.35 0 1.7 0 0 Z " fill="#9BA59C" transform="translate(69,132)"/>
<path d="M0 0 C1.32 0 2.64 0 4 0 C4 2.97 4 5.94 4 9 C1.3144406 6.3144406 0.93950026 3.62378672 0 0 Z " fill="#637565" transform="translate(203,114)"/>
<path d="M0 0 C1.37478516 0.01740234 1.37478516 0.01740234 2.77734375 0.03515625 C3.69644531 0.04417969 4.61554688 0.05320313 5.5625 0.0625 C6.27277344 0.07410156 6.98304688 0.08570313 7.71484375 0.09765625 C7.05484375 0.75765625 6.39484375 1.41765625 5.71484375 2.09765625 C4.39484375 2.09765625 3.07484375 2.09765625 1.71484375 2.09765625 C1.38484375 2.75765625 1.05484375 3.41765625 0.71484375 4.09765625 C0.71484375 3.43765625 0.71484375 2.77765625 0.71484375 2.09765625 C-0.60515625 1.76765625 -1.92515625 1.43765625 -3.28515625 1.09765625 C-2.28515625 0.09765625 -2.28515625 0.09765625 0 0 Z " fill="#9EAA9F" transform="translate(127.28515625,160.90234375)"/>
<path d="M0 0 C0.33 0.99 0.66 1.98 1 3 C-0.98 3 -2.96 3 -5 3 C-5.66 4.65 -6.32 6.3 -7 8 C-7.625 6.125 -7.625 6.125 -8 4 C-6 2 -6 2 -2.875 1.875 C-1.92625 1.91625 -0.9775 1.9575 0 2 C0 1.34 0 0.68 0 0 Z " fill="#93A094" transform="translate(108,134)"/>
<path d="M0 0 C1.32 0.99 2.64 1.98 4 3 C3.67 4.65 3.34 6.3 3 8 C2.34 7.67 1.68 7.34 1 7 C0.59270772 4.67843403 0.25561323 2.3431213 0 0 Z " fill="#040404" transform="translate(159,132)"/>
<path d="M0 0 C2.31 0.66 4.62 1.32 7 2 C6.01 2.66 5.02 3.32 4 4 C3.27617533 6.05925139 3.27617533 6.05925139 3 8 C0 2.25 0 2.25 0 0 Z " fill="#A7A7A7" transform="translate(176,56)"/>
<path d="M0 0 C0.33 0.66 0.66 1.32 1 2 C0.01 3.485 0.01 3.485 -1 5 C-3.64 4.67 -6.28 4.34 -9 4 C-9 3.67 -9 3.34 -9 3 C-7.88625 2.87625 -6.7725 2.7525 -5.625 2.625 C-1.96896323 2.3534187 -1.96896323 2.3534187 0 0 Z " fill="#8D0608" transform="translate(169,221)"/>
<path d="M0 0 C2 2 2 2 2.125 4.625 C2.08375 5.40875 2.0425 6.1925 2 7 C0.68 6.01 -0.64 5.02 -2 4 C-1.34 2.68 -0.68 1.36 0 0 Z " fill="#697C6B" transform="translate(207,124)"/>
</svg>
