<?xml version="1.0" encoding="UTF-8"?>
<svg version="1.1" xmlns="http://www.w3.org/2000/svg" width="256" height="256">
<path d="M0 0 C6.09054756 3.06138634 11.61080689 6.76744724 17.11474609 10.76293945 C22.43332942 14.61816756 27.82797324 18.35436168 33.25 22.0625 C34.50176025 22.92101563 34.50176025 22.92101563 35.77880859 23.796875 C36.55820801 24.32925781 37.33760742 24.86164062 38.140625 25.41015625 C38.83704102 25.88590088 39.53345703 26.36164551 40.25097656 26.85180664 C41.99965284 28.04857588 41.99965284 28.04857588 44 29 C44.625 31.5625 44.625 31.5625 45 34 C45.495 33.01 45.495 33.01 46 32 C49.58443437 33.65435433 52.7393962 35.78278941 56 38 C56.94875 38.61875 57.8975 39.2375 58.875 39.875 C60.421875 40.926875 60.421875 40.926875 62 42 C62.66914429 42.37299225 63.33828857 42.7459845 64.02770996 43.13027954 C67.26486578 45.13123797 69.59899787 46.63573617 70.70288086 50.39129639 C70.92595116 53.32045349 70.90019178 56.15065742 70.78125 59.0859375 C70.76993042 60.14285797 70.75861084 61.19977844 70.74694824 62.28872681 C70.7022907 65.65268979 70.6019427 69.01233362 70.5 72.375 C70.45985951 74.66009454 70.42335975 76.94525613 70.390625 79.23046875 C70.30939289 84.82329983 70.15288823 90.40683899 70 96 C79.24 95.67 88.48 95.34 98 95 C96.02 92.03 94.04 89.06 92 86 C92.99 85.67 93.98 85.34 95 85 C98.1875 87.3125 98.1875 87.3125 101 90 C101 90.66 101 91.32 101 92 C101.52980469 92.2371875 102.05960938 92.474375 102.60546875 92.71875 C105.70739023 94.3785057 108.47959433 96.42787745 111.3125 98.5 C116.52033873 102.26376495 121.78157793 105.93112912 127.125 109.5 C127.75188721 109.92087891 128.37877441 110.34175781 129.0246582 110.77539062 C131.93790879 112.71148428 134.81569655 114.54250787 138 116 C138 116.99 138 117.98 138 119 C135.36 119.33 132.72 119.66 130 120 C130.51691406 120.86882812 131.03382813 121.73765625 131.56640625 122.6328125 C132.2326409 123.79637725 132.89795733 124.96046809 133.5625 126.125 C134.22378906 127.26195312 134.88507813 128.39890625 135.56640625 129.5703125 C137.25605917 133.61258841 137.35892299 134.86786751 136 139 C134.33737847 142.48464713 132.47360631 145.83395768 130.5625 149.1875 C130.05912109 150.08919922 129.55574219 150.99089844 129.03710938 151.91992188 C127.11095979 155.35527233 125.18559028 158.72161458 123 162 C121.91321527 168.52070839 123.47333118 172.59978837 127 178 C127 178.66 127 179.32 127 180 C123.6625204 179.39822761 121.78216243 178.26607779 119.20703125 176.0859375 C118.49796631 175.49264648 117.78890137 174.89935547 117.05834961 174.28808594 C116.31721924 173.65676758 115.57608887 173.02544922 114.8125 172.375 C113.28996159 171.09528371 111.76653193 169.816627 110.2421875 168.5390625 C109.51225586 167.92579102 108.78232422 167.31251953 108.03027344 166.68066406 C104.89495823 164.0852444 101.65241355 161.64108971 98.37109375 159.234375 C97.91863281 158.82703125 97.46617187 158.4196875 97 158 C97 157.34 97 156.68 97 156 C95.68 155.34 94.36 154.68 93 154 C93 153.34 93 152.68 93 152 C94.953125 151.86979167 96.90625 151.73958333 98.859375 151.609375 C103.43625953 150.30646626 106.11158 145.75280964 108.8125 142.0625 C109.43769531 141.22847656 110.06289062 140.39445313 110.70703125 139.53515625 C112.21355219 137.09815497 112.21355219 137.09815497 111.8828125 134.47265625 C110.91758186 131.76915627 109.71173825 129.72183781 108.0625 127.375 C107.53785156 126.61960937 107.01320312 125.86421875 106.47265625 125.0859375 C105.98667969 124.39757812 105.50070313 123.70921875 105 123 C104.34 122.01 103.68 121.02 103 120 C100.31215183 119.66215904 97.8428575 119.51107756 95.1484375 119.48828125 C93.98738998 119.46135445 93.98738998 119.46135445 92.80288696 119.43388367 C90.32698033 119.37963608 87.85126797 119.34583991 85.375 119.3125 C83.69788954 119.27933954 82.02080477 119.24485107 80.34375 119.20898438 C76.22930659 119.12390183 72.11492223 119.05716047 68 119 C68.28484846 120.73030291 68.57819938 122.45920714 68.875 124.1875 C69.03742188 125.15042969 69.19984375 126.11335938 69.3671875 127.10546875 C69.98039517 129.91032604 70.85666343 132.37224747 72 135 C70.35 135.33 68.7 135.66 67 136 C67.00888245 137.04569656 67.01776489 138.09139313 67.0269165 139.16877747 C67.10792575 149.0128828 67.1679285 158.8569207 67.20724869 168.70128345 C67.2281431 173.76266663 67.25649454 178.8237812 67.30175781 183.88500977 C67.34514948 188.76739334 67.36912313 193.64951821 67.37950897 198.5320797 C67.38691237 200.39687868 67.40136917 202.26166316 67.42292023 204.12635231 C67.45186582 206.73404404 67.45595978 209.34066037 67.45410156 211.94848633 C67.46848267 212.72316254 67.48286377 213.49783875 67.49768066 214.29598999 C67.45705348 219.5486162 67.45705348 219.5486162 64.97161865 222.0032196 C64.3209845 222.33215714 63.67035034 222.66109467 63 223 C63.33 225.64 63.66 228.28 64 231 C61.50638429 229.79618552 59.31856917 228.54571278 57 227 C57 226.34 57 225.68 57 225 C56.13955078 224.61521484 56.13955078 224.61521484 55.26171875 224.22265625 C52.77948234 222.88079097 50.90892454 221.32152881 48.8125 219.4375 C48.11769531 218.81746094 47.42289062 218.19742188 46.70703125 217.55859375 C45.79011824 216.72141231 44.8779528 215.8779528 44 215 C44 220.61 44 226.22 44 232 C40.01384762 231.00346191 37.442921 229.65185254 33.9375 227.5625 C32.89464844 226.94503906 31.85179688 226.32757813 30.77734375 225.69140625 C28.82549195 224.50272576 26.90150104 223.26766736 25 222 C25 221.34 25 220.68 25 220 C24.01 219.67 23.02 219.34 22 219 C22.06703125 217.8140625 22.1340625 216.628125 22.203125 215.40625 C22.50171532 201.50809648 18.25479309 194.12024886 9 184 C9.99 183.67 10.98 183.34 12 183 C16.455 186.465 16.455 186.465 21 190 C21.33 166.57 21.66 143.14 22 119 C4.84 119.33 -12.32 119.66 -30 120 C-25.57009905 129.02651159 -25.57009905 129.02651159 -19.4375 135.4375 C-18.674375 136.06785156 -17.91125 136.69820312 -17.125 137.34765625 C-15.39685352 138.69141721 -13.66737467 140.03346454 -11.9375 141.375 C-11.298125 141.91125 -10.65875 142.4475 -10 143 C-10 143.66 -10 144.32 -10 145 C-12.31 144.67 -14.62 144.34 -17 144 C-16.61328125 144.56847656 -16.2265625 145.13695312 -15.828125 145.72265625 C-12.68057233 150.38944845 -9.75889282 155.09530166 -7 160 C-6.67 160.33 -6.34 160.66 -6 161 C-5.91156207 163.44830426 -5.88471248 165.86820599 -5.90234375 168.31640625 C-5.9037587 169.04746078 -5.90517365 169.77851532 -5.90663147 170.53172302 C-5.91224592 172.87535632 -5.92480078 175.21889539 -5.9375 177.5625 C-5.94251314 179.14778508 -5.94707637 180.73307166 -5.95117188 182.31835938 C-5.96222003 186.2122761 -5.97949428 190.10612205 -6 194 C-9.91874804 191.77092773 -12.41097576 189.73970169 -15 186 C-15 185.34 -15 184.68 -15 184 C-15.99 183.67 -16.98 183.34 -18 183 C-19.40698242 181.44042969 -19.40698242 181.44042969 -20.85546875 179.421875 C-21.39147705 178.67977783 -21.92748535 177.93768066 -22.47973633 177.1730957 C-23.04329834 176.37347412 -23.60686035 175.57385254 -24.1875 174.75 C-24.76975342 173.93168701 -25.35200684 173.11337402 -25.9519043 172.27026367 C-44.5081781 145.97212185 -44.5081781 145.97212185 -48.75 131.6875 C-49.53553354 128.02530877 -49.53553354 128.02530877 -51.625 127.078125 C-52.40875 126.72234375 -53.1925 126.3665625 -54 126 C-56.47082561 124.43123937 -58.85745595 122.74749291 -61.25 121.0625 C-62.22453125 120.39831055 -62.22453125 120.39831055 -63.21875 119.72070312 C-64.86940074 118.55727177 -66.44213997 117.28502626 -68 116 C-68 115.01 -68 114.02 -68 113 C-66.37433394 113.47690204 -64.74948689 113.95659666 -63.125 114.4375 C-62.22007813 114.70433594 -61.31515625 114.97117187 -60.3828125 115.24609375 C-58 116 -58 116 -56 117 C-56.62442684 112.52041613 -57.77679147 108.52043991 -59.25 104.25 C-66.4221166 82.28075804 -68.25268318 59.93801722 -68 37 C-66.515 36.505 -66.515 36.505 -65 36 C-65.66 31.71 -66.32 27.42 -67 23 C-62.68502166 23 -60.9184468 25.63952994 -58 28.5 C-51.44597547 34.75064885 -44.54122736 39.97251509 -37 45 C-37 45.99 -37 46.98 -37 48 C-38.98 48.99 -40.96 49.98 -43 51 C-42.97607481 54.20972885 -42.89739638 57.41635221 -42.8125 60.625 C-42.80669922 61.48996094 -42.80089844 62.35492188 -42.79492188 63.24609375 C-42.44185235 74.46585859 -39.61327956 83.50156992 -37 95 C-18.19 95.33 0.62 95.66 20 96 C19.38831463 87.03508439 19.38831463 87.03508439 15.9375 80 C15.31617187 79.00226563 14.69484375 78.00453125 14.0546875 76.9765625 C11.40010669 73.13095304 8.53504936 69.51548483 5.50390625 65.9609375 C4 64 4 64 4 62 C8 64 8 64 19 74 C19.33 61.13 19.66 48.26 20 35 C19.01 35.495 19.01 35.495 18 36 C15.20848063 36.30186666 12.42143675 36.56603345 9.625 36.8125 C-1.59655783 37.88674303 -13.26845298 39.42281766 -24 43 C-24.74669418 47.77884274 -22.72147729 50.38100186 -20.09375 54.1328125 C-19 56 -19 56 -19 59 C-22.18706942 57.56438314 -24.62169105 55.79733671 -27.25 53.5 C-27.95640625 52.8915625 -28.6628125 52.283125 -29.390625 51.65625 C-31 50 -31 50 -31 48 C-32.32 47.34 -33.64 46.68 -35 46 C-35 45.34 -35 44.68 -35 44 C-35.55558594 43.76152344 -36.11117187 43.52304687 -36.68359375 43.27734375 C-39.53061436 41.70740153 -41.66928174 39.76079551 -44.0625 37.5625 C-44.91972656 36.78003906 -45.77695312 35.99757812 -46.66015625 35.19140625 C-47.43230469 34.46824219 -48.20445313 33.74507812 -49 33 C-49.59683594 32.45214844 -50.19367187 31.90429688 -50.80859375 31.33984375 C-52 30 -52 30 -52 28 C-34.47765871 18.74291404 -15.34321241 15.29765057 4 12 C3.27031096 7.49128985 1.67844067 4.71525641 -1 1 C-0.67 0.67 -0.34 0.34 0 0 Z " fill="#000000" transform="translate(83,12)"/>
<path d="M0 0 C1.72990025 0.93614567 3.45888696 1.87397958 5.1875 2.8125 C6.15042969 3.33457031 7.11335938 3.85664063 8.10546875 4.39453125 C9.9697091 5.42854311 11.81240449 6.50291706 13.625 7.625 C16.62481795 9.36173671 19.65442955 10.14720753 23 11 C23.33 10.67 23.66 10.34 24 10 C45.89711103 8.38332534 74.60058208 8.80589615 95 18 C93.68 16.68 92.36 15.36 91 14 C91.33 13.01 91.66 12.02 92 11 C97.202219 13.74210422 102.33576021 16.45008196 107.125 19.875 C112.06017929 23.27857192 117.43022676 25.66678947 122.88525391 28.10888672 C123.5869873 28.42615723 124.2887207 28.74342773 125.01171875 29.0703125 C125.94697388 29.48434326 125.94697388 29.48434326 126.90112305 29.90673828 C129.85591418 31.44582804 132.40566337 32.88234047 135 35 C135.76049805 37.97900391 135.76049805 37.97900391 135.76171875 41.4765625 C135.7683252 42.7754541 135.77493164 44.0743457 135.78173828 45.41259766 C135.75281099 46.81678517 135.72134338 48.22092237 135.6875 49.625 C135.67990662 50.33275574 135.67231323 51.04051147 135.66448975 51.76971436 C135.49589555 66.76023164 133.81767556 82.07756551 128.84765625 96.296875 C127.83811214 99.51625068 127.76912649 102.25763842 127.8125 105.625 C127.81894531 106.73101562 127.82539063 107.83703125 127.83203125 108.9765625 C127.97197612 111.49557022 128.26833541 113.60014013 129 116 C124.09462721 113.96867255 119.41489308 111.7183484 114.75 109.1875 C114.0988623 108.8371167 113.44772461 108.4867334 112.77685547 108.12573242 C110.84939063 107.08719297 108.92432571 106.04434228 107 105 C105.97648437 104.44570312 104.95296875 103.89140625 103.8984375 103.3203125 C102.10151893 102.34339621 100.30707587 101.36190707 98.515625 100.375 C96.80636968 99.44074865 95.08709698 98.52464221 93.359375 97.625 C92.53953125 97.191875 91.7196875 96.75875 90.875 96.3125 C90.15054688 95.93738281 89.42609375 95.56226562 88.6796875 95.17578125 C87 94 87 94 86 91 C90.11390262 91.81019497 94.2132475 92.68135227 98.3125 93.5625 C99.56675781 93.83191406 100.82101563 94.10132812 102.11328125 94.37890625 C103.06589844 94.58386719 104.01851563 94.78882812 105 95 C108.86750108 80.16832111 111.4963664 65.38735853 111 50 C92.59662057 39.88825306 70.8987266 35.70247821 50 35 C53.8406995 42.40002906 58.06986506 49.2757627 63 56 C62.34 56.66 61.68 57.32 61 58 C60.32453125 57.31292969 59.6490625 56.62585938 58.953125 55.91796875 C58.06109375 55.01691406 57.1690625 54.11585937 56.25 53.1875 C55.36828125 52.29417969 54.4865625 51.40085938 53.578125 50.48046875 C51.13545957 48.01846688 51.13545957 48.01846688 48.671875 46.30078125 C48.12015625 45.87152344 47.5684375 45.44226562 47 45 C47 44.34 47 43.68 47 43 C46.43539062 42.75378906 45.87078125 42.50757813 45.2890625 42.25390625 C42.60104072 40.78145746 40.62682844 39.01695721 38.375 36.9375 C37.49457031 36.13183594 36.61414063 35.32617188 35.70703125 34.49609375 C34.36705078 33.26052734 34.36705078 33.26052734 33 32 C25.34656109 24.99536124 17.47530876 18.33361443 9.33984375 11.89453125 C5.36750466 8.67819659 1.94257351 5.18155184 -1 1 C-0.67 0.67 -0.34 0.34 0 0 Z " fill="#000000" transform="translate(105,13)"/>
<path d="M0 0 C2.97 1.98 2.97 1.98 6 4 C6 4.66 6 5.32 6 6 C7.32 6.66 8.64 7.32 10 8 C10 8.66 10 9.32 10 10 C11.32 10.66 12.64 11.32 14 12 C14 12.66 14 13.32 14 14 C15.32 14.66 16.64 15.32 18 16 C18 16.66 18 17.32 18 18 C17.38125 18.103125 16.7625 18.20625 16.125 18.3125 C13.63473516 18.87525373 13.63473516 18.87525373 12 22 C11.34 22 10.68 22 10 22 C9.773125 22.556875 9.54625 23.11375 9.3125 23.6875 C7.02395941 27.71969057 3.82412102 30.45058599 0 33 C0 22.11 0 11.22 0 0 Z " fill="#000000" transform="translate(178,174)"/>
<path d="M0 0 C4.68191549 0.45738073 6.63104174 2.19110394 9.8125 5.5625 C10.60269531 6.38878906 11.39289063 7.21507812 12.20703125 8.06640625 C12.79871094 8.70449219 13.39039063 9.34257812 14 10 C13.67 10.66 13.34 11.32 13 12 C11.02090602 12.02686553 9.04171029 12.04633375 7.0625 12.0625 C5.96035156 12.07410156 4.85820312 12.08570313 3.72265625 12.09765625 C1 12 1 12 0 11 C-0.07226502 9.14712498 -0.0838122 7.29166122 -0.0625 5.4375 C-0.05347656 4.42558594 -0.04445313 3.41367188 -0.03515625 2.37109375 C-0.02355469 1.58863281 -0.01195313 0.80617187 0 0 Z " fill="#000000" transform="translate(128,232)"/>
</svg>
