<?xml version="1.0" encoding="UTF-8" standalone="no"?>
<svg
   xmlns:dc="http://purl.org/dc/elements/1.1/"
   xmlns:cc="http://creativecommons.org/ns#"
   xmlns:rdf="http://www.w3.org/1999/02/22-rdf-syntax-ns#"
   xmlns:svg="http://www.w3.org/2000/svg"
   xmlns="http://www.w3.org/2000/svg"
   xmlns:sodipodi="http://sodipodi.sourceforge.net/DTD/sodipodi-0.dtd"
   xmlns:inkscape="http://www.inkscape.org/namespaces/inkscape"
   width="421.90512"
   height="510"
   version="1.1"
   id="svg6"
   sodipodi:docname="astralis.svg"
   style="fill:none"
   inkscape:version="0.92.3 (2405546, 2018-03-11)">
  <metadata
     id="metadata12">
    <rdf:RDF>
      <cc:Work
         rdf:about="">
        <dc:format>image/svg+xml</dc:format>
        <dc:type
           rdf:resource="http://purl.org/dc/dcmitype/StillImage" />
        <dc:title></dc:title>
      </cc:Work>
    </rdf:RDF>
  </metadata>
  <defs
     id="defs10" />
  <sodipodi:namedview
     pagecolor="#ffffff"
     bordercolor="#666666"
     borderopacity="1"
     objecttolerance="10"
     gridtolerance="10"
     guidetolerance="10"
     inkscape:pageopacity="0"
     inkscape:pageshadow="2"
     inkscape:window-width="1920"
     inkscape:window-height="1017"
     id="namedview8"
     showgrid="false"
     fit-margin-top="5"
     fit-margin-bottom="5"
     fit-margin-left="5"
     fit-margin-right="5"
     inkscape:zoom="0.59954858"
     inkscape:cx="16.838353"
     inkscape:cy="-140.34547"
     inkscape:window-x="1272"
     inkscape:window-y="-8"
     inkscape:window-maximized="1"
     inkscape:current-layer="svg6" />
  <path
     d="m 5,288.45979 92.082399,66.92583 56.919461,41.33177 21.72527,-66.86334 h -0.0312 L 160.7207,318.90392 118.83892,288.46604 H 5 Z m 298.03498,0 -23.25029,16.91271 -33.63792,24.48155 h -0.0313 l 21.75653,66.86334 56.88821,-41.33177 92.1449,-66.92583 z M 210.92132,5 175.73338,113.28259 140.56419,221.50895 118.83892,288.45979 h 70.33213 l 21.75027,-66.88834 21.75653,66.88834 h 70.35713 L 281.28471,221.50895 246.11551,113.28259 210.92757,5 Z m -56.88821,391.71739 h -0.0312 v 0.0625 L 118.83897,505 l 92.0824,-66.91959 56.88822,-41.36302 -56.88822,-41.33177 z"
     id="path2"
     inkscape:connector-curvature="0"
     style="fill:#e24645;stroke-width:6.2500782" />
</svg>
