<?xml version="1.0" encoding="UTF-8"?>
<svg version="1.1" xmlns="http://www.w3.org/2000/svg" width="256" height="256">
<path d="M0 0 C21.40285954 1.9034601 44.88905212 8.018039 61 23 C61 23.66 61 24.32 61 25 C61.66 25 62.32 25 63 25 C63 25.66 63 26.32 63 27 C63.86625 27.309375 63.86625 27.309375 64.75 27.625 C67.81410544 29.49750888 69.15539968 31.96958519 71 35 C72.4216319 31.6828589 73.39009109 28.55780196 74 25 C74.66 25 75.32 25 76 25 C77.62109375 27.23046875 77.62109375 27.23046875 79.4375 30.1875 C80.03433594 31.15042969 80.63117188 32.11335938 81.24609375 33.10546875 C81.82488281 34.06066406 82.40367187 35.01585937 83 36 C83.85271484 37.35544922 83.85271484 37.35544922 84.72265625 38.73828125 C86 41 86 41 86 43 C86.66 43 87.32 43 88 43 C89.296875 44.6965332 89.296875 44.6965332 90.75 47.05078125 C91.2759375 47.89447266 91.801875 48.73816406 92.34375 49.60742188 C93.16359375 50.94643555 93.16359375 50.94643555 94 52.3125 C95.08321228 54.05866885 96.16654084 55.80476557 97.25 57.55078125 C97.72953125 58.33106689 98.2090625 59.11135254 98.703125 59.9152832 C99.77012936 61.63048468 100.87950363 63.31925544 102 65 C102 65.99 102 66.98 102 68 C102.66 68 103.32 68 104 68 C104.144375 66.783125 104.28875 65.56625 104.4375 64.3125 C104.82780953 61.17329623 105.32351856 58.0924866 106 55 C106.66 55 107.32 55 108 55 C114.9673463 78.26071475 114.9673463 78.26071475 117.57666016 89.96313477 C118.71703869 95.00419585 120.12402128 99.93034257 121.625 104.875 C131.31396833 137.32448733 124.8774217 174.26614189 109.26171875 203.98046875 C105.62877596 210.61136075 101.32206919 216.8061053 97 223 C96.34 223.99 95.68 224.98 95 226 C94.34 226 93.68 226 93 226 C92.7421875 226.58136719 92.484375 227.16273438 92.21875 227.76171875 C84.43625662 242.05456718 64.93688093 250.42347147 50.21630859 255.1862793 C44.88886372 256.53411395 39.7219688 256.63744165 34.25 256.5625 C33.11546387 256.55226807 31.98092773 256.54203613 30.81201172 256.53149414 C16.34372059 256.16788124 5.14580241 251.94585204 -7 244 C-7.68320313 243.58234375 -8.36640625 243.1646875 -9.0703125 242.734375 C-10.75 241.6875 -10.75 241.6875 -13 240 C-13 239.34 -13 238.68 -13 238 C-13.82757813 237.6596875 -13.82757813 237.6596875 -14.671875 237.3125 C-17.68692417 235.61274074 -19.81230369 233.45195184 -22.25 231 C-23.58804688 229.6696875 -23.58804688 229.6696875 -24.953125 228.3125 C-27 226 -27 226 -27 224 C-27.66 224 -28.32 224 -29 224 C-30.48363389 222.0300297 -31.81466654 220.08246954 -33.125 218 C-33.72115112 217.05809814 -33.72115112 217.05809814 -34.3293457 216.09716797 C-43.80945762 200.8273154 -50.56781007 184.63582563 -54.8125 167.1875 C-55.01963623 166.34034424 -55.22677246 165.49318848 -55.44018555 164.62036133 C-57.82426583 154.27126273 -58.18106008 143.96223338 -58.1875 133.375 C-58.19974609 132.30765625 -58.21199219 131.2403125 -58.22460938 130.140625 C-58.23629388 123.79983575 -57.68996141 118.1094504 -56 112 C-55.72800781 110.94039063 -55.45601562 109.88078125 -55.17578125 108.7890625 C-54.89089844 107.74492188 -54.60601562 106.70078125 -54.3125 105.625 C-52.32129317 98.26380623 -50.40895206 90.8828999 -48.5 83.5 C-47.89199356 81.1588369 -47.28392203 78.81769071 -46.67578125 76.4765625 C-45.68048 72.64128301 -44.69556896 68.80392061 -43.73046875 64.9609375 C-43.38283367 63.59895293 -43.03517959 62.23697321 -42.6875 60.875 C-42.40261719 59.73804688 -42.11773437 58.60109375 -41.82421875 57.4296875 C-41 55 -41 55 -39 54 C-37.68 58.29 -36.36 62.58 -35 67 C-33.6696875 64.958125 -33.6696875 64.958125 -32.3125 62.875 C-29.73883957 59.02363581 -27.1434684 55.4054241 -24 52 C-23.34 52 -22.68 52 -22 52 C-22 51.34 -22 50.68 -22 50 C-21.34 50 -20.68 50 -20 50 C-20 49.34 -20 48.68 -20 48 C-16.84061187 45.42976007 -13.39309297 43.24919107 -10 41 C-8.84177734 40.22269531 -8.84177734 40.22269531 -7.66015625 39.4296875 C-2.39803571 36 -2.39803571 36 1 36 C1 35.34 1 34.68 1 34 C5.38461538 31 5.38461538 31 8 31 C5.62564486 20.56799284 3.05598707 10.25706297 0 0 Z " fill="#010E1F" transform="translate(94,0)"/>
<path d="M0 0 C23.90005149 4.59329115 45.6256603 11.8299485 60 33 C62.13528923 36.6030148 64.12147106 40.2571734 66 44 C67.70656894 39.98331946 68.48898407 36.34363544 69 32 C73.61213886 36.37536057 76.8011422 41.44350571 80.25 46.75 C80.91588135 47.77101807 81.5817627 48.79203613 82.26782227 49.84399414 C87.48446275 57.95685946 92.01328288 66.22412749 96 75 C96.99 72.69 97.98 70.38 99 68 C100.88469964 71.38985976 101.8534047 74.78834706 102.83984375 78.53125 C103.00746719 79.16301147 103.17509064 79.79477295 103.34779358 80.44567871 C103.88179447 82.46272927 104.40964164 84.48133435 104.9375 86.5 C105.28802823 87.82562223 105.63893637 89.15114406 105.99023438 90.4765625 C106.6799444 93.08282456 107.36114469 95.69109468 108.03588867 98.30126953 C108.64415734 100.63484014 109.26733035 102.96462359 109.91137695 105.28857422 C111.63913816 111.68605728 112.45370872 117.50359466 112.3125 124.125 C112.3012207 125.0231543 112.28994141 125.92130859 112.27832031 126.84667969 C111.53377418 163.90417772 99.5044161 198.52665575 73.1171875 225.1484375 C72.06917969 226.06496094 72.06917969 226.06496094 71 227 C70.29943481 227.65633423 70.29943481 227.65633423 69.5847168 228.32592773 C64.36183595 232.71544444 59.67304853 232.60620175 53.0625 232.3125 C51.6074707 232.27866211 51.6074707 232.27866211 50.12304688 232.24414062 C47.74706346 232.18561887 45.37436802 232.10370509 43 232 C43.66 231.34 44.32 230.68 45 230 C45.99 230 46.98 230 48 230 C48.33 229.01 48.66 228.02 49 227 C51.07421875 225.5703125 51.07421875 225.5703125 53.6875 224.125 C56.85649334 222.31155603 59.7486947 220.52812522 62.5 218.125 C65 216 65 216 67 216 C67 215.34 67 214.68 67 214 C67.66 214 68.32 214 69 214 C69.26683594 213.40703125 69.53367188 212.8140625 69.80859375 212.203125 C71.02065037 209.96181375 72.27935917 208.55421814 74.0625 206.75 C96.51370699 181.49822664 100.58247926 146.23051927 100 114 C97.78566098 116.01319976 97.78566098 116.01319976 96.3125 119.25 C93.990999 123.460479 90.73568277 126.07317956 87 129 C87.06928711 128.4332959 87.13857422 127.8665918 87.20996094 127.28271484 C88.02033297 120.05713785 88.21741231 112.8920541 88.25 105.625 C88.270625 104.48289062 88.29125 103.34078125 88.3125 102.1640625 C88.37098619 89.29710079 85.20028274 78.139664 78.75 67.0625 C77 64 77 64 77 62 C76.34 62 75.68 62 75 62 C74.979375 62.928125 74.95875 63.85625 74.9375 64.8125 C73.94076599 71.8038771 68.94427127 78.64285292 63.6875 83.1875 C61 85 61 85 59 85 C59.165 84.2575 59.33 83.515 59.5 82.75 C61.73226489 66.0080133 58.07145639 49.76685149 47.859375 36.14453125 C45.67669204 33.62223503 43.42097174 31.29333547 41 29 C40.32453125 28.35417969 39.6490625 27.70835938 38.953125 27.04296875 C32.51334173 21.48683995 24.89696803 18.84041143 17 16 C17.04640625 17.17175781 17.0928125 18.34351563 17.140625 19.55078125 C17.56151605 34.62574941 14.15564753 44.78282226 5.45703125 57.203125 C-2.25159792 68.22111426 -4.88113286 78.84078649 -6 92 C-10.37103086 87.97083747 -12.08284055 82.77528006 -13 77 C-13.07869838 75.01561604 -13.10784044 73.02888652 -13.09765625 71.04296875 C-13.09443359 69.93115234 -13.09121094 68.81933594 -13.08789062 67.67382812 C-13.07532227 65.9480957 -13.07532227 65.9480957 -13.0625 64.1875 C-13.05798828 63.01767578 -13.05347656 61.84785156 -13.04882812 60.64257812 C-13.0370693 57.76166642 -13.02063426 54.88085956 -13 52 C-14.27014632 53.08347703 -15.53628864 54.17164876 -16.80078125 55.26171875 C-17.50630127 55.86717529 -18.21182129 56.47263184 -18.9387207 57.09643555 C-27.53670846 65.03656471 -32.17501634 75.84131456 -35 87 C-35.20625 87.7321875 -35.4125 88.464375 -35.625 89.21875 C-38.79850872 102.08909092 -37.31938609 116.11912368 -35 129 C-39.45580046 125.61359165 -42.43076989 122.63965892 -45.2421875 117.7734375 C-46.02505127 116.43031494 -46.02505127 116.43031494 -46.82373047 115.06005859 C-47.21189941 114.38023926 -47.60006836 113.70041992 -48 113 C-48.73612775 138.28713502 -48.73612775 138.28713502 -44 163 C-43.74798828 163.83063965 -43.49597656 164.6612793 -43.23632812 165.51708984 C-35.19484725 191.3819249 -21.78267587 214.1063917 2.546875 227.390625 C4.34666914 228.29690432 6.1703771 229.15555866 8 230 C8 230.66 8 231.32 8 232 C4.83405464 232.17638838 1.66939127 232.28152076 -1.5 232.375 C-2.386875 232.42527344 -3.27375 232.47554687 -4.1875 232.52734375 C-11.31524528 232.68457343 -14.80962415 230.72734136 -20 226 C-21.05451958 225.17130308 -22.11040173 224.34433555 -23.16796875 223.51953125 C-26.24826745 220.77912758 -28.78619611 217.93169872 -31.3125 214.6875 C-31.78324951 214.08357422 -32.25399902 213.47964844 -32.73901367 212.85742188 C-54.343524 184.39612864 -62.77445682 148.26480644 -60 113 C-58.87041389 105.79969537 -56.87825134 98.84348657 -54.81689453 91.86328125 C-53.22602824 86.28716652 -51.96086136 80.62420502 -50.6496582 74.97680664 C-50.16083446 72.96868281 -49.58859534 70.98117781 -49 69 C-48.01 68.505 -48.01 68.505 -47 68 C-46.01 71.465 -46.01 71.465 -45 75 C-42.44227692 72.44227692 -41.40791423 69.77972347 -39.875 66.5 C-30.81179853 47.92899616 -14.76248288 37.51375912 3 28 C3.99 27.67 4.98 27.34 6 27 C5.62811654 20.05817537 3.89053596 13.9690927 1.7277832 7.41015625 C0 2.16566291 0 2.16566291 0 0 Z " fill="#F9F9F9" transform="translate(102,7)"/>
<path d="M0 0 C21.40285954 1.9034601 44.88905212 8.018039 61 23 C61 23.66 61 24.32 61 25 C61.66 25 62.32 25 63 25 C63 25.66 63 26.32 63 27 C63.86625 27.309375 63.86625 27.309375 64.75 27.625 C67.81410544 29.49750888 69.15539968 31.96958519 71 35 C72.4216319 31.6828589 73.39009109 28.55780196 74 25 C74.66 25 75.32 25 76 25 C77.62109375 27.23046875 77.62109375 27.23046875 79.4375 30.1875 C80.03433594 31.15042969 80.63117188 32.11335938 81.24609375 33.10546875 C81.82488281 34.06066406 82.40367187 35.01585937 83 36 C83.85271484 37.35544922 83.85271484 37.35544922 84.72265625 38.73828125 C86 41 86 41 86 43 C86.66 43 87.32 43 88 43 C89.296875 44.6965332 89.296875 44.6965332 90.75 47.05078125 C91.2759375 47.89447266 91.801875 48.73816406 92.34375 49.60742188 C93.16359375 50.94643555 93.16359375 50.94643555 94 52.3125 C95.08321228 54.05866885 96.16654084 55.80476557 97.25 57.55078125 C97.72953125 58.33106689 98.2090625 59.11135254 98.703125 59.9152832 C99.77012936 61.63048468 100.87950363 63.31925544 102 65 C102 65.99 102 66.98 102 68 C102.66 68 103.32 68 104 68 C104.144375 66.783125 104.28875 65.56625 104.4375 64.3125 C104.82780953 61.17329623 105.32351856 58.0924866 106 55 C106.66 55 107.32 55 108 55 C114.9673463 78.26071475 114.9673463 78.26071475 117.57666016 89.96313477 C118.71703869 95.00419585 120.12402128 99.93034257 121.625 104.875 C131.31396833 137.32448733 124.8774217 174.26614189 109.26171875 203.98046875 C105.62877596 210.61136075 101.32206919 216.8061053 97 223 C96.34 223.99 95.68 224.98 95 226 C94.34 226 93.68 226 93 226 C92.7421875 226.58136719 92.484375 227.16273438 92.21875 227.76171875 C84.43625662 242.05456718 64.93688093 250.42347147 50.21630859 255.1862793 C44.88886372 256.53411395 39.7219688 256.63744165 34.25 256.5625 C33.11546387 256.55226807 31.98092773 256.54203613 30.81201172 256.53149414 C16.34372059 256.16788124 5.14580241 251.94585204 -7 244 C-7.68320313 243.58234375 -8.36640625 243.1646875 -9.0703125 242.734375 C-10.75 241.6875 -10.75 241.6875 -13 240 C-13 239.34 -13 238.68 -13 238 C-13.82757813 237.6596875 -13.82757813 237.6596875 -14.671875 237.3125 C-17.68692417 235.61274074 -19.81230369 233.45195184 -22.25 231 C-23.58804688 229.6696875 -23.58804688 229.6696875 -24.953125 228.3125 C-27 226 -27 226 -27 224 C-27.66 224 -28.32 224 -29 224 C-30.48363389 222.0300297 -31.81466654 220.08246954 -33.125 218 C-33.72115112 217.05809814 -33.72115112 217.05809814 -34.3293457 216.09716797 C-43.80945762 200.8273154 -50.56781007 184.63582563 -54.8125 167.1875 C-55.01963623 166.34034424 -55.22677246 165.49318848 -55.44018555 164.62036133 C-57.82426583 154.27126273 -58.18106008 143.96223338 -58.1875 133.375 C-58.19974609 132.30765625 -58.21199219 131.2403125 -58.22460938 130.140625 C-58.23629388 123.79983575 -57.68996141 118.1094504 -56 112 C-55.72800781 110.94039063 -55.45601562 109.88078125 -55.17578125 108.7890625 C-54.89089844 107.74492188 -54.60601562 106.70078125 -54.3125 105.625 C-52.32129317 98.26380623 -50.40895206 90.8828999 -48.5 83.5 C-47.89199356 81.1588369 -47.28392203 78.81769071 -46.67578125 76.4765625 C-45.68048 72.64128301 -44.69556896 68.80392061 -43.73046875 64.9609375 C-43.38283367 63.59895293 -43.03517959 62.23697321 -42.6875 60.875 C-42.40261719 59.73804688 -42.11773437 58.60109375 -41.82421875 57.4296875 C-41 55 -41 55 -39 54 C-37.68 58.29 -36.36 62.58 -35 67 C-33.6696875 64.958125 -33.6696875 64.958125 -32.3125 62.875 C-29.73883957 59.02363581 -27.1434684 55.4054241 -24 52 C-23.34 52 -22.68 52 -22 52 C-22 51.34 -22 50.68 -22 50 C-21.34 50 -20.68 50 -20 50 C-20 49.34 -20 48.68 -20 48 C-16.84061187 45.42976007 -13.39309297 43.24919107 -10 41 C-8.84177734 40.22269531 -8.84177734 40.22269531 -7.66015625 39.4296875 C-2.39803571 36 -2.39803571 36 1 36 C1 35.34 1 34.68 1 34 C5.38461538 31 5.38461538 31 8 31 C5.62564486 20.56799284 3.05598707 10.25706297 0 0 Z M8 7 C8.64297504 9.62573061 9.28924411 12.25057303 9.9375 14.875 C10.11990234 15.62136719 10.30230469 16.36773437 10.49023438 17.13671875 C11.45209692 21.17039125 11.45209692 21.17039125 13 25 C13.22467831 26.53668865 13.40796805 28.07968054 13.5625 29.625 C13.64628906 30.44226563 13.73007813 31.25953125 13.81640625 32.1015625 C13.87699219 32.72804688 13.93757813 33.35453125 14 34 C13.27707764 34.2693335 12.55415527 34.53866699 11.80932617 34.81616211 C-8.63883465 43.43292858 -25.4708446 58.1500543 -34.5625 78.375 C-35.036875 79.57125 -35.51125 80.7675 -36 82 C-38.35953094 79.64046906 -38.49141413 78.22104383 -39 75 C-41.19278146 75.80602516 -41.19278146 75.80602516 -41.69848633 77.99926758 C-42.01209106 79.3086731 -42.01209106 79.3086731 -42.33203125 80.64453125 C-42.69047119 82.10886597 -42.69047119 82.10886597 -43.05615234 83.6027832 C-43.30574707 84.66198975 -43.5553418 85.72119629 -43.8125 86.8125 C-44.34124044 89.03153806 -44.87120518 91.25028473 -45.40234375 93.46875 C-45.66772949 94.57863281 -45.93311523 95.68851562 -46.20654297 96.83203125 C-46.90326111 99.61375881 -47.67211457 102.35010357 -48.50390625 105.09375 C-58.35755596 138.35409156 -50.26250173 175.55676394 -34.18139648 205.56494141 C-30.69368325 211.8188291 -26.48437007 217.41982522 -22 223 C-21.32195312 223.86882812 -20.64390625 224.73765625 -19.9453125 225.6328125 C-13.4696961 233.51277945 -4.74764638 238.95328093 4 244 C5.59328125 244.94359375 5.59328125 244.94359375 7.21875 245.90625 C20.29354267 252.38254917 38.82153416 252.76601949 52.78515625 248.88671875 C56.39944782 247.62691568 59.6780887 245.90185761 63 244 C64.03382813 243.48179687 65.06765625 242.96359375 66.1328125 242.4296875 C92.00504947 228.73262087 106.37362148 201.51905617 114.74707031 174.59814453 C117.79982079 163.9416538 119.21629393 153.03375654 120 142 C120.10199707 140.84201904 120.10199707 140.84201904 120.20605469 139.66064453 C121.51041324 123.55479585 117.47377522 109.14314629 113.08007812 93.80566406 C111.30704813 87.55837845 109.6569886 81.27893865 108 75 C106.45428722 77.31856917 105.20381448 79.50638429 104 82 C103.63132813 81.15824219 103.26265625 80.31648438 102.8828125 79.44921875 C98.32292907 69.53916324 92.61757776 60.54283334 86.5625 51.5 C86.15042297 50.88256927 85.73834595 50.26513855 85.31378174 49.6289978 C81.7366433 44.25870232 81.7366433 44.25870232 78 39 C77.67 39 77.34 39 77 39 C76.86722656 39.78246094 76.73445312 40.56492188 76.59765625 41.37109375 C76.33275391 42.88896484 76.33275391 42.88896484 76.0625 44.4375 C75.80146484 45.95150391 75.80146484 45.95150391 75.53515625 47.49609375 C75 50 75 50 74 51 C73.6596875 50.32195313 73.319375 49.64390625 72.96875 48.9453125 C63.1659308 30.12181393 48.76679821 18.28370015 28.5 11.75 C21.74346851 9.81718211 14.89189025 8.36391231 8 7 Z " fill="#051121" transform="translate(94,0)"/>
<path d="M0 0 C0 0.66 0 1.32 0 2 C-0.99 2.33 -1.98 2.66 -3 3 C2.61 3.33 8.22 3.66 14 4 C11.45531518 6.54468482 10.40406647 7.46981646 7.3125 8.7890625 C6.61382812 9.09070313 5.91515625 9.39234375 5.1953125 9.703125 C4.47085938 10.00734375 3.74640625 10.3115625 3 10.625 C2.27554688 10.93695313 1.55109375 11.24890625 0.8046875 11.5703125 C-12.03442811 17.0660225 -30.77214905 17.93579473 -44.05566406 13.04711914 C-46.80368937 11.84310644 -49.40248331 10.50201231 -52 9 C-53.29420299 8.26550544 -54.58847457 7.53113173 -55.8828125 6.796875 C-56.91148438 6.20390625 -57.94015625 5.6109375 -59 5 C-59 4.67 -59 4.34 -59 4 C-52.73 4 -46.46 4 -40 4 C-40 3.34 -40 2.68 -40 2 C-39.36835937 2.144375 -38.73671875 2.28875 -38.0859375 2.4375 C-26.29323127 4.88440158 -15.97549761 4.88895526 -4.546875 0.875 C-2 0 -2 0 0 0 Z " fill="#7A8089" transform="translate(150,235)"/>
<path d="M0 0 C-1.1129051 9.85715948 -5.12592266 21.0948947 -12.75 27.8125 C-18.03708159 31.37111261 -22.77178214 31.82111147 -29 31 C-32.5238155 29.63254921 -35.75566549 27.93279503 -39 26 C-39 25.01 -39 24.02 -39 23 C-37.32617188 21.62475586 -37.32617188 21.62475586 -34.96875 20.21484375 C-34.1022583 19.68850342 -33.2357666 19.16216309 -32.34301758 18.61987305 C-31.40482178 18.06468994 -30.46662598 17.50950684 -29.5 16.9375 C-27.5764943 15.77658597 -25.65332088 14.61512123 -23.73046875 13.453125 C-22.28486572 12.5859082 -22.28486572 12.5859082 -20.81005859 11.70117188 C-16.09125175 8.84446935 -11.44278268 5.87579673 -6.80078125 2.89624023 C-2.22017261 0 -2.22017261 0 0 0 Z " fill="#F8F9F9" transform="translate(174,188)"/>
<path d="M0 0 C8.06523446 4.29777705 15.9644148 8.8393442 23.79272461 13.55102539 C25.07276971 14.31878856 26.35573789 15.08169606 27.64135742 15.84008789 C29.5212936 16.94933765 31.39224161 18.07245415 33.26171875 19.19921875 C34.36475342 19.85752686 35.46778809 20.51583496 36.60424805 21.1940918 C37.39484619 21.7900415 38.18544434 22.38599121 39 23 C39 23.99 39 24.98 39 26 C37.730447 26.64834654 36.45930294 27.29357815 35.1875 27.9375 C34.47980469 28.29714844 33.77210937 28.65679687 33.04296875 29.02734375 C27.41586589 31.7064042 21.78252173 31.89040695 15.875 30 C6.79309468 23.68215282 2.47468395 14.51740678 0 4 C0 2.68 0 1.36 0 0 Z " fill="#F9FAFA" transform="translate(82,188)"/>
<path d="M0 0 C0 0.66 0 1.32 0 2 C-0.99 2.33 -1.98 2.66 -3 3 C2.61 3.33 8.22 3.66 14 4 C10.00032464 7.99967536 8.56477388 8.12780462 3.0690918 8.17700195 C1.82407394 8.18983719 0.57905609 8.20267242 -0.70368958 8.21589661 C-2.06938276 8.22406428 -3.43508044 8.23150796 -4.80078125 8.23828125 C-5.48775778 8.24235678 -6.17473431 8.2464323 -6.88252831 8.25063133 C-10.51925735 8.27149176 -14.15594867 8.28579304 -17.79272461 8.29516602 C-21.54556008 8.30622525 -25.29780174 8.34061858 -29.05042744 8.38033772 C-31.93897082 8.40650911 -34.82737289 8.41485829 -37.7160244 8.41844749 C-39.09910272 8.42331289 -40.48217475 8.43492574 -41.8651371 8.45348549 C-43.80358175 8.47788099 -45.74231532 8.47449171 -47.6809082 8.4699707 C-49.33398735 8.47877007 -49.33398735 8.47877007 -51.02046204 8.48774719 C-54 8 -54 8 -59 4 C-52.73 4 -46.46 4 -40 4 C-40 3.34 -40 2.68 -40 2 C-39.36835937 2.144375 -38.73671875 2.28875 -38.0859375 2.4375 C-26.29323127 4.88440158 -15.97549761 4.88895526 -4.546875 0.875 C-2 0 -2 0 0 0 Z " fill="#949AA1" transform="translate(150,235)"/>
<path d="M0 0 C15.84 0.33 31.68 0.66 48 1 C42.3163675 6.6836325 33.23547442 5.36754347 25.8125 5.375 C23.91661133 5.41173828 23.91661133 5.41173828 21.98242188 5.44921875 C13.86710122 5.47440857 7.397075 4.38102742 0 1 C0 0.67 0 0.34 0 0 Z " fill="#414A57" transform="translate(102,245)"/>
<path d="M0 0 C0 0.66 0 1.32 0 2 C-0.99 2.33 -1.98 2.66 -3 3 C2.61 3.33 8.22 3.66 14 4 C11 7 11 7 7.35473633 7.34057617 C5.84708452 7.34010204 4.33937995 7.32320244 2.83203125 7.29296875 C2.03721848 7.28872391 1.2424057 7.28447906 0.42350769 7.28010559 C-2.11384021 7.2633193 -4.65039238 7.22566824 -7.1875 7.1875 C-8.90819165 7.17245305 -10.62889576 7.15876466 -12.34960938 7.14648438 C-16.56671262 7.11341607 -20.78322142 7.06163495 -25 7 C-25 6.67 -25 6.34 -25 6 C-23.75863281 5.73445312 -22.51726562 5.46890625 -21.23828125 5.1953125 C-19.59630478 4.83876904 -17.95438041 4.48198556 -16.3125 4.125 C-15.49587891 3.95097656 -14.67925781 3.77695313 -13.83789062 3.59765625 C-9.38147833 2.62337988 -4.42359475 0 0 0 Z " fill="#A6AAB0" transform="translate(150,235)"/>
<path d="M0 0 C3.3 1.65 6.6 3.3 10 5 C10 5.66 10 6.32 10 7 C6.79197767 7.11698258 3.58450975 7.18750607 0.375 7.25 C-0.98044922 7.30027344 -0.98044922 7.30027344 -2.36328125 7.3515625 C-8.23839863 7.43733064 -11.5165043 6.90257765 -16 3 C-16 2.67 -16 2.34 -16 2 C-10.72 2 -5.44 2 0 2 C0 1.34 0 0.68 0 0 Z " fill="#DDDFE1" transform="translate(100,232)"/>
<path d="M0 0 C0.66 0.33 1.32 0.66 2 1 C4.37123246 1.23029956 6.74741943 1.41119942 9.125 1.5625 C10.40632813 1.64628906 11.68765625 1.73007813 13.0078125 1.81640625 C14.48894531 1.90728516 14.48894531 1.90728516 16 2 C13.76283102 5.04197495 12.41841885 6.75424156 8.61865234 7.41259766 C5.79425546 7.49174817 3.01025066 7.43572283 0.1875 7.3125 C-0.79154297 7.28994141 -1.77058594 7.26738281 -2.77929688 7.24414062 C-5.18777455 7.18539727 -7.59309078 7.10332129 -10 7 C-9.34 6.34 -8.68 5.68 -8 5 C-7.01 5 -6.02 5 -5 5 C-4.67 4.01 -4.34 3.02 -4 2 C-2.0625 0.75 -2.0625 0.75 0 0 Z " fill="#CDD0D3" transform="translate(155,232)"/>
<path d="M0 0 C2.31 0.66 4.62 1.32 7 2 C7 2.66 7 3.32 7 4 C3.04172765 4.05785647 -0.9164367 4.09354717 -4.875 4.125 C-6.00292969 4.14175781 -7.13085938 4.15851563 -8.29296875 4.17578125 C-9.90751953 4.18544922 -9.90751953 4.18544922 -11.5546875 4.1953125 C-13.04718018 4.21102295 -13.04718018 4.21102295 -14.56982422 4.22705078 C-17 4 -17 4 -19 2 C-12.73 2 -6.46 2 0 2 C0 1.34 0 0.68 0 0 Z " fill="#B4B7BC" transform="translate(110,237)"/>
<path d="M0 0 C6.93 0.495 6.93 0.495 14 1 C14 1.33 14 1.66 14 2 C9.55852431 2.85916096 5.37230176 3.11697565 0.8515625 3.09765625 C-0.13452499 3.09553383 -0.13452499 3.09553383 -1.14053345 3.09336853 C-3.21873731 3.08781762 -5.29682927 3.07527465 -7.375 3.0625 C-8.79296718 3.05747864 -10.21093607 3.05291685 -11.62890625 3.04882812 C-15.08597322 3.03786437 -18.54297567 3.02063421 -22 3 C-22 2.67 -22 2.34 -22 2 C-14.74 2 -7.48 2 0 2 C0 1.34 0 0.68 0 0 Z " fill="#9EA3A9" transform="translate(117,239)"/>
<path d="M0 0 C0 0.66 0 1.32 0 2 C-3.29159316 2.05790353 -6.58305603 2.09356261 -9.875 2.125 C-11.28072266 2.15013672 -11.28072266 2.15013672 -12.71484375 2.17578125 C-14.05869141 2.18544922 -14.05869141 2.18544922 -15.4296875 2.1953125 C-16.25710449 2.20578613 -17.08452148 2.21625977 -17.93701172 2.22705078 C-20 2 -20 2 -22 0 C-18.70880065 -0.1964031 -15.41703066 -0.38060745 -12.125 -0.5625 C-11.18785156 -0.61857422 -10.25070313 -0.67464844 -9.28515625 -0.73242188 C-8.38925781 -0.78076172 -7.49335937 -0.82910156 -6.5703125 -0.87890625 C-5.74289551 -0.9260376 -4.91547852 -0.97316895 -4.06298828 -1.02172852 C-2 -1 -2 -1 0 0 Z " fill="#C8CBCE" transform="translate(110,237)"/>
<path d="M0 0 C0 0.66 0 1.32 0 2 C-0.99 2.33 -1.98 2.66 -3 3 C2.61 3.33 8.22 3.66 14 4 C14 4.33 14 4.66 14 5 C5.75 5 -2.5 5 -11 5 C-9.70976282 2.41952564 -8.72910609 2.32977036 -6.0625 1.375 C-5.35222656 1.11460937 -4.64195312 0.85421875 -3.91015625 0.5859375 C-2 0 -2 0 0 0 Z " fill="#B4B8BD" transform="translate(150,235)"/>
<path d="M0 0 C0.66 0.33 1.32 0.66 2 1 C4.37123246 1.23029956 6.74741943 1.41119942 9.125 1.5625 C10.40632812 1.64628906 11.68765625 1.73007813 13.0078125 1.81640625 C14.48894531 1.90728516 14.48894531 1.90728516 16 2 C15.67 2.66 15.34 3.32 15 4 C9.06 4 3.12 4 -3 4 C-2.34 3.67 -1.68 3.34 -1 3 C-0.67 2.01 -0.34 1.02 0 0 Z " fill="#E2E4E6" transform="translate(155,232)"/>
<path d="M0 0 C1.65 0.66 3.3 1.32 5 2 C5 2.33 5 2.66 5 3 C-1.93 3 -8.86 3 -16 3 C-16 2.67 -16 2.34 -16 2 C-14.92878906 1.93941406 -13.85757813 1.87882813 -12.75390625 1.81640625 C-11.35675609 1.73201463 -9.95962143 1.64736594 -8.5625 1.5625 C-7.50192383 1.50352539 -7.50192383 1.50352539 -6.41992188 1.44335938 C-2.91309581 1.52375562 -2.91309581 1.52375562 0 0 Z " fill="#D5D7DA" transform="translate(103,234)"/>
<path d="M0 0 C2 2 2 2 2.1953125 3.9453125 C2.13020833 5.96354167 2.06510417 7.98177083 2 10 C1.67 10 1.34 10 1 10 C0.67 8.35 0.34 6.7 0 5 C-0.99 5.495 -0.99 5.495 -2 6 C-1.34 4.02 -0.68 2.04 0 0 Z " fill="#444D5A" transform="translate(201,119)"/>
</svg>
