<?xml version="1.0" encoding="UTF-8"?>
<svg version="1.1" xmlns="http://www.w3.org/2000/svg" width="256" height="256">
<path d="M0 0 C6.42887756 1.42168502 12.88883241 2.58727526 19.37890625 3.69140625 C20.38236084 3.8625293 21.38581543 4.03365234 22.41967773 4.20996094 C24.73887316 4.60299643 27.05852559 4.99294 29.37890625 5.37890625 C28.03508495 8.40527897 26.58022885 10.38440608 24.1484375 12.62109375 C23.50970703 13.21277344 22.87097656 13.80445312 22.21289062 14.4140625 C21.21225586 15.32478516 21.21225586 15.32478516 20.19140625 16.25390625 C19.54365234 16.85332031 18.89589844 17.45273437 18.22851562 18.0703125 C14.02747305 21.93980427 9.73434866 25.68440646 5.37890625 29.37890625 C8.54361921 39.73087941 11.88938385 49.96366087 15.69702148 60.09765625 C18.26596713 66.97263741 20.59418673 73.91574787 22.89208984 80.88525391 C25.27187978 88.09442014 27.79718642 95.23933538 30.37890625 102.37890625 C31.4887316 105.46023952 32.59163089 108.54397331 33.69140625 111.62890625 C33.95832275 112.36915039 34.22523926 113.10939453 34.50024414 113.87207031 C36.37890625 119.1513643 36.37890625 119.1513643 36.37890625 121.37890625 C38.04566406 120.58226562 38.04566406 120.58226562 39.74609375 119.76953125 C46.69421606 116.46444042 53.60444144 113.20081579 60.7890625 110.4375 C64.22692922 109.03227846 67.58172182 107.45939963 70.94140625 105.87890625 C71.5856958 105.57581543 72.22998535 105.27272461 72.89379883 104.96044922 C73.83775513 104.51596436 73.83775513 104.51596436 74.80078125 104.0625 C77.75703394 102.67151211 80.71566219 101.29009025 83.69140625 99.94140625 C84.36816406 99.63332031 85.04492188 99.32523437 85.7421875 99.0078125 C87.37890625 98.37890625 87.37890625 98.37890625 89.37890625 98.37890625 C89.89061905 103.36810603 88.59870104 106.41026262 86.51171875 110.78125 C85.26266855 113.64545133 84.37969134 116.50489429 83.50390625 119.50390625 C79.58544492 132.37454462 76.5780666 141.99450813 65.37890625 150.37890625 C64.19389104 151.31296127 63.01174769 152.25066774 61.83203125 153.19140625 C59.45959764 155.07862605 57.07528338 156.94812317 54.67578125 158.80078125 C50.19486394 162.27841986 45.86291975 165.91638979 41.62890625 169.69140625 C37.96169159 172.91055897 34.19934806 175.97689595 30.34765625 178.97265625 C28.00065338 180.87496384 25.7693733 182.8189347 23.53515625 184.84765625 C22.85001953 185.45013184 22.16488281 186.05260742 21.45898438 186.67333984 C20.09782474 187.87122422 18.75673253 189.09240239 17.43945312 190.33837891 C12.80896899 194.34157495 12.80896899 194.34157495 9.34008789 194.43212891 C6.63681923 193.89613344 4.03172205 193.12755616 1.37890625 192.37890625 C-1.65482633 191.72945295 -4.70278617 191.15661411 -7.75 190.57421875 C-9.46315638 190.2357172 -11.17604236 189.89584467 -12.88867188 189.5546875 C-15.52483469 189.03110782 -18.16113773 188.50833077 -20.7980957 187.98876953 C-30.54701832 186.06701442 -40.25333356 184.05021107 -49.91621399 181.73182678 C-55.04708651 180.50214603 -60.18760255 179.42042749 -65.37109375 178.44140625 C-72.43727995 177.06929753 -79.43773991 175.5098521 -86.43359375 173.81640625 C-88.18749611 173.40102526 -89.94140228 172.9856603 -91.6953125 172.5703125 C-94.77645096 171.8368216 -97.83586886 171.05475056 -100.890625 170.21875 C-109.91793577 167.95963575 -114.62704622 168.75711229 -122.62109375 173.37890625 C-123.28109375 173.37890625 -123.94109375 173.37890625 -124.62109375 173.37890625 C-123.63109375 190.70390625 -123.63109375 190.70390625 -122.62109375 208.37890625 C-120.94796167 205.03264209 -120.07153683 202.23379891 -119.21923828 198.63964844 C-118.12252381 194.49451536 -116.56826096 190.51308431 -115.05859375 186.50390625 C-114.74212891 185.65054688 -114.42566406 184.7971875 -114.09960938 183.91796875 C-111.78552019 177.70775912 -111.78552019 177.70775912 -110.62109375 175.37890625 C-103.97335167 176.15367907 -97.5557907 177.73846151 -91.05859375 179.31640625 C-89.94806641 179.58130859 -88.83753906 179.84621094 -87.69335938 180.11914062 C-82.58267035 181.35170058 -77.59563089 182.66607377 -72.62109375 184.37890625 C-75.00044405 198.54303863 -75.00044405 198.54303863 -80.99609375 203.25390625 C-85.66404456 206.53780535 -90.55794202 209.46984093 -95.4375 212.42578125 C-98.17039089 214.10240143 -100.84160935 215.8320245 -103.49609375 217.62890625 C-106.48198456 219.64654624 -109.50291253 221.50004082 -112.66796875 223.23046875 C-114.25712677 224.16489367 -115.79918798 225.17905696 -117.32421875 226.21484375 C-118.2884375 226.86710938 -119.25265625 227.519375 -120.24609375 228.19140625 C-121.14585938 228.81660156 -122.045625 229.44179687 -122.97265625 230.0859375 C-126.07028347 231.59820094 -127.39846931 231.42015133 -130.62109375 230.37890625 C-130.82412109 229.18587891 -130.82412109 229.18587891 -131.03125 227.96875 C-132.8949018 217.53453181 -135.22060028 207.21993558 -137.59164429 196.89169312 C-139.6904596 187.73072377 -141.61715604 178.5805452 -143.11328125 169.30078125 C-143.5550351 166.32855824 -143.5550351 166.32855824 -144.62109375 163.37890625 C-144.66063609 161.045908 -144.66511107 158.71182436 -144.62109375 156.37890625 C-143.63109375 156.04890625 -142.64109375 155.71890625 -141.62109375 155.37890625 C-140.95083337 153.71368157 -140.28496775 152.04668727 -139.62109375 150.37890625 C-138.0177 148.28596861 -136.41133416 146.29844611 -134.68359375 144.31640625 C-131.1818194 140.26209639 -131.1818194 140.26209639 -127.9296875 136.0078125 C-127.49785156 135.47027344 -127.06601563 134.93273437 -126.62109375 134.37890625 C-125.96109375 134.37890625 -125.30109375 134.37890625 -124.62109375 134.37890625 C-124.24984375 133.57453125 -124.24984375 133.57453125 -123.87109375 132.75390625 C-122.31456838 129.79650805 -120.58673702 127.08166574 -118.62109375 124.37890625 C-117.96109375 124.37890625 -117.30109375 124.37890625 -116.62109375 124.37890625 C-116.38003906 123.82976562 -116.13898438 123.280625 -115.890625 122.71484375 C-114.32841536 119.84037802 -112.40271653 117.51685359 -110.30859375 115.00390625 C-109.509375 114.04097656 -108.71015625 113.07804687 -107.88671875 112.0859375 C-107.1390625 111.19261719 -106.39140625 110.29929687 -105.62109375 109.37890625 C-105.0590625 108.70214844 -104.49703125 108.02539062 -103.91796875 107.328125 C-102.82233188 106.00895303 -101.72239031 104.69335698 -100.62109375 103.37890625 C-92.31762808 104.96449266 -84.06444587 106.71789872 -75.81958008 108.58422852 C-66.05170675 110.79509199 -56.3266731 112.87168956 -46.42919922 114.40625 C-41.63034745 115.16414151 -37.05548585 116.25770517 -32.3984375 117.62109375 C-23.64539142 120.00940731 -14.65459079 121.58649423 -5.62109375 122.37890625 C-6.01941406 121.33992188 -6.41773438 120.3009375 -6.828125 119.23046875 C-7.3634633 117.82168375 -7.89860912 116.41282559 -8.43359375 115.00390625 C-8.69462891 114.32457031 -8.95566406 113.64523438 -9.22460938 112.9453125 C-10.65633138 109.1627383 -11.94138152 105.38047239 -13.0703125 101.49609375 C-14.63326556 96.17150046 -16.59283315 91.04105822 -18.62109375 85.87890625 C-21.00644168 79.80792673 -23.18290605 73.78453733 -24.91015625 67.49023438 C-25.60689952 65.1183424 -25.60689952 65.1183424 -27.62109375 62.37890625 C-30.92990137 70.33412456 -34.00585744 78.31251512 -36.68359375 86.50390625 C-40.40975999 97.81427253 -40.40975999 97.81427253 -42.24609375 102.94140625 C-42.60960938 103.97394531 -42.973125 105.00648437 -43.34765625 106.0703125 C-44.62109375 108.37890625 -44.62109375 108.37890625 -46.29296875 109.3515625 C-49.81103652 109.39288209 -52.93356562 108.31903877 -56.24609375 107.25390625 C-57.75737256 106.78763419 -59.2691088 106.32284268 -60.78125 105.859375 C-61.56773926 105.61622559 -62.35422852 105.37307617 -63.16455078 105.12255859 C-67.31752387 103.86535764 -71.50001776 102.71682681 -75.68359375 101.56640625 C-76.47523926 101.34774902 -77.26688477 101.1290918 -78.08251953 100.90380859 C-79.92837314 100.39428249 -81.77468034 99.8864 -83.62109375 99.37890625 C-82.98529385 95.6452728 -81.91901295 92.38437608 -80.49609375 88.87890625 C-77.77792441 81.96495806 -75.4304702 74.95033427 -73.12060547 67.890625 C-71.62220094 63.3240588 -70.05228496 58.80679835 -68.34033203 54.31616211 C-67.08424689 50.93291853 -65.98900722 47.49721757 -64.87109375 44.06640625 C-62.43108496 36.65292279 -59.81043618 29.31972885 -57.06933594 22.01245117 C-56.79379883 21.27615479 -56.51826172 20.5398584 -56.234375 19.78125 C-55.81998169 18.69928345 -55.81998169 18.69928345 -55.3972168 17.59545898 C-54.57882921 15.36960501 -54.57882921 15.36960501 -54.02661133 12.97680664 C-52.51466643 7.1415975 -52.51466643 7.1415975 -49.95092773 4.95336914 C-47.90422251 3.78342716 -45.86228252 2.84057861 -43.68359375 1.94140625 C-42.96751953 1.61720703 -42.25144531 1.29300781 -41.51367188 0.95898438 C-40.14254491 0.34013467 -38.76493794 -0.2646176 -37.38037109 -0.8527832 C-35.52557603 -1.62908747 -35.52557603 -1.62908747 -33.4765625 -2.81640625 C-23.68790773 -7.06159126 -9.81580786 -2.18094885 0 0 Z " fill="#00FEFE" transform="translate(155.62109375,13.62109375)"/>
<path d="M0 0 C2 0.11035156 2 0.11035156 4 1 C5.125 2.83496094 5.125 2.83496094 6 5.234375 C6.32750244 6.11174316 6.65500488 6.98911133 6.99243164 7.89306641 C7.49117798 9.30724854 7.49117798 9.30724854 8 10.75 C8.35247803 11.71212402 8.70495605 12.67424805 9.06811523 13.66552734 C11.21705445 19.5936699 13.17219101 25.55704334 14.9296875 31.61328125 C16.59818857 36.89280837 18.60229829 42.05114236 20.62719727 47.20361328 C22.530445 52.18683383 23.54503755 56.67997236 24 62 C18.06969328 61.54559987 14.17218849 59.7424092 9.125 56.6875 C7.70219343 55.85650458 6.27772772 55.02834296 4.8515625 54.203125 C4.17899414 53.81318359 3.50642578 53.42324219 2.81347656 53.02148438 C0.11472766 51.50134902 -2.66962469 50.28763891 -5.51953125 49.0859375 C-9.1235916 47.50809691 -12.65512902 45.79395264 -16.1875 44.0625 C-16.86554688 43.73822021 -17.54359375 43.41394043 -18.2421875 43.07983398 C-23.84770124 40.3108038 -28.46763636 37.29854547 -32 32 C-31.92020119 28.47745245 -31.27810254 27.27232878 -28.7421875 24.7890625 C-27.79601562 24.07492188 -26.84984375 23.36078125 -25.875 22.625 C-22.56381124 20.04584783 -19.39722755 17.53855572 -16.5 14.5 C-12.75205608 10.60615072 -8.56789908 7.29372326 -4.35546875 3.91796875 C-1.99243296 2.06032914 -1.99243296 2.06032914 0 0 Z " fill="#00FEFE" transform="translate(206,183)"/>
</svg>
