<?xml version="1.0" encoding="UTF-8"?>
<svg version="1.1" xmlns="http://www.w3.org/2000/svg" width="256" height="256">
<path d="M0 0 C0.85445709 -0.00511093 1.70891418 -0.01022186 2.58926392 -0.01548767 C5.41195713 -0.02937495 8.23440558 -0.02842597 11.05712891 -0.02612305 C13.03187144 -0.03001359 15.00661313 -0.034349 16.98135376 -0.03910828 C21.12561753 -0.04657095 25.26979614 -0.04628114 29.4140625 -0.04101562 C34.68689721 -0.03525462 39.95937679 -0.05206975 45.23215294 -0.0753603 C49.31607046 -0.09021098 53.39990501 -0.09095348 57.48384476 -0.08785057 C59.42521486 -0.08835923 61.36659018 -0.09350995 63.30793381 -0.10366249 C84.58899323 -0.20120484 104.42513903 3.11470018 122.40869141 15.2746582 C123.39869141 15.9346582 124.38869141 16.5946582 125.40869141 17.2746582 C125.40869141 17.9346582 125.40869141 18.5946582 125.40869141 19.2746582 C125.98748047 19.51055664 126.56626953 19.74645508 127.16259766 19.98950195 C135.73573508 24.89482754 141.73991986 37.05941286 144.40869141 46.2746582 C146.26717675 58.92434876 145.42095504 70.5494416 137.72119141 81.1496582 C134.69731505 85.04726767 131.4019998 88.68185965 128.04541016 92.29418945 C126.20835456 94.27468637 126.20835456 94.27468637 125.40869141 97.2746582 C125.95912109 97.38293945 126.50955078 97.4912207 127.07666016 97.6027832 C134.39354502 99.71083043 141.50034896 104.54798425 147.40869141 109.2746582 C147.40869141 109.9346582 147.40869141 110.5946582 147.40869141 111.2746582 C147.98103516 111.51958008 148.55337891 111.76450195 149.14306641 112.0168457 C160.19780446 118.15413131 166.51381354 132.90748254 170.28369141 144.4621582 C170.69446245 146.05753993 171.06840411 147.66277103 171.40869141 149.2746582 C171.61107422 150.23114258 171.81345703 151.18762695 172.02197266 152.1730957 C176.19477296 175.16607696 171.60638286 194.92831822 159.95947266 215.0715332 C159.44771484 215.79856445 158.93595703 216.5255957 158.40869141 217.2746582 C157.74869141 217.2746582 157.08869141 217.2746582 156.40869141 217.2746582 C156.14056641 218.0377832 155.87244141 218.8009082 155.59619141 219.5871582 C154.45734635 222.16454438 153.5945247 223.54420685 151.40869141 225.2746582 C150.74869141 225.2746582 150.08869141 225.2746582 149.40869141 225.2746582 C149.40869141 225.9346582 149.40869141 226.5946582 149.40869141 227.2746582 C148.74869141 227.2746582 148.08869141 227.2746582 147.40869141 227.2746582 C147.40869141 227.9346582 147.40869141 228.5946582 147.40869141 229.2746582 C135.04719017 239.7090813 120.3496601 247.37859503 104.90869141 252.0246582 C104.25763428 252.22325439 103.60657715 252.42185059 102.93579102 252.62646484 C88.00477803 256.89116397 73.06021981 256.58544206 57.66650391 256.57543945 C55.16836476 256.57933189 52.67022627 256.58366768 50.17208862 256.58842468 C44.95926761 256.59585385 39.7465144 256.59561785 34.53369141 256.59033203 C29.18952381 256.58567477 23.84559756 256.59206906 18.50146484 256.61083984 C12.02200234 256.63330255 5.54269737 256.6410932 -0.93680191 256.63716698 C-3.39834264 256.63767962 -5.85988715 256.64290658 -8.32140732 256.6529789 C-11.75774911 256.66532573 -15.19354959 256.65856369 -18.62988281 256.64697266 C-19.64092575 256.65461639 -20.65196869 256.66226013 -21.69364929 256.6701355 C-27.43967022 256.62733294 -31.48425536 255.9538693 -36.59130859 253.2746582 C-36.59130859 252.6146582 -36.59130859 251.9546582 -36.59130859 251.2746582 C-37.25130859 251.2746582 -37.91130859 251.2746582 -38.59130859 251.2746582 C-41.33480374 245.26007269 -40.66541141 239.33482301 -40.34130859 232.8996582 C-40.289021 231.72935059 -40.2367334 230.55904297 -40.18286133 229.35327148 C-39.81954961 221.96133431 -39.1584434 214.71920735 -38.12255859 207.3918457 C-37.43541519 202.37022164 -37.05478603 197.325814 -36.65380859 192.2746582 C-35.91004514 182.93150169 -35.0568077 173.60371701 -34.15380859 164.2746582 C-32.77092927 149.95861916 -31.67744207 135.62644416 -30.68139648 121.27856445 C-30.16180197 113.93202013 -29.55797637 106.6362507 -28.59521484 99.33325195 C-27.37135969 90.02824237 -26.73574206 80.69742115 -26.09130859 71.3371582 C-25.37165999 60.90621848 -24.58059719 50.51780733 -23.29870605 40.13911438 C-22.45976861 33.34172219 -21.89110693 26.53307305 -21.38037109 19.7043457 C-20.74459456 12.05310397 -19.63099169 7.47159482 -13.59130859 2.2746582 C-9.18180922 -0.05809067 -4.87316809 -0.01509063 0 0 Z M14.40869141 29.2746582 C14.40869141 29.9346582 14.40869141 30.5946582 14.40869141 31.2746582 C13.41869141 31.6046582 12.42869141 31.9346582 11.40869141 32.2746582 C9.53123688 34.6801843 9.53123688 34.6801843 7.78369141 37.5871582 C7.17267578 38.55266602 6.56166016 39.51817383 5.93212891 40.51293945 C2.95127674 45.91668941 2.90977518 51.20294186 3.40869141 57.2746582 C5.18832572 63.34635174 8.81577682 67.99489688 13.40869141 72.2746582 C14.89369141 72.7696582 14.89369141 72.7696582 16.40869141 73.2746582 C16.40869141 73.9346582 16.40869141 74.5946582 16.40869141 75.2746582 C18.58553889 76.88747657 20.75877497 78.37376167 23.03369141 79.8371582 C23.71302734 80.28188477 24.39236328 80.72661133 25.09228516 81.18481445 C27.19250892 82.55638915 29.29925071 83.91730927 31.40869141 85.2746582 C32.01680664 85.66637207 32.62492187 86.05808594 33.25146484 86.46166992 C35.54907606 87.93999288 37.84834105 89.41571324 40.14892578 90.8894043 C50.53323863 97.54890928 60.73411333 104.45886926 70.84619141 111.5246582 C72.08876709 112.39223755 72.08876709 112.39223755 73.35644531 113.27734375 C87.91827008 123.49526734 87.91827008 123.49526734 93.40869141 129.2746582 C95.36790849 131.33159185 97.35270695 133.31005083 99.40869141 135.2746582 C100.06869141 135.2746582 100.72869141 135.2746582 101.40869141 135.2746582 C102.06869141 136.9246582 102.72869141 138.5746582 103.40869141 140.2746582 C104.06869141 140.2746582 104.72869141 140.2746582 105.40869141 140.2746582 C109.1699823 151.55853088 111.94912847 161.6887404 106.57666016 173.07543945 C106.19123047 173.80118164 105.80580078 174.52692383 105.40869141 175.2746582 C105.11607422 175.88696289 104.82345703 176.49926758 104.52197266 177.13012695 C99.6457607 185.55267488 87.16132915 192.03170136 78.06494141 194.68481445 C61.14152036 197.41498174 45.07181996 196.10765588 30.52978516 186.6418457 C28.46636003 185.22973275 28.46636003 185.22973275 26.25634766 184.3449707 C23.90611416 182.98352466 23.46489632 181.74217141 22.40869141 179.2746582 C21.58786111 177.97501023 20.75420018 176.68338798 19.90869141 175.3996582 C15.57779477 168.43700727 14.78314276 162.39476087 15.40869141 154.2746582 C16.40869141 150.5871582 16.40869141 150.5871582 17.40869141 148.2746582 C25.15855491 148.80007268 32.0537 150.83057296 39.40869141 153.2746582 C38.95461013 150.75299353 38.4955507 148.23240004 38.03369141 145.7121582 C37.84419922 144.65544922 37.84419922 144.65544922 37.65087891 143.57739258 C37.04074921 140.26743899 36.3680128 137.14664024 35.34619141 133.9309082 C34.09725303 129.06004854 33.94606494 124.3470582 33.78369141 119.3371582 C33.72568359 117.91113281 33.72568359 117.91113281 33.66650391 116.45629883 C33.45819738 111.05892801 33.37043114 105.67573288 33.40869141 100.2746582 C28.08980613 102.37747331 23.51365362 104.94828134 18.78369141 108.1496582 C17.82076172 108.78194336 17.82076172 108.78194336 16.83837891 109.42700195 C11.34433704 113.10846034 6.98083036 117.52346901 2.59619141 122.4621582 C1.99162109 123.13633789 1.38705078 123.81051758 0.76416016 124.50512695 C-0.79400872 126.16777469 -0.79400872 126.16777469 -0.59130859 128.2746582 C-1.25130859 128.2746582 -1.91130859 128.2746582 -2.59130859 128.2746582 C-13.51568801 143.54677552 -18.42939114 161.54216633 -15.90380859 180.0871582 C-12.86362908 196.79751553 -2.81844237 211.12577638 10.47119141 221.4621582 C22.31228993 229.61423577 35.43418746 233.56144554 49.40869141 236.2746582 C50.37806641 236.46672852 51.34744141 236.65879883 52.34619141 236.85668945 C65.49343618 238.65102005 77.83455844 237.23241809 90.40869141 233.2746582 C91.88402344 232.8415332 91.88402344 232.8415332 93.38916016 232.3996582 C108.21768299 227.60660032 120.93072202 217.49625031 130.40869141 205.2746582 C130.40869141 204.6146582 130.40869141 203.9546582 130.40869141 203.2746582 C131.06869141 203.2746582 131.72869141 203.2746582 132.40869141 203.2746582 C141.3052778 187.08287097 145.8442923 170.02887627 140.96655273 151.80175781 C138.6939994 144.37593713 135.47003144 137.23552549 130.40869141 131.2746582 C129.41869141 130.9446582 128.42869141 130.6146582 127.40869141 130.2746582 C127.40869141 129.6146582 127.40869141 128.9546582 127.40869141 128.2746582 C126.74869141 128.2746582 126.08869141 128.2746582 125.40869141 128.2746582 C125.00650391 127.3155957 125.00650391 127.3155957 124.59619141 126.3371582 C123.52201388 123.94334134 123.52201388 123.94334134 120.40869141 123.2746582 C120.40869141 122.6146582 120.40869141 121.9546582 120.40869141 121.2746582 C118.71777337 119.79205796 118.71777337 119.79205796 116.49072266 118.2980957 C115.65420166 117.71318359 114.81768066 117.12827148 113.95581055 116.52563477 C112.60217407 115.59702637 112.60217407 115.59702637 111.22119141 114.6496582 C110.31167725 114.02027344 109.40216309 113.39088867 108.46508789 112.74243164 C96.03441326 103.9181859 96.03441326 103.9181859 82.40869141 97.2746582 C82.40869141 94.9646582 82.40869141 92.6546582 82.40869141 90.2746582 C83.08931641 90.0271582 83.76994141 89.7796582 84.47119141 89.5246582 C87.97734224 88.03267913 91.12489509 86.2063031 94.40869141 84.2746582 C94.40869141 83.6146582 94.40869141 82.9546582 94.40869141 82.2746582 C95.29298828 82.02329102 96.17728516 81.77192383 97.08837891 81.51293945 C100.52107697 80.232745 102.71358403 78.77393901 105.53369141 76.4621582 C106.36126953 75.79571289 107.18884766 75.12926758 108.04150391 74.44262695 C113.75173277 69.21296191 117.80886614 62.8795828 118.64697266 55.0480957 C118.13874068 45.40921332 112.50524056 36.3649515 105.52197266 30.01293945 C81.20314741 10.00946952 38.69976135 7.93936005 14.40869141 29.2746582 Z " fill="#000000" transform="translate(61.59130859375,-0.274658203125)"/>
<path d="M0 0 C0.84691406 -0.02449219 1.69382813 -0.04898437 2.56640625 -0.07421875 C11.25165806 -0.11412037 18.28004852 3.08571931 25.125 8.375 C28.84964634 12.2962249 32.4023012 16.03662845 32.5 21.625 C32.32407799 26.36724548 31.42122811 29.87464767 28.125 33.375 C24.53589392 36.23279978 20.78849501 38.76824024 16.92138672 41.22558594 C15.13840611 42.36642213 13.38335839 43.5424431 11.62890625 44.7265625 C10.50370936 45.46522794 9.37744359 46.20226831 8.25 46.9375 C7.24195313 47.59878906 6.23390625 48.26007813 5.1953125 48.94140625 C1.54889576 50.64399524 -0.8930376 50.78449259 -4.875 50.375 C-5.865 49.715 -6.855 49.055 -7.875 48.375 C-7.875 47.715 -7.875 47.055 -7.875 46.375 C-8.596875 46.106875 -9.31875 45.83875 -10.0625 45.5625 C-12.87266383 44.37598638 -15.35916557 43.10014361 -17.875 41.375 C-17.875 40.715 -17.875 40.055 -17.875 39.375 C-18.596875 39.1275 -19.31875 38.88 -20.0625 38.625 C-23.15106582 37.25230408 -25.38511418 35.65146704 -27.875 33.375 C-27.875 32.715 -27.875 32.055 -27.875 31.375 C-28.535 31.375 -29.195 31.375 -29.875 31.375 C-32.93469432 26.40299673 -34.02918321 22.08772192 -32.875 16.375 C-29.67165188 9.47837994 -23.61010764 5.48046813 -16.875 2.375 C-11.1751482 0.34281841 -5.97787348 0.0090164 0 0 Z " fill="#000000" transform="translate(122.875,21.625)"/>
</svg>
