<?xml version="1.0" encoding="UTF-8"?>
<svg version="1.1" xmlns="http://www.w3.org/2000/svg" width="256" height="256">
<path d="M0 0 C14.27307093 -0.09343942 28.54609443 -0.16371123 42.81940842 -0.20724869 C49.44677065 -0.22814226 56.07392773 -0.25649282 62.70117188 -0.30175781 C69.09429191 -0.3451515 75.48721436 -0.36912377 81.88047028 -0.37950897 C84.32218793 -0.38691192 86.76389451 -0.40136773 89.20552826 -0.42292023 C92.62000582 -0.45186718 96.03366209 -0.45595952 99.44824219 -0.45410156 C100.46244232 -0.46848267 101.47664246 -0.48286377 102.52157593 -0.49768066 C109.37734883 -0.45719163 109.37734883 -0.45719163 112.54766846 1.8706665 C113.02693787 2.57334656 113.50620728 3.27602661 114 4 C114.88558594 5.24910156 114.88558594 5.24910156 115.7890625 6.5234375 C116.69785156 7.93496094 116.69785156 7.93496094 117.625 9.375 C120.61979791 13.94483977 123.6892087 18.43642536 126.875 22.875 C127.2867749 23.45217773 127.6985498 24.02935547 128.12280273 24.62402344 C130.34495308 27.72996895 132.59917019 30.80709038 134.89453125 33.859375 C135.36197754 34.4898877 135.82942383 35.12040039 136.31103516 35.77001953 C137.21036064 36.98198743 138.11982855 38.18651225 139.04052734 39.38232422 C142 43.39731451 142 43.39731451 142 46.20703125 C140.73596249 48.473411 139.4194905 49.5397028 137.3125 51.0625 C136.49910156 51.66578125 135.68570313 52.2690625 134.84765625 52.890625 C133.90792969 53.58671875 132.96820313 54.2828125 132 55 C129.7387714 56.75664543 127.49509925 58.5353104 125.25 60.3125 C121.6490019 63.15320025 118.03940751 65.97985065 114.38671875 68.75390625 C113.80696289 69.19500732 113.22720703 69.6361084 112.62988281 70.09057617 C111.03560943 71.30054044 109.43783849 72.50589229 107.83984375 73.7109375 C105.00009644 75.99992227 102.5257608 78.37691631 100 81 C103.406599 87.51196049 107.30483332 93.42096507 111.6875 99.3125 C112.83992695 100.86910776 113.98976868 102.42763359 115.13671875 103.98828125 C115.63905029 104.66415283 116.14138184 105.34002441 116.65893555 106.03637695 C117.98910317 107.98404456 119.11452842 109.81211287 120 112 C119.67 112.66 119.34 113.32 119 114 C118.34 114 117.68 114 117 114 C117 114.66 117 115.32 117 116 C115.0859375 117.55859375 115.0859375 117.55859375 112.375 119.4375 C107.80000716 122.68179994 103.3387314 126.02376093 98.9375 129.5 C98.34791504 129.96438477 97.75833008 130.42876953 97.15087891 130.90722656 C92.68854735 134.43213502 88.27466979 138.01480095 83.890625 141.63671875 C82 143 82 143 80 143 C80 143.66 80 144.32 80 145 C78.0859375 146.55859375 78.0859375 146.55859375 75.375 148.4375 C70.85977701 151.63867733 66.46255813 154.93730262 62.125 158.375 C57.63064524 161.93178055 53.11678213 165.45777661 48.5625 168.9375 C43.17858913 173.05731929 37.8830261 177.28054241 32.59936523 181.52783203 C27.43935235 185.66785013 22.21571725 189.71674911 16.95703125 193.73046875 C13.50331045 196.38121087 10.09802688 199.08990044 6.70703125 201.8203125 C5 203 5 203 3 203 C3 203.66 3 204.32 3 205 C0.703125 205.23046875 0.703125 205.23046875 -2 205 C-3.703125 203.48828125 -3.703125 203.48828125 -5.25 201.3125 C-5.84941406 200.48363281 -6.44882813 199.65476563 -7.06640625 198.80078125 C-7.70449219 197.87652344 -8.34257813 196.95226562 -9 196 C-9.66902344 195.04480469 -10.33804688 194.08960938 -11.02734375 193.10546875 C-12.51030942 190.973538 -13.98567275 188.83781137 -15.453125 186.6953125 C-18.92145397 181.64313185 -22.47268447 176.64928668 -26.0144043 171.6484375 C-26.50336182 170.9575 -26.99231934 170.2665625 -27.49609375 169.5546875 C-27.93107178 168.94093262 -28.3660498 168.32717773 -28.81420898 167.69482422 C-32.01775114 163.11607403 -32.01775114 163.11607403 -31.3984375 159.06640625 C-29.91298445 153.20134641 -27.77206813 147.58646847 -25.625 141.9375 C-25.19018311 140.77790771 -24.75536621 139.61831543 -24.30737305 138.42358398 C-23.12561179 135.27465696 -21.93877518 132.12774471 -20.74908447 128.98181152 C-18.42943822 122.84485122 -16.12101599 116.70365368 -13.8125 110.5625 C-13.55496948 109.8780481 -13.29743896 109.19359619 -13.03210449 108.48840332 C-9.77434478 99.82515283 -6.5982227 91.14115478 -3.58349609 82.38989258 C-1.13402339 75.30630239 1.45590667 68.27711765 4.0625 61.25 C4.48982422 60.09491943 4.91714844 58.93983887 5.35742188 57.74975586 C7.19117879 52.80718578 9.03640403 47.87218064 10.97265625 42.96875 C11.25681396 42.24139648 11.54097168 41.51404297 11.83374023 40.76464844 C12.55924399 38.91742321 13.29847843 37.0756061 14.0390625 35.234375 C15.17832693 31.39977765 15.59220756 28.98355448 15 25 C13.20562137 21.69272846 10.99022662 18.78083941 8.6875 15.8125 C8.09259766 15.01908203 7.49769531 14.22566406 6.88476562 13.40820312 C4.72520113 10.53441395 2.57069505 7.67100047 0.24145508 4.93237305 C-0.1682251 4.29468994 -0.57790527 3.65700684 -1 3 C-0.67 2.01 -0.34 1.02 0 0 Z M50.12255859 47.64868164 C48.803723 50.41112305 47.7173208 53.14959124 46.72265625 56.046875 C46.29734619 57.26914795 45.87203613 58.4914209 45.43383789 59.75073242 C45.21067902 60.4017392 44.98752014 61.05274597 44.75759888 61.72348022 C43.56245161 65.2078616 42.34367362 68.68394656 41.125 72.16015625 C40.87214737 72.88258011 40.61929474 73.60500397 40.35877991 74.34931946 C37.08242825 83.67017146 33.57172854 92.90323504 30.06079102 102.13769531 C24.60454254 114.27224654 24.60454254 114.27224654 22 127 C24.71711184 125.71314305 27.10105219 124.30015564 29.50390625 122.49609375 C30.15641357 122.00737793 30.8089209 121.51866211 31.48120117 121.01513672 C32.16802979 120.4945166 32.8548584 119.97389648 33.5625 119.4375 C34.27704346 118.89883301 34.99158691 118.36016602 35.7277832 117.80517578 C40.67327922 114.05725629 45.50133371 110.18856178 50.27734375 106.2265625 C57.63320786 100.21100649 65.20700679 94.43697201 73 89 C72.67 88.34 72.34 87.68 72 87 C62.43 86.67 52.86 86.34 43 86 C49.91016162 80.20181841 56.83357546 74.47952266 64 69 C78.05425182 58.63561204 78.05425182 58.63561204 91 47 C87.80348463 45.40174232 84.32933447 45.79458335 80.81640625 45.76171875 C80.0050975 45.753647 79.19378876 45.74557526 78.3578949 45.73725891 C76.64055518 45.72342163 74.923188 45.71269788 73.20581055 45.70483398 C70.57613374 45.68758941 67.94770405 45.64369862 65.31835938 45.59960938 C63.65105092 45.58948518 61.98373178 45.58096822 60.31640625 45.57421875 C59.52883438 45.55671066 58.74126251 45.53920258 57.92982483 45.52116394 C53.65701352 45.50122973 53.65701352 45.50122973 50.12255859 47.64868164 Z " fill="#000000" transform="translate(73,25)"/>
</svg>
