<?xml version="1.0" encoding="UTF-8"?>
<svg version="1.1" xmlns="http://www.w3.org/2000/svg" width="256" height="256">
<path d="M0 0 C0 32.01 0 64.02 0 97 C8.90908927 93.28804234 8.90908927 93.28804234 17.8125 89.5625 C21.15716496 88.1655846 24.50919525 86.79216852 27.87890625 85.45703125 C28.54237061 85.19398193 29.20583496 84.93093262 29.8894043 84.65991211 C31.77677646 83.91382807 33.66569125 83.17164993 35.5546875 82.4296875 C38.78996752 81.08715633 41.88260163 79.59372613 45 78 C52.83783784 74.48648649 52.83783784 74.48648649 56 74 C57 75 57 75 57.12304783 77.87170506 C57.12212604 79.16866778 57.12120424 80.46563051 57.12025452 81.80189514 C57.12110894 82.52145478 57.12196337 83.24101442 57.12284368 83.9823789 C57.1245006 86.4115358 57.11897368 88.84062477 57.11352539 91.26977539 C57.11324354 93.00389097 57.11340121 94.73800668 57.1139679 96.47212219 C57.11425595 101.19506321 57.10835799 105.91797906 57.10139394 110.6409142 C57.09516166 115.5710279 57.0945567 120.50114212 57.09336853 125.43125916 C57.09025484 134.77396362 57.08204095 144.11665644 57.07201904 153.45935577 C57.06085907 164.09279055 57.05534775 174.72622587 57.05032361 185.35966504 C57.03985836 207.2397832 57.02225819 229.11989087 57 251 C52.43791505 250.3974668 48.60057279 249.65151689 44.375 247.8125 C43.33988281 247.36519531 42.30476563 246.91789063 41.23828125 246.45703125 C37.99915972 244.99962192 34.77954901 243.50543889 31.5625 242 C26.29034965 239.54216478 20.96241305 237.39449572 15.51953125 235.34765625 C8.6229619 232.7069055 1.81815435 229.83583967 -5 227 C-6.09828125 226.54367188 -7.1965625 226.08734375 -8.328125 225.6171875 C-11.21966019 224.41364275 -14.10985303 223.20687456 -17 222 C-22.94 219.525 -22.94 219.525 -29 217 C-29 149.35 -29 81.7 -29 12 C-21.13846154 7.50769231 -21.13846154 7.50769231 -17.1875 6 C-16.34574219 5.67515625 -15.50398438 5.3503125 -14.63671875 5.015625 C-13.33154297 4.51289063 -13.33154297 4.51289063 -12 4 C-9.34241735 2.91466555 -6.68603525 1.82653349 -4.03125 0.734375 C-2 0 -2 0 0 0 Z M21.08203125 120.9296875 C19 122 19 122 13 124 C8.71 125.65 4.42 127.3 0 129 C0 151.44 0 173.88 0 197 C13.41996383 202.22178993 13.41996383 202.22178993 27 207 C27 177.63 27 148.26 27 118 C24.75956793 118 22.94539843 119.79400095 21.08203125 120.9296875 Z " fill="#000000" transform="translate(62,5)"/>
<path d="M0 0 C4.35109148 0.8702183 7.25433771 1.92017466 11.1875 3.8125 C16.12236012 6.14799694 21.07302323 8.28920404 26.171875 10.23828125 C28 11 28 11 29 12 C29.0978152 14.64285253 29.12994267 17.25955753 29.12025452 19.90284729 C29.12110894 20.74082995 29.12196337 21.57881261 29.12284368 22.44218868 C29.12450106 25.27210859 29.11897293 28.10197024 29.11352539 30.93188477 C29.11324355 32.951711 29.11340119 34.97153735 29.1139679 36.99136353 C29.11425599 42.49320386 29.10835741 47.99502259 29.10139394 53.49685788 C29.0951623 59.23976105 29.09455675 64.98266465 29.09336853 70.72557068 C29.09025465 81.60886893 29.08204051 92.49215719 29.07201904 103.37545103 C29.06085965 115.76217796 29.05534789 128.14890536 29.05032361 140.53563607 C29.03985794 166.02376293 29.02225741 191.5118809 29 217 C27.56948909 217.63755078 26.13878806 218.27467499 24.70800781 218.91162109 C23.51295624 219.44388809 23.51295624 219.44388809 22.29376221 219.98690796 C19.46130738 221.2379258 16.6104568 222.43951657 13.75 223.625 C12.77546875 224.02976563 11.8009375 224.43453125 10.796875 224.8515625 C9.87390625 225.23054687 8.9509375 225.60953125 8 226 C7.11828125 226.37898437 6.2365625 226.75796875 5.328125 227.1484375 C3 228 3 228 0 228 C0 195.33 0 162.66 0 129 C-1.98 128.67 -3.96 128.34 -6 128 C-7.984375 127.16796875 -7.984375 127.16796875 -9.75 126.1875 C-13.69591883 124.10027653 -17.74002038 122.44776298 -21.8984375 120.83203125 C-24 120 -24 120 -26 119 C-26.00081715 119.93125434 -26.00081715 119.93125434 -26.00165081 120.88132191 C-26.01661004 135.97902106 -26.05902156 151.07637106 -26.13209057 166.1738863 C-26.16676227 173.47492637 -26.19209891 180.77577722 -26.19555664 188.0769043 C-26.19859355 194.43967416 -26.21904657 200.80210722 -26.26052457 207.16474694 C-26.28188189 210.53466928 -26.29444167 213.90411249 -26.28615379 217.27410316 C-26.28128204 221.03393036 -26.30719109 224.79234768 -26.34057617 228.55200195 C-26.33195053 229.67265549 -26.32332489 230.79330902 -26.31443787 231.94792175 C-26.35597052 234.72511041 -26.42169165 237.28364312 -27 240 C-29.42088318 242.15504456 -29.42088318 242.15504456 -32 243 C-32.63534668 243.3192041 -33.27069336 243.6384082 -33.92529297 243.96728516 C-35.9045476 244.86249761 -37.88748614 245.74826491 -39.875 246.625 C-40.89787109 247.09292969 -40.89787109 247.09292969 -41.94140625 247.5703125 C-42.61816406 247.869375 -43.29492188 248.1684375 -43.9921875 248.4765625 C-44.59401855 248.74549316 -45.19584961 249.01442383 -45.81591797 249.29150391 C-48.77785533 250.2523291 -51.91741459 250.55963066 -55 251 C-55 192.92 -55 134.84 -55 75 C-50.68204934 75.86359013 -46.9678147 77.08887428 -42.9375 78.75 C-42.2777417 79.01804443 -41.6179834 79.28608887 -40.93823242 79.56225586 C-38.95654487 80.36941529 -36.97776197 81.18327444 -35 82 C-33.93523437 82.43957031 -32.87046875 82.87914063 -31.7734375 83.33203125 C-29.81372319 84.1464244 -27.85536391 84.96408659 -25.8984375 85.78515625 C-23.9269825 86.6114669 -21.95290943 87.43155283 -19.9765625 88.24609375 C-18.47222656 88.86677734 -18.47222656 88.86677734 -16.9375 89.5 C-16.05964844 89.8609375 -15.18179688 90.221875 -14.27734375 90.59375 C-9.48374827 92.65059669 -4.74869145 94.84150389 0 97 C0 64.99 0 32.98 0 0 Z " fill="#000000" transform="translate(193,5)"/>
<path d="M0 0 C4.35925786 0.49203505 7.84844567 1.11990772 11.7109375 3.2109375 C12.56268555 3.65920898 13.41443359 4.10748047 14.29199219 4.56933594 C15.18563477 5.04145508 16.07927734 5.51357422 17 6 C20.86188352 7.90224128 24.74431842 9.7614537 28.625 11.625 C29.60984375 12.10195312 30.5946875 12.57890625 31.609375 13.0703125 C40.7778095 18.18012141 40.7778095 18.18012141 50.6875 19.55859375 C51.450625 19.18863281 52.21375 18.81867187 53 18.4375 C53.84820312 18.04175781 54.69640625 17.64601563 55.5703125 17.23828125 C56.37210938 16.82964844 57.17390625 16.42101562 58 16 C58.65742188 15.68417969 59.31484375 15.36835938 59.9921875 15.04296875 C62.01122723 14.05858216 64.00455954 13.03139107 66 12 C72.26996375 8.81885373 78.51797573 5.7224502 85 3 C86.546875 2.1646875 86.546875 2.1646875 88.125 1.3125 C91.1097927 -0.05012276 92.78701936 -0.11359022 96 0 C96.19830404 4.60789942 96.34315655 9.21330149 96.43945312 13.82446289 C96.47959962 15.39130925 96.53413434 16.95785742 96.60351562 18.52368164 C97.16852951 31.60624585 97.16852951 31.60624585 94.18359375 35.16650391 C92.13634706 36.44603308 90.31322475 37.32878667 88 38 C90.63600494 40.07114674 92.95048605 41.47524303 96 43 C96 54.22 96 65.44 96 77 C89.24823426 75.87470571 89.24823426 75.87470571 86.2578125 74.43359375 C85.25899048 73.95829224 85.25899048 73.95829224 84.23999023 73.47338867 C83.54204346 73.13154541 82.84409668 72.78970215 82.125 72.4375 C81.02103882 71.90829956 81.02103882 71.90829956 79.89477539 71.3684082 C76.11567078 69.54797357 72.35917657 67.68459687 68.61328125 65.796875 C67.91122559 65.44310791 67.20916992 65.08934082 66.48583984 64.72485352 C65.16466256 64.05576147 63.84578433 63.38210081 62.52978516 62.70288086 C54.81024519 58.49160395 54.81024519 58.49160395 46.35546875 57.13671875 C43.54369007 58.16723797 40.96215799 59.41515033 38.3125 60.8125 C34.54803399 62.7477212 30.82450172 64.54010123 26.875 66.0625 C20.9466748 68.3521256 15.33903051 71.22110271 9.734375 74.20703125 C6.15288202 76.08399887 4.1241851 77 0 77 C0 65.78 0 54.56 0 43 C2.64 41.68 5.28 40.36 8 39 C7.4225 38.566875 6.845 38.13375 6.25 37.6875 C5.5075 37.130625 4.765 36.57375 4 36 C3.30165039 35.62512451 2.60330078 35.25024902 1.88378906 34.86401367 C0 33 0 33 -0.45410156 29.63012695 C-0.45346993 28.24934974 -0.43096497 26.86846921 -0.390625 25.48828125 C-0.38496521 24.76005661 -0.37930542 24.03183197 -0.37347412 23.28153992 C-0.35110029 20.95785502 -0.30090669 18.63571793 -0.25 16.3125 C-0.22993609 14.73635041 -0.21168512 13.16017663 -0.1953125 11.58398438 C-0.15123283 7.72206076 -0.08220225 3.8612927 0 0 Z " fill="#FED900" transform="translate(80,0)"/>
</svg>
