<?xml version="1.0" encoding="UTF-8"?>
<svg width="1267.3" height="1538" version="1.1" viewBox="0 0 1267.3 1538" xmlns="http://www.w3.org/2000/svg" xmlns:cc="http://creativecommons.org/ns#" xmlns:dc="http://purl.org/dc/elements/1.1/" xmlns:rdf="http://www.w3.org/1999/02/22-rdf-syntax-ns#">
 <defs>
  <style>.cls-1{fill:#040404;}</style>
 </defs>
 <g id="CGN-Bildlogo-Black" transform="translate(-326.68,-191)">
  <path id="G" class="cls-1" d="m960.34 343.42-143.79 34.08v1083a1127.4 1127.4 0 0 0 108.9 82.61c13.91 9.23 25.76 16.59 34.95 22.08l0.09-0.06c9.15-5.44 20.92-12.72 34.73-21.84a1119.8 1119.8 0 0 0 108.9-82.34v-478.26h-145.12v108.9h36.25v345.13c-12.43 9.32-24.1 17.65-34.73 24.92-10.71-7.36-22.49-15.79-35-25.24v-970l34.89-8.27h0.15l34.73 8.23v154.84h108.9v-243.7l-143.63-34z"/>
  <path id="N" class="cls-1" d="m1273.4 1117v-335.71l59.13 190.29 10.64 34.23 31.63 101.79a870.33 870.33 0 0 0 58.35-179.2 890.88 890.88 0 0 0 18.92-183.4v-285l-108.9-25.81v204.67l-38.63-124.32-30-96.65-1.1-0.26-108.9-25.81v1013.6a1067.6 1067.6 0 0 0 108.9-125.52z"/>
  <path id="Wappen" class="cls-1" d="m960.49 191h-0.15l-633.66 150.17v391c0 154.79 32.82 304 97.54 443.5 31.14 67.11 70.55 132.87 117.12 195.44 23.2 31.17 48.42 61.77 75 91l5 5.56c2.57 2.91 5.15 5.82 7.82 8.68a1310.1 1310.1 0 0 0 104.09 99.31c21.17 18.1 43 35.6 64.82 52 75.83 56.95 131.46 85.54 133.79 86.72l28.54 14.58 0.15-0.08 28.38-14.49c2.33-1.19 57.95-29.77 133.79-86.73 21.83-16.39 43.65-33.89 64.83-52a1310.1 1310.1 0 0 0 104.07-99.31c2.67-2.84 5.24-5.75 7.81-8.64l5-5.6c26.57-29.24 51.8-59.85 75-91a1134.4 1134.4 0 0 0 75.34-115.11c16-28.06 29.63-54.34 41.7-80.34 11-23.63 21.42-49 32-77.48a1049.1 1049.1 0 0 0 65.53-366v-391zm544.76 554c0 93.28-13.24 184.66-39.36 271.62q-3.84 12.79-8 25.29a940.36 940.36 0 0 1-57 135.1 990.56 990.56 0 0 1-52.64 89.74 1066.1 1066.1 0 0 1-70.18 94.48 1154.6 1154.6 0 0 1-109.48 114.32c-19.63 17.88-40.06 35.27-60.73 51.71-64.61 51.41-117.35 82.31-137 93.21l-10.4 5.76-0.15 0.09-10.56-5.85c-19.67-10.9-72.42-41.8-137-93.21-20.69-16.47-41.12-33.85-60.72-51.71a1151.5 1151.5 0 0 1-109.48-114.35 1061.5 1061.5 0 0 1-70.18-94.47c-46.75-71-83.62-146.62-109.59-224.82-31.43-94.64-47.36-194.54-47.36-296.91v-327l544.92-129.19h0.15l544.76 129.19z"/>
  <path id="C" class="cls-1" d="m577.47 434.17-108.9 25.83v285c0 167.75 45.29 309.17 108.9 425.24a964.19 964.19 0 0 0 69.77 109 1072.9 1072.9 0 0 0 108.9 125.67v-422.22h-108.9v100.91a794.78 794.78 0 0 1-43-96.38c-18.2-49.43-26.81-101.88-26.81-154.55v-298.07l69.77-16.54v103.14h108.9v-229.38l-108.9 25.81z"/>
 </g>
</svg>
