<?xml version="1.0" encoding="UTF-8"?>
<svg version="1.1" xmlns="http://www.w3.org/2000/svg" width="256" height="256">
<path d="M0 0 C15.59322312 -0.40110119 30.10519312 0.73173371 44.921875 6.06201172 C45.89511719 6.41005859 46.86835938 6.75810547 47.87109375 7.11669922 C59.32010297 11.54955993 70.50101237 18.17924911 79.921875 26.06201172 C79.921875 26.72201172 79.921875 27.38201172 79.921875 28.06201172 C80.911875 28.39201172 81.901875 28.72201172 82.921875 29.06201172 C85.109375 30.99951172 85.109375 30.99951172 86.921875 33.06201172 C86.921875 33.72201172 86.921875 34.38201172 86.921875 35.06201172 C87.911875 35.39201172 88.901875 35.72201172 89.921875 36.06201172 C91.60947195 37.9649838 93.14886335 39.84672223 94.671875 41.87451172 C95.11217041 42.45475098 95.55246582 43.03499023 96.00610352 43.6328125 C103.52718106 53.72570164 109.01991437 64.34131243 112.484375 76.43701172 C112.70125977 77.18724609 112.91814453 77.93748047 113.14160156 78.71044922 C121.61436434 108.33297644 118.14480437 138.0720923 103.171875 165.18701172 C99.97836177 170.84362756 96.18118492 175.42315047 91.51171875 179.97607422 C89.67919834 181.88355064 89.67919834 181.88355064 90.13182068 183.98239136 C91.05311891 186.40747848 92.121866 187.61233684 93.97290039 189.421875 C94.61348892 190.05578156 95.25407745 190.68968811 95.91407776 191.34280396 C96.60887741 192.01584564 97.30367706 192.68888733 98.01953125 193.38232422 C98.72838974 194.08219452 99.43724823 194.78206482 100.16758728 195.50314331 C102.4328421 197.73835686 104.70772059 199.96341442 106.984375 202.18701172 C109.2636981 204.41861411 111.54075628 206.65235012 113.81187439 208.89230347 C115.22577641 210.28634237 116.64459412 211.67541562 118.06861877 213.05911255 C118.70605515 213.68671478 119.34349152 214.31431702 120.00024414 214.9609375 C120.5657045 215.51290802 121.13116486 216.06487854 121.71376038 216.63357544 C122.921875 218.06201172 122.921875 218.06201172 122.921875 220.06201172 C117.01367498 220.086737 111.1055051 220.10488376 105.19726562 220.11694336 C103.18749466 220.12197103 101.17772736 220.12879405 99.16796875 220.13745117 C96.27863665 220.14958522 93.38935293 220.15525571 90.5 220.15966797 C89.60194641 220.16482925 88.70389282 220.16999054 87.77862549 220.17530823 C86.5177713 220.17542152 86.5177713 220.17542152 85.23144531 220.17553711 C84.49420227 220.17775772 83.75695923 220.17997833 82.99737549 220.18226624 C80.86034543 220.05844669 78.97663576 219.64722541 76.921875 219.06201172 C76.921875 218.40201172 76.921875 217.74201172 76.921875 217.06201172 C76.35984375 216.82740234 75.7978125 216.59279297 75.21875 216.35107422 C72.37551609 214.75538172 70.44089373 212.77276629 68.171875 210.43701172 C66.97304688 209.21111328 66.97304688 209.21111328 65.75 207.96044922 C65.14671875 207.33396484 64.5434375 206.70748047 63.921875 206.06201172 C60.77167474 207.3078901 57.64103908 208.59544811 54.515625 209.90185547 C24.97400622 222.15032322 -6.43188608 223.90413544 -36.42919922 211.68286133 C-53.56632803 204.23457654 -68.67668632 191.85147481 -80.078125 177.06201172 C-80.078125 176.40201172 -80.078125 175.74201172 -80.078125 175.06201172 C-80.738125 175.06201172 -81.398125 175.06201172 -82.078125 175.06201172 C-100.75382704 149.98934507 -105.26435762 119.54621565 -101.265625 89.24951172 C-99.65293403 79.68087861 -96.23236872 70.79296461 -92.078125 62.06201172 C-91.645 61.11326172 -91.211875 60.16451172 -90.765625 59.18701172 C-76.35860004 32.50733587 -53.39091382 12.84398325 -24.2421875 3.83544922 C-16.14500012 1.47962409 -8.40606627 0.25083891 0 0 Z " fill="#0B8A4D" transform="translate(115.078125,17.93798828125)"/>
<path d="M0 0 C10.66399304 0.46226577 20.98606772 1.83081787 31.50439453 3.58837891 C35.7059592 4.28137813 39.91450794 4.92629481 44.125 5.5625 C44.95612305 5.68866699 45.78724609 5.81483398 46.64355469 5.94482422 C52.06465551 6.75278695 57.48898968 7.409585 62.9375 8 C86.10822942 10.5810772 104.35676472 18.04669119 120.75 34.8125 C129.80940793 47.64666123 132.90642921 61.52667723 130.39453125 77.0234375 C128.49306371 87.50693629 128.49306371 87.50693629 126 90 C125.05640625 89.17757812 124.1128125 88.35515625 123.140625 87.5078125 C102.97742541 69.96046504 82.51296141 53.10064169 59.1875 39.875 C58.49914062 39.48417236 57.81078125 39.09334473 57.1015625 38.69067383 C53.75324335 36.6776836 53.75324335 36.6776836 50 36 C50.72703125 36.53367188 51.4540625 37.06734375 52.203125 37.6171875 C58.67167065 42.41054568 64.94172342 47.35841363 71.08984375 52.5625 C72.89105935 54.07116918 74.71313896 55.55574909 76.56640625 57 C83.75054778 62.61569536 90.08139928 68.93138497 96.45556641 75.44140625 C97.18565918 76.18519531 97.91575195 76.92898437 98.66796875 77.6953125 C99.31016357 78.35547363 99.9523584 79.01563477 100.61401367 79.69580078 C102.58381101 81.59807718 104.58646805 83.38223574 106.66137695 85.16577148 C111.58098662 89.44051306 116.15720382 94.03184006 120.75 98.65234375 C121.64871826 99.55247696 122.54743652 100.45261017 123.47338867 101.38002014 C125.83586575 103.74711263 128.19615112 106.11634639 130.55535889 108.48669434 C132.97385181 110.91550742 135.39525946 113.34141103 137.81640625 115.76757812 C142.54692954 120.50907369 147.27457973 125.25341898 152 130 C150.79618552 132.49361571 149.54571278 134.68143083 148 137 C144.074898 135.40700539 141.65221267 132.85142536 138.71875 129.84375 C137.97570618 129.08934631 137.97570618 129.08934631 137.21765137 128.31970215 C135.10701043 126.17647471 133.00845098 124.02155619 130.90869141 121.86767578 C129.37032663 120.29310298 127.82596919 118.7245853 126.28125 117.15625 C125.36408203 116.21587891 124.44691406 115.27550781 123.50195312 114.30664062 C121.33109454 112.30524797 119.74438595 111.0121192 117 110 C112.45266795 110.25984755 108.98783111 112.5657424 105.1875 114.875 C100.22872856 117.79990034 95.48748304 120.23616617 90 122 C89.17757812 122.34417969 88.35515625 122.68835938 87.5078125 123.04296875 C76.35913888 126.08464474 60.83569484 125.9303076 50.53125 120.55078125 C49.6959375 120.03902344 48.860625 119.52726562 48 119 C47.0409375 118.45730469 46.081875 117.91460937 45.09375 117.35546875 C26.42898109 106.24190339 16.61765262 86.55928651 11.40234375 66.01953125 C10.90597924 63.95244515 10.41789849 61.88335489 9.9375 59.8125 C9.67855957 58.710271 9.41961914 57.60804199 9.15283203 56.47241211 C7.18914715 48.01865579 5.39573546 39.56802044 4 31 C3.83226074 29.97068359 3.66452148 28.94136719 3.49169922 27.88085938 C2.9235065 24.35935698 2.36556366 20.83640908 1.8125 17.3125 C1.63315918 16.17627197 1.45381836 15.04004395 1.26904297 13.86938477 C1.1042041 12.79487061 0.93936523 11.72035645 0.76953125 10.61328125 C0.62104736 9.65204346 0.47256348 8.69080566 0.31958008 7.70043945 C0.01226016 5.10359788 -0.05845175 2.61193287 0 0 Z " fill="#FCFDFD" transform="translate(54,64)"/>
<path d="M0 0 C4.23429756 1.31061591 8.07407404 2.94356259 12 5 C11.01 6.485 11.01 6.485 10 8 C8.33055479 6.85821872 6.6645052 5.71147095 5 4.5625 C4.071875 3.92441406 3.14375 3.28632812 2.1875 2.62890625 C1.465625 2.09136719 0.74375 1.55382812 0 1 C0 0.67 0 0.34 0 0 Z " fill="#349D6A" transform="translate(101,98)"/>
</svg>
