<?xml version="1.0" standalone="no"?>
<!DOCTYPE svg PUBLIC "-//W3C//DTD SVG 20010904//EN"
 "http://www.w3.org/TR/2001/REC-SVG-20010904/DTD/svg10.dtd">
<svg version="1.0" xmlns="http://www.w3.org/2000/svg"
 width="256.000000pt" height="256.000000pt" viewBox="0 0 256.000000 256.000000"
 preserveAspectRatio="xMidYMid meet">

<g transform="translate(0.000000,256.000000) scale(0.100000,-0.100000)"
fill="#000000" stroke="none">
<path d="M570 2364 c-15 -38 -12 -67 10 -128 22 -57 78 -118 128 -138 15 -6
54 -14 87 -17 l60 -7 -44 -13 c-28 -8 -65 -10 -98 -6 -49 6 -58 3 -141 -39
-265 -138 -447 -406 -460 -681 -7 -145 -2 -153 36 -70 32 67 80 140 88 133 2
-2 -10 -37 -27 -78 -16 -40 -36 -114 -44 -164 -39 -240 10 -443 148 -610 l23
-29 -4 119 c-2 65 -2 116 2 113 3 -3 17 -45 31 -94 15 -49 43 -121 63 -160 44
-84 153 -198 232 -243 65 -36 184 -77 255 -87 l50 -7 -42 31 c-40 29 -110 118
-100 127 2 3 17 -6 33 -19 44 -37 123 -74 210 -98 96 -26 295 -37 375 -20 58
12 159 57 159 71 0 4 -21 13 -46 19 -130 33 -241 130 -295 259 -28 68 -32 88
-33 172 -1 89 1 100 36 171 20 42 53 95 73 118 l37 41 -54 0 c-208 0 -414 151
-473 347 -24 78 -17 107 8 33 26 -79 75 -157 126 -203 133 -120 334 -159 522
-101 156 48 287 33 409 -49 70 -47 118 -67 159 -67 150 0 257 166 191 295 -12
22 -25 60 -31 85 -5 24 -20 60 -32 79 l-21 36 -13 -75 c-11 -68 -11 -76 4 -87
15 -12 15 -13 -5 -13 -22 0 -24 4 -36 78 -6 34 -41 92 -55 92 -4 0 -15 -36
-25 -81 -9 -44 -23 -82 -30 -85 -8 -3 -40 2 -72 10 -33 8 -112 24 -178 35
-101 17 -122 23 -147 47 -16 15 -29 34 -29 42 0 8 12 2 29 -17 29 -31 68 -51
100 -51 15 0 12 7 -15 36 -29 30 -34 43 -34 82 0 63 38 141 95 197 26 25 51
45 56 45 5 0 9 5 9 10 0 14 -12 13 -73 -10 -30 -11 -71 -37 -91 -56 -52 -50
-57 -35 -6 19 60 65 117 90 215 91 44 1 106 -3 138 -7 l57 -8 0 -85 c0 -46 4
-84 8 -84 18 0 94 75 113 111 10 21 24 39 29 39 6 0 10 -29 10 -65 0 -41 4
-65 11 -65 19 0 67 59 80 97 6 20 22 51 35 71 25 36 38 77 50 150 l7 43 -74
69 c-41 38 -69 70 -64 70 6 0 33 -14 60 -30 79 -47 98 -37 45 23 -66 76 -239
145 -395 158 -84 6 -140 18 -240 50 -168 54 -242 55 -425 9 -170 -43 -280 -49
-432 -21 -65 12 -152 32 -195 46 -98 31 -111 31 -123 -1z m1064 -119 c20 -15
34 -30 32 -34 -1 -3 -6 -13 -9 -22 -5 -15 -10 -15 -69 0 -62 16 -63 17 -63 51
0 19 1 38 2 41 5 13 72 -9 107 -36z m111 -61 c-10 -8 -32 -14 -48 -14 -29 0
-29 1 -14 18 12 13 26 17 49 14 29 -4 30 -6 13 -18z"/>
</g>
</svg>
