<?xml version="1.0" encoding="UTF-8"?>
<svg version="1.1" xmlns="http://www.w3.org/2000/svg" width="256" height="256">
<path d="M0 0 C8.66666667 4.33333333 17.33333333 8.66666667 26 13 C26.33 11.68 26.66 10.36 27 9 C32.5186714 10.59241053 37.07651169 13.28791002 41.87695312 16.34179688 C44.419529 17.87625395 46.38204163 18.99495132 49.390625 19.01953125 C53.32523398 17.48220648 56.98628525 15.52797687 60.6875 13.5 C61.45900391 13.08363281 62.23050781 12.66726562 63.02539062 12.23828125 C64.44914838 11.4698251 65.8714371 10.69863636 67.29174805 9.92382812 C68.51663076 9.26140763 69.7544837 8.62275815 71 8 C74.06170599 21.83235027 74.06170599 21.83235027 71.5 27.0625 C68.12205062 31.03159052 64.2521349 34.51616072 58.92578125 35.30859375 C57 35.3125 57 35.3125 54 35 C54.70125 35.474375 55.4025 35.94875 56.125 36.4375 C58 39 58 39 57.85546875 40.953125 C57.48228662 42.48880973 57.07949193 44.01750509 56.65234375 45.5390625 C55.64916162 49.32352205 55.37070096 53.10763996 55 57 C56.65 56.01 58.3 55.02 60 54 C62 57 62 57 62.125 59.3125 C60.02771665 64.32267689 55.14810422 66.79555179 50.5546875 69.37109375 C48 70 48 70 45.4296875 68.8046875 C44.16511719 67.84949219 44.16511719 67.84949219 42.875 66.875 C42.02679688 66.25367187 41.17859375 65.63234375 40.3046875 64.9921875 C38.15616614 63.13499107 36.59096158 61.33964938 35 59 C35.66 57.68 36.32 56.36 37 55 C38.65 55.33 40.3 55.66 42 56 C41.85711146 54.29141784 41.71053911 52.5831436 41.5625 50.875 C41.47742188 49.87082031 41.39234375 48.86664063 41.3046875 47.83203125 C41.04622684 44.87667379 41.04622684 44.87667379 40.1875 41.5625 C40 39 40 39 41.9375 36.625 C42.618125 36.08875 43.29875 35.5525 44 35 C43.06929688 35.0825 42.13859375 35.165 41.1796875 35.25 C35.7691326 35.25 31.06465959 33.00843302 26.125 31 C24.23218221 30.24896238 22.3389747 29.49890596 20.4453125 28.75 C19.61531738 28.41484375 18.78532227 28.0796875 17.93017578 27.734375 C16.1884204 26.940733 16.1884204 26.940733 15 27 C15 27.33 15 27.66 15 28 C12.69 28.33 10.38 28.66 8 29 C10.96234147 34.01319325 14.00406085 37.6385517 19.765625 39.6015625 C22.7830949 40.1396428 25.68735083 40.09312649 28.75 40.0625 C29.92046875 40.05347656 31.0909375 40.04445312 32.296875 40.03515625 C33.18890625 40.02355469 34.0809375 40.01195312 35 40 C38.62441902 48.40865213 38.62441902 48.40865213 37 54 C35.35408495 56.34642561 33.77121124 58.38324096 31.875 60.5 C31.37436035 61.07169922 30.8737207 61.64339844 30.35791016 62.23242188 C25.45629148 67.7520776 20.94425087 72.0945241 14.25 75.3125 C10.77683803 77.16130901 9.31879955 78.51986597 8 82.25 C7.61427145 83.8213908 7.27999741 85.40636987 7 87 C6.87238281 87.71285156 6.74476562 88.42570312 6.61328125 89.16015625 C6.29402237 91.44472302 6.12260442 93.69652306 6 96 C5.94714844 96.88171875 5.89429688 97.7634375 5.83984375 98.671875 C5.65187697 104.71950173 6.23895884 110.44115829 7.3125 116.375 C7.43012695 117.04088135 7.54775391 117.7067627 7.66894531 118.39282227 C8.50827712 122.66407667 9.89859953 126.19746581 12 130 C11.94779297 128.25976562 11.94779297 128.25976562 11.89453125 126.484375 C11.65412088 114.98906091 12.05019876 104.19965926 18 94 C18.33 94 18.66 94 19 94 C19.0093457 94.66829834 19.01869141 95.33659668 19.02832031 96.02514648 C19.46695936 121.08992789 22.07388184 142.65982977 41 161 C26.52372947 161.44258661 10.8226333 155.27835309 -0.4765625 146.2578125 C-4.14840545 143.5565621 -7.44897719 143.60143244 -11.875 143.8125 C-16.01433555 143.76503056 -19.2081139 143.52156804 -22.7578125 141.18359375 C-25.15134448 138.58573587 -27.07849268 135.964393 -29 133 C-29.36593262 132.45601562 -29.73186523 131.91203125 -30.10888672 131.3515625 C-33.82629896 125.80976117 -37.07957201 120.44646179 -39 114 C-36.27734375 113.59375 -36.27734375 113.59375 -33 114 C-31.17779603 116.19527788 -29.92281072 118.04453179 -28.5625 120.5 C-27.78244025 121.78616316 -26.99858287 123.07003074 -26.2109375 124.3515625 C-25.83291992 124.97708008 -25.45490234 125.60259766 -25.06542969 126.24707031 C-21.77656403 131.80665203 -21.77656403 131.80665203 -17 136 C-12.90942529 136.62852659 -9.09967808 136.484691 -5 136 C-6.23695349 134.41277052 -6.23695349 134.41277052 -8 133 C-10.01795938 132.83309042 -10.01795938 132.83309042 -12.1875 133 C-15.54387197 132.72756721 -16.71811365 132.27677972 -19.15625 129.8828125 C-22.68132759 125.09684178 -25.34237419 120.26693177 -27.8125 114.875 C-29.0952376 112.11029986 -29.0952376 112.11029986 -31 110 C-34.73528932 108.79289541 -38.10579366 108.70204471 -42 109 C-47.67461798 93.46366728 -48.28419414 79.378327 -48 63 C-46.02 63 -44.04 63 -42 63 C-41.98541748 63.59312988 -41.97083496 64.18625977 -41.95581055 64.79736328 C-41.66143627 75.5467054 -41.29307007 85.86252958 -38.62109375 96.3203125 C-38 99 -38 99 -38 103 C-33.05 102.505 -33.05 102.505 -28 102 C-28.33 100.68 -28.66 99.36 -29 98 C-30.98 98 -32.96 98 -35 98 C-39.06450246 85.17746247 -39.73234813 70.19900428 -37 57 C-40.3 57 -43.6 57 -47 57 C-43.46120029 39.05853294 -36.3588794 22.65852346 -24 9 C-23.67 9 -23.34 9 -23 9 C-22.21414605 14.86271996 -22.41139389 18.83292324 -26.0625 23.625 C-26.69671875 24.43839844 -27.3309375 25.25179687 -27.984375 26.08984375 C-30.43105537 29.62235707 -32.11918275 33.25104607 -33.8125 37.1875 C-34.1019751 37.85281738 -34.3914502 38.51813477 -34.68969727 39.20361328 C-36.46412094 43.40397011 -37.82842807 47.59374653 -39 52 C-35.7 52 -32.4 52 -29 52 C-29.33 53.381875 -29.66 54.76375 -30 56.1875 C-32.40875872 69.48728922 -31.74182831 83.80495127 -29 97 C-19.94236909 95.53909179 -12.39538158 92.28104446 -6.375 85.125 C-2.40749227 79.63080283 0.40201036 73.48026856 3.30078125 67.37890625 C5 64 5 64 7 62 C9.12038635 64.61514317 11.13091744 67.19637616 13 70 C15.46740783 66.60441384 15.46740783 66.60441384 15.8203125 62.55078125 C14.84542671 59.51935066 13.74057332 58.40070689 11.3125 56.375 C10.31669922 55.52035156 10.31669922 55.52035156 9.30078125 54.6484375 C6.9831876 52.88986397 6.9831876 52.88986397 4.0703125 51.578125 C-1.29455545 48.82061017 -5.47025216 44.87542016 -9 40 C-9.95524514 35.07857705 -8.278265 31.3055347 -6 27 C-3.525 29.97 -3.525 29.97 -1 33 C-0.67 22.11 -0.34 11.22 0 0 Z M-3 35 C-3.33 36.65 -3.66 38.3 -4 40 C-2.02 41.65 -0.04 43.3 2 45 C0.71860673 39.28136948 0.71860673 39.28136948 -3 35 Z M1 85 C0.25556641 86.77503906 0.25556641 86.77503906 -0.50390625 88.5859375 C-10.43904817 111.86973316 -10.43904817 111.86973316 -20 117 C-19.09522263 118.46573934 -18.17565859 119.92235756 -17.25 121.375 C-16.73953125 122.18710938 -16.2290625 122.99921875 -15.703125 123.8359375 C-13.9326665 126.08555679 -12.63092581 126.95906848 -10 128 C-2.30840894 114.97339047 0.52961816 99.87938633 2 85 C1.67 85 1.34 85 1 85 Z " fill="#DCA24D" transform="translate(79,59)"/>
<path d="M0 0 C13.66649761 12.42408874 20.38393174 30.32408739 24 48 C20.7 48 17.4 48 14 48 C14.15984375 48.95777344 14.3196875 49.91554687 14.484375 50.90234375 C16.29342219 63.67793764 15.44901639 76.59996489 12 89 C10.02 89.33 8.04 89.66 6 90 C5.505 91.485 5.505 91.485 5 93 C7.97 93 10.94 93 14 93 C14.48473678 91.31409158 14.96248926 89.62617455 15.4375 87.9375 C15.70433594 86.99777344 15.97117187 86.05804688 16.24609375 85.08984375 C17.96621283 78.04002928 18.12656904 71.27273114 18.0625 64.0625 C18.05798828 63.09248047 18.05347656 62.12246094 18.04882812 61.12304688 C18.0371315 58.7486324 18.02074086 56.37434979 18 54 C19.99954746 53.95745644 22.00041636 53.95919217 24 54 C26.41543299 56.41543299 25.24921393 63.38690198 25.25317383 66.7902832 C25.12609802 78.30131848 23.05094312 89.19748502 19 100 C18.29875 99.90976563 17.5975 99.81953125 16.875 99.7265625 C13.48648771 99.60685962 11.18781913 99.79140807 8 101 C4.98331405 104.80542896 2.95502868 108.90837095 0.85253906 113.26757812 C-0.93389853 116.89775028 -2.84086906 120.41252132 -6 123 C-8.40359364 123.6299073 -10.46801351 123.81666986 -12.94921875 123.76953125 C-15.56248334 124.06321241 -16.35944827 125.01571362 -18 127 C-10.70341338 127.97211968 -10.70341338 127.97211968 -3.9609375 125.7109375 C-1.1122438 122.53822177 1.0138904 118.98708545 3.2109375 115.3515625 C3.60063721 114.71750488 3.99033691 114.08344727 4.3918457 113.43017578 C5.16257033 112.15940437 5.90941552 110.8737901 6.62963867 109.57373047 C7.69140625 107.78125 7.69140625 107.78125 10 105 C13.27734375 104.59375 13.27734375 104.59375 16 105 C14.00719974 111.91187036 10.19618964 117.45139346 6.15966797 123.30078125 C5.13506004 124.80210149 4.15925443 126.33647676 3.19140625 127.875 C1.27420889 130.53943464 -0.20701259 132.25714056 -3 134 C-6.30385979 134.41614882 -9.41194537 134.50984622 -12.73046875 134.48291016 C-19.09091176 134.59292704 -22.70187547 136.77125472 -27.76879883 140.41430664 C-38.13340549 147.82307557 -51.18990317 152.5451105 -64 152 C-63.47212891 151.30777344 -63.47212891 151.30777344 -62.93359375 150.6015625 C-61.87428327 149.2020557 -60.82297476 147.79647539 -59.77734375 146.38671875 C-58.62103361 144.83395942 -57.44729797 143.29397571 -56.25390625 141.76953125 C-43.64251734 125.00115892 -42.69859035 106.20800392 -42 86 C-40 87 -40 87 -38.96484375 89.51171875 C-38.45630859 91.08373047 -38.45630859 91.08373047 -37.9375 92.6875 C-37.59589844 93.72261719 -37.25429687 94.75773437 -36.90234375 95.82421875 C-35.21659315 101.75718514 -34.86560603 107.25848217 -34.9375 113.375 C-34.94201172 114.11105469 -34.94652344 114.84710938 -34.95117188 115.60546875 C-34.96284858 117.40368158 -34.98077989 119.20185197 -35 121 C-34.34865075 119.43979133 -33.70417036 117.87671421 -33.0625 116.3125 C-32.70285156 115.44238281 -32.34320313 114.57226562 -31.97265625 113.67578125 C-29.53358939 106.96589854 -29.81642765 100.30405377 -29.8125 93.25 C-29.79413086 91.53683594 -29.79413086 91.53683594 -29.77539062 89.7890625 C-29.76151231 81.73964032 -29.92759343 73.82421307 -34.1875 66.75 C-35.49210686 64.27320879 -35.99613019 63.16640164 -36.0625 60.3125 C-34.64035193 57.21723655 -32.42979282 55.35178984 -30 53 C-29.49210937 54.0621875 -28.98421875 55.124375 -28.4609375 56.21875 C-22.82451094 67.8562645 -16.82541006 80.1254543 -4.4375 85.875 C-0.9401993 87.01957114 2.34392801 87.62693143 6 88 C9.0393816 73.12874005 9.1275915 57.85605961 6 43 C9.3 43 12.6 43 16 43 C12.78656364 31.76104672 8.46220357 18.46220357 0 10 C-0.1953125 7.6171875 -0.1953125 7.6171875 -0.125 4.875 C-0.10695312 3.96492188 -0.08890625 3.05484375 -0.0703125 2.1171875 C-0.04710937 1.41851562 -0.02390625 0.71984375 0 0 Z M-25 76 C-24.1014324 90.15243965 -20.97457543 107.03813685 -13 119 C-9.31353859 117.54144353 -7.83856029 115.69770955 -5.75 112.375 C-4.96882813 111.14910156 -4.96882813 111.14910156 -4.171875 109.8984375 C-3.78515625 109.27195313 -3.3984375 108.64546875 -3 108 C-3.72703125 107.59394531 -3.72703125 107.59394531 -4.46875 107.1796875 C-14.98129692 100.42739775 -19.71926705 87.236924 -24 76 C-24.33 76 -24.66 76 -25 76 Z " fill="#DCA24D" transform="translate(200,68)"/>
<path d="M0 0 C2.45822059 3.0191179 3.99069905 5.97998241 5.48046875 9.5703125 C6.14272461 11.16166016 6.14272461 11.16166016 6.81835938 12.78515625 C7.27017578 13.88730469 7.72199219 14.98945313 8.1875 16.125 C8.65091797 17.23488281 9.11433594 18.34476563 9.59179688 19.48828125 C13 27.73020987 13 27.73020987 13 30 C10.69 29.67 8.38 29.34 6 29 C6 33.62 6 38.24 6 43 C7.85367188 42.13375 9.70734375 41.2675 11.6171875 40.375 C13.4108427 39.54074177 15.20451038 38.70651006 16.99853516 37.87304688 C18.24656893 37.29238479 19.49396929 36.71035931 20.74072266 36.12695312 C22.5312114 35.28939753 24.3241663 34.45712034 26.1171875 33.625 C27.19597168 33.12226562 28.27475586 32.61953125 29.38623047 32.1015625 C32 31 32 31 34 31 C34 28.03 34 25.06 34 22 C31.03 22.99 28.06 23.98 25 25 C31.29551057 14.62091501 39.27162001 5.87024566 50 0 C49.80664062 0.54527344 49.61328125 1.09054688 49.4140625 1.65234375 C45.9361757 11.72444167 43.39895721 22.05938687 44.328125 32.7890625 C44.62575432 36.76006426 44.7907096 40.09112484 44 44 C40.77402392 47.36191672 37.30358759 49.27453664 33 51 C32.67 51 32.34 51 32 51 C32 49.02 32 47.04 32 45 C31.11739502 45.45963135 30.23479004 45.9192627 29.32543945 46.39282227 C26.04327781 48.09734078 22.75182626 49.78319371 19.45727539 51.46362305 C18.03378014 52.19295169 16.61284031 52.92729087 15.19458008 53.66674805 C13.15319596 54.72998384 11.10324186 55.77474739 9.05078125 56.81640625 C8.4203743 57.14967422 7.78996735 57.4829422 7.14045715 57.8263092 C4.46564447 59.16489358 2.4619668 60.02119114 -0.5546875 59.8828125 C-3.55174049 58.80080935 -6.33311051 57.50093408 -9.17578125 56.05859375 C-10.33271484 55.47529297 -11.48964844 54.89199219 -12.68164062 54.29101562 C-13.89199387 53.67330794 -15.1022795 53.05546773 -16.3125 52.4375 C-17.54203759 51.81520144 -18.77185267 51.19345082 -20.00195312 50.57226562 C-23.00407552 49.05354488 -26.00325153 47.5292898 -29 46 C-29.33 47.98 -29.66 49.96 -30 52 C-31.79639296 50.90353942 -33.58697154 49.79754852 -35.375 48.6875 C-36.37273437 48.07261719 -37.37046875 47.45773438 -38.3984375 46.82421875 C-41 45 -41 45 -43 42 C-43.06675492 39.62584693 -43.02950699 37.24830861 -42.9375 34.875 C-42.68326426 23.24973637 -45.1231185 12.20732966 -48 1 C-37.32800062 6.66269355 -31.06417449 14.42001287 -24 24 C-24.66 24.33 -25.32 24.66 -26 25 C-28.35981813 24.06421005 -30.69631264 23.06652192 -33 22 C-33 24.97 -33 27.94 -33 31 C-31.72253906 31.39832031 -30.44507812 31.79664062 -29.12890625 32.20703125 C-23.85760532 33.96413156 -18.92815957 36.25992548 -13.9375 38.6875 C-13.07189453 39.10322266 -12.20628906 39.51894531 -11.31445312 39.94726562 C-9.20733799 40.96007787 -7.10333408 41.97935874 -5 43 C-5 38.38 -5 33.76 -5 29 C-7.31 29.33 -9.62 29.66 -12 30 C-9.8197371 23.12052968 -7.19745965 16.54944102 -4.3125 9.9375 C-3.89677734 8.97650391 -3.48105469 8.01550781 -3.05273438 7.02539062 C-2.03848513 4.68212514 -1.02085998 2.34039113 0 0 Z " fill="#DCA24D" transform="translate(127,0)"/>
<path d="M0 0 C8.23641547 -1.33864992 12.69686501 1.35431269 19.45703125 5.83203125 C37.17157179 17.14647973 60.73891408 19.50485211 80.9934082 15.47875977 C91.43665976 13.15647509 100.95247524 9.53499588 109.875 3.625 C115.41101322 -0.01038446 119.46096471 -1.06277775 126 0 C111.37807587 15.5391666 88.02744539 22.99631397 67.22265625 24.22265625 C42.35257122 24.78510655 19.38529147 16.71071011 0 1 C0 0.67 0 0.34 0 0 Z " fill="#DCA24D" transform="translate(65,207)"/>
<path d="M0 0 C0.33 0 0.66 0 1 0 C2.29876031 21.75637594 2.29876031 21.75637594 -2.0625 27.5 C-3.00996094 28.54800781 -3.00996094 28.54800781 -3.9765625 29.6171875 C-6.59042073 32.6952831 -8.19893439 36.00092236 -9.9375 39.625 C-10.39684937 40.56956055 -10.39684937 40.56956055 -10.86547852 41.53320312 C-11.58407402 43.01872738 -12.29310991 44.50887015 -13 46 C-14.98 46 -16.96 46 -19 46 C-18.46699816 40.91296773 -16.69409968 36.97895218 -14.25 32.5625 C-13.91484375 31.93279297 -13.5796875 31.30308594 -13.234375 30.65429688 C-11.48951473 27.43886307 -9.65564753 24.50652321 -7.41015625 21.6171875 C-4.46665315 17.59863138 -3.36386112 13.34893982 -2.1875 8.5625 C-1.97158203 7.73556641 -1.75566406 6.90863281 -1.53320312 6.05664062 C-1.0089416 4.04114631 -0.50257922 2.02101005 0 0 Z " fill="#DDA34D" transform="translate(65,59)"/>
<path d="M0 0 C1.39893548 2.62812565 2.31797061 5.06416804 3.0625 7.9375 C4.6587438 12.91354571 7.45869274 16.6987469 10.50976562 20.89770508 C14.78483438 26.88962325 20 34.50601357 20 42 C18.02 42 16.04 42 14 42 C13.49210938 40.9378125 12.98421875 39.875625 12.4609375 38.78125 C11.76714368 37.35342773 11.07172147 35.92639598 10.375 34.5 C10.01470703 33.7560498 9.65441406 33.01209961 9.28320312 32.24560547 C7.36265103 28.37815742 5.54808697 25.23142357 2.5 22.125 C-2.29025909 16.45436896 -0.39959928 6.92638752 0 0 Z " fill="#DCA24D" transform="translate(190,63)"/>
<path d="M0 0 C1.32 0 2.64 0 4 0 C4.99 1.98 5.98 3.96 7 6 C7.33 4.02 7.66 2.04 8 0 C8.99 0 9.98 0 11 0 C11 4.29 11 8.58 11 13 C7 12 7 12 5.25 9.4375 C4.8375 8.633125 4.425 7.82875 4 7 C3.67 8.98 3.34 10.96 3 13 C2.01 13 1.02 13 0 13 C0 8.71 0 4.42 0 0 Z " fill="#DDA24D" transform="translate(211,243)"/>
<path d="M0 0 C0.66 1.32 1.32 2.64 2 4 C-0.97 3.67 -3.94 3.34 -7 3 C-7.33 4.65 -7.66 6.3 -8 8 C-6.11683841 9.10836423 -6.11683841 9.10836423 -4 10 C-3.34 9.67 -2.68 9.34 -2 9 C-3.32 8.67 -4.64 8.34 -6 8 C-6 7.34 -6 6.68 -6 6 C-3.03 6 -0.06 6 3 6 C1.92598892 8.91517292 1.22189824 10.77810176 -1 13 C-4.24890907 13.35314229 -6.37896648 13.27783078 -9.375 11.9375 C-11 10 -11 10 -11.4375 6.5 C-11 3 -11 3 -9.625 1.125 C-6.10955375 -1.30877048 -4.13338237 -1.11945772 0 0 Z " fill="#DDA24D" transform="translate(198,243)"/>
<path d="M0 0 C1.875 2.0625 1.875 2.0625 3 4 C2.36191406 3.91621094 1.72382812 3.83242187 1.06640625 3.74609375 C0.24011719 3.64425781 -0.58617187 3.54242188 -1.4375 3.4375 C-2.26121094 3.33308594 -3.08492187 3.22867188 -3.93359375 3.12109375 C-4.95646484 3.06115234 -4.95646484 3.06115234 -6 3 C-7.29633621 4.06645115 -7.29633621 4.06645115 -7.0625 6.5625 C-7.041875 7.366875 -7.02125 8.17125 -7 9 C-3.95086772 10.01111093 -3.95086772 10.01111093 -1 9 C-2.32 8.67 -3.64 8.34 -5 8 C-5 7.34 -5 6.68 -5 6 C-2.36 6 0.28 6 3 6 C2.6875 8.375 2.6875 8.375 2 11 C-1.49565336 13.33043558 -2.8865729 13.58763244 -7 13 C-9.4375 10.875 -9.4375 10.875 -11 8 C-11 4.45665039 -10.64741834 2.74333217 -8.3125 0.0625 C-5.10056066 -1.41325591 -3.33525198 -1.06444212 0 0 Z " fill="#DDA14D" transform="translate(45,243)"/>
<path d="M0 0 C2.27605184 2.12431505 2.90218604 3.44106306 3.4375 6.5 C2.84278924 9.89834723 1.79734842 11.01241034 -1 13 C-4.65852292 13.60975382 -6.30512879 13.44543026 -9.4375 11.4375 C-11 9 -11 9 -11 5.4375 C-10 2 -10 2 -8.3125 0 C-5.10029355 -1.38906225 -3.3063364 -1.05521374 0 0 Z M-6 2 C-8.28728734 3.83883881 -8.28728734 3.83883881 -8.125 6.625 C-8.08375 7.40875 -8.0425 8.1925 -8 9 C-5.67145537 10.19838209 -5.67145537 10.19838209 -3 11 C-2.01 10.34 -1.02 9.68 0 9 C0.41666667 6.5 0.41666667 6.5 0 4 C-0.66 3.34 -1.32 2.68 -2 2 C-3.32 2 -4.64 2 -6 2 Z " fill="#DDA14C" transform="translate(69,243)"/>
<path d="M0 0 C1.30862992 4.38696145 2.20034453 8.407487 2 13 C-0.44625463 16.7485405 -3.42036221 19.34613061 -7 22 C-7.33 20.68 -7.66 19.36 -8 18 C-7.34 18 -6.68 18 -6 18 C-4.23537317 14.91190305 -4 13.76687864 -4 10 C-4.99 10.66 -5.98 11.32 -7 12 C-7.517487 9.15382151 -7.34894002 7.50716808 -5.69921875 5.109375 C-1.34794207 0 -1.34794207 0 0 0 Z " fill="#DCA24D" transform="translate(184,86)"/>
<path d="M0 0 C1.09248047 -0.00966797 1.09248047 -0.00966797 2.20703125 -0.01953125 C2.95339844 -0.00019531 3.69976562 0.01914063 4.46875 0.0390625 C5.21511719 0.01972656 5.96148437 0.00039062 6.73046875 -0.01953125 C7.45878906 -0.01308594 8.18710938 -0.00664062 8.9375 0 C9.91879883 0.00845947 9.91879883 0.00845947 10.91992188 0.01708984 C12.96875 0.6640625 12.96875 0.6640625 17.96875 5.6640625 C9.05875 5.6640625 0.14875 5.6640625 -9.03125 5.6640625 C-3.39646739 0.02927989 -3.39646739 0.02927989 0 0 Z " fill="#DCA24D" transform="translate(123.03125,137.3359375)"/>
<path d="M0 0 C3.375 -0.125 3.375 -0.125 7 0 C7.66 0.66 8.32 1.32 9 2 C8.6730244 4.61580479 8.17960932 6.64078137 7 9 C7.89163577 11.11683841 7.89163577 11.11683841 9 13 C5.125 12.125 5.125 12.125 4 11 C3.67 11.66 3.34 12.32 3 13 C2.01 13 1.02 13 0 13 C0 8.71 0 4.42 0 0 Z M3 2 C3 3.32 3 4.64 3 6 C3.99 5.67 4.98 5.34 6 5 C6 4.01 6 3.02 6 2 C5.01 2 4.02 2 3 2 Z " fill="#DCA24D" transform="translate(136,243)"/>
<path d="M0 0 C0.33 0.66 0.66 1.32 1 2 C-2.625 7.75 -2.625 7.75 -6 10 C-11.69079125 10.83464938 -16.0568646 10.04192948 -21 7 C-21 6.67 -21 6.34 -21 6 C-20.2265625 5.97421875 -19.453125 5.9484375 -18.65625 5.921875 C-11.9166021 5.55486447 -5.07463149 5.07463149 0 0 Z " fill="#DDA44C" transform="translate(169,99)"/>
<path d="M0 0 C6.34507042 -0.35915493 6.34507042 -0.35915493 8.9375 1.0625 C10.63335287 4.15493758 10.43060657 6.55514741 10 10 C8.375 11.9375 8.375 11.9375 6 13 C4.02 13 2.04 13 0 13 C0 8.71 0 4.42 0 0 Z M2 2 C2 4.64 2 7.28 2 10 C3.65 9.67 5.3 9.34 7 9 C7.69159401 7.15274948 7.69159401 7.15274948 8 5 C7.34 4.01 6.68 3.02 6 2 C4.68 2 3.36 2 2 2 Z " fill="#DDA24D" transform="translate(83,243)"/>
<path d="M0 0 C0.639375 0.2475 1.27875 0.495 1.9375 0.75 C2.2675 1.74 2.5975 2.73 2.9375 3.75 C1.2875 3.42 -0.3625 3.09 -2.0625 2.75 C-2.0625 3.41 -2.0625 4.07 -2.0625 4.75 C-1.258125 4.9975 -0.45375 5.245 0.375 5.5 C2.9375 6.75 2.9375 6.75 3.875 8.6875 C3.9375 10.75 3.9375 10.75 1.9375 13.75 C-0.6875 13.9375 -0.6875 13.9375 -3.0625 13.75 C-3.7225 12.43 -4.3825 11.11 -5.0625 9.75 C-2.5875 10.245 -2.5875 10.245 -0.0625 10.75 C-0.0625 10.09 -0.0625 9.43 -0.0625 8.75 C-0.701875 8.481875 -1.34125 8.21375 -2 7.9375 C-4.0625 6.75 -4.0625 6.75 -5.0625 3.75 C-4.7325 2.76 -4.4025 1.77 -4.0625 0.75 C-2.0625 -0.25 -2.0625 -0.25 0 0 Z " fill="#DCA34B" transform="translate(108.0625,242.25)"/>
<path d="M0 0 C2.31 0 4.62 0 7 0 C7 0.66 7 1.32 7 2 C5.68 2 4.36 2 3 2 C3 2.99 3 3.98 3 5 C4.32 5 5.64 5 7 5 C7 5.66 7 6.32 7 7 C5.68 7 4.36 7 3 7 C3 7.99 3 8.98 3 10 C4.32 10 5.64 10 7 10 C7 10.99 7 11.98 7 13 C4.69 13 2.38 13 0 13 C0 8.71 0 4.42 0 0 Z " fill="#DDA24E" transform="translate(155,243)"/>
<path d="M0 0 C-0.3125 2.875 -0.3125 2.875 -1 6 C-4.20380017 8.13586678 -5.01939967 8.23132175 -8.6875 8.125 C-9.89986328 8.09792969 -9.89986328 8.09792969 -11.13671875 8.0703125 C-12.05904297 8.03550781 -12.05904297 8.03550781 -13 8 C-9.81692689 4.43495812 -5.03655764 0 0 0 Z " fill="#DBA24C" transform="translate(172,80)"/>
<path d="M0 0 C0.99 0 1.98 0 3 0 C3 4.29 3 8.58 3 13 C2.01 13 1.02 13 0 13 C0 8.71 0 4.42 0 0 Z " fill="#DDA34E" transform="translate(173,243)"/>
<path d="M0 0 C1.65 1.65 3.3 3.3 5 5 C3.0625 4.1875 3.0625 4.1875 1 3 C0.67 2.01 0.34 1.02 0 0 Z " fill="#E0AD45" transform="translate(145,118)"/>
<path d="M0 0 C1.98 0.99 1.98 0.99 4 2 C3.01 2 2.02 2 1 2 C0.67 1.34 0.34 0.68 0 0 Z " fill="#B88740" transform="translate(150,123)"/>
<path d="M0 0 C2 1 2 1 2 1 Z " fill="#D9A651" transform="translate(134,220)"/>
<path d="M0 0 C2 1 2 1 2 1 Z " fill="#DBA34C" transform="translate(146,104)"/>
<path d="M0 0 C2 1 2 1 2 1 Z " fill="#CEA147" transform="translate(157,88)"/>
<path d="" fill="#DCA34D" transform="translate(0,0)"/>
<path d="" fill="#DDAA44" transform="translate(0,0)"/>
<path d="" fill="#DDA34E" transform="translate(0,0)"/>
<path d="" fill="#DDA34E" transform="translate(0,0)"/>
<path d="" fill="#DDA34E" transform="translate(0,0)"/>
<path d="" fill="#DDA34E" transform="translate(0,0)"/>
<path d="" fill="#DDA34E" transform="translate(0,0)"/>
<path d="" fill="#DDA44E" transform="translate(0,0)"/>
<path d="" fill="#DF9F40" transform="translate(0,0)"/>
<path d="" fill="#DDA34E" transform="translate(0,0)"/>
</svg>
