<?xml version="1.0" encoding="UTF-8"?>
<svg version="1.1" xmlns="http://www.w3.org/2000/svg" width="256" height="256">
<path d="M0 0 C3.71888239 0.50712033 6.73454239 1.11608215 10 3 C10 3.66 10 4.32 10 5 C10.680625 5.103125 11.36125 5.20625 12.0625 5.3125 C15.62915989 6.14725019 18.66222194 7.49472754 22 9 C22 9.66 22 10.32 22 11 C23.0725 11.28875 24.145 11.5775 25.25 11.875 C28.09400364 12.72820109 30.43508983 13.5636503 33 15 C33 15.66 33 16.32 33 17 C33.59167969 17.19335938 34.18335938 17.38671875 34.79296875 17.5859375 C38.9146645 18.94414719 42.9950524 20.32050585 47 22 C47 22.66 47 23.32 47 24 C48.175625 24.33 49.35125 24.66 50.5625 25 C57.18048821 27.19207811 63.12184614 30.69331962 69.21240234 34.03076172 C76.4131518 37.95186993 76.4131518 37.95186993 84 41 C84 41.66 84 42.32 84 43 C84.81791016 43.23783203 84.81791016 43.23783203 85.65234375 43.48046875 C92.43356632 45.57859061 98.16328968 48.73527516 104.25 52.328125 C113.01658577 57.53644714 113.01658577 57.53644714 122.84765625 58.63671875 C123.57855469 58.32347656 124.30945313 58.01023438 125.0625 57.6875 C125.81660156 57.38199219 126.57070312 57.07648438 127.34765625 56.76171875 C127.89292969 56.51035156 128.43820313 56.25898437 129 56 C129 55.34 129 54.68 129 54 C129.82242188 53.62488281 130.64484375 53.24976563 131.4921875 52.86328125 C137.75515193 49.99215321 143.96217828 47.06387448 150.07421875 43.8828125 C152 43 152 43 154 43 C154 42.34 154 41.68 154 41 C154.82242188 40.62488281 155.64484375 40.24976563 156.4921875 39.86328125 C162.75515193 36.99215321 168.96217828 34.06387448 175.07421875 30.8828125 C177 30 177 30 179 30 C179 29.34 179 28.68 179 28 C180.43429001 27.32645501 181.87257057 26.66140299 183.3125 26 C184.51326172 25.443125 184.51326172 25.443125 185.73828125 24.875 C188 24 188 24 191 24 C191 23.34 191 22.68 191 22 C192.95649397 21.16235732 194.91525556 20.33000941 196.875 19.5 C197.96554688 19.0359375 199.05609375 18.571875 200.1796875 18.09375 C203 17 203 17 205 17 C205 16.34 205 15.68 205 15 C206.26691507 14.32591692 207.53870749 13.66099503 208.8125 13 C209.52019531 12.62875 210.22789062 12.2575 210.95703125 11.875 C213 11 213 11 216 11 C216 10.34 216 9.68 216 9 C219.09965403 7.4905412 222.20541403 5.99409333 225.3125 4.5 C226.19357422 4.07074219 227.07464844 3.64148438 227.98242188 3.19921875 C228.82998047 2.79316406 229.67753906 2.38710938 230.55078125 1.96875 C231.33106689 1.59169922 232.11135254 1.21464844 232.9152832 0.82617188 C235 0 235 0 238 0 C238.15200963 6.01819961 237.6097526 11.63031247 236.625 17.5625 C236.49867188 18.37396484 236.37234375 19.18542969 236.2421875 20.02148438 C235.67587051 23.52981815 235.03976456 26.86655015 234.0234375 30.27734375 C232.51231765 35.77389801 231.80887986 41.36311849 231 47 C230.67105989 49.29230138 230.3378442 51.58399399 230 53.875 C229.7834375 55.38707031 229.7834375 55.38707031 229.5625 56.9296875 C229 60 229 60 228.00927734 63.43115234 C226.98972795 67.03632242 226.3783909 70.51919722 225.8515625 74.2265625 C225.64874265 75.60290958 225.44560728 76.97921021 225.2421875 78.35546875 C224.93340642 80.4804086 224.62772244 82.60567874 224.328125 84.73193359 C220.27212693 113.31738055 220.27212693 113.31738055 208.8125 122.8125 C207 124 207 124 205 124 C204.67 124.99 204.34 125.98 204 127 C201.56640625 128.75390625 201.56640625 128.75390625 198.5625 130.5625 C194.53872741 132.97190547 194.53872741 132.97190547 191 136 C190.01 136 189.02 136 188 136 C187.67 136.99 187.34 137.98 187 139 C185.85273438 139.51175781 184.70546875 140.02351562 183.5234375 140.55078125 C181.05431288 141.87618514 180.17415946 142.49110288 179.25488281 145.17724609 C178.89703861 147.85800162 178.72010035 150.48474819 178.625 153.1875 C178.51581216 155.01449188 178.40397917 156.84132826 178.2890625 158.66796875 C178.23806396 159.87876099 178.23806396 159.87876099 178.18603516 161.11401367 C178 163 178 163 177 164 C176.95875 165.093125 176.9175 166.18625 176.875 167.3125 C176 171 176 171 172.6875 173.1875 C171.73037109 173.64576172 171.73037109 173.64576172 170.75390625 174.11328125 C168.83721202 174.96778278 168.83721202 174.96778278 167.125 176.875 C162.560421 181.439579 157.03357925 184.76534102 151 187 C151 187.66 151 188.32 151 189 C149.3203125 190.2890625 149.3203125 190.2890625 147.125 191.625 C146.40570313 192.07101563 145.68640625 192.51703125 144.9453125 192.9765625 C143 194 143 194 141 194 C140.67 194.99 140.34 195.98 140 197 C138.07421875 198.5 138.07421875 198.5 135.6875 200 C133.33384635 201.49388926 131.07101313 202.94308409 128.89453125 204.6875 C127 206 127 206 124 206 C123.67 206.99 123.34 207.98 123 209 C120.27784166 209.86877394 118.78935301 210.30936461 116 210 C112.70032676 207.99547538 109.90884914 205.52376728 107 203 C106.34 202.67 105.68 202.34 105 202 C105 201.34 105 200.68 105 200 C103.576875 199.62875 103.576875 199.62875 102.125 199.25 C98.47638418 197.79055367 98.63534584 197.27069167 97 194 C95.65808594 193.56300781 95.65808594 193.56300781 94.2890625 193.1171875 C90.74579009 191.91365317 88.36467356 190.35672815 85.375 188.125 C84.45460938 187.44695312 83.53421875 186.76890625 82.5859375 186.0703125 C80 184 80 184 77.8671875 181.8515625 C75.51991231 179.52392978 72.99045882 178.35929947 70 177 C70 176.34 70 175.68 70 175 C69.2575 174.731875 68.515 174.46375 67.75 174.1875 C65.07007792 173.03026092 63.1350948 171.98258803 61 170 C59.95696508 166.88169272 59.81078143 163.84866533 59.68359375 160.578125 C59.64169922 159.55332031 59.59980469 158.52851563 59.55664062 157.47265625 C59.51732422 156.40917969 59.47800781 155.34570312 59.4375 154.25 C59.39431641 153.17105469 59.35113281 152.09210938 59.30664062 150.98046875 C59.20071011 148.32043572 59.09863579 145.66031188 59 143 C58.24750977 142.71318359 57.49501953 142.42636719 56.71972656 142.13085938 C53.1150969 140.63205824 50.01467498 138.62000678 46.75 136.5 C45.79480469 135.89478516 45.79480469 135.89478516 44.8203125 135.27734375 C40.12526982 132.25053964 40.12526982 132.25053964 39 130 C37.34948712 128.88365848 37.34948712 128.88365848 35.4375 127.875 C34.303125 127.25625 33.16875 126.6375 32 126 C32 125.34 32 124.68 32 124 C30.824375 123.62875 30.824375 123.62875 29.625 123.25 C26.67682892 121.84610901 26.0975223 120.99324263 25 118 C24.34 118 23.68 118 23 118 C17.6237349 107.98902361 15.46128426 98.00755264 13.8125 86.8125 C13.63525391 85.67619141 13.45800781 84.53988281 13.27539062 83.36914062 C12.44318362 77.85858074 11.76607344 72.57390535 12 67 C11.34 67 10.68 67 10 67 C9.32454235 62.81386921 8.66120923 58.62590304 8 54.4375 C7.71382812 52.66536133 7.71382812 52.66536133 7.421875 50.85742188 C6.531544 45.18156175 5.72989508 39.74817031 6 34 C5.34 34 4.68 34 4 34 C3.32321814 29.83491163 2.66040852 25.66771325 2 21.5 C1.71382812 19.74042969 1.71382812 19.74042969 1.421875 17.9453125 C0.46886893 11.88691677 -0.24289989 6.13322218 0 0 Z " fill="#0A0606" transform="translate(9,23)"/>
<path d="M0 0 C3.65938172 1.43164111 7.23988068 2.98934296 10.8125 4.625 C12.27623047 5.29402344 12.27623047 5.29402344 13.76953125 5.9765625 C14.50558594 6.31429687 15.24164063 6.65203125 16 7 C16 7.66 16 8.32 16 9 C16.65484375 9.10054687 17.3096875 9.20109375 17.984375 9.3046875 C24.58190576 10.82587983 32.02809296 13.22925007 37 18 C38.69662064 23.23528654 38.42257026 27.51329406 38 33 C38.33 33.66 38.66 34.32 39 35 C39.06950541 36.54023996 39.08452357 38.08334988 39.0625 39.625 C39.05347656 40.44226563 39.04445312 41.25953125 39.03515625 42.1015625 C39.02355469 42.72804687 39.01195312 43.35453125 39 44 C39.61488281 43.59007812 40.22976562 43.18015625 40.86328125 42.7578125 C51 36 51 36 53.39453125 36.1875 C56.25386227 37.07916545 58.24589587 38.27553936 60.6875 40 C63.74865014 42.16022892 63.74865014 42.16022892 67 44 C66.98839844 42.96101563 66.97679687 41.92203125 66.96484375 40.8515625 C66.92885188 36.56698719 66.95570348 32.28440023 67 28 C67.00386719 26.94941406 67.00773437 25.89882812 67.01171875 24.81640625 C67.11594191 22.39771024 67.27586051 20.30941784 68 18 C70.375 16.1875 70.375 16.1875 74 15 C75.90252884 14.13965529 77.79794096 13.26346816 79.6875 12.375 C82.45233233 11.11304333 85.11522917 9.96159028 88 9 C88.433125 8.55011719 88.86625 8.10023437 89.3125 7.63671875 C91.61143696 5.40696276 94.13737539 4.23328795 97 2.8125 C98.051875 2.28269531 99.10375 1.75289063 100.1875 1.20703125 C103 0 103 0 106 0 C105.51990434 22.75653446 103.1813326 45.35779926 101 68 C100.92183044 68.81206909 100.84366089 69.62413818 100.76312256 70.46081543 C99.56528086 82.89241744 99.56528086 82.89241744 98.95166016 89.07055664 C98.83999512 90.20098389 98.72833008 91.33141113 98.61328125 92.49609375 C98.50048828 93.57052734 98.38769531 94.64496094 98.27148438 95.75195312 C98.08309977 98.005792 97.9810559 100.26785117 97.94726562 102.52929688 C97.74308803 110.95755791 97.74308803 110.95755791 95.66430664 113.8737793 C93.81531728 115.38237765 91.97797793 116.49899607 89.875 117.625 C88.41742144 118.509982 86.96173807 119.39809177 85.5078125 120.2890625 C84.38874512 120.94890137 84.38874512 120.94890137 83.24707031 121.62207031 C79.58888253 123.86531367 76.18124659 126.42806286 72.75 129 C71.53669741 129.89615711 70.3231707 130.79201089 69.109375 131.6875 C67.29051036 133.04022345 65.48256328 134.40831741 63.703125 135.8125 C62 137 62 137 60 137 C60 137.66 60 138.32 60 139 C59.34 139 58.68 139 58 139 C57.92531364 134.44681299 57.87114744 129.89399002 57.83520508 125.34033203 C57.8202067 123.79437032 57.79980113 122.24845052 57.77368164 120.70263672 C57.46778504 102.12091746 57.46778504 102.12091746 63.25 95.375 C64.61125 94.199375 64.61125 94.199375 66 93 C66.50402344 92.54109375 67.00804687 92.0821875 67.52734375 91.609375 C80.51151316 80 80.51151316 80 85 80 C85 74.39 85 68.78 85 63 C82.49860092 64.39337643 79.99853108 65.78899445 77.5 67.1875 C76.76765137 67.59734131 76.03530273 68.00718262 75.28076172 68.42944336 C71.5020982 70.55499413 67.77282576 72.71650053 64.125 75.0625 C61 77 61 77 59 77 C58.505 78.485 58.505 78.485 58 80 C52.4081108 81.462268 49.6525263 80.78875531 44.69726562 77.88867188 C43.99279297 77.45103516 43.28832031 77.01339844 42.5625 76.5625 C41.83095703 76.12873047 41.09941406 75.69496094 40.34570312 75.24804688 C38.55367952 74.18220277 36.77537168 73.09335615 35 72 C35 71.34 35 70.68 35 70 C34.195625 69.773125 33.39125 69.54625 32.5625 69.3125 C28.08714261 67.66368412 24.11278682 65.39455588 20 63 C20.495 63.99 20.495 63.99 21 65 C21.19891504 71.29160901 21.19891504 71.29160901 21.16601562 74.4140625 C21.1812528 76.68832402 21.1812528 76.68832402 22 80 C24.63240018 82.304407 24.63240018 82.304407 28 84 C29.09881825 84.76918923 30.18348869 85.55894257 31.25390625 86.3671875 C32.07084961 86.98400391 32.07084961 86.98400391 32.90429688 87.61328125 C33.45150391 88.02964844 33.99871094 88.44601563 34.5625 88.875 C35.11357422 89.28363281 35.66464844 89.69226563 36.23242188 90.11328125 C41.53501112 94.15155206 45.97054754 98.47363947 48 105 C48.16496802 107.68010949 48.23378795 110.2499358 48.1953125 112.92578125 C48.1924826 113.67337204 48.18965271 114.42096283 48.18673706 115.19120789 C48.17559469 117.5651388 48.15050162 119.93868425 48.125 122.3125 C48.11496249 123.9277289 48.10583799 125.54296376 48.09765625 127.15820312 C48.07567489 131.10561594 48.04118657 135.05274274 48 139 C44.7852388 137.75323174 42.15296776 136.56978005 39.4375 134.4375 C38.75816406 133.91285156 38.07882813 133.38820312 37.37890625 132.84765625 C36.59386719 132.23792969 35.80882812 131.62820312 35 131 C32.96138711 129.45429745 30.9195474 127.91284421 28.875 126.375 C27.90304688 125.64023438 26.93109375 124.90546875 25.9296875 124.1484375 C23.88054822 122.64573536 21.77498469 121.2183777 19.6328125 119.8515625 C18.76398438 119.24054688 17.89515625 118.62953125 17 118 C17 117.34 17 116.68 17 116 C16.236875 115.71125 15.47375 115.4225 14.6875 115.125 C12 114 12 114 9 112 C8.41577148 108.90576172 8.41577148 108.90576172 8.12109375 104.9296875 C8.0634938 104.21579865 8.00589386 103.50190979 7.94654846 102.76638794 C7.76363767 100.47006141 7.59977343 98.17286892 7.4375 95.875 C7.21274977 92.89277465 6.98021614 89.91119015 6.74609375 86.9296875 C6.65911224 85.79649582 6.65911224 85.79649582 6.57037354 84.64041138 C6.19881473 79.95978687 5.67711635 75.32582071 5.04296875 70.671875 C3.59324766 59.55711728 2.91478897 48.37513917 2.14013672 37.19677734 C1.87314524 33.34826487 1.59917703 29.50029446 1.32421875 25.65234375 C1.15063685 23.19273687 0.97744556 20.73310238 0.8046875 18.2734375 C0.72346649 17.12966644 0.64224548 15.98589539 0.55856323 14.8074646 C0.48493561 13.73839874 0.41130798 12.66933289 0.33544922 11.56787109 C0.27042206 10.63462006 0.2053949 9.70136902 0.13839722 8.73983765 C-0.00898278 5.82216874 -0.02309125 2.92089188 0 0 Z " fill="#F9F9F9" transform="translate(75,73)"/>
<path d="M0 0 C3.71888239 0.50712033 6.73454239 1.11608215 10 3 C10 3.66 10 4.32 10 5 C10.680625 5.103125 11.36125 5.20625 12.0625 5.3125 C15.62915989 6.14725019 18.66222194 7.49472754 22 9 C22 9.66 22 10.32 22 11 C23.0725 11.28875 24.145 11.5775 25.25 11.875 C28.09400364 12.72820109 30.43508983 13.5636503 33 15 C33 15.66 33 16.32 33 17 C33.59167969 17.19335938 34.18335938 17.38671875 34.79296875 17.5859375 C38.9146645 18.94414719 42.9950524 20.32050585 47 22 C47 22.66 47 23.32 47 24 C48.175625 24.33 49.35125 24.66 50.5625 25 C57.18048821 27.19207811 63.12184614 30.69331962 69.21240234 34.03076172 C76.4131518 37.95186993 76.4131518 37.95186993 84 41 C84 41.66 84 42.32 84 43 C84.81791016 43.23783203 84.81791016 43.23783203 85.65234375 43.48046875 C92.43356632 45.57859061 98.16328968 48.73527516 104.25 52.328125 C113.01658577 57.53644714 113.01658577 57.53644714 122.84765625 58.63671875 C123.57855469 58.32347656 124.30945313 58.01023438 125.0625 57.6875 C125.81660156 57.38199219 126.57070312 57.07648438 127.34765625 56.76171875 C127.89292969 56.51035156 128.43820313 56.25898437 129 56 C129 55.34 129 54.68 129 54 C129.82242188 53.62488281 130.64484375 53.24976563 131.4921875 52.86328125 C137.75515193 49.99215321 143.96217828 47.06387448 150.07421875 43.8828125 C152 43 152 43 154 43 C154 42.34 154 41.68 154 41 C154.82242188 40.62488281 155.64484375 40.24976563 156.4921875 39.86328125 C162.75515193 36.99215321 168.96217828 34.06387448 175.07421875 30.8828125 C177 30 177 30 179 30 C179 29.34 179 28.68 179 28 C180.43429001 27.32645501 181.87257057 26.66140299 183.3125 26 C184.51326172 25.443125 184.51326172 25.443125 185.73828125 24.875 C188 24 188 24 191 24 C191 23.34 191 22.68 191 22 C192.95649397 21.16235732 194.91525556 20.33000941 196.875 19.5 C197.96554688 19.0359375 199.05609375 18.571875 200.1796875 18.09375 C203 17 203 17 205 17 C205 16.34 205 15.68 205 15 C206.26691507 14.32591692 207.53870749 13.66099503 208.8125 13 C209.52019531 12.62875 210.22789062 12.2575 210.95703125 11.875 C213 11 213 11 216 11 C216 10.34 216 9.68 216 9 C219.09965403 7.4905412 222.20541403 5.99409333 225.3125 4.5 C226.19357422 4.07074219 227.07464844 3.64148438 227.98242188 3.19921875 C228.82998047 2.79316406 229.67753906 2.38710938 230.55078125 1.96875 C231.33106689 1.59169922 232.11135254 1.21464844 232.9152832 0.82617188 C235 0 235 0 238 0 C238.15200963 6.01819961 237.6097526 11.63031247 236.625 17.5625 C236.49867188 18.37396484 236.37234375 19.18542969 236.2421875 20.02148438 C235.67587051 23.52981815 235.03976456 26.86655015 234.0234375 30.27734375 C232.51231765 35.77389801 231.80887986 41.36311849 231 47 C230.67105989 49.29230138 230.3378442 51.58399399 230 53.875 C229.7834375 55.38707031 229.7834375 55.38707031 229.5625 56.9296875 C229 60 229 60 228.00927734 63.43115234 C226.98972795 67.03632242 226.3783909 70.51919722 225.8515625 74.2265625 C225.64874265 75.60290958 225.44560728 76.97921021 225.2421875 78.35546875 C224.93340642 80.4804086 224.62772244 82.60567874 224.328125 84.73193359 C220.27212693 113.31738055 220.27212693 113.31738055 208.8125 122.8125 C207 124 207 124 205 124 C204.67 124.99 204.34 125.98 204 127 C201.56640625 128.75390625 201.56640625 128.75390625 198.5625 130.5625 C194.53872741 132.97190547 194.53872741 132.97190547 191 136 C190.01 136 189.02 136 188 136 C187.67 136.99 187.34 137.98 187 139 C185.85273438 139.51175781 184.70546875 140.02351562 183.5234375 140.55078125 C181.05431288 141.87618514 180.17415946 142.49110288 179.25488281 145.17724609 C178.89703861 147.85800162 178.72010035 150.48474819 178.625 153.1875 C178.51581216 155.01449188 178.40397917 156.84132826 178.2890625 158.66796875 C178.23806396 159.87876099 178.23806396 159.87876099 178.18603516 161.11401367 C178 163 178 163 177 164 C176.95875 165.093125 176.9175 166.18625 176.875 167.3125 C176 171 176 171 172.6875 173.1875 C171.73037109 173.64576172 171.73037109 173.64576172 170.75390625 174.11328125 C168.83721202 174.96778278 168.83721202 174.96778278 167.125 176.875 C162.560421 181.439579 157.03357925 184.76534102 151 187 C151 187.66 151 188.32 151 189 C149.3203125 190.2890625 149.3203125 190.2890625 147.125 191.625 C146.40570313 192.07101563 145.68640625 192.51703125 144.9453125 192.9765625 C143 194 143 194 141 194 C140.67 194.99 140.34 195.98 140 197 C138.07421875 198.5 138.07421875 198.5 135.6875 200 C133.33384635 201.49388926 131.07101313 202.94308409 128.89453125 204.6875 C127 206 127 206 124 206 C123.67 206.99 123.34 207.98 123 209 C120.27784166 209.86877394 118.78935301 210.30936461 116 210 C112.70032676 207.99547538 109.90884914 205.52376728 107 203 C106.34 202.67 105.68 202.34 105 202 C105 201.34 105 200.68 105 200 C103.576875 199.62875 103.576875 199.62875 102.125 199.25 C98.47638418 197.79055367 98.63534584 197.27069167 97 194 C95.65808594 193.56300781 95.65808594 193.56300781 94.2890625 193.1171875 C90.74579009 191.91365317 88.36467356 190.35672815 85.375 188.125 C84.45460938 187.44695312 83.53421875 186.76890625 82.5859375 186.0703125 C80 184 80 184 77.8671875 181.8515625 C75.51991231 179.52392978 72.99045882 178.35929947 70 177 C70 176.34 70 175.68 70 175 C69.2575 174.731875 68.515 174.46375 67.75 174.1875 C65.07007792 173.03026092 63.1350948 171.98258803 61 170 C59.95696508 166.88169272 59.81078143 163.84866533 59.68359375 160.578125 C59.64169922 159.55332031 59.59980469 158.52851563 59.55664062 157.47265625 C59.51732422 156.40917969 59.47800781 155.34570312 59.4375 154.25 C59.39431641 153.17105469 59.35113281 152.09210938 59.30664062 150.98046875 C59.20071011 148.32043572 59.09863579 145.66031188 59 143 C58.24750977 142.71318359 57.49501953 142.42636719 56.71972656 142.13085938 C53.1150969 140.63205824 50.01467498 138.62000678 46.75 136.5 C45.79480469 135.89478516 45.79480469 135.89478516 44.8203125 135.27734375 C40.12526982 132.25053964 40.12526982 132.25053964 39 130 C37.34948712 128.88365848 37.34948712 128.88365848 35.4375 127.875 C34.303125 127.25625 33.16875 126.6375 32 126 C32 125.34 32 124.68 32 124 C30.824375 123.62875 30.824375 123.62875 29.625 123.25 C26.67682892 121.84610901 26.0975223 120.99324263 25 118 C24.34 118 23.68 118 23 118 C17.6237349 107.98902361 15.46128426 98.00755264 13.8125 86.8125 C13.63525391 85.67619141 13.45800781 84.53988281 13.27539062 83.36914062 C12.44318362 77.85858074 11.76607344 72.57390535 12 67 C11.34 67 10.68 67 10 67 C9.32454235 62.81386921 8.66120923 58.62590304 8 54.4375 C7.71382812 52.66536133 7.71382812 52.66536133 7.421875 50.85742188 C6.531544 45.18156175 5.72989508 39.74817031 6 34 C5.34 34 4.68 34 4 34 C3.32321814 29.83491163 2.66040852 25.66771325 2 21.5 C1.71382812 19.74042969 1.71382812 19.74042969 1.421875 17.9453125 C0.46886893 11.88691677 -0.24289989 6.13322218 0 0 Z M5 7 C5.14100857 9.27113803 5.28796755 11.54190725 5.4375 13.8125 C5.51871094 15.07707031 5.59992187 16.34164062 5.68359375 17.64453125 C5.87184547 20.99181893 5.87184547 20.99181893 7 24 C7.66 24 8.32 24 9 24 C9.03738281 24.72960937 9.07476563 25.45921875 9.11328125 26.2109375 C9.53894854 32.9715356 10.31804647 39.57233762 11.4375 46.25 C11.55971924 46.98138184 11.68193848 47.71276367 11.80786133 48.46630859 C12.41904404 52.00314632 13.10837806 55.49414465 13.9453125 58.984375 C14.92305025 63.29033393 15.56898 67.63030203 16.18359375 72 C16.28584763 72.72572205 16.3881015 73.45144409 16.49345398 74.19915771 C16.91729425 77.22834048 17.33707439 80.25800591 17.74731445 83.2890625 C19.85920372 98.81069851 22.55747015 112.47170551 35 123 C36.91108552 124.3431324 38.8508207 125.5483717 40.8671875 126.7265625 C47.35474494 130.60008581 53.41342521 135.21992036 59.30859375 139.93359375 C61.08970001 141.26666566 61.08970001 141.26666566 64 141 C63.98952637 141.64026123 63.97905273 142.28052246 63.96826172 142.94018555 C63.92655185 145.85591671 63.90062637 148.77158495 63.875 151.6875 C63.85824219 152.69490234 63.84148437 153.70230469 63.82421875 154.74023438 C63.81777344 155.71669922 63.81132813 156.69316406 63.8046875 157.69921875 C63.79421387 158.59471436 63.78374023 159.49020996 63.77294922 160.4128418 C64.02954561 163.33666107 64.64265853 165.39838277 66 168 C69.05976485 169.94904264 69.05976485 169.94904264 71.1484375 170.91015625 C73.48676035 172.28651084 75.09105024 174.07347243 77 176 C78.82795069 177.42999336 80.68367792 178.82503447 82.5625 180.1875 C83.51253906 180.88230469 84.46257812 181.57710937 85.44140625 182.29296875 C87.95210416 184.13039984 87.95210416 184.13039984 91 185 C92.34729378 186.31922516 93.67886475 187.65457917 95 189 C96.63928575 190.24522667 98.30724674 191.45349088 100 192.625 C100.845625 193.21539062 101.69125 193.80578125 102.5625 194.4140625 C104.90760764 196.0060103 104.90760764 196.0060103 107.1875 197.08984375 C109.60592179 198.30426676 111.12349946 200.06485882 113 202 C114.9004467 203.84315671 114.9004467 203.84315671 117 205 C121.20395499 204.65525654 124.28724453 201.85994973 127.5625 199.4375 C128.18600342 198.9842334 128.80950684 198.5309668 129.4519043 198.06396484 C131.30550166 196.71498819 133.15326363 195.35834752 135 194 C136.77014688 192.70739275 138.54092121 191.41564405 140.3125 190.125 C141.18261719 189.48949219 142.05273438 188.85398438 142.94921875 188.19921875 C146.07173332 185.94828955 149.21627868 183.73182842 152.36962891 181.52441406 C153.86809953 180.47006691 155.36133771 179.40824211 156.84912109 178.33886719 C159.8565599 176.17818299 162.78497634 174.12044663 166.01953125 172.30859375 C169.28978909 170.36968482 171.47788952 168.88180314 172.53173828 165.08349609 C173.2407637 161.22737809 173.57593677 157.38494385 173.78125 153.47265625 C173.84227905 152.35383057 173.84227905 152.35383057 173.90454102 151.21240234 C173.96717743 149.76071131 173.99487547 148.30700587 173.98413086 146.85400391 C174.08988202 143.92695057 174.40744816 141.65107169 176.41650391 139.44360352 C178.39704166 137.9043841 180.43052955 136.57136179 182.5625 135.25 C184.11089365 134.22494656 185.65772961 133.19753687 187.203125 132.16796875 C187.99654297 131.64895996 188.78996094 131.12995117 189.60742188 130.59521484 C193.43608085 128.04251508 197.12729732 125.31661809 200.8125 122.5625 C201.47515869 122.0787793 202.13781738 121.59505859 202.82055664 121.09667969 C206.46260975 118.38364 209.31863652 115.72031407 212 112 C212.70125 111.030625 213.4025 110.06125 214.125 109.0625 C216.54882995 104.66578521 216.85276731 100.04378224 217.44140625 95.12109375 C218.02177826 90.48603699 218.98042982 85.94456701 219.9375 81.375 C221.3494332 74.56384981 222.53012029 67.76268759 223.5 60.875 C224.83790493 51.45541368 226.8285902 42.25764179 229 33 C231.01999633 24.31490563 232.52644821 15.91583709 233 7 C229.62035445 7.57312171 226.80844041 8.39076964 223.75 9.9375 C223.06421875 10.27652344 222.3784375 10.61554687 221.671875 10.96484375 C219.8297072 11.90305321 219.8297072 11.90305321 219 14 C217.20703125 14.82421875 217.20703125 14.82421875 214.8125 15.6875 C207.96335726 18.30190427 201.51483169 21.65809786 195 25 C195 25.66 195 26.32 195 27 C194.29488281 27.10699219 193.58976563 27.21398437 192.86328125 27.32421875 C189.6526495 28.0819804 187.11517039 29.29686461 184.1875 30.8125 C182.62322266 31.61494141 182.62322266 31.61494141 181.02734375 32.43359375 C179.52880859 33.20896484 179.52880859 33.20896484 178 34 C176.41811837 34.79456344 174.83502492 35.58672558 173.25 36.375 C172.1775 36.91125 171.105 37.4475 170 38 C170 38.66 170 39.32 170 40 C169.34128906 40.08378906 168.68257812 40.16757812 168.00390625 40.25390625 C163.99249748 41.25023795 160.59449983 43.04363666 156.9375 44.9375 C156.23044922 45.29779297 155.52339844 45.65808594 154.79492188 46.02929688 C153.44521029 46.71745968 152.09666549 47.40791758 150.74951172 48.10107422 C148.8402398 49.08208723 146.92292206 50.04603088 145 51 C145 51.66 145 52.32 145 53 C144.319375 53.103125 143.63875 53.20625 142.9375 53.3125 C139.32945222 54.15693671 136.34382878 55.39239001 133 57 C132.505 57.99 132.505 57.99 132 59 C129.97259829 59.87388005 127.9092763 60.52980922 125.8125 61.21875 C123.80487204 61.85329445 123.80487204 61.85329445 123 64 C120.921875 64.8671875 120.921875 64.8671875 118 65 C115.25881996 63.81927527 112.82396034 62.59925247 110.25 61.125 C108.74229321 60.29538078 107.23447733 59.46595978 105.7265625 58.63671875 C104.9521582 58.20407715 104.17775391 57.77143555 103.37988281 57.32568359 C99.48346728 55.15523464 95.5568191 53.04292023 91.625 50.9375 C90.90602539 50.54385254 90.18705078 50.15020508 89.44628906 49.74462891 C85.45307653 47.5658196 85.45307653 47.5658196 81 47 C81 46.34 81 45.68 81 45 C78.87717331 43.99539469 76.75166979 42.99644398 74.625 42 C72.84996094 41.1646875 72.84996094 41.1646875 71.0390625 40.3125 C68.24571425 38.86783959 68.24571425 38.86783959 66 39 C66 38.34 66 37.68 66 37 C65.15179688 36.6596875 64.30359375 36.319375 63.4296875 35.96875 C57.14194569 33.370738 51.18767571 30.64879006 45.3125 27.1875 C39.58720695 23.8200637 33.75183208 20.84499134 27.75 18 C26.91509033 17.60192139 26.08018066 17.20384277 25.2199707 16.79370117 C21.27061305 14.74872464 21.27061305 14.74872464 17 14 C17 13.34 17 12.68 17 12 C13.04 10.35 9.08 8.7 5 7 Z " fill="#EE0000" transform="translate(9,23)"/>
<path d="M0 0 C-0.28318132 2.5636947 -0.57622493 5.12561526 -0.875 7.6875 C-0.95363281 8.40873047 -1.03226563 9.12996094 -1.11328125 9.87304688 C-1.59495313 13.93020614 -2.42169025 17.20957108 -4 21 C-4.38516629 23.13713798 -4.71598748 25.28458368 -5 27.4375 C-6.50737101 38.83699324 -6.50737101 38.83699324 -9.875 41.4609375 C-10.57625 41.76257813 -11.2775 42.06421875 -12 42.375 C-13.051875 42.85066406 -13.051875 42.85066406 -14.125 43.3359375 C-16 44 -16 44 -18 44 C-18.33 44.99 -18.66 45.98 -19 47 C-22.0930594 48.51734989 -24.99619755 49.78867317 -28.375 50.5 C-29.179375 50.7475 -29.179375 50.7475 -30 51 C-30.33 51.99 -30.66 52.98 -31 54 C-33.06640625 54.94921875 -33.06640625 54.94921875 -35.5625 55.6875 C-36.38878906 55.93886719 -37.21507812 56.19023438 -38.06640625 56.44921875 C-38.70449219 56.63097656 -39.34257812 56.81273437 -40 57 C-39.73803482 52.2491643 -39.47137828 47.49862342 -39.20043945 42.74829102 C-39.10899084 41.1334541 -39.01880713 39.51854503 -38.92993164 37.90356445 C-38.80169714 35.57743358 -38.668862 33.25160327 -38.53515625 30.92578125 C-38.49656998 30.20787918 -38.4579837 29.48997711 -38.41822815 28.75032043 C-37.96900188 21.10328611 -37.96900188 21.10328611 -37 18 C-34.49025159 16.33089548 -32.19612189 15.03959083 -29.5 13.75 C-27.95534833 12.97602001 -26.41108917 12.20125624 -24.8671875 11.42578125 C-24.06764648 11.03084473 -23.26810547 10.6359082 -22.44433594 10.22900391 C-20.00267073 9.00134284 -17.59691946 7.72207773 -15.1953125 6.41796875 C-14.42896484 6.00256836 -13.66261719 5.58716797 -12.87304688 5.15917969 C-11.39626411 4.35663614 -9.92095231 3.55137878 -8.44726562 2.74316406 C-3.33422393 0 -3.33422393 0 0 0 Z " fill="#F4F4F4" transform="translate(229,48)"/>
<path d="M0 0 C0.99 0 1.98 0 3 0 C3 0.66 3 1.32 3 2 C3.83273438 2.25265625 4.66546875 2.5053125 5.5234375 2.765625 C9.40861224 4.1450803 12.96261641 5.87222211 16.625 7.75 C17.92962784 8.41157599 19.23431723 9.07303064 20.5390625 9.734375 C21.22419922 10.09934082 21.90933594 10.46430664 22.61523438 10.84033203 C25.08119668 12.09177239 25.08119668 12.09177239 28.11914062 13.12451172 C31.50776735 14.463435 34.15922656 15.70935506 37 18 C38.90702327 22.48003891 39.08315582 26.79663044 39.25 31.625 C39.33894531 32.83285156 39.42789063 34.04070312 39.51953125 35.28515625 C40.03272337 42.85270359 40.09431797 50.41788284 40 58 C36.92254092 56.78534783 33.93823196 55.52352768 31 54 C31 53.34 31 52.68 31 52 C30.13375 51.731875 29.2675 51.46375 28.375 51.1875 C25.08208036 50.02888013 22.08872125 48.61790161 19 47 C19 46.34 19 45.68 19 45 C18.13375 44.7525 17.2675 44.505 16.375 44.25 C9.10818483 41.55858697 9.10818483 41.55858697 7 39 C5.6947198 34.78044413 5.23822774 30.50469006 4.75 26.125 C4.45762599 23.79370194 4.16089056 21.46294588 3.859375 19.1328125 C3.74045898 18.10043457 3.62154297 17.06805664 3.49902344 16.00439453 C2.97441135 12.8459423 2.04171812 10.02242794 1 7 C0.62468554 4.67305036 0.28082798 2.34023315 0 0 Z " fill="#F6F6F6" transform="translate(27,48)"/>
<path d="M0 0 C-0.44732806 3.7305726 -0.90979102 7.45911839 -1.375 11.1875 C-1.56449219 12.77014648 -1.56449219 12.77014648 -1.7578125 14.38476562 C-1.88671875 15.40634766 -2.015625 16.42792969 -2.1484375 17.48046875 C-2.26364746 18.41785889 -2.37885742 19.35524902 -2.49755859 20.32104492 C-3.01514335 23.08074244 -3.87302406 25.43480747 -5 28 C-5.66 28 -6.32 28 -7 28 C-7.23074219 28.58394531 -7.46148437 29.16789062 -7.69921875 29.76953125 C-9.33680853 32.57753054 -11.14992425 33.82798517 -13.8125 35.6875 C-15.27236328 36.71423828 -15.27236328 36.71423828 -16.76171875 37.76171875 C-17.83035156 38.50035156 -18.89898437 39.23898438 -20 40 C-21.19456286 40.83905779 -22.38856166 41.67891914 -23.58203125 42.51953125 C-24.7625592 43.34701315 -25.94354018 44.17384915 -27.125 45 C-27.69323486 45.39791748 -28.26146973 45.79583496 -28.84692383 46.20581055 C-32.88256432 49 -32.88256432 49 -34 49 C-33.88940687 44.97863607 -33.7589472 40.95814845 -33.625 36.9375 C-33.5940625 35.80376953 -33.563125 34.67003906 -33.53125 33.50195312 C-33.10625048 21.35405004 -33.10625048 21.35405004 -31 17 C-28.58543673 14.9116781 -25.94514763 13.47506049 -23.125 12 C-21.5845758 11.14854534 -20.0442116 10.29698213 -18.50390625 9.4453125 C-17.74223145 9.03442383 -16.98055664 8.62353516 -16.19580078 8.20019531 C-13.09942003 6.50775504 -10.08796684 4.69101533 -7.0625 2.875 C-2.24654378 0 -2.24654378 0 0 0 Z " fill="#F3F3F3" transform="translate(219,101)"/>
<path d="M0 0 C3.75635569 0.75127114 5.83210307 1.24005726 9 3 C9 3.66 9 4.32 9 5 C10.299375 5.4021875 10.299375 5.4021875 11.625 5.8125 C14.91791964 6.97111987 17.91127875 8.38209839 21 10 C21 10.66 21 11.32 21 12 C22.3303125 12.4021875 22.3303125 12.4021875 23.6875 12.8125 C26.88076205 13.95725432 29.35101597 14.88081277 32 17 C32.90517578 21.0068446 33.16858227 24.95785143 33.31640625 29.0546875 C33.35830078 30.16328125 33.40019531 31.271875 33.44335938 32.4140625 C33.48267578 33.55617187 33.52199219 34.69828125 33.5625 35.875 C33.60568359 37.0403125 33.64886719 38.205625 33.69335938 39.40625 C33.79901629 42.27072625 33.90111799 45.13528321 34 48 C30.38379286 46.60638238 27.45947188 45.085602 24.3125 42.8125 C21.6333075 40.88042864 18.96033437 38.9739435 16.19921875 37.16015625 C15.30847656 36.57105469 14.41773438 35.98195312 13.5 35.375 C12.6853125 34.84648437 11.870625 34.31796875 11.03125 33.7734375 C8.65683337 31.70038913 8.1163459 29.89672513 7 27 C6.01 26.67 5.02 26.34 4 26 C2.68 17.42 1.36 8.84 0 0 Z " fill="#F3F3F3" transform="translate(37,102)"/>
<path d="M0 0 C0.33 0 0.66 0 1 0 C1 11.22 1 22.44 1 34 C-4 32 -4 32 -6 29 C-3.525 29.99 -3.525 29.99 -1 31 C-0.67 20.77 -0.34 10.54 0 0 Z " fill="#C4C4C4" transform="translate(122,178)"/>
<path d="M0 0 C-0.46247533 7.19270839 -1.25077067 14.0030827 -3 21 C-4.45839897 17.04294544 -3.67906093 13.30168612 -3.0625 9.25 C-2.96259766 8.55261719 -2.86269531 7.85523438 -2.75976562 7.13671875 C-2.51334127 5.42348274 -2.25759045 3.71159275 -2 2 C-3.32 2.33 -4.64 2.66 -6 3 C-3.375 0 -3.375 0 0 0 Z " fill="#6C0000" transform="translate(242,30)"/>
<path d="M0 0 C-0.33 5.94 -0.66 11.88 -1 18 C-1.33 18 -1.66 18 -2 18 C-2.33 13.38 -2.66 8.76 -3 4 C-4.65 4.33 -6.3 4.66 -8 5 C-5.93424534 2.72766987 -3.29882018 0 0 0 Z " fill="#404040" transform="translate(161,135)"/>
</svg>
