<?xml version="1.0" encoding="UTF-8"?>
<svg version="1.1" xmlns="http://www.w3.org/2000/svg" width="256" height="256">
<path d="M0 0 C2.91765891 -0.10806144 5.83131125 -0.18732877 8.75 -0.25 C9.9875 -0.30027344 9.9875 -0.30027344 11.25 -0.3515625 C17.41391564 -0.45098049 17.41391564 -0.45098049 20.40625 1.8515625 C20.9321875 2.56054688 21.458125 3.26953125 22 4 C22.9075 4.86625 23.815 5.7325 24.75 6.625 C27 9 27 9 27 11 C27.763125 11.061875 28.52625 11.12375 29.3125 11.1875 C32.89251955 12.26983149 33.21386435 13.79984029 35 17 C35.86625 17.680625 36.7325 18.36125 37.625 19.0625 C40.10589629 21.08638908 40.66695423 21.89157277 41 25 C41.99 25 42.98 25 44 25 C44 25.66 44 26.32 44 27 C44.66 27 45.32 27 46 27 C47.68732277 28.98260426 49.35366057 30.9832342 51 33 C51.99 33.495 51.99 33.495 53 34 C53 34.66 53 35.32 53 36 C53.99 36 54.98 36 56 36 C57.73223664 37.94348501 59.39881603 39.94720004 61 42 C61.66 42.66 62.32 43.32 63 44 C64.175625 45.2065625 64.175625 45.2065625 65.375 46.4375 C67.50395534 48.51576593 69.57494275 50.29347823 72 52 C72.556875 51.54625 73.11375 51.0925 73.6875 50.625 C76 49 76 49 78.375 48.125 C80.82618325 47.07449289 82.20396827 46.09309561 84.1875 44.375 C87 42 87 42 89 42 C89.66 41.01 90.32 40.02 91 39 C97.64114305 37.25986633 103.05223859 37.6956881 109 41 C109 42.65 109 44.3 109 46 C109.66 46 110.32 46 111 46 C111.02336905 60.51662902 111.04093237 75.03325512 111.05181217 89.5498991 C111.05696661 96.29035255 111.06399309 103.0307943 111.07543945 109.77124023 C111.08647788 116.27456938 111.09228244 122.77789094 111.09487724 129.28122902 C111.09672674 131.76395675 111.10033826 134.2466838 111.10573006 136.72940636 C111.11297529 140.20332661 111.11398946 143.67719647 111.11352539 147.15112305 C111.11712067 148.18042938 111.12071594 149.20973572 111.12442017 150.27023315 C111.1230455 151.21949173 111.12167084 152.16875031 111.12025452 153.14677429 C111.12117631 153.96809184 111.1220981 154.78940939 111.12304783 155.63561535 C110.9896371 158.19912487 110.67722553 160.52225212 110 163 C109.34 163.33 108.68 163.66 108 164 C108.33 164.66 108.66 165.32 109 166 C106.61292343 168.45527876 104.27958729 170.78493285 101.5625 172.875 C98.74816182 175.20884142 96.60232268 177.75803273 94.33203125 180.609375 C93.89246094 181.06828125 93.45289063 181.5271875 93 182 C92.34 182 91.68 182 91 182 C90.773125 182.556875 90.54625 183.11375 90.3125 183.6875 C88.62622733 186.65855185 86.469646 188.64522125 84 191 C82.8553125 192.175625 82.8553125 192.175625 81.6875 193.375 C78.84113147 196.15517392 75.88304178 198.75816251 72.8671875 201.3515625 C71.17507049 202.84543986 69.57700979 204.38631556 68 206 C60 214 60 214 57.4375 216.5 C54.94271376 218.96583758 54.94271376 218.96583758 52.8125 221.8125 C52.214375 222.534375 51.61625 223.25625 51 224 C50.34 224 49.68 224 49 224 C48.67 224.99 48.34 225.98 48 227 C46.37064759 228.37868281 44.70250393 229.71274093 43 231 C40.94453476 232.97524433 40.94453476 232.97524433 39.1875 235.3125 C36.94174022 238.07157631 34.5150701 240.4849299 32 243 C30.82679771 244.34850838 29.66054157 245.70308037 28.5 247.0625 C25.39580043 250.64686987 22.28968157 253.85515921 18 256 C15.11629667 256.07194869 12.25760336 256.09291708 9.375 256.0625 C8.57320312 256.05798828 7.77140625 256.05347656 6.9453125 256.04882812 C4.96350994 256.03703168 2.98174567 256.01909605 1 256 C-1.78643469 250.46707457 -2.41365677 246.22247857 -2.29296875 240.07421875 C-2.28872391 239.24541702 -2.28447906 238.4166153 -2.28010559 237.56269836 C-2.2634349 234.93728917 -2.22582546 232.31267328 -2.1875 229.6875 C-2.1724363 227.90561018 -2.15875086 226.12370815 -2.14648438 224.34179688 C-2.11298655 219.89425767 -2.05874265 215.44727073 -2 211 C-2 209.44826091 -2.03298407 207.89650534 -2.0793457 206.34545898 C-2.18402757 202.70968544 -2.24831209 199.07420358 -2.3125 195.4375 C-2.35439453 194.18646484 -2.39628906 192.93542969 -2.43945312 191.64648438 C-2.53978421 184.01730903 -2.06327568 178.00567894 3 172 C5.71875246 169.8530749 8.42101811 168 12 168 C12 167.34 12 166.68 12 166 C12.99 165.67 13.98 165.34 15 165 C15.99 164.01 15.99 164.01 17 163 C17.66 163.33 18.32 163.66 19 164 C19.33 163.01 19.66 162.02 20 161 C20.66 161 21.32 161 22 161 C22 160.34 22 159.68 22 159 C23.11375 158.566875 24.2275 158.13375 25.375 157.6875 C29.17512334 156.30088881 29.17512334 156.30088881 31 153 C31.99 153 32.98 153 34 153 C34 152.34 34 151.68 34 151 C36.30078125 149.2734375 36.30078125 149.2734375 39.3125 147.375 C40.29863281 146.74335938 41.28476563 146.11171875 42.30078125 145.4609375 C45 144 45 144 48 144 C48.33 143.34 48.66 142.68 49 142 C53.58823529 138 53.58823529 138 56 138 C56.33 137.34 56.66 136.68 57 136 C57.99 135.34 58.98 134.68 60 134 C60.58347961 131.67731402 60.58347961 131.67731402 60.6875 129.0625 C60.75324219 128.18722656 60.81898438 127.31195313 60.88671875 126.41015625 C60.97140587 124.60836467 61 122.8037807 61 121 C58.525 121.495 58.525 121.495 56 122 C56 122.66 56 123.32 56 124 C50.375 127 50.375 127 47 127 C46.67 127.99 46.34 128.98 46 130 C44.35 130.33 42.7 130.66 41 131 C41 131.66 41 132.32 41 133 C40.01 133 39.02 133 38 133 C38 133.66 38 134.32 38 135 C37.360625 135.103125 36.72125 135.20625 36.0625 135.3125 C35.381875 135.539375 34.70125 135.76625 34 136 C33.67 136.99 33.34 137.98 33 139 C30 141 30 141 27 141 C27 141.66 27 142.32 27 143 C25.6696875 143.61875 25.6696875 143.61875 24.3125 144.25 C20.99222754 145.85105869 20.99222754 145.85105869 18.5 148.125 C15.49424655 150.37931509 13.74275134 150.85028995 10 151 C5.70494768 150.33352636 3.63588168 149.66934913 0.625 146.5 C-1.44125502 142.04960457 -2.0440178 137.89477982 -2 133 C-1.505 132.01 -1.505 132.01 -1 131 C-1.2341442 129.13090658 -1.47274386 127.26226505 -1.73360825 125.39671326 C-2.23428959 120.89210829 -2.13842082 116.37306046 -2.12939453 111.84570312 C-2.13114685 110.75523178 -2.13289917 109.66476044 -2.13470459 108.54124451 C-2.13908784 104.95456324 -2.13619753 101.36793172 -2.1328125 97.78125 C-2.13348655 95.27836091 -2.13445742 92.77547188 -2.13571167 90.27258301 C-2.13718386 85.03409319 -2.13514563 79.79561619 -2.13037109 74.55712891 C-2.12492984 68.51773778 -2.12669299 62.47838042 -2.1321975 56.43899012 C-2.13729807 50.60734836 -2.13673811 44.77571935 -2.13381577 38.94407654 C-2.13315007 36.47220352 -2.13396242 34.00032964 -2.13629532 31.52845764 C-2.13884297 28.07038104 -2.13495144 24.61236871 -2.12939453 21.15429688 C-2.13141876 20.13899399 -2.13344299 19.1236911 -2.13552856 18.07762146 C-2.09431296 4.18862592 -2.09431296 4.18862592 0 0 Z " fill="#0CD664" transform="translate(141,0)"/>
<path d="M0 0 C1.73859172 3.76850976 2.24803945 6.70232408 2.24050903 10.84028625 C2.24325836 12.00831284 2.24600769 13.17633942 2.24884033 14.37976074 C2.2380545 16.28839905 2.2380545 16.28839905 2.22705078 18.2355957 C2.22648633 19.59592175 2.2268039 20.9562484 2.22793579 22.3165741 C2.22850897 26.00216448 2.21676038 29.68762435 2.20278788 33.37318444 C2.19027466 37.2275579 2.18910955 41.08193444 2.18673706 44.93632507 C2.18052403 52.23187664 2.16411561 59.52736817 2.14403808 66.82289332 C2.12167358 75.12997699 2.11068426 83.43706355 2.10064721 91.74416983 C2.07974922 108.82948126 2.04457668 125.91473428 2 143 C1.67 143 1.34 143 1 143 C0.67 144.65 0.34 146.3 0 148 C-9.33588222 151.73052671 -9.33588222 151.73052671 -14.3125 149.875 C-15.55962034 149.28664081 -16.79129536 148.66370835 -18 148 C-18.928125 147.505 -19.85625 147.01 -20.8125 146.5 C-22.8115611 145.12921525 -24.29598437 143.70401563 -26 142 C-28.91153462 140.13363165 -31.88508292 138.49977489 -35 137 C-35 136.34 -35 135.68 -35 135 C-35.99 134.67 -36.98 134.34 -38 134 C-38.99 133.67 -39.98 133.34 -41 133 C-41 132.34 -41 131.68 -41 131 C-41.8353125 130.8453125 -41.8353125 130.8453125 -42.6875 130.6875 C-45.4769101 129.85821592 -47.6139064 128.65700944 -50 127 C-50 126.34 -50 125.68 -50 125 C-51.65 124.67 -53.3 124.34 -55 124 C-55 123.34 -55 122.68 -55 122 C-56.32 121.34 -57.64 120.68 -59 120 C-60.73219928 121.73219928 -60.21291761 124.02026808 -60.25 126.375 C-60.28867188 127.84066406 -60.28867188 127.84066406 -60.328125 129.3359375 C-60.23104074 132.01736216 -60.23104074 132.01736216 -58.62109375 133.75390625 C-57.37047634 134.71522421 -56.0960794 135.64565757 -54.8125 136.5625 C-54.214375 137.036875 -53.61625 137.51125 -53 138 C-53 138.66 -53 139.32 -53 140 C-51.906875 140.268125 -50.81375 140.53625 -49.6875 140.8125 C-46.19977919 141.93566433 -45.26983897 142.40589832 -43 145 C-40.90010348 146.17574711 -40.90010348 146.17574711 -39 147 C-39 147.66 -39 148.32 -39 149 C-38.401875 149.12375 -37.80375 149.2475 -37.1875 149.375 C-35 150 -35 150 -32 152 C-32 152.66 -32 153.32 -32 154 C-30.68 154 -29.36 154 -28 154 C-27.34 154.66 -26.68 155.32 -26 156 C-23.09791688 157.99166915 -23.09791688 157.99166915 -20.3125 159.5 C-19.1678125 160.2425 -19.1678125 160.2425 -18 161 C-18 161.66 -18 162.32 -18 163 C-17.05125 163.309375 -16.1025 163.61875 -15.125 163.9375 C-12 165 -12 165 -10 166 C-10 166.66 -10 167.32 -10 168 C-9.34 168 -8.68 168 -8 168 C-7.34 168.66 -6.68 169.32 -6 170 C-5.195625 170.33 -4.39125 170.66 -3.5625 171 C0.46334404 174.14212218 1.05009545 178.09629168 2 183 C2.40593382 188.14459263 2.39951581 193.26635671 2.36328125 198.421875 C2.36276138 199.89536539 2.36328398 201.36885648 2.36479187 202.84234619 C2.36470273 205.9117688 2.35438814 208.98092558 2.33618164 212.05029297 C2.31341594 215.97303675 2.3129711 219.89539591 2.31969929 223.81818771 C2.3230477 226.8534687 2.3163941 229.88866283 2.30657005 232.92392731 C2.30273883 234.37032873 2.30156116 235.81673983 2.3031559 237.26314545 C2.30352888 239.28450206 2.28938096 241.3058454 2.2746582 243.32714844 C2.26774712 245.04729156 2.26774712 245.04729156 2.26069641 246.80218506 C1.98790583 250.14835233 1.19024949 252.87195241 0 256 C-2.89740622 256.13539281 -5.78845621 256.23426829 -8.6875 256.3125 C-9.50412109 256.35439453 -10.32074219 256.39628906 -11.16210938 256.43945312 C-15.58664375 256.5290186 -17.40455383 256.4598724 -21.01953125 253.66796875 C-23 251 -23 251 -24 248 C-24.99 247.67 -25.98 247.34 -27 247 C-28.1875 244.9375 -28.1875 244.9375 -29 243 C-29.66 243 -30.32 243 -31 243 C-31.99 240.525 -31.99 240.525 -33 238 C-33.66 238 -34.32 238 -35 238 C-35 237.34 -35 236.68 -35 236 C-35.61875 235.9175 -36.2375 235.835 -36.875 235.75 C-39 235 -39 235 -40.125 233 C-40.41375 232.34 -40.7025 231.68 -41 231 C-41.66 230.67 -42.32 230.34 -43 230 C-43.639375 229.34 -44.27875 228.68 -44.9375 228 C-46.92411167 225.78451728 -46.92411167 225.78451728 -50 225 C-50 223.68 -50 222.36 -50 221 C-50.59554687 220.90589844 -51.19109375 220.81179687 -51.8046875 220.71484375 C-54.49172694 219.83988251 -55.38269297 218.75634733 -57.125 216.5625 C-59.40061314 213.73861737 -61.58130219 211.33281108 -64.4375 209.0625 C-66.44260058 207.44863856 -68.22936034 205.85495584 -70 204 C-71.17749808 202.82250192 -72.37774564 201.6658404 -73.625 200.5625 C-75 199 -75 199 -75 196 C-75.99 196.33 -76.98 196.66 -78 197 C-78.70576172 196.16855469 -78.70576172 196.16855469 -79.42578125 195.3203125 C-80.04839844 194.59585938 -80.67101562 193.87140625 -81.3125 193.125 C-81.92738281 192.40570313 -82.54226562 191.68640625 -83.17578125 190.9453125 C-85.0412324 188.80820669 -85.0412324 188.80820669 -88 187 C-88 186.01 -88 185.02 -88 184 C-89.32 183.67 -90.64 183.34 -92 183 C-92 182.01 -92 181.02 -92 180 C-92.99 179.67 -93.98 179.34 -95 179 C-96.67067133 177.00334402 -98.33752986 175.00348966 -100 173 C-100.66 173 -101.32 173 -102 173 C-102.33 171.68 -102.66 170.36 -103 169 C-103.99 169 -104.98 169 -106 169 C-107.32 165.7 -108.64 162.4 -110 159 C-109.67 158.67 -109.34 158.34 -109 158 C-109.12022835 156.3709058 -109.29795139 154.74598092 -109.5 153.125 C-110.01567098 148.16166678 -109.82243256 143.63893216 -109.15625 138.703125 C-108.89851305 135.94778753 -108.89851305 135.94778753 -109.48193359 133.04858398 C-110.25461149 127.89077027 -110.14289369 122.72395646 -110.1328125 117.51953125 C-110.13376923 116.42912033 -110.13472595 115.33870941 -110.13571167 114.21525574 C-110.13638982 111.9199518 -110.13456107 109.62464591 -110.13037109 107.3293457 C-110.12500217 103.81392127 -110.13033645 100.29862369 -110.13671875 96.78320312 C-110.13605821 94.54947888 -110.13477754 92.31575472 -110.1328125 90.08203125 C-110.13483673 89.03094681 -110.13686096 87.97986237 -110.13894653 86.89692688 C-110.13579437 85.91878525 -110.13264221 84.94064362 -110.12939453 83.93286133 C-110.12859894 83.07461258 -110.12780334 82.21636383 -110.12698364 81.33210754 C-110.00479934 79.08814181 -109.55211854 77.16834282 -109 75 C-109.2165625 73.948125 -109.2165625 73.948125 -109.4375 72.875 C-110.33549839 68.28523043 -111.13890594 62.27781189 -109 58 C-108.97992665 56.27082434 -109.00766728 54.54092262 -109.0625 52.8125 C-109.0625 43.96 -109.0625 43.96 -107 40 C-104.09623461 38.5189204 -101.1778853 37.68658016 -98 37 C-97.67 37.66 -97.34 38.32 -97 39 C-95.515 38.505 -95.515 38.505 -94 38 C-91.63477442 38.92203709 -89.29598193 39.91698965 -87 41 C-87 41.66 -87 42.32 -87 43 C-86.278125 43.268125 -85.55625 43.53625 -84.8125 43.8125 C-81.05665501 45.39830122 -77.89167655 47.10832345 -75 50 C-72.02329914 51.09145698 -69.97412448 51.12811618 -67 50 C-66.505 49.01 -66.505 49.01 -66 48 C-65.34 48 -64.68 48 -64 48 C-64 47.01 -64 46.02 -64 45 C-61.625 42.3125 -61.625 42.3125 -59 40 C-58.34 40 -57.68 40 -57 40 C-57 39.34 -57 38.68 -57 38 C-55.34467377 36.98133771 -53.67739862 35.98189187 -52 35 C-51.505 34.01 -51.505 34.01 -51 33 C-50.34 33 -49.68 33 -49 33 C-49 32.34 -49 31.68 -49 31 C-45.79359372 27.50210224 -42.25195348 24.47978546 -38.640625 21.41015625 C-34.78871712 18.22004679 -34.78871712 18.22004679 -32.1875 14.0625 C-30.62286062 11.34496844 -28.40678218 10.11208646 -25.81640625 8.4375 C-23.81874512 6.85655528 -22.9797527 5.36023675 -21.6875 3.1875 C-17.05492586 -2.77419708 -6.70133655 -0.44254109 0 0 Z " fill="#0ED665" transform="translate(123,0)"/>
<path d="M0 0 C2.91765891 -0.10806144 5.83131125 -0.18732877 8.75 -0.25 C9.9875 -0.30027344 9.9875 -0.30027344 11.25 -0.3515625 C17.41391564 -0.45098049 17.41391564 -0.45098049 20.40625 1.8515625 C20.9321875 2.56054688 21.458125 3.26953125 22 4 C22.9075 4.86625 23.815 5.7325 24.75 6.625 C27 9 27 9 27 11 C27.763125 11.061875 28.52625 11.12375 29.3125 11.1875 C32.89251955 12.26983149 33.21386435 13.79984029 35 17 C35.86625 17.680625 36.7325 18.36125 37.625 19.0625 C40.10589629 21.08638908 40.66695423 21.89157277 41 25 C41.99 25 42.98 25 44 25 C44 25.66 44 26.32 44 27 C44.66 27 45.32 27 46 27 C47.68732277 28.98260426 49.35366057 30.9832342 51 33 C51.99 33.495 51.99 33.495 53 34 C53 34.66 53 35.32 53 36 C53.99 36 54.98 36 56 36 C57.73223664 37.94348501 59.39881603 39.94720004 61 42 C61.66 42.66 62.32 43.32 63 44 C64.175625 45.2065625 64.175625 45.2065625 65.375 46.4375 C67.50395534 48.51576593 69.57494275 50.29347823 72 52 C72.556875 51.54625 73.11375 51.0925 73.6875 50.625 C76 49 76 49 78.375 48.125 C80.82618325 47.07449289 82.20396827 46.09309561 84.1875 44.375 C87 42 87 42 89 42 C89.66 41.01 90.32 40.02 91 39 C97.64114305 37.25986633 103.05223859 37.6956881 109 41 C109 42.65 109 44.3 109 46 C109.66 46 110.32 46 111 46 C111.02336905 60.51662902 111.04093237 75.03325512 111.05181217 89.5498991 C111.05696661 96.29035255 111.06399309 103.0307943 111.07543945 109.77124023 C111.08647788 116.27456938 111.09228244 122.77789094 111.09487724 129.28122902 C111.09672674 131.76395675 111.10033826 134.2466838 111.10573006 136.72940636 C111.11297529 140.20332661 111.11398946 143.67719647 111.11352539 147.15112305 C111.11712067 148.18042938 111.12071594 149.20973572 111.12442017 150.27023315 C111.1230455 151.21949173 111.12167084 152.16875031 111.12025452 153.14677429 C111.12117631 153.96809184 111.1220981 154.78940939 111.12304783 155.63561535 C110.9896371 158.19912487 110.67722553 160.52225212 110 163 C109.34 163.33 108.68 163.66 108 164 C108.33 164.66 108.66 165.32 109 166 C106.61292343 168.45527876 104.27958729 170.78493285 101.5625 172.875 C98.74816182 175.20884142 96.60232268 177.75803273 94.33203125 180.609375 C93.89246094 181.06828125 93.45289063 181.5271875 93 182 C92.34 182 91.68 182 91 182 C90.773125 182.556875 90.54625 183.11375 90.3125 183.6875 C88.62622733 186.65855185 86.469646 188.64522125 84 191 C82.8553125 192.175625 82.8553125 192.175625 81.6875 193.375 C78.84113147 196.15517392 75.88304178 198.75816251 72.8671875 201.3515625 C71.17507049 202.84543986 69.57700979 204.38631556 68 206 C60 214 60 214 57.4375 216.5 C54.94271376 218.96583758 54.94271376 218.96583758 52.8125 221.8125 C52.214375 222.534375 51.61625 223.25625 51 224 C50.34 224 49.68 224 49 224 C48.67 224.99 48.34 225.98 48 227 C46.37064759 228.37868281 44.70250393 229.71274093 43 231 C40.94453476 232.97524433 40.94453476 232.97524433 39.1875 235.3125 C36.94174022 238.07157631 34.5150701 240.4849299 32 243 C30.82679771 244.34850838 29.66054157 245.70308037 28.5 247.0625 C25.39580043 250.64686987 22.28968157 253.85515921 18 256 C15.11629667 256.07194869 12.25760336 256.09291708 9.375 256.0625 C8.57320312 256.05798828 7.77140625 256.05347656 6.9453125 256.04882812 C4.96350994 256.03703168 2.98174567 256.01909605 1 256 C-1.78643469 250.46707457 -2.41365677 246.22247857 -2.29296875 240.07421875 C-2.28872391 239.24541702 -2.28447906 238.4166153 -2.28010559 237.56269836 C-2.2634349 234.93728917 -2.22582546 232.31267328 -2.1875 229.6875 C-2.1724363 227.90561018 -2.15875086 226.12370815 -2.14648438 224.34179688 C-2.11298655 219.89425767 -2.05874265 215.44727073 -2 211 C-2 209.44826091 -2.03298407 207.89650534 -2.0793457 206.34545898 C-2.18402757 202.70968544 -2.24831209 199.07420358 -2.3125 195.4375 C-2.35439453 194.18646484 -2.39628906 192.93542969 -2.43945312 191.64648438 C-2.53978421 184.01730903 -2.06327568 178.00567894 3 172 C5.71875246 169.8530749 8.42101811 168 12 168 C12 167.34 12 166.68 12 166 C12.99 165.67 13.98 165.34 15 165 C15.99 164.01 15.99 164.01 17 163 C17.66 163.33 18.32 163.66 19 164 C19.33 163.01 19.66 162.02 20 161 C20.66 161 21.32 161 22 161 C22 160.34 22 159.68 22 159 C23.11375 158.566875 24.2275 158.13375 25.375 157.6875 C29.17512334 156.30088881 29.17512334 156.30088881 31 153 C31.99 153 32.98 153 34 153 C34 152.34 34 151.68 34 151 C36.30078125 149.2734375 36.30078125 149.2734375 39.3125 147.375 C40.29863281 146.74335938 41.28476563 146.11171875 42.30078125 145.4609375 C45 144 45 144 48 144 C48.33 143.34 48.66 142.68 49 142 C53.58823529 138 53.58823529 138 56 138 C56.33 137.34 56.66 136.68 57 136 C57.99 135.34 58.98 134.68 60 134 C60.58347961 131.67731402 60.58347961 131.67731402 60.6875 129.0625 C60.75324219 128.18722656 60.81898438 127.31195313 60.88671875 126.41015625 C60.97140587 124.60836467 61 122.8037807 61 121 C58.525 121.495 58.525 121.495 56 122 C56 122.66 56 123.32 56 124 C50.375 127 50.375 127 47 127 C46.67 127.99 46.34 128.98 46 130 C44.35 130.33 42.7 130.66 41 131 C41 131.66 41 132.32 41 133 C40.01 133 39.02 133 38 133 C38 133.66 38 134.32 38 135 C37.360625 135.103125 36.72125 135.20625 36.0625 135.3125 C35.381875 135.539375 34.70125 135.76625 34 136 C33.67 136.99 33.34 137.98 33 139 C30 141 30 141 27 141 C27 141.66 27 142.32 27 143 C25.6696875 143.61875 25.6696875 143.61875 24.3125 144.25 C20.99222754 145.85105869 20.99222754 145.85105869 18.5 148.125 C15.49424655 150.37931509 13.74275134 150.85028995 10 151 C5.70494768 150.33352636 3.63588168 149.66934913 0.625 146.5 C-1.44125502 142.04960457 -2.0440178 137.89477982 -2 133 C-1.505 132.01 -1.505 132.01 -1 131 C-1.2341442 129.13090658 -1.47274386 127.26226505 -1.73360825 125.39671326 C-2.23428959 120.89210829 -2.13842082 116.37306046 -2.12939453 111.84570312 C-2.13114685 110.75523178 -2.13289917 109.66476044 -2.13470459 108.54124451 C-2.13908784 104.95456324 -2.13619753 101.36793172 -2.1328125 97.78125 C-2.13348655 95.27836091 -2.13445742 92.77547188 -2.13571167 90.27258301 C-2.13718386 85.03409319 -2.13514563 79.79561619 -2.13037109 74.55712891 C-2.12492984 68.51773778 -2.12669299 62.47838042 -2.1321975 56.43899012 C-2.13729807 50.60734836 -2.13673811 44.77571935 -2.13381577 38.94407654 C-2.13315007 36.47220352 -2.13396242 34.00032964 -2.13629532 31.52845764 C-2.13884297 28.07038104 -2.13495144 24.61236871 -2.12939453 21.15429688 C-2.13141876 20.13899399 -2.13344299 19.1236911 -2.13552856 18.07762146 C-2.09431296 4.18862592 -2.09431296 4.18862592 0 0 Z M4 2 C4 47.87 4 93.74 4 141 C7.83620232 142.45230336 7.83620232 142.45230336 10.3046875 140.6640625 C11.15289062 139.99117187 12.00109375 139.31828125 12.875 138.625 C17.12692478 135.37519331 21.41978297 132.35780533 25.9375 129.5 C27.14077874 128.73461665 28.34390455 127.9689928 29.546875 127.203125 C30.13146484 126.83123047 30.71605469 126.45933594 31.31835938 126.07617188 C37.58878024 122.06339383 43.74154379 117.87369448 49.8671875 113.64453125 C50.72352783 113.05446289 51.57986816 112.46439453 52.4621582 111.85644531 C54.17392428 110.67551797 55.88346276 109.49135411 57.59057617 108.30371094 C58.3766626 107.76133789 59.16274902 107.21896484 59.97265625 106.66015625 C60.67656494 106.17168213 61.38047363 105.68320801 62.10571289 105.17993164 C64 104 64 104 67 103 C67.10482955 107.57309355 67.14319627 112.14035005 67.12207031 116.71459961 C67.12400796 118.26745974 67.14358128 119.82040787 67.18164062 121.37280273 C67.47860257 134.22053146 67.47860257 134.22053146 63.97949219 138.43164062 C61.4024347 140.24179897 58.83212366 141.6296756 56 143 C54.58837304 143.92156158 53.19090099 144.86538243 51.8125 145.8359375 C50.54246363 146.68348712 49.27164667 147.52986836 48 148.375 C47.34644531 148.81199219 46.69289062 149.24898437 46.01953125 149.69921875 C41.25378494 152.87310753 41.25378494 152.87310753 39 154 C39 154.66 39 155.32 39 156 C38.195625 156.20625 37.39125 156.4125 36.5625 156.625 C31.94530207 158.40707639 27.83757417 160.86171712 24 164 C24 164.66 24 165.32 24 166 C23.41500732 166.11859375 22.83001465 166.2371875 22.22729492 166.359375 C19.90179918 167.02824498 18.35903376 167.89756404 16.36328125 169.25 C15.70392578 169.6934375 15.04457031 170.136875 14.36523438 170.59375 C13.68783203 171.0578125 13.01042969 171.521875 12.3125 172 C11.62349609 172.4640625 10.93449219 172.928125 10.22460938 173.40625 C6.95897271 175.50993942 6.95897271 175.50993942 4 178 C3.90563471 180.23929886 3.88257673 182.4816175 3.88647461 184.72290039 C3.88632858 185.4253035 3.88618256 186.1277066 3.8860321 186.85139465 C3.88673128 189.18351278 3.89452383 191.515552 3.90234375 193.84765625 C3.90420792 195.46048438 3.90563182 197.07331307 3.90663147 198.68614197 C3.91045677 202.93915357 3.92028715 207.19213124 3.93133545 211.44512939 C3.94154931 215.7817743 3.94612904 220.11842467 3.95117188 224.45507812 C3.96190941 232.97006769 3.97898597 241.48502963 4 250 C4.99 250.33 5.98 250.66 7 251 C7.639375 250.360625 8.27875 249.72125 8.9375 249.0625 C9.38996094 248.61132812 9.84242188 248.16015625 10.30859375 247.6953125 C11.59748557 246.40344402 12.88023257 245.10544177 14.16015625 243.8046875 C17.36828633 240.55906675 20.48832054 237.40725508 24.0625 234.5625 C24.701875 234.046875 25.34125 233.53125 26 233 C26 232.34 26 231.68 26 231 C26.99 230.67 27.98 230.34 29 230 C29 229.34 29 228.68 29 228 C29.66 228 30.32 228 31 228 C32.66666667 226.66666667 32.66666667 226.66666667 34 225 C34 224.34 34 223.68 34 223 C34.99 222.67 35.98 222.34 37 222 C37 221.34 37 220.68 37 220 C37.66 220 38.32 220 39 220 C39 219.34 39 218.68 39 218 C39.99 217.67 40.98 217.34 42 217 C42 216.34 42 215.68 42 215 C42.66 215 43.32 215 44 215 C45.66666667 213.66666667 45.66666667 213.66666667 47 212 C47 211.34 47 210.68 47 210 C47.66 210 48.32 210 49 210 C50.66666667 208.66666667 50.66666667 208.66666667 52 207 C52 206.34 52 205.68 52 205 C52.66 205 53.32 205 54 205 C55.66666667 203.66666667 55.66666667 203.66666667 57 202 C57 201.34 57 200.68 57 200 C57.99 199.67 58.98 199.34 60 199 C60 198.34 60 197.68 60 197 C60.66 197 61.32 197 62 197 C63.4081132 195.61088239 63.4081132 195.61088239 64.8125 193.8125 C69.11873598 188.51340532 73.65179076 184.4672573 79.32861328 180.66430664 C89.48393313 173.22892547 98.96146259 164.71674942 101.47106934 151.88885498 C103.69554325 135.88013833 102.73282523 119.50627853 102.02880859 103.41656494 C101.82190326 98.06387468 101.72983587 92.71233623 101.6453228 87.35659695 C101.46966793 76.32261712 101.22097836 65.28976815 100.76904297 54.26342773 C100.73741058 53.24705231 100.7057782 52.23067688 100.67318726 51.1835022 C100.63004395 50.26055862 100.58690063 49.33761505 100.54244995 48.38670349 C100.51014723 47.58293998 100.47784451 46.77917646 100.44456291 45.95105648 C100.14399416 43.59909066 100.14399416 43.59909066 97 42 C91.48228124 45.45119671 86.01207096 48.94328115 80.6875 52.6875 C79.8728125 53.25855469 79.058125 53.82960937 78.21875 54.41796875 C76.87057409 55.37925615 75.53363311 56.35693431 74.21875 57.36328125 C71.96641343 59.03529641 70.55320143 60.01596352 67.69927979 59.93360901 C64.00894461 58.65722033 61.78388469 56.30327793 59.12402344 53.56225586 C58.5591925 52.99640274 57.99436157 52.43054962 57.41241455 51.84754944 C55.55189438 49.97915857 53.70583184 48.09712515 51.859375 46.21484375 C50.56949035 44.91495738 49.27864407 43.61602459 47.98687744 42.31800842 C44.59195877 38.90216496 41.2087922 35.47492086 37.82836914 32.04473877 C32.40629875 26.547353 26.96538733 21.06859498 21.52674103 15.58761787 C19.62410683 13.66721318 17.7257102 11.74269993 15.82806396 9.81736755 C14.67155565 8.64764857 13.51500294 7.47797348 12.35839844 6.30834961 C11.56205994 5.49719193 11.56205994 5.49719193 10.74963379 4.66964722 C9.51865212 3.42741708 8.26208824 2.21061342 7 1 C5.7763932 0.9254644 5.7763932 0.9254644 4 2 Z " fill="#FCFEFD" transform="translate(141,0)"/>
<path d="M0 0 C1.73859172 3.76850976 2.24803945 6.70232408 2.24050903 10.84028625 C2.24325836 12.00831284 2.24600769 13.17633942 2.24884033 14.37976074 C2.2380545 16.28839905 2.2380545 16.28839905 2.22705078 18.2355957 C2.22648633 19.59592175 2.2268039 20.9562484 2.22793579 22.3165741 C2.22850897 26.00216448 2.21676038 29.68762435 2.20278788 33.37318444 C2.19027466 37.2275579 2.18910955 41.08193444 2.18673706 44.93632507 C2.18052403 52.23187664 2.16411561 59.52736817 2.14403808 66.82289332 C2.12167358 75.12997699 2.11068426 83.43706355 2.10064721 91.74416983 C2.07974922 108.82948126 2.04457668 125.91473428 2 143 C1.67 143 1.34 143 1 143 C0.67 144.65 0.34 146.3 0 148 C-9.33588222 151.73052671 -9.33588222 151.73052671 -14.3125 149.875 C-15.55962034 149.28664081 -16.79129536 148.66370835 -18 148 C-18.928125 147.505 -19.85625 147.01 -20.8125 146.5 C-22.8115611 145.12921525 -24.29598437 143.70401563 -26 142 C-28.91153462 140.13363165 -31.88508292 138.49977489 -35 137 C-35 136.34 -35 135.68 -35 135 C-35.99 134.67 -36.98 134.34 -38 134 C-38.99 133.67 -39.98 133.34 -41 133 C-41 132.34 -41 131.68 -41 131 C-41.8353125 130.8453125 -41.8353125 130.8453125 -42.6875 130.6875 C-45.4769101 129.85821592 -47.6139064 128.65700944 -50 127 C-50 126.34 -50 125.68 -50 125 C-51.65 124.67 -53.3 124.34 -55 124 C-55 123.34 -55 122.68 -55 122 C-56.32 121.34 -57.64 120.68 -59 120 C-60.73219928 121.73219928 -60.21291761 124.02026808 -60.25 126.375 C-60.28867188 127.84066406 -60.28867188 127.84066406 -60.328125 129.3359375 C-60.23104074 132.01736216 -60.23104074 132.01736216 -58.62109375 133.75390625 C-57.37047634 134.71522421 -56.0960794 135.64565757 -54.8125 136.5625 C-54.214375 137.036875 -53.61625 137.51125 -53 138 C-53 138.66 -53 139.32 -53 140 C-51.906875 140.268125 -50.81375 140.53625 -49.6875 140.8125 C-46.19977919 141.93566433 -45.26983897 142.40589832 -43 145 C-40.90010348 146.17574711 -40.90010348 146.17574711 -39 147 C-39 147.66 -39 148.32 -39 149 C-38.401875 149.12375 -37.80375 149.2475 -37.1875 149.375 C-35 150 -35 150 -32 152 C-32 152.66 -32 153.32 -32 154 C-30.68 154 -29.36 154 -28 154 C-27.34 154.66 -26.68 155.32 -26 156 C-23.09791688 157.99166915 -23.09791688 157.99166915 -20.3125 159.5 C-19.1678125 160.2425 -19.1678125 160.2425 -18 161 C-18 161.66 -18 162.32 -18 163 C-17.05125 163.309375 -16.1025 163.61875 -15.125 163.9375 C-12 165 -12 165 -10 166 C-10 166.66 -10 167.32 -10 168 C-9.34 168 -8.68 168 -8 168 C-7.34 168.66 -6.68 169.32 -6 170 C-5.195625 170.33 -4.39125 170.66 -3.5625 171 C0.46334404 174.14212218 1.05009545 178.09629168 2 183 C2.40593382 188.14459263 2.39951581 193.26635671 2.36328125 198.421875 C2.36276138 199.89536539 2.36328398 201.36885648 2.36479187 202.84234619 C2.36470273 205.9117688 2.35438814 208.98092558 2.33618164 212.05029297 C2.31341594 215.97303675 2.3129711 219.89539591 2.31969929 223.81818771 C2.3230477 226.8534687 2.3163941 229.88866283 2.30657005 232.92392731 C2.30273883 234.37032873 2.30156116 235.81673983 2.3031559 237.26314545 C2.30352888 239.28450206 2.28938096 241.3058454 2.2746582 243.32714844 C2.26774712 245.04729156 2.26774712 245.04729156 2.26069641 246.80218506 C1.98790583 250.14835233 1.19024949 252.87195241 0 256 C-2.89740622 256.13539281 -5.78845621 256.23426829 -8.6875 256.3125 C-9.50412109 256.35439453 -10.32074219 256.39628906 -11.16210938 256.43945312 C-15.58664375 256.5290186 -17.40455383 256.4598724 -21.01953125 253.66796875 C-23 251 -23 251 -24 248 C-24.99 247.67 -25.98 247.34 -27 247 C-28.1875 244.9375 -28.1875 244.9375 -29 243 C-29.66 243 -30.32 243 -31 243 C-31.99 240.525 -31.99 240.525 -33 238 C-33.66 238 -34.32 238 -35 238 C-35 237.34 -35 236.68 -35 236 C-35.61875 235.9175 -36.2375 235.835 -36.875 235.75 C-39 235 -39 235 -40.125 233 C-40.41375 232.34 -40.7025 231.68 -41 231 C-41.66 230.67 -42.32 230.34 -43 230 C-43.639375 229.34 -44.27875 228.68 -44.9375 228 C-46.92411167 225.78451728 -46.92411167 225.78451728 -50 225 C-50 223.68 -50 222.36 -50 221 C-50.59554687 220.90589844 -51.19109375 220.81179687 -51.8046875 220.71484375 C-54.49172694 219.83988251 -55.38269297 218.75634733 -57.125 216.5625 C-59.40061314 213.73861737 -61.58130219 211.33281108 -64.4375 209.0625 C-66.44260058 207.44863856 -68.22936034 205.85495584 -70 204 C-71.17749808 202.82250192 -72.37774564 201.6658404 -73.625 200.5625 C-75 199 -75 199 -75 196 C-75.99 196.33 -76.98 196.66 -78 197 C-78.70576172 196.16855469 -78.70576172 196.16855469 -79.42578125 195.3203125 C-80.04839844 194.59585938 -80.67101562 193.87140625 -81.3125 193.125 C-81.92738281 192.40570313 -82.54226562 191.68640625 -83.17578125 190.9453125 C-85.0412324 188.80820669 -85.0412324 188.80820669 -88 187 C-88 186.01 -88 185.02 -88 184 C-89.32 183.67 -90.64 183.34 -92 183 C-92 182.01 -92 181.02 -92 180 C-92.99 179.67 -93.98 179.34 -95 179 C-96.67067133 177.00334402 -98.33752986 175.00348966 -100 173 C-100.66 173 -101.32 173 -102 173 C-102.33 171.68 -102.66 170.36 -103 169 C-103.99 169 -104.98 169 -106 169 C-107.32 165.7 -108.64 162.4 -110 159 C-109.67 158.67 -109.34 158.34 -109 158 C-109.12022835 156.3709058 -109.29795139 154.74598092 -109.5 153.125 C-110.01567098 148.16166678 -109.82243256 143.63893216 -109.15625 138.703125 C-108.89851305 135.94778753 -108.89851305 135.94778753 -109.48193359 133.04858398 C-110.25461149 127.89077027 -110.14289369 122.72395646 -110.1328125 117.51953125 C-110.13376923 116.42912033 -110.13472595 115.33870941 -110.13571167 114.21525574 C-110.13638982 111.9199518 -110.13456107 109.62464591 -110.13037109 107.3293457 C-110.12500217 103.81392127 -110.13033645 100.29862369 -110.13671875 96.78320312 C-110.13605821 94.54947888 -110.13477754 92.31575472 -110.1328125 90.08203125 C-110.13483673 89.03094681 -110.13686096 87.97986237 -110.13894653 86.89692688 C-110.13579437 85.91878525 -110.13264221 84.94064362 -110.12939453 83.93286133 C-110.12859894 83.07461258 -110.12780334 82.21636383 -110.12698364 81.33210754 C-110.00479934 79.08814181 -109.55211854 77.16834282 -109 75 C-109.2165625 73.948125 -109.2165625 73.948125 -109.4375 72.875 C-110.33549839 68.28523043 -111.13890594 62.27781189 -109 58 C-108.97992665 56.27082434 -109.00766728 54.54092262 -109.0625 52.8125 C-109.0625 43.96 -109.0625 43.96 -107 40 C-104.09623461 38.5189204 -101.1778853 37.68658016 -98 37 C-97.67 37.66 -97.34 38.32 -97 39 C-95.515 38.505 -95.515 38.505 -94 38 C-91.63477442 38.92203709 -89.29598193 39.91698965 -87 41 C-87 41.66 -87 42.32 -87 43 C-86.278125 43.268125 -85.55625 43.53625 -84.8125 43.8125 C-81.05665501 45.39830122 -77.89167655 47.10832345 -75 50 C-72.02329914 51.09145698 -69.97412448 51.12811618 -67 50 C-66.505 49.01 -66.505 49.01 -66 48 C-65.34 48 -64.68 48 -64 48 C-64 47.01 -64 46.02 -64 45 C-61.625 42.3125 -61.625 42.3125 -59 40 C-58.34 40 -57.68 40 -57 40 C-57 39.34 -57 38.68 -57 38 C-55.34467377 36.98133771 -53.67739862 35.98189187 -52 35 C-51.505 34.01 -51.505 34.01 -51 33 C-50.34 33 -49.68 33 -49 33 C-49 32.34 -49 31.68 -49 31 C-45.79359372 27.50210224 -42.25195348 24.47978546 -38.640625 21.41015625 C-34.78871712 18.22004679 -34.78871712 18.22004679 -32.1875 14.0625 C-30.62286062 11.34496844 -28.40678218 10.11208646 -25.81640625 8.4375 C-23.81874512 6.85655528 -22.9797527 5.36023675 -21.6875 3.1875 C-17.05492586 -2.77419708 -6.70133655 -0.44254109 0 0 Z M-11 1 C-12.8337357 2.12168196 -12.8337357 2.12168196 -14.61914062 3.87963867 C-15.32594971 4.53120941 -16.03275879 5.18278015 -16.76098633 5.85409546 C-20.57501779 9.50952085 -24.3554763 13.192774 -28.09375 16.92578125 C-28.92588013 17.75458298 -29.75801025 18.5833847 -30.61535645 19.43730164 C-32.35783211 21.1747477 -34.09898533 22.91352096 -35.83886719 24.65356445 C-38.51477505 27.32726285 -41.19860857 29.99283657 -43.8828125 32.65820312 C-45.57861312 34.35107368 -47.27394288 36.04441606 -48.96875 37.73828125 C-50.17791077 38.93666374 -50.17791077 38.93666374 -51.41149902 40.15925598 C-52.14646606 40.89729965 -52.88143311 41.63534332 -53.63867188 42.39575195 C-54.28960815 43.04526321 -54.94054443 43.69477448 -55.61120605 44.3639679 C-57.21571744 45.89645227 -57.21571744 45.89645227 -57 48 C-57.639375 48.268125 -58.27875 48.53625 -58.9375 48.8125 C-61.33131686 49.88667752 -61.33131686 49.88667752 -62 53 C-62.99 53.33 -63.98 53.66 -65 54 C-65 54.66 -65 55.32 -65 56 C-65.99 56.33 -66.98 56.66 -68 57 C-68.66 57.99 -69.32 58.98 -70 60 C-74.98644284 59.50807224 -77.89562801 58.04914811 -81.94921875 55.1484375 C-82.48851517 54.77014801 -83.02781158 54.39185852 -83.58345032 54.00210571 C-85.29214332 52.80307451 -86.990747 51.59085767 -88.6875 50.375 C-90.9332881 48.76675653 -93.18804924 47.17245575 -95.44921875 45.5859375 C-96.44268311 44.8748584 -97.43614746 44.1637793 -98.4597168 43.43115234 C-99.29801025 42.95887207 -100.13630371 42.4865918 -101 42 C-102.485 42.495 -102.485 42.495 -104 43 C-106.83753844 60.34722678 -108.69730917 77.70282852 -109.75 95.25 C-109.82816452 96.54886013 -109.90632904 97.84772026 -109.98686218 99.18593979 C-111.78394968 133.14280507 -108.18479577 159.58486552 -85.15697384 185.55723333 C-76.66258825 194.98384738 -67.6104887 203.75373423 -58.25 212.3125 C-57.70427526 212.81383516 -57.15855053 213.31517033 -56.59628868 213.83169746 C-45.02936798 224.45131811 -33.1961932 234.73875068 -20.89941406 244.5090332 C-20.05355618 245.19091831 -19.20769829 245.87280342 -18.33620834 246.57535172 C-17.55657856 247.18017757 -16.77694878 247.78500343 -15.97369385 248.40815735 C-15.29894138 248.93685582 -14.62418892 249.46555429 -13.92898941 250.01027393 C-12.02018156 251.22670434 -12.02018156 251.22670434 -9.75164413 250.66199017 C-9.17360157 250.44353341 -8.59555901 250.22507666 -8 250 C-7.58087224 240.82100702 -7.26215646 231.64535209 -7.06738091 222.45884323 C-6.97383102 218.19143163 -6.84732029 213.93060846 -6.64208984 209.66699219 C-4.99326759 191.86544468 -4.99326759 191.86544468 -9.71405029 175.31008911 C-13.80404281 171.23327425 -18.41434013 168.90779564 -23.77723694 166.90007019 C-27.16818707 165.52696246 -29.89449562 163.55037641 -32.875 161.4375 C-33.51123291 161.0154126 -34.14746582 160.5933252 -34.80297852 160.15844727 C-39.25558606 157.19070571 -43.67439795 154.1749202 -48.08984375 151.15234375 C-50.01769571 149.83516282 -51.94575304 148.51828294 -53.87384033 147.20144653 C-55.16388023 146.31879086 -56.452746 145.43441662 -57.74041748 144.54830933 C-59.5598489 143.29633015 -61.38304717 142.0500209 -63.20703125 140.8046875 C-64.2741333 140.07233887 -65.34123535 139.33999023 -66.44067383 138.58544922 C-68.78159789 136.82446007 -68.78159789 136.82446007 -71 137 C-71 125.78 -71 114.56 -71 103 C-60.96746575 108.57363014 -60.96746575 108.57363014 -56.625 111.875 C-52.20024662 115.15985847 -47.68053789 118.16600409 -43.01171875 121.08984375 C-39.49338074 123.32131883 -36.02588227 125.6220066 -32.5625 127.9375 C-31.92884521 128.3600708 -31.29519043 128.7826416 -30.64233398 129.21801758 C-27.58900592 131.25708593 -24.54451012 133.30759349 -21.515625 135.3828125 C-20.45859375 136.10210937 -19.4015625 136.82140625 -18.3125 137.5625 C-17.38050781 138.20316406 -16.44851562 138.84382812 -15.48828125 139.50390625 C-13.23927496 140.85613452 -11.58963633 141.66679623 -9 142 C-7.7419025 140.96464094 -7.7419025 140.96464094 -7.87695217 138.70613766 C-7.87787396 137.68202565 -7.87879576 136.65791365 -7.87974548 135.60276794 C-7.87837082 134.43182587 -7.87699615 133.26088379 -7.87557983 132.05445862 C-7.87917511 130.75830124 -7.88277039 129.46214386 -7.88647461 128.12670898 C-7.88675648 126.75712079 -7.88659875 125.38753244 -7.8860321 124.01794434 C-7.88574412 120.28877052 -7.89164091 116.55962859 -7.89860606 112.83046222 C-7.90483953 108.93735587 -7.90544339 105.04424887 -7.90663147 101.15113831 C-7.90974481 93.77401854 -7.91795822 86.39691351 -7.92798096 79.01980025 C-7.93914203 70.62332457 -7.94465253 62.22684821 -7.94967639 53.83036697 C-7.96014084 36.55356944 -7.97774032 19.27678628 -8 2 C-8.99 1.67 -9.98 1.34 -11 1 Z " fill="#FEFEFE" transform="translate(123,0)"/>
<path d="" fill="#FFFFFF" transform="translate(0,0)"/>
<path d="" fill="#FFFFFF" transform="translate(0,0)"/>
<path d="" fill="#FFFFFF" transform="translate(0,0)"/>
<path d="" fill="#FFFFFF" transform="translate(0,0)"/>
<path d="" fill="#FFFFFF" transform="translate(0,0)"/>
<path d="" fill="#FFFFFF" transform="translate(0,0)"/>
<path d="" fill="#FFFFFF" transform="translate(0,0)"/>
<path d="" fill="#FFFFFF" transform="translate(0,0)"/>
<path d="" fill="#FFFFFF" transform="translate(0,0)"/>
<path d="" fill="#FFFFFF" transform="translate(0,0)"/>
<path d="" fill="#FFFFFF" transform="translate(0,0)"/>
<path d="" fill="#FFFFFF" transform="translate(0,0)"/>
<path d="" fill="#FFFFFF" transform="translate(0,0)"/>
<path d="" fill="#FFFFFF" transform="translate(0,0)"/>
<path d="" fill="#FFFFFF" transform="translate(0,0)"/>
</svg>
