<?xml version="1.0" encoding="UTF-8"?>
<svg version="1.1" xmlns="http://www.w3.org/2000/svg" width="256" height="256">
<path d="M0 0 C23.76 0 47.52 0 72 0 C72.309375 17.3559375 72.309375 17.3559375 72.625 35.0625 C72.71604004 38.70547119 72.80708008 42.34844238 72.90087891 46.10180664 C72.94604492 50.57702637 72.94604492 50.57702637 72.95443726 52.67723083 C72.96971804 54.13306812 73.00473941 55.5887846 73.05575562 57.04380798 C73.46585549 69.36437999 73.46585549 69.36437999 69.70721436 73.55831909 C67.20224031 75.32748635 64.79653551 76.7515969 62 78 C65.3 78.33 68.6 78.66 72 79 C72.32454942 95.92445854 72.57414809 112.84766865 72.72537041 129.77452755 C72.79746371 137.63470027 72.89567725 145.4929005 73.05615234 153.35180664 C73.19601422 160.20451349 73.28608563 167.05579197 73.31723893 173.90988642 C73.33544466 177.53764526 73.37797108 181.16131948 73.48022079 184.7877636 C74.07756273 206.81507367 74.07756273 206.81507367 70.65674591 212.05922318 C66.96665803 215.69034055 62.7980518 217.25874369 58 219 C55.9489428 220.24311483 53.92126775 221.52709954 51.9375 222.875 C50.29538225 223.92251425 48.64974981 224.96454727 47 226 C46.11441406 226.55945313 45.22882813 227.11890625 44.31640625 227.6953125 C42 229 42 229 40 229 C40 183.79 40 138.58 40 92 C33.04119049 94.95281418 33.04119049 94.95281418 32.12304783 98.56930161 C32.12166514 100.03495245 32.12166514 100.03495245 32.12025452 101.5302124 C32.09319931 103.21708412 32.09319931 103.21708412 32.06559753 104.93803406 C32.08141373 106.16730118 32.09722992 107.3965683 32.11352539 108.66308594 C32.10274963 109.96089493 32.09197388 111.25870392 32.08087158 112.59584045 C32.05213592 116.15171388 32.06638122 119.7062716 32.08831334 123.26214504 C32.1039408 126.97916717 32.08008586 130.69593014 32.06040955 134.41290283 C32.02916115 141.45007463 32.03344798 148.48675883 32.05048412 155.52396131 C32.06815158 163.53609351 32.04623157 171.54796413 32.02097714 179.56005812 C31.96991862 196.04014926 31.9686037 212.51985534 32 229 C28.80864679 228.26674827 26.53824735 227.26002336 23.76953125 225.48828125 C22.56393555 224.72161133 22.56393555 224.72161133 21.33398438 223.93945312 C20.50189453 223.40255859 19.66980469 222.86566406 18.8125 222.3125 C17.99974609 221.79494141 17.18699219 221.27738281 16.34960938 220.74414062 C13.89187908 219.17408698 11.44101857 217.5959573 9 216 C8.27507732 215.74148538 7.55015465 215.48297075 6.80326462 215.21662235 C3.72758596 213.83779488 2.10818317 212.66059068 0 210 C-1.39172351 203.37518076 -1.13683265 196.78379211 -1.02172852 190.04150391 C-1.01918932 187.97168082 -1.0206159 185.90184962 -1.02571106 183.83203125 C-1.02829395 178.21615275 -0.97537445 172.60200345 -0.91254544 166.98652697 C-0.85629194 161.11695144 -0.85099756 155.24733646 -0.84031677 149.37753296 C-0.81234105 138.26381978 -0.73848226 127.15090316 -0.64817137 116.03754079 C-0.54758241 103.38479256 -0.49809249 90.73200632 -0.45291245 78.0789578 C-0.35883295 52.05209513 -0.19378134 26.02632448 0 0 Z M32 32 C32 40.25 32 48.5 32 57 C34.64 55.68 37.28 54.36 40 53 C40 46.07 40 39.14 40 32 C37.36 32 34.72 32 32 32 Z " fill="#FE188E" transform="translate(92,21)"/>
<path d="M0 0 C10.89 0 21.78 0 33 0 C33.33 18.48 33.66 36.96 34 56 C39.0984133 53.72764673 39.0984133 53.72764673 39.63923645 50.62715149 C39.64589828 49.69227402 39.65256012 48.75739655 39.65942383 47.79418945 C39.68888847 46.20287956 39.68888847 46.20287956 39.71894836 44.579422 C39.71501572 43.43559555 39.71108307 42.2917691 39.70703125 41.11328125 C39.72215256 39.94113571 39.73727386 38.76899017 39.75285339 37.56132507 C39.79589713 33.81152357 39.80458501 30.06252446 39.8125 26.3125 C39.83563115 23.77276487 39.86099357 21.23304902 39.88867188 18.69335938 C39.95589697 12.46179721 39.97668905 6.23250139 40 0 C50.89 0 61.78 0 73 0 C73.4411969 17.43841899 73.4411969 17.43841899 73.53710938 24.89648438 C73.60277079 29.97809846 73.68025863 35.05752411 73.82983398 40.13745117 C73.94973813 44.23552207 74.0151972 48.33124684 74.04364967 52.43093681 C74.06391103 53.99132682 74.10348528 55.55159399 74.16303062 57.11097908 C74.33858265 61.90073685 74.35130794 66.35227075 73 71 C69.72076367 74.32637562 66.30751745 76.25188959 62 78 C67.445 78.495 67.445 78.495 73 79 C73 119.92 73 160.84 73 203 C67.82047636 203 65.77811536 201.16336082 61.6133728 198.26679993 C59.00377719 196.53988742 56.36252939 195.21140132 53.50942993 193.93009949 C41.52230815 188.22911428 41.52230815 188.22911428 38.97582245 182.82751846 C37.39354514 176.57518306 37.78515173 170.19240009 38.0234375 163.80078125 C38.03458909 161.75386784 38.03776739 159.70689692 38.03335571 157.65995789 C38.04301687 152.30239572 38.16008123 146.95250286 38.30047607 141.59698486 C38.42473581 136.12049901 38.44617363 130.64368435 38.4765625 125.16601562 C38.55107032 114.44123864 38.73918833 103.72175222 39 93 C38.01 93.66 37.02 94.32 36 95 C35.01 95 34.02 95 33 95 C33 122.39 33 149.78 33 178 C24.90721187 175.97680297 17.96052837 170.46381711 11 166 C10.1161925 165.60639503 9.23238501 165.21279005 8.32179546 164.80725765 C5.02986149 163.15899995 2.6045597 161.61549285 0 159 C-1.61056336 153.89232828 -1.39540409 148.89735465 -1.2487793 143.60961914 C-1.24567374 142.04210632 -1.24742354 140.47457752 -1.25364685 138.90707397 C-1.2567962 134.66447605 -1.19225554 130.42531691 -1.11533332 126.18351674 C-1.04644439 121.74609397 -1.04009788 117.30858727 -1.02705383 112.87071228 C-0.99289943 104.47306115 -0.90268428 96.07699018 -0.79220945 87.6800341 C-0.66914443 78.11800426 -0.60874967 68.55589786 -0.55355966 58.9932729 C-0.43866046 39.32777139 -0.2369848 19.66443536 0 0 Z " fill="#FE188E" transform="translate(12,21)"/>
<path d="M0 0 C10.89 0 21.78 0 33 0 C33 39.93 33 79.86 33 121 C34.65 120.01 36.3 119.02 38 118 C38.66 118 39.32 118 40 118 C40 79.06 40 40.12 40 0 C50.56 0 61.12 0 72 0 C72.20322283 17.62862512 72.36898239 35.25624969 72.46630955 52.88572121 C72.51270297 61.0715391 72.57594193 69.2565772 72.67895508 77.44189453 C72.76870746 84.57693069 72.82673435 91.71140215 72.84679645 98.84698713 C72.85852332 102.62502735 72.88604248 106.40145221 72.95157051 110.17897415 C73.01278656 113.73683501 73.03148256 117.29242012 73.01796913 120.8507576 C73.0216159 122.77504813 73.06999105 124.69909197 73.11978149 126.6227417 C73.03083518 134.908976 73.03083518 134.908976 70.05787468 138.05552292 C67.76484812 139.6015093 65.49336221 140.81222216 63 142 C61.75145311 142.80927328 60.51395202 143.63631594 59.296875 144.4921875 C52.22518638 149.2481333 45.08877371 153.82824507 37.8046875 158.25390625 C35.50868349 159.68331264 33.30660604 161.15500358 31.125 162.75 C28.4698898 164.66167934 25.79981223 166.26036662 22.94140625 167.83984375 C20.57605643 169.25334254 18.36572317 170.83401495 16.125 172.4375 C4.05630388 181 4.05630388 181 0 181 C0 121.27 0 61.54 0 0 Z " fill="#FE188E" transform="translate(171,44)"/>
<path d="M0 0 C5.47761602 0.28938349 8.22678993 3.56143363 11.875 7.25 C12.48085937 7.82363281 13.08671875 8.39726562 13.7109375 8.98828125 C17.90831411 13.17611837 17.90831411 13.17611837 18.27734375 16.4921875 C16.36327071 20.25009236 13.67918983 22.93853137 10.6875 25.875 C10.10548828 26.48085938 9.52347656 27.08671875 8.92382812 27.7109375 C8.35470703 28.278125 7.78558594 28.8453125 7.19921875 29.4296875 C6.68190186 29.94772949 6.16458496 30.46577148 5.6315918 30.99951172 C4 32 4 32 1.98852539 31.82641602 C-0.1725259 30.92829955 -1.37179428 30.00165783 -3.015625 28.34765625 C-3.54414063 27.81849609 -4.07265625 27.28933594 -4.6171875 26.74414062 C-5.15601563 26.18919922 -5.69484375 25.63425781 -6.25 25.0625 C-6.80429688 24.51142578 -7.35859375 23.96035156 -7.9296875 23.39257812 C-12 19.26712592 -12 19.26712592 -12 17 C-12.66 17 -13.32 17 -14 17 C-12.40069566 12.95864413 -9.51339591 10.32092848 -6.4375 7.375 C-2.77285984 4.03597098 -2.77285984 4.03597098 0 0 Z " fill="#FE168C" transform="translate(225,6)"/>
<path d="M0 0 C2.2890625 -0.22265625 2.2890625 -0.22265625 5 0 C6.7734375 1.50390625 6.7734375 1.50390625 8.375 3.5625 C11.28486836 7.16306239 14.3520136 10.37662824 17.71484375 13.5546875 C19 15 19 15 19 17 C18.34 17 17.68 17 17 17 C16.78085938 17.54011719 16.56171875 18.08023437 16.3359375 18.63671875 C14.5458456 21.80340179 12.16219138 24.24526293 9.625 26.8125 C8.90183594 27.5849707 8.90183594 27.5849707 8.1640625 28.37304688 C6.7265625 29.83203125 6.7265625 29.83203125 4 32 C1.6484375 31.82421875 1.6484375 31.82421875 0 31 C0 30.34 0 29.68 0 29 C-0.61875 28.7525 -1.2375 28.505 -1.875 28.25 C-4.40358627 26.76259631 -4.71839004 25.56321991 -6 23 C-6.928125 22.566875 -6.928125 22.566875 -7.875 22.125 C-10.96385789 20.48972229 -12.15112315 17.90095741 -14 15 C-13.07316406 14.08476562 -12.14632812 13.16953125 -11.19140625 12.2265625 C-9.98163961 11.0261739 -8.77201135 9.82564583 -7.5625 8.625 C-6.95083984 8.02171875 -6.33917969 7.4184375 -5.70898438 6.796875 C-5.12568359 6.21679688 -4.54238281 5.63671875 -3.94140625 5.0390625 C-3.40201416 4.50490723 -2.86262207 3.97075195 -2.30688477 3.42041016 C-0.89153023 2.01347612 -0.89153023 2.01347612 0 0 Z " fill="#FE168C" transform="translate(185,6)"/>
</svg>
