<?xml version="1.0" encoding="UTF-8"?>
<svg version="1.1" xmlns="http://www.w3.org/2000/svg" width="256" height="256">
<path d="M0 0 C0.72680969 0.00141495 1.45361938 0.0028299 2.20245361 0.00428772 C4.51521994 0.00986833 6.82788812 0.02241721 9.140625 0.03515625 C10.71223818 0.04017376 12.28385289 0.04473623 13.85546875 0.04882812 C17.70055843 0.0598314 21.5455751 0.07708264 25.390625 0.09765625 C25.390625 0.75765625 25.390625 1.41765625 25.390625 2.09765625 C26.45023437 2.51917969 27.50984375 2.94070312 28.6015625 3.375 C29.98960149 3.92833987 31.37762133 4.48172778 32.765625 5.03515625 C33.46429688 5.31294922 34.16296875 5.59074219 34.8828125 5.87695312 C39.16750188 7.58670898 42.83420236 9.13397072 46.390625 12.09765625 C46.390625 12.75765625 46.390625 13.41765625 46.390625 14.09765625 C47.050625 14.09765625 47.710625 14.09765625 48.390625 14.09765625 C48.390625 14.75765625 48.390625 15.41765625 48.390625 16.09765625 C49.03 16.36578125 49.669375 16.63390625 50.328125 16.91015625 C52.390625 18.09765625 52.390625 18.09765625 53.390625 21.09765625 C54.56625 21.22140625 54.56625 21.22140625 55.765625 21.34765625 C58.390625 22.09765625 58.390625 22.09765625 59.453125 23.84765625 C59.7625 24.59015625 60.071875 25.33265625 60.390625 26.09765625 C61.380625 27.33515625 61.380625 27.33515625 62.390625 28.59765625 C64.390625 31.09765625 64.390625 31.09765625 65.453125 33.34765625 C66.32560444 35.45760262 66.32560444 35.45760262 69.390625 36.09765625 C69.720625 38.07765625 70.050625 40.05765625 70.390625 42.09765625 C71.710625 42.09765625 73.030625 42.09765625 74.390625 42.09765625 C74.57625 42.84015625 74.761875 43.58265625 74.953125 44.34765625 C76.99975166 48.26294204 79.4781305 49.141409 83.390625 51.09765625 C83.390625 51.75765625 83.390625 52.41765625 83.390625 53.09765625 C84.1125 53.23042969 84.834375 53.36320312 85.578125 53.5 C88.25705059 54.06927169 90.78078289 54.83662375 93.390625 55.66015625 C103.76664877 58.46974982 112.64653822 57.51611223 122.7109375 53.97265625 C125.390625 53.09765625 125.390625 53.09765625 128.390625 53.09765625 C128.4525 52.47890625 128.514375 51.86015625 128.578125 51.22265625 C129.390625 49.09765625 129.390625 49.09765625 131.703125 47.91015625 C133.92438811 47.23861159 136.12565854 46.60098213 138.390625 46.09765625 C138.390625 45.43765625 138.390625 44.77765625 138.390625 44.09765625 C139.050625 44.09765625 139.710625 44.09765625 140.390625 44.09765625 C140.390625 43.43765625 140.390625 42.77765625 140.390625 42.09765625 C141.050625 42.09765625 141.710625 42.09765625 142.390625 42.09765625 C142.12386296 40.11273983 142.12386296 40.11273983 141.390625 38.09765625 C140.400625 37.76765625 139.410625 37.43765625 138.390625 37.09765625 C137.36049223 35.44944381 136.35947872 33.78261923 135.390625 32.09765625 C134.730625 31.76765625 134.070625 31.43765625 133.390625 31.09765625 C133.86067732 28.55937373 134.49658015 26.92989392 135.890625 24.72265625 C137.55659841 21.80720278 138.005473 19.40996344 138.390625 16.09765625 C139.380625 15.76765625 140.370625 15.43765625 141.390625 15.09765625 C142.12386296 13.08257267 142.12386296 13.08257267 142.390625 11.09765625 C145.48367922 11.70668684 147.58702262 12.69634428 150.140625 14.53515625 C151.06101563 15.18291016 151.06101563 15.18291016 152 15.84375 C152.45890625 16.25753906 152.9178125 16.67132813 153.390625 17.09765625 C153.390625 17.75765625 153.390625 18.41765625 153.390625 19.09765625 C153.968125 19.11828125 154.545625 19.13890625 155.140625 19.16015625 C158.28447928 20.47009553 158.93534557 22.51320835 160.36328125 25.50390625 C161.37636644 27.440706 161.37636644 27.440706 164.390625 28.09765625 C165.33984375 29.9453125 165.33984375 29.9453125 166.078125 32.16015625 C166.45517578 33.26037109 166.45517578 33.26037109 166.83984375 34.3828125 C167.02160156 34.94871094 167.20335937 35.51460937 167.390625 36.09765625 C168.050625 36.09765625 168.710625 36.09765625 169.390625 36.09765625 C169.59148943 39.81364816 169.5425687 40.8697407 167.390625 44.09765625 C167.24625 44.92265625 167.101875 45.74765625 166.953125 46.59765625 C166.30994975 49.45621291 165.58593368 50.24008737 163.390625 52.09765625 C161.64981624 53.77151082 160.47533431 54.92823763 159.390625 57.09765625 C158.730625 56.76765625 158.070625 56.43765625 157.390625 56.09765625 C157.390625 57.08765625 157.390625 58.07765625 157.390625 59.09765625 C156.400625 59.09765625 155.410625 59.09765625 154.390625 59.09765625 C154.390625 59.75765625 154.390625 60.41765625 154.390625 61.09765625 C153.730625 61.09765625 153.070625 61.09765625 152.390625 61.09765625 C152.390625 61.75765625 152.390625 62.41765625 152.390625 63.09765625 C151.07795982 64.45134221 149.74495175 65.78565221 148.390625 67.09765625 C148.390625 67.42765625 148.390625 67.75765625 148.390625 68.09765625 C146.740625 68.09765625 145.090625 68.09765625 143.390625 68.09765625 C143.390625 68.75765625 143.390625 69.41765625 143.390625 70.09765625 C140.48980568 72.03153579 137.88530676 73.73011155 134.484375 74.56640625 C132.10388645 75.12040596 132.10388645 75.12040596 128.828125 76.53515625 C111.07081296 83.19414827 91.44250924 80.7649223 74.390625 73.09765625 C71.62635471 71.54472147 69.00791462 69.82251009 66.390625 68.03515625 C65.71128906 67.58849609 65.03195313 67.14183594 64.33203125 66.68164062 C62.64398438 65.54552055 61.01131949 64.32794908 59.390625 63.09765625 C59.390625 62.43765625 59.390625 61.77765625 59.390625 61.09765625 C58.730625 61.09765625 58.070625 61.09765625 57.390625 61.09765625 C57.390625 60.43765625 57.390625 59.77765625 57.390625 59.09765625 C56.730625 59.09765625 56.070625 59.09765625 55.390625 59.09765625 C53.49370178 57.20073303 51.99657357 55.23892101 50.390625 53.09765625 C49.730625 52.43765625 49.070625 51.77765625 48.390625 51.09765625 C47.730625 50.10765625 47.070625 49.11765625 46.390625 48.09765625 C46.060625 48.09765625 45.730625 48.09765625 45.390625 48.09765625 C44.400625 44.13765625 44.400625 44.13765625 43.390625 40.09765625 C42.730625 40.09765625 42.070625 40.09765625 41.390625 40.09765625 C39.70330223 38.11505199 38.03696443 36.11442205 36.390625 34.09765625 C35.730625 33.76765625 35.070625 33.43765625 34.390625 33.09765625 C34.390625 32.43765625 34.390625 31.77765625 34.390625 31.09765625 C33.730625 30.85015625 33.070625 30.60265625 32.390625 30.34765625 C29.37139147 29.08964228 26.52936804 27.64058139 23.6484375 26.09765625 C17.37108586 23.31737594 11.46731751 22.68008686 4.703125 22.66015625 C3.82261475 22.65701416 2.94210449 22.65387207 2.03491211 22.65063477 C-4.38568519 22.76790864 -9.43824971 23.92819384 -15.19921875 26.90625 C-17.6852195 28.13514827 -19.88039277 28.67293093 -22.609375 29.09765625 C-22.609375 29.75765625 -22.609375 30.41765625 -22.609375 31.09765625 C-23.93205227 32.11170882 -25.26662331 33.11033883 -26.609375 34.09765625 C-27.269375 35.08765625 -27.929375 36.07765625 -28.609375 37.09765625 C-29.145625 37.61328125 -29.681875 38.12890625 -30.234375 38.66015625 C-31.83978255 40.00699873 -31.83978255 40.00699873 -31.609375 42.09765625 C-30.949375 42.09765625 -30.289375 42.09765625 -29.609375 42.09765625 C-29.609375 42.75765625 -29.609375 43.41765625 -29.609375 44.09765625 C-28.949375 44.09765625 -28.289375 44.09765625 -27.609375 44.09765625 C-27.609375 44.75765625 -27.609375 45.41765625 -27.609375 46.09765625 C-26.701875 46.18015625 -25.794375 46.26265625 -24.859375 46.34765625 C-21.18929412 47.19459799 -19.91071172 48.17672888 -17.609375 51.09765625 C-17.609375 51.75765625 -17.609375 52.41765625 -17.609375 53.09765625 C-16.5265625 53.29681641 -16.5265625 53.29681641 -15.421875 53.5 C-12.74294941 54.06927169 -10.21921711 54.83662375 -7.609375 55.66015625 C2.76664877 58.46974982 11.64653822 57.51611223 21.7109375 53.97265625 C24.390625 53.09765625 24.390625 53.09765625 27.390625 53.09765625 C27.390625 52.43765625 27.390625 51.77765625 27.390625 51.09765625 C28.710625 51.09765625 30.030625 51.09765625 31.390625 51.09765625 C31.390625 50.43765625 31.390625 49.77765625 31.390625 49.09765625 C34.390625 47.09765625 34.390625 47.09765625 36.328125 47.16015625 C39.24895792 48.48780758 40.49064675 50.54456047 42.390625 53.09765625 C43.091875 53.75765625 43.793125 54.41765625 44.515625 55.09765625 C47.40987062 58.18485157 48.390625 60.89285952 48.390625 65.09765625 C41.5985416 70.87033446 33.90608341 74.66634606 25.390625 77.09765625 C23.88048828 77.54431641 23.88048828 77.54431641 22.33984375 78 C6.93589222 82.08138887 -7.70287765 80.24071144 -22.609375 75.09765625 C-23.599375 74.76765625 -24.589375 74.43765625 -25.609375 74.09765625 C-28.13044982 72.91590243 -30.27669597 71.6527756 -32.609375 70.09765625 C-32.609375 69.43765625 -32.609375 68.77765625 -32.609375 68.09765625 C-34.259375 68.09765625 -35.909375 68.09765625 -37.609375 68.09765625 C-38.0425 67.13859375 -38.0425 67.13859375 -38.484375 66.16015625 C-39.43760951 63.94559546 -39.43760951 63.94559546 -41.609375 63.09765625 C-41.609375 62.43765625 -41.609375 61.77765625 -41.609375 61.09765625 C-42.269375 61.09765625 -42.929375 61.09765625 -43.609375 61.09765625 C-43.609375 60.43765625 -43.609375 59.77765625 -43.609375 59.09765625 C-44.599375 59.09765625 -45.589375 59.09765625 -46.609375 59.09765625 C-46.609375 58.10765625 -46.609375 57.11765625 -46.609375 56.09765625 C-48.094375 56.59265625 -48.094375 56.59265625 -49.609375 57.09765625 C-49.7125 56.45828125 -49.815625 55.81890625 -49.921875 55.16015625 C-50.14875 54.47953125 -50.375625 53.79890625 -50.609375 53.09765625 C-51.599375 52.76765625 -52.589375 52.43765625 -53.609375 52.09765625 C-55.80017601 48.81145473 -56.55904372 45.87884887 -57.609375 42.09765625 C-57.939375 41.76765625 -58.269375 41.43765625 -58.609375 41.09765625 C-58.65001332 39.4314851 -58.652096 37.7637753 -58.609375 36.09765625 C-57.949375 36.09765625 -57.289375 36.09765625 -56.609375 36.09765625 C-56.42761719 35.53175781 -56.24585938 34.96585938 -56.05859375 34.3828125 C-55.80722656 33.64933594 -55.55585937 32.91585937 -55.296875 32.16015625 C-54.93142578 31.06380859 -54.93142578 31.06380859 -54.55859375 29.9453125 C-53.609375 28.09765625 -53.609375 28.09765625 -50.609375 27.09765625 C-49.52744967 25.49318269 -49.52744967 25.49318269 -48.671875 23.59765625 C-46.877197 20.20924875 -46.877197 20.20924875 -44.359375 19.16015625 C-43.781875 19.13953125 -43.204375 19.11890625 -42.609375 19.09765625 C-42.609375 18.43765625 -42.609375 17.77765625 -42.609375 17.09765625 C-30.63017927 7.31183439 -15.65982856 -0.11526818 0 0 Z " fill="#FBC700" transform="translate(72.609375,87.90234375)"/>
<path d="M0 0 C2.375 1.5625 2.375 1.5625 4.5234375 3.40625 C7.96020624 6.00501212 11.48935841 7.7950109 15.375 9.625 C16.39400391 10.13256836 16.39400391 10.13256836 17.43359375 10.65039062 C31.22237074 17.190572 45.24434321 17.08280216 60.1875 17.25 C62.24806771 17.28323758 64.30861554 17.31773298 66.36914062 17.35351562 C71.37098263 17.43767451 76.37278536 17.50482748 81.375 17.5625 C81.0065918 19.97680664 81.0065918 19.97680664 80.375 22.5625 C78.74625663 23.62314735 77.06885517 24.60927786 75.375 25.5625 C72.82100359 27.80059784 70.44821363 30.20980278 68.0625 32.625 C67.41732422 33.26244141 66.77214844 33.89988281 66.10742188 34.55664062 C65.49833984 35.16830078 64.88925781 35.77996094 64.26171875 36.41015625 C63.70701904 36.96711182 63.15231934 37.52406738 62.58081055 38.09790039 C61.16313217 39.50365335 61.16313217 39.50365335 61.375 41.5625 C54.445 41.5625 47.515 41.5625 40.375 41.5625 C40.045 40.9025 39.715 40.2425 39.375 39.5625 C36.735 39.5625 34.095 39.5625 31.375 39.5625 C31.375 38.9025 31.375 38.2425 31.375 37.5625 C30.38757813 37.36914062 29.40015625 37.17578125 28.3828125 36.9765625 C27.10148437 36.71617187 25.82015625 36.45578125 24.5 36.1875 C23.22382813 35.93226563 21.94765625 35.67703125 20.6328125 35.4140625 C17.375 34.5625 17.375 34.5625 15.375 32.5625 C14.715 32.2325 14.055 31.9025 13.375 31.5625 C11.33208818 30.29589467 9.32809888 28.96363616 7.375 27.5625 C7.375 26.9025 7.375 26.2425 7.375 25.5625 C6.2303125 25.1603125 6.2303125 25.1603125 5.0625 24.75 C2.50119116 23.61825888 1.17807062 22.65026599 -0.625 20.5625 C-2.87662472 21.60789719 -4.77089161 22.67406417 -6.75 24.1875 C-8.625 25.5625 -8.625 25.5625 -10.625 25.5625 C-10.625 26.2225 -10.625 26.8825 -10.625 27.5625 C-13.81526533 29.88269297 -17.04226669 31.90893078 -20.625 33.5625 C-20.625 33.8925 -20.625 34.2225 -20.625 34.5625 C-25.245 35.5525 -29.865 36.5425 -34.625 37.5625 C-34.625 38.2225 -34.625 38.8825 -34.625 39.5625 C-37.265 39.5625 -39.905 39.5625 -42.625 39.5625 C-43.12 40.5525 -43.12 40.5525 -43.625 41.5625 C-50.555 41.5625 -57.485 41.5625 -64.625 41.5625 C-65.285 40.2425 -65.945 38.9225 -66.625 37.5625 C-68.08154028 35.81827831 -68.08154028 35.81827831 -69.77734375 34.1796875 C-70.38900391 33.56996094 -71.00066406 32.96023437 -71.63085938 32.33203125 C-72.26830078 31.70683594 -72.90574219 31.08164063 -73.5625 30.4375 C-74.19607422 29.80457031 -74.82964844 29.17164063 -75.48242188 28.51953125 C-78.1232084 25.9037364 -80.51816342 23.63372439 -83.625 21.5625 C-84.3125 19.4375 -84.3125 19.4375 -84.625 17.5625 C-83.37066162 17.5531543 -82.11632324 17.54380859 -80.82397461 17.53417969 C-76.09902483 17.49382603 -71.37469565 17.42794938 -66.65014648 17.35498047 C-64.61865304 17.32703077 -62.5870561 17.30568924 -60.55541992 17.29150391 C-44.99974078 17.17647547 -31.10016975 16.13293694 -17.125 8.625 C-16.16980469 8.14256836 -16.16980469 8.14256836 -15.1953125 7.65039062 C-11.8568641 5.92325457 -8.83392519 4.03026744 -5.8203125 1.78125 C-2.625 -0.4375 -2.625 -0.4375 0 0 Z " fill="#FBC700" transform="translate(129.625,158.4375)"/>
<path d="M0 0 C2.85114345 0.60086081 4.07917236 2.19881643 5.890625 4.3984375 C6.53 4.7078125 7.169375 5.0171875 7.828125 5.3359375 C10.71530483 6.82327257 12.60416024 9.11197274 14.890625 11.3984375 C15.591875 11.7284375 16.293125 12.0584375 17.015625 12.3984375 C19.63485713 13.7953613 20.4304269 15.87627715 21.890625 18.3984375 C22.550625 18.3984375 23.210625 18.3984375 23.890625 18.3984375 C24.550625 20.0484375 25.210625 21.6984375 25.890625 23.3984375 C26.550625 23.3984375 27.210625 23.3984375 27.890625 23.3984375 C28.00792969 24.13320313 28.12523437 24.86796875 28.24609375 25.625 C28.89165025 28.40284918 29.80454577 30.30535651 31.203125 32.7734375 C39.39249419 48.96172542 40.51750164 67.56819107 35.234375 84.8515625 C32.25968795 92.70335273 28.49844406 100.37214988 23.890625 107.3984375 C21.828125 108.2734375 21.828125 108.2734375 19.890625 108.3984375 C18.900625 107.9034375 18.900625 107.9034375 17.890625 107.3984375 C17.92542969 106.10550781 17.96023437 104.81257813 17.99609375 103.48046875 C18.16240701 94.49955264 17.98256769 86.57661098 15.54296875 77.875 C14.68363856 73.29533609 14.83020237 68.91675456 14.953125 64.2734375 C15.12948676 57.32854468 14.72809213 51.82349637 11.765625 45.39453125 C10.890625 43.3984375 10.890625 43.3984375 10.890625 40.3984375 C10.230625 40.3984375 9.570625 40.3984375 8.890625 40.3984375 C8.2925 39.3053125 7.694375 38.2121875 7.078125 37.0859375 C4.81311667 33.1301483 2.70388369 30.94060996 -1.109375 28.3984375 C-4.29435362 28.3984375 -5.7779882 30.35136616 -8.109375 32.3984375 C-9.87261005 34.52446935 -9.87261005 34.52446935 -11.109375 36.3984375 C-14.12954384 35.30019429 -16.81469795 34.00560125 -19.546875 32.3359375 C-22.68384035 30.48540312 -25.45367991 29.75509068 -29.109375 29.3984375 C-29.109375 28.7384375 -29.109375 28.0784375 -29.109375 27.3984375 C-29.769375 26.7384375 -30.429375 26.0784375 -31.109375 25.3984375 C-28.62311126 18.68552541 -28.62311126 18.68552541 -25.984375 17.2109375 C-25.365625 16.9428125 -24.746875 16.6746875 -24.109375 16.3984375 C-23.965 15.7384375 -23.820625 15.0784375 -23.671875 14.3984375 C-23.48625 13.7384375 -23.300625 13.0784375 -23.109375 12.3984375 C-21.4617712 11.68596018 -19.79173971 11.02443367 -18.109375 10.3984375 C-16.75568904 9.08577232 -15.42137904 7.75276425 -14.109375 6.3984375 C-12.77604167 5.73177083 -11.44270833 5.06510417 -10.109375 4.3984375 C-9.243125 3.3465625 -9.243125 3.3465625 -8.359375 2.2734375 C-5.47744285 -0.12817263 -3.66403556 -0.17641653 0 0 Z " fill="#FBC700" transform="translate(130.109375,13.6015625)"/>
<path d="M0 0 C4.35581651 -0.10007178 8.71099593 -0.17202448 13.06762695 -0.21972656 C14.54463378 -0.23964487 16.02156384 -0.26679007 17.49829102 -0.30175781 C25.77503391 -0.49260845 33.03322246 -0.33214992 40.77148438 3.06054688 C43.85009827 4.35836746 46.68886706 4.70567707 50 5 C50.495 6.485 50.495 6.485 51 8 C53.28873616 9.57378316 53.28873616 9.57378316 56 11 C60.88888889 13.66666667 60.88888889 13.66666667 62 17 C62.66 17 63.32 17 64 17 C64 17.66 64 18.32 64 19 C64.66 19 65.32 19 66 19 C66 19.66 66 20.32 66 21 C67.485 21.495 67.485 21.495 69 22 C70.31640625 23.62890625 70.31640625 23.62890625 71.5625 25.5625 C72.74992017 27.46890121 72.74992017 27.46890121 74 29 C74.66 29 75.32 29 76 29 C76.103125 29.556875 76.20625 30.11375 76.3125 30.6875 C77.13526919 33.45499638 78.47271234 35.55633974 80 38 C82.64928904 42.8570299 83.46240124 48.05280609 84.5625 53.4375 C84.70107422 54.09298828 84.83964844 54.74847656 84.98242188 55.42382812 C85.71147542 59.00445069 86.16195037 62.34555472 86 66 C85.34 66 84.68 66 84 66 C84 65.34 84 64.68 84 64 C83.34 64 82.68 64 82 64 C81.67 63.34 81.34 62.68 81 62 C79.515 61.01 79.515 61.01 78 60 C75.85835461 57.92974279 73.81142171 55.79678777 71.78515625 53.61328125 C67.90066601 49.9685071 63.48685979 47.65966303 58.86328125 45.0625 C55.80090748 42.8565882 54.96470793 41.58497914 54 38 C53.34 38 52.68 38 52 38 C52 37.34 52 36.68 52 36 C51.34 36 50.68 36 50 36 C48.375 34.625 48.375 34.625 47 33 C47 32.34 47 31.68 47 31 C45.88625 31.12375 45.88625 31.12375 44.75 31.25 C42 31 42 31 40.25 29.1875 C37.01067812 26.03815928 33.2807735 25.20739765 29 24 C29 23.34 29 22.68 29 22 C23.39 22 17.78 22 12 22 C11.67 26.62 11.34 31.24 11 36 C8.25029364 36.81350483 5.50025107 37.62584054 2.75 38.4375 C1.97269531 38.66759766 1.19539063 38.89769531 0.39453125 39.13476562 C-0.35957031 39.35712891 -1.11367188 39.57949219 -1.890625 39.80859375 C-2.58188477 40.01282959 -3.27314453 40.21706543 -3.98535156 40.42749023 C-5.98114721 40.99464254 -7.98449654 41.50798004 -10 42 C-11.1687481 38.4937557 -11.12514267 35.3522134 -11.09765625 31.70703125 C-11.0962413 31.00100266 -11.09482635 30.29497406 -11.09336853 29.56755066 C-11.08777764 27.31582374 -11.07522688 25.06419679 -11.0625 22.8125 C-11.05748382 21.28450665 -11.05292112 19.75651173 -11.04882812 18.22851562 C-11.0378112 14.48563865 -11.02055287 10.74283627 -11 7 C-10.34 7 -9.68 7 -9 7 C-8.67 5.68 -8.34 4.36 -8 3 C-5.36 2.67 -2.72 2.34 0 2 C0 1.34 0 0.68 0 0 Z " fill="#FBC700" transform="translate(55,44)"/>
<path d="M0 0 C1.25159912 0.00523682 2.50319824 0.01047363 3.79272461 0.01586914 C4.78942421 0.01799156 4.78942421 0.01799156 5.80625916 0.02015686 C7.93590735 0.02577021 10.06545175 0.03832485 12.19506836 0.05102539 C13.63582205 0.05603868 15.07657739 0.06060188 16.51733398 0.06469727 C20.05577938 0.07574394 23.59416375 0.09301747 27.13256836 0.11352539 C27.13256836 0.77352539 27.13256836 1.43352539 27.13256836 2.11352539 C28.41131836 2.19602539 29.69006836 2.27852539 31.00756836 2.36352539 C33.21850586 2.62524414 33.21850586 2.62524414 35.13256836 3.11352539 C36.63256836 5.17602539 36.63256836 5.17602539 37.13256836 7.11352539 C37.46256836 7.11352539 37.79256836 7.11352539 38.13256836 7.11352539 C38.13256836 20.31352539 38.13256836 33.51352539 38.13256836 47.11352539 C37.47256836 47.11352539 36.81256836 47.11352539 36.13256836 47.11352539 C35.80256836 48.76352539 35.47256836 50.41352539 35.13256836 52.11352539 C34.47256836 52.11352539 33.81256836 52.11352539 33.13256836 52.11352539 C33.19444336 53.37165039 33.25631836 54.62977539 33.32006836 55.92602539 C33.31314956 59.86974077 33.31314956 59.86974077 31.88256836 61.80102539 C31.30506836 62.23415039 30.72756836 62.66727539 30.13256836 63.11352539 C27.5075164 66.29540656 24.9857369 69.40718831 23.13256836 73.11352539 C21.74770813 75.88324584 19.78091532 76.54427533 17.13256836 78.11352539 C15.59462799 79.36360171 14.07430445 80.63558935 12.57006836 81.92602539 C6.04037632 87.17309935 -1.34390692 92.93887579 -10.11743164 91.98852539 C-11.35493164 91.69977539 -12.59243164 91.41102539 -13.86743164 91.11352539 C-13.86743164 90.45352539 -13.86743164 89.79352539 -13.86743164 89.11352539 C-15.51743164 88.45352539 -17.16743164 87.79352539 -18.86743164 87.11352539 C-17.61783285 83.36472901 -15.65775626 81.90385001 -12.86743164 79.11352539 C-10.37718472 76.02022722 -8.24099893 73.08040544 -6.80493164 69.36352539 C-5.66065618 66.61726428 -4.40035426 65.6174482 -1.86743164 64.11352539 C-1.20743164 64.11352539 -0.54743164 64.11352539 0.13256836 64.11352539 C0.13256836 63.45352539 0.13256836 62.79352539 0.13256836 62.11352539 C1.30819336 61.24727539 1.30819336 61.24727539 2.50756836 60.36352539 C5.37552469 58.29574264 5.37552469 58.29574264 6.19506836 54.92602539 C6.50444336 53.99790039 6.81381836 53.06977539 7.13256836 52.11352539 C7.77709961 51.99106445 8.42163086 51.86860352 9.08569336 51.74243164 C9.76116211 51.53489258 10.43663086 51.32735352 11.13256836 51.11352539 C12.24186711 48.90224309 12.24186711 48.90224309 12.82006836 46.23852539 C13.16618164 44.91208008 13.16618164 44.91208008 13.51928711 43.55883789 C13.72166992 42.75188477 13.92405273 41.94493164 14.13256836 41.11352539 C14.46256836 40.12352539 14.79256836 39.13352539 15.13256836 38.11352539 C15.2030795 35.37487252 15.22614601 32.66324951 15.19506836 29.92602539 C15.19055664 29.17643555 15.18604492 28.4268457 15.18139648 27.65454102 C15.1696319 25.80750156 15.15169701 23.96050326 15.13256836 22.11352539 C10.84256836 22.11352539 6.55256836 22.11352539 2.13256836 22.11352539 C-2.68886021 6.68495396 -2.68886021 6.68495396 -3.86743164 1.11352539 C-2.86743164 0.11352539 -2.86743164 0.11352539 0 0 Z " fill="#FBC700" transform="translate(173.867431640625,43.886474609375)"/>
<path d="M0 0 C3.00269236 2.40215389 5.08180831 5.0090787 7.5 8 C8.49 8.66 9.48 9.32 10.5 10 C11.16 10.99 11.82 11.98 12.5 13 C13.82 12.34 15.14 11.68 16.5 11 C16.5 10.34 16.5 9.68 16.5 9 C18.16666667 8 19.83333333 7 21.5 6 C23.18662458 4.35353315 24.85511706 2.68816933 26.5 1 C27.49 0.34 28.48 -0.32 29.5 -1 C32.57421875 -0.171875 32.57421875 -0.171875 36.1875 1.25 C41.24869367 3.18800942 46.20381004 4.83483821 51.5 6 C49.63640034 9.86031357 47.60183742 13.02740581 44.5 16 C43.84 16.66 43.18 17.32 42.5 18 C33.5 27 33.5 27 30.9375 27.875 C29.7309375 28.431875 29.7309375 28.431875 28.5 29 C27.82843384 30.93618425 27.82843384 30.93618425 27.5 33 C26 34.625 26 34.625 24.5 36 C24.005 36.99 24.005 36.99 23.5 38 C22.736875 38.45375 21.97375 38.9075 21.1875 39.375 C18.51605453 40.99029261 16.61790496 42.72521319 14.5 45 C11.10391496 43.54453498 9.09139701 41.59139701 6.5 39 C5.4171875 38.4740625 5.4171875 38.4740625 4.3125 37.9375 C2.5 37 2.5 37 1.5 34 C0.984375 33.484375 0.46875 32.96875 -0.0625 32.4375 C-0.536875 31.963125 -1.01125 31.48875 -1.5 31 C-1.5 30.34 -1.5 29.68 -1.5 29 C-2.428125 28.773125 -3.35625 28.54625 -4.3125 28.3125 C-8.06890664 26.76574432 -8.6291311 25.47447082 -10.5 22 C-11.49 21.67 -12.48 21.34 -13.5 21 C-13.83 20.01 -14.16 19.02 -14.5 18 C-15.49 17.67 -16.48 17.34 -17.5 17 C-18.6875 14.9375 -18.6875 14.9375 -19.5 13 C-20.16 13 -20.82 13 -21.5 13 C-24.5 8.61538462 -24.5 8.61538462 -24.5 6 C-23.33082031 5.66226563 -22.16164063 5.32453125 -20.95703125 4.9765625 C-19.40881606 4.52617263 -17.86064109 4.0756445 -16.3125 3.625 C-15.54357422 3.40328125 -14.77464844 3.1815625 -13.98242188 2.953125 C-10.77187932 2.01614262 -7.6889993 1.08008877 -4.60546875 -0.2265625 C-2.5 -1 -2.5 -1 0 0 Z " fill="#FCC700" transform="translate(114.5,199)"/>
<path d="M0 0 C4.27070558 -0.08692074 8.54118458 -0.14036515 12.8125 -0.1875 C14.63491211 -0.22520508 14.63491211 -0.22520508 16.49414062 -0.26367188 C18.23920898 -0.27817383 18.23920898 -0.27817383 20.01953125 -0.29296875 C21.09307861 -0.3086792 22.16662598 -0.32438965 23.27270508 -0.34057617 C26.38042991 0.04750691 27.08472676 0.62287736 29 3 C31.34921028 4.52150925 33.73475825 5.96576451 36.13671875 7.40234375 C37.05904297 8.19318359 37.05904297 8.19318359 38 9 C38 10.32 38 11.64 38 13 C35.03 13.66 32.06 14.32 29 15 C29 15.66 29 16.32 29 17 C23.88591383 18.62720924 21.02359004 17.8775831 16.1875 15.5625 C10.39171433 12.42707497 4.48005828 8.89634688 0 4 C0 2.68 0 1.36 0 0 Z " fill="#FBC700" transform="translate(65,118)"/>
<path d="M0 0 C13.2 0 26.4 0 40 0 C40 0.33 40 0.66 40 1 C26.8 1 13.6 1 0 1 C0 0.67 0 0.34 0 0 Z " fill="#FFFF00" transform="translate(169,174)"/>
<path d="M0 0 C13.2 0 26.4 0 40 0 C40 0.33 40 0.66 40 1 C26.8 1 13.6 1 0 1 C0 0.67 0 0.34 0 0 Z " fill="#FFFF00" transform="translate(47,174)"/>
<path d="M0 0 C8.91 0 17.82 0 27 0 C27 0.33 27 0.66 27 1 C18.09 1 9.18 1 0 1 C0 0.67 0 0.34 0 0 Z " fill="#FFFF00" transform="translate(171,42)"/>
<path d="M0 0 C8.91 0 17.82 0 27 0 C27 0.33 27 0.66 27 1 C18.09 1 9.18 1 0 1 C0 0.67 0 0.34 0 0 Z " fill="#FFFF00" transform="translate(58,42)"/>
<path d="M0 0 C7.59 0 15.18 0 23 0 C23 0.33 23 0.66 23 1 C15.41 1 7.82 1 0 1 C0 0.67 0 0.34 0 0 Z " fill="#FFCE00" transform="translate(66,86)"/>
<path d="M0 0 C0.33 0 0.66 0 1 0 C1 7.26 1 14.52 1 22 C0.67 22 0.34 22 0 22 C0 14.74 0 7.48 0 0 Z " fill="#FFFF00" transform="translate(213,60)"/>
<path d="M0 0 C0.33 0 0.66 0 1 0 C1 7.26 1 14.52 1 22 C0.67 22 0.34 22 0 22 C0 14.74 0 7.48 0 0 Z " fill="#FFFF00" transform="translate(42,60)"/>
<path d="M0 0 C6.6 0 13.2 0 20 0 C20 0.33 20 0.66 20 1 C13.4 1 6.8 1 0 1 C0 0.67 0 0.34 0 0 Z " fill="#FFE900" transform="translate(67,111)"/>
<path d="M0 0 C0.33 0 0.66 0 1 0 C1 5.94 1 11.88 1 18 C0.67 18 0.34 18 0 18 C0 12.06 0 6.12 0 0 Z " fill="#FFFF00" transform="translate(169,68)"/>
<path d="M0 0 C0.33 0 0.66 0 1 0 C1 5.28 1 10.56 1 16 C0.67 16 0.34 16 0 16 C0 10.72 0 5.44 0 0 Z " fill="#FFC400" transform="translate(144,69)"/>
<path d="M0 0 C0.66 0 1.32 0 2 0 C2 4.62 2 9.24 2 14 C1.67 14 1.34 14 1 14 C0.67 9.38 0.34 4.76 0 0 Z " fill="#FFEE00" transform="translate(187,67)"/>
<path d="M0 0 C0.99 0.495 0.99 0.495 2 1 C1.67 4.96 1.34 8.92 1 13 C0.67 13 0.34 13 0 13 C0 8.71 0 4.42 0 0 Z " fill="#FFEC00" transform="translate(67,67)"/>
<path d="M0 0 C3.96 0 7.92 0 12 0 C12 0.33 12 0.66 12 1 C8.04 1 4.08 1 0 1 C0 0.67 0 0.34 0 0 Z " fill="#FFFF00" transform="translate(172,169)"/>
<path d="M0 0 C3.96 0 7.92 0 12 0 C12 0.33 12 0.66 12 1 C8.04 1 4.08 1 0 1 C0 0.67 0 0.34 0 0 Z " fill="#FFFF00" transform="translate(72,169)"/>
<path d="M0 0 C3.63 0 7.26 0 11 0 C11 0.33 11 0.66 11 1 C7.37 1 3.74 1 0 1 C0 0.67 0 0.34 0 0 Z " fill="#FFC600" transform="translate(173,144)"/>
<path d="M0 0 C3.63 0 7.26 0 11 0 C11 0.33 11 0.66 11 1 C7.37 1 3.74 1 0 1 C0 0.67 0 0.34 0 0 Z " fill="#FFC600" transform="translate(72,144)"/>
<path d="M0 0 C2.64 0 5.28 0 8 0 C8 0.33 8 0.66 8 1 C5.36 1 2.72 1 0 1 C0 0.67 0 0.34 0 0 Z " fill="#FFF400" transform="translate(75,67)"/>
<path d="M0 0 C2.31 0 4.62 0 7 0 C7 0.33 7 0.66 7 1 C4.69 1 2.38 1 0 1 C0 0.67 0 0.34 0 0 Z " fill="#FFFF00" transform="translate(71,116)"/>
<path d="M0 0 C0.33 0 0.66 0 1 0 C1 1.98 1 3.96 1 6 C0.67 6 0.34 6 0 6 C0 4.02 0 2.04 0 0 Z " fill="#FFF000" transform="translate(146,95)"/>
<path d="M0 0 C1.65 0 3.3 0 5 0 C5 0.33 5 0.66 5 1 C3.35 1 1.7 1 0 1 C0 0.67 0 0.34 0 0 Z " fill="#FFFF00" transform="translate(191,167)"/>
<path d="M0 0 C1.65 0 3.3 0 5 0 C5 0.33 5 0.66 5 1 C3.35 1 1.7 1 0 1 C0 0.67 0 0.34 0 0 Z " fill="#FFFF00" transform="translate(161,167)"/>
<path d="M0 0 C1.65 0 3.3 0 5 0 C5 0.33 5 0.66 5 1 C3.35 1 1.7 1 0 1 C0 0.67 0 0.34 0 0 Z " fill="#FFFF00" transform="translate(90,167)"/>
<path d="M0 0 C1.65 0 3.3 0 5 0 C5 0.33 5 0.66 5 1 C3.35 1 1.7 1 0 1 C0 0.67 0 0.34 0 0 Z " fill="#FFFF00" transform="translate(60,167)"/>
<path d="M0 0 C1.65 0 3.3 0 5 0 C5 0.33 5 0.66 5 1 C3.35 1 1.7 1 0 1 C0 0.67 0 0.34 0 0 Z " fill="#FFFF00" transform="translate(188,142)"/>
<path d="M0 0 C1.65 0 3.3 0 5 0 C5 0.33 5 0.66 5 1 C3.35 1 1.7 1 0 1 C0 0.67 0 0.34 0 0 Z " fill="#FFFF00" transform="translate(164,142)"/>
<path d="M0 0 C1.65 0 3.3 0 5 0 C5 0.33 5 0.66 5 1 C3.35 1 1.7 1 0 1 C0 0.67 0 0.34 0 0 Z " fill="#FFFF00" transform="translate(87,142)"/>
<path d="M0 0 C1.65 0 3.3 0 5 0 C5 0.33 5 0.66 5 1 C3.35 1 1.7 1 0 1 C0 0.67 0 0.34 0 0 Z " fill="#FFFF00" transform="translate(63,142)"/>
<path d="M0 0 C1.65 0 3.3 0 5 0 C5 0.33 5 0.66 5 1 C3.35 1 1.7 1 0 1 C0 0.67 0 0.34 0 0 Z " fill="#FFFF00" transform="translate(79,116)"/>
<path d="M0 0 C0.33 0 0.66 0 1 0 C1 1.65 1 3.3 1 5 C0.67 5 0.34 5 0 5 C0 3.35 0 1.7 0 0 Z " fill="#FFD400" transform="translate(141,99)"/>
<path d="M0 0 C0.33 0 0.66 0 1 0 C1 1.65 1 3.3 1 5 C0.67 5 0.34 5 0 5 C0 3.35 0 1.7 0 0 Z " fill="#FFFF00" transform="translate(167,91)"/>
<path d="M0 0 C0.33 0 0.66 0 1 0 C1 1.65 1 3.3 1 5 C0.67 5 0.34 5 0 5 C0 3.35 0 1.7 0 0 Z " fill="#FFE100" transform="translate(144,88)"/>
<path d="M0 0 C1.65 0 3.3 0 5 0 C5 0.33 5 0.66 5 1 C3.35 1 1.7 1 0 1 C0 0.67 0 0.34 0 0 Z " fill="#FFFF00" transform="translate(176,67)"/>
<path d="M0 0 C0.33 0 0.66 0 1 0 C1 1.65 1 3.3 1 5 C0.67 5 0.34 5 0 5 C0 3.35 0 1.7 0 0 Z " fill="#FFFF00" transform="translate(167,58)"/>
<path d="M0 0 C4 1 4 1 4 1 Z " fill="#FFFF00" transform="translate(159,202)"/>
<path d="M0 0 C4 1 4 1 4 1 Z " fill="#FFFF00" transform="translate(93,202)"/>
<path d="M0 0 C4 1 4 1 4 1 Z " fill="#FFE900" transform="translate(98,195)"/>
<path d="M0 0 C4 1 4 1 4 1 Z " fill="#FFFF00" transform="translate(159,172)"/>
<path d="M0 0 C4 1 4 1 4 1 Z " fill="#FFFF00" transform="translate(93,172)"/>
<path d="M0 0 C4 1 4 1 4 1 Z " fill="#FFFF00" transform="translate(154,171)"/>
<path d="M0 0 C4 1 4 1 4 1 Z " fill="#FFFF00" transform="translate(98,171)"/>
<path d="M0 0 C4 1 4 1 4 1 Z " fill="#FFFF00" transform="translate(90,113)"/>
<path d="M0 0 C4 1 4 1 4 1 Z " fill="#FFFF00" transform="translate(61,113)"/>
<path d="M0 0 C1 4 1 4 1 4 Z " fill="#FFD900" transform="translate(210,91)"/>
<path d="M0 0 C4 1 4 1 4 1 Z " fill="#FFFF00" transform="translate(57,88)"/>
<path d="M0 0 C4 1 4 1 4 1 Z " fill="#FFFF00" transform="translate(55,83)"/>
<path d="M0 0 C1 4 1 4 1 4 Z " fill="#FFFF00" transform="translate(142,62)"/>
<path d="M0 0 C1 4 1 4 1 4 Z " fill="#FFFF00" transform="translate(172,56)"/>
<path d="M0 0 C4 1 4 1 4 1 Z " fill="#FFFF00" transform="translate(89,44)"/>
<path d="M0 0 C4 1 4 1 4 1 Z " fill="#FFFF00" transform="translate(126,12)"/>
<path d="M0 0 C3 1 3 1 3 1 Z " fill="#FFCD00" transform="translate(149,199)"/>
<path d="M0 0 C3 1 3 1 3 1 Z " fill="#FFCD00" transform="translate(104,199)"/>
<path d="M0 0 C3 1 3 1 3 1 Z " fill="#FFE200" transform="translate(155,195)"/>
<path d="M0 0 C3 1 3 1 3 1 Z " fill="#FFFF00" transform="translate(186,168)"/>
<path d="M0 0 C3 1 3 1 3 1 Z " fill="#FFFF00" transform="translate(168,168)"/>
<path d="M0 0 C3 1 3 1 3 1 Z " fill="#FFFF00" transform="translate(85,168)"/>
<path d="M0 0 C3 1 3 1 3 1 Z " fill="#FFFF00" transform="translate(67,168)"/>
<path d="M0 0 C3 1 3 1 3 1 Z " fill="#FFC600" transform="translate(197,166)"/>
<path d="M0 0 C3 1 3 1 3 1 Z " fill="#FFC600" transform="translate(56,166)"/>
<path d="M0 0 C3 1 3 1 3 1 Z " fill="#FFFF00" transform="translate(155,165)"/>
<path d="M0 0 C3 1 3 1 3 1 Z " fill="#FFFF00" transform="translate(98,165)"/>
<path d="" fill="#FFFF00" transform="translate(0,0)"/>
<path d="M0 0 C3 1 3 1 3 1 Z " fill="#FFFF00" transform="translate(161,136)"/>
<path d="M0 0 C3 1 3 1 3 1 Z " fill="#FFFF00" transform="translate(107,133)"/>
<path d="" fill="#FFFF00" transform="translate(0,0)"/>
<path d="M0 0 C3 1 3 1 3 1 Z " fill="#FFE200" transform="translate(56,115)"/>
<path d="" fill="#FFE900" transform="translate(0,0)"/>
<path d="" fill="#FFFF00" transform="translate(0,0)"/>
<path d="M0 0 C0.66 0 1.32 0 2 0 C1.67 0.66 1.34 1.32 1 2 C0.67 1.34 0.34 0.68 0 0 Z " fill="#FFFF00" transform="translate(134,106)"/>
<path d="" fill="#FFE200" transform="translate(0,0)"/>
<path d="" fill="#FFE200" transform="translate(0,0)"/>
<path d="" fill="#FFE900" transform="translate(0,0)"/>
<path d="M0 0 C3 1 3 1 3 1 Z " fill="#FFE200" transform="translate(107,93)"/>
<path d="M0 0 C3 1 3 1 3 1 Z " fill="#FFFF00" transform="translate(103,91)"/>
<path d="M0 0 C3 1 3 1 3 1 Z " fill="#FFCD00" transform="translate(98,89)"/>
<path d="M0 0 C3 1 3 1 3 1 Z " fill="#FFE200" transform="translate(54,89)"/>
<path d="M0 0 C3 1 3 1 3 1 Z " fill="#FFFF00" transform="translate(49,85)"/>
<path d="M0 0 C0.66 0 1.32 0 2 0 C1.67 0.66 1.34 1.32 1 2 C0.67 1.34 0.34 0.68 0 0 Z " fill="#FFE900" transform="translate(102,78)"/>
<path d="M0 0 C3 1 3 1 3 1 Z " fill="#FFFF00" transform="translate(85,69)"/>
<path d="" fill="#FFE200" transform="translate(0,0)"/>
<path d="" fill="#FFFF00" transform="translate(0,0)"/>
<path d="" fill="#FFCD00" transform="translate(0,0)"/>
<path d="" fill="#FFCD00" transform="translate(0,0)"/>
<path d="" fill="#FFE900" transform="translate(0,0)"/>
<path d="M0 0 C3 1 3 1 3 1 Z " fill="#FFFF00" transform="translate(202,44)"/>
<path d="M0 0 C3 1 3 1 3 1 Z " fill="#FFFF00" transform="translate(51,44)"/>
<path d="M0 0 C2 1 2 1 2 1 Z " fill="#FFFF00" transform="translate(127,245)"/>
<path d="M0 0 C2 1 2 1 2 1 Z " fill="#FFFF00" transform="translate(127,211)"/>
<path d="M0 0 C2 1 2 1 2 1 Z " fill="#FFFF00" transform="translate(134,204)"/>
<path d="M0 0 C2 1 2 1 2 1 Z " fill="#FFFF00" transform="translate(120,204)"/>
<path d="M0 0 C2 1 2 1 2 1 Z " fill="#FFFF00" transform="translate(156,201)"/>
<path d="M0 0 C2 1 2 1 2 1 Z " fill="#FFFF00" transform="translate(98,201)"/>
<path d="M0 0 C2 1 2 1 2 1 Z " fill="#FFFF00" transform="translate(153,200)"/>
<path d="M0 0 C2 1 2 1 2 1 Z " fill="#FFFF00" transform="translate(101,200)"/>
<path d="M0 0 C2 1 2 1 2 1 Z " fill="#FFFF00" transform="translate(145,197)"/>
<path d="M0 0 C2 1 2 1 2 1 Z " fill="#FFFF00" transform="translate(109,197)"/>
<path d="M0 0 C2 1 2 1 2 1 Z " fill="#FFD400" transform="translate(158,196)"/>
<path d="M0 0 C2 1 2 1 2 1 Z " fill="#FFD400" transform="translate(96,196)"/>
<path d="M0 0 C2 1 2 1 2 1 Z " fill="#FFFF00" transform="translate(151,194)"/>
<path d="M0 0 C2 1 2 1 2 1 Z " fill="#FFFF00" transform="translate(103,194)"/>
<path d="M0 0 C2 1 2 1 2 1 Z " fill="#FFFF00" transform="translate(139,188)"/>
<path d="M0 0 C2 1 2 1 2 1 Z " fill="#FFFF00" transform="translate(115,188)"/>
<path d="M0 0 C2 1 2 1 2 1 Z " fill="#FFFF00" transform="translate(133,184)"/>
<path d="M0 0 C2 1 2 1 2 1 Z " fill="#FFFF00" transform="translate(121,184)"/>
<path d="M0 0 C2 1 2 1 2 1 Z " fill="#FFFF00" transform="translate(127,179)"/>
<path d="" fill="#FFFF00" transform="translate(0,0)"/>
<path d="" fill="#FFFF00" transform="translate(0,0)"/>
<path d="M0 0 C2 1 2 1 2 1 Z " fill="#FFAA00" transform="translate(149,169)"/>
<path d="M0 0 C2 1 2 1 2 1 Z " fill="#FFAA00" transform="translate(105,169)"/>
<path d="M0 0 C2 1 2 1 2 1 Z " fill="#FFFF00" transform="translate(145,167)"/>
<path d="M0 0 C2 1 2 1 2 1 Z " fill="#FFFF00" transform="translate(109,167)"/>
<path d="M0 0 C2 1 2 1 2 1 Z " fill="#FFB400" transform="translate(158,166)"/>
<path d="M0 0 C2 1 2 1 2 1 Z " fill="#FFB400" transform="translate(96,166)"/>
<path d="M0 0 C2 1 2 1 2 1 Z " fill="#FFFF00" transform="translate(200,165)"/>
<path d="M0 0 C2 1 2 1 2 1 Z " fill="#FFFF00" transform="translate(141,165)"/>
<path d="M0 0 C2 1 2 1 2 1 Z " fill="#FFFF00" transform="translate(113,165)"/>
<path d="M0 0 C2 1 2 1 2 1 Z " fill="#FFFF00" transform="translate(54,165)"/>
<path d="M0 0 C2 1 2 1 2 1 Z " fill="#FFFF00" transform="translate(203,164)"/>
<path d="M0 0 C2 1 2 1 2 1 Z " fill="#FFFF00" transform="translate(152,164)"/>
<path d="M0 0 C2 1 2 1 2 1 Z " fill="#FFFF00" transform="translate(102,164)"/>
<path d="M0 0 C2 1 2 1 2 1 Z " fill="#FFFF00" transform="translate(51,164)"/>
<path d="M0 0 C2 1 2 1 2 1 Z " fill="#FFFF00" transform="translate(137,163)"/>
<path d="M0 0 C2 1 2 1 2 1 Z " fill="#FFFF00" transform="translate(117,163)"/>
<path d="M0 0 C2 1 2 1 2 1 Z " fill="#FFE500" transform="translate(148,162)"/>
<path d="M0 0 C2 1 2 1 2 1 Z " fill="#FFE500" transform="translate(106,162)"/>
<path d="M0 0 C2 1 2 1 2 1 Z " fill="#FFFF00" transform="translate(144,160)"/>
<path d="M0 0 C2 1 2 1 2 1 Z " fill="#FFD400" transform="translate(133,160)"/>
<path d="M0 0 C2 1 2 1 2 1 Z " fill="#FFD400" transform="translate(121,160)"/>
<path d="M0 0 C2 1 2 1 2 1 Z " fill="#FFFF00" transform="translate(110,160)"/>
<path d="M0 0 C2 1 2 1 2 1 Z " fill="#FFD400" transform="translate(213,159)"/>
<path d="M0 0 C2 1 2 1 2 1 Z " fill="#FFD400" transform="translate(142,159)"/>
<path d="M0 0 C2 1 2 1 2 1 Z " fill="#FFD400" transform="translate(112,159)"/>
<path d="M0 0 C2 1 2 1 2 1 Z " fill="#FFD400" transform="translate(41,159)"/>
<path d="M0 0 C2 1 2 1 2 1 Z " fill="#FFD400" transform="translate(130,158)"/>
<path d="M0 0 C2 1 2 1 2 1 Z " fill="#FFD400" transform="translate(124,158)"/>
<path d="M0 0 C2 1 2 1 2 1 Z " fill="#FFFF00" transform="translate(139,157)"/>
<path d="M0 0 C2 1 2 1 2 1 Z " fill="#FFFF00" transform="translate(115,157)"/>
<path d="M0 0 C2 1 2 1 2 1 Z " fill="#FFFF00" transform="translate(127,156)"/>
<path d="M0 0 C2 1 2 1 2 1 Z " fill="#FFFF00" transform="translate(223,152)"/>
<path d="M0 0 C2 1 2 1 2 1 Z " fill="#FFFF00" transform="translate(31,152)"/>
<path d="" fill="#FFFF00" transform="translate(0,0)"/>
<path d="" fill="#FFD400" transform="translate(0,0)"/>
<path d="M0 0 C2 1 2 1 2 1 Z " fill="#FFFF00" transform="translate(153,137)"/>
<path d="M0 0 C2 1 2 1 2 1 Z " fill="#FFD400" transform="translate(101,137)"/>
<path d="M0 0 C2 1 2 1 2 1 Z " fill="#FFFF00" transform="translate(170,136)"/>
<path d="M0 0 C2 1 2 1 2 1 Z " fill="#FFFF00" transform="translate(91,136)"/>
<path d="M0 0 C2 1 2 1 2 1 Z " fill="#FFFF00" transform="translate(84,136)"/>
<path d="M0 0 C2 1 2 1 2 1 Z " fill="#FFFF00" transform="translate(104,135)"/>
<path d="M0 0 C2 1 2 1 2 1 Z " fill="#FFFF00" transform="translate(174,134)"/>
<path d="M0 0 C2 1 2 1 2 1 Z " fill="#FFFF00" transform="translate(80,134)"/>
<path d="M0 0 C2 1 2 1 2 1 Z " fill="#FFFF00" transform="translate(98,132)"/>
<path d="" fill="#FFFF00" transform="translate(0,0)"/>
<path d="" fill="#FFFF00" transform="translate(0,0)"/>
<path d="M0 0 C2 1 2 1 2 1 Z " fill="#FFDF00" transform="translate(182,129)"/>
<path d="M0 0 C2 1 2 1 2 1 Z " fill="#FFDF00" transform="translate(72,129)"/>
<path d="" fill="#FFFF00" transform="translate(0,0)"/>
<path d="" fill="#FFFF00" transform="translate(0,0)"/>
<path d="" fill="#FFFF00" transform="translate(0,0)"/>
<path d="" fill="#FFFF00" transform="translate(0,0)"/>
<path d="" fill="#FFD400" transform="translate(0,0)"/>
<path d="M0 0 C2 1 2 1 2 1 Z " fill="#FFFF00" transform="translate(96,121)"/>
<path d="" fill="#FFFF00" transform="translate(0,0)"/>
<path d="M0 0 C2 1 2 1 2 1 Z " fill="#FFFF00" transform="translate(94,120)"/>
<path d="M0 0 C2 1 2 1 2 1 Z " fill="#FFFF00" transform="translate(48,120)"/>
<path d="" fill="#FFFF00" transform="translate(0,0)"/>
<path d="" fill="#FFFF00" transform="translate(0,0)"/>
<path d="M0 0 C2 1 2 1 2 1 Z " fill="#FFE500" transform="translate(102,118)"/>
<path d="M0 0 C2 1 2 1 2 1 Z " fill="#FFD400" transform="translate(51,118)"/>
<path d="M0 0 C2 1 2 1 2 1 Z " fill="#FFFF00" transform="translate(100,117)"/>
<path d="M0 0 C2 1 2 1 2 1 Z " fill="#FFFF00" transform="translate(96,115)"/>
<path d="" fill="#FFD400" transform="translate(0,0)"/>
<path d="" fill="#FFD400" transform="translate(0,0)"/>
<path d="" fill="#FFFF00" transform="translate(0,0)"/>
<path d="" fill="#FFFF00" transform="translate(0,0)"/>
<path d="" fill="#FFFF00" transform="translate(0,0)"/>
<path d="" fill="#FFFF00" transform="translate(0,0)"/>
<path d="" fill="#FFFF00" transform="translate(0,0)"/>
<path d="" fill="#FFFF00" transform="translate(0,0)"/>
<path d="" fill="#FFFF00" transform="translate(0,0)"/>
<path d="M0 0 C2 1 2 1 2 1 Z " fill="#FFFF00" transform="translate(125,97)"/>
<path d="M0 0 C2 1 2 1 2 1 Z " fill="#FFFF00" transform="translate(38,97)"/>
<path d="M0 0 C2 1 2 1 2 1 Z " fill="#FFFF00" transform="translate(122,95)"/>
<path d="M0 0 C2 1 2 1 2 1 Z " fill="#FFDF00" transform="translate(45,93)"/>
<path d="" fill="#FFFF00" transform="translate(0,0)"/>
<path d="M0 0 C2 1 2 1 2 1 Z " fill="#FFFF00" transform="translate(118,92)"/>
<path d="M0 0 C2 1 2 1 2 1 Z " fill="#FFD400" transform="translate(47,92)"/>
<path d="M0 0 C2 1 2 1 2 1 Z " fill="#FFD400" transform="translate(49,91)"/>
<path d="M0 0 C2 1 2 1 2 1 Z " fill="#FFD400" transform="translate(114,90)"/>
<path d="M0 0 C2 1 2 1 2 1 Z " fill="#FFFF00" transform="translate(52,90)"/>
<path d="" fill="#FFFF00" transform="translate(0,0)"/>
<path d="" fill="#FFFF00" transform="translate(0,0)"/>
<path d="M0 0 C2 1 2 1 2 1 Z " fill="#FFFF00" transform="translate(63,87)"/>
<path d="" fill="#FFFF00" transform="translate(0,0)"/>
<path d="" fill="#FFD400" transform="translate(0,0)"/>
<path d="M0 0 C2 1 2 1 2 1 Z " fill="#FFFF00" transform="translate(52,84)"/>
<path d="M0 0 C2 1 2 1 2 1 Z " fill="#FFFF00" transform="translate(63,81)"/>
<path d="" fill="#FFFF00" transform="translate(0,0)"/>
<path d="M0 0 C2 1 2 1 2 1 Z " fill="#FFFF00" transform="translate(89,70)"/>
<path d="" fill="#FFFF00" transform="translate(0,0)"/>
<path d="" fill="#FFD400" transform="translate(0,0)"/>
<path d="" fill="#FFFF00" transform="translate(0,0)"/>
<path d="M0 0 C2 1 2 1 2 1 Z " fill="#FFFF00" transform="translate(117,51)"/>
<path d="M0 0 C2 1 2 1 2 1 Z " fill="#FFFF00" transform="translate(106,51)"/>
<path d="" fill="#FFD400" transform="translate(0,0)"/>
<path d="M0 0 C2 1 2 1 2 1 Z " fill="#FFFF00" transform="translate(98,47)"/>
<path d="M0 0 C2 1 2 1 2 1 Z " fill="#FFFF00" transform="translate(109,46)"/>
<path d="M0 0 C2 1 2 1 2 1 Z " fill="#FFFF00" transform="translate(96,46)"/>
<path d="M0 0 C2 1 2 1 2 1 Z " fill="#FFAA00" transform="translate(206,45)"/>
<path d="M0 0 C2 1 2 1 2 1 Z " fill="#FFD400" transform="translate(93,45)"/>
<path d="M0 0 C2 1 2 1 2 1 Z " fill="#FFAA00" transform="translate(48,45)"/>
<path d="M0 0 C2 1 2 1 2 1 Z " fill="#FFFF00" transform="translate(105,44)"/>
<path d="" fill="#FFFF00" transform="translate(0,0)"/>
<path d="" fill="#FFFF00" transform="translate(0,0)"/>
<path d="M0 0 C2 1 2 1 2 1 Z " fill="#FFAA00" transform="translate(127,41)"/>
<path d="" fill="#FFD400" transform="translate(0,0)"/>
<path d="" fill="#FFD400" transform="translate(0,0)"/>
<path d="M0 0 C2 1 2 1 2 1 Z " fill="#FFD400" transform="translate(140,20)"/>
<path d="M0 0 C2 1 2 1 2 1 Z " fill="#FFD400" transform="translate(114,20)"/>
<path d="" fill="#FFFF00" transform="translate(0,0)"/>
<path d="" fill="#FFFF00" transform="translate(0,0)"/>
<path d="" fill="#FFFF00" transform="translate(0,0)"/>
<path d="" fill="#FFFF00" transform="translate(0,0)"/>
<path d="" fill="#FFFF00" transform="translate(0,0)"/>
<path d="" fill="#FFFF00" transform="translate(0,0)"/>
<path d="" fill="#FFFF00" transform="translate(0,0)"/>
<path d="" fill="#FFFF00" transform="translate(0,0)"/>
<path d="" fill="#FFFF00" transform="translate(0,0)"/>
<path d="" fill="#FFFF00" transform="translate(0,0)"/>
<path d="" fill="#FFFF00" transform="translate(0,0)"/>
<path d="" fill="#FFFF00" transform="translate(0,0)"/>
<path d="" fill="#FFFF00" transform="translate(0,0)"/>
<path d="" fill="#FFFF00" transform="translate(0,0)"/>
<path d="" fill="#FFFF00" transform="translate(0,0)"/>
<path d="" fill="#FFFF00" transform="translate(0,0)"/>
<path d="" fill="#FFFF00" transform="translate(0,0)"/>
<path d="" fill="#FFFF00" transform="translate(0,0)"/>
<path d="" fill="#FFFF00" transform="translate(0,0)"/>
<path d="" fill="#FFFF00" transform="translate(0,0)"/>
<path d="" fill="#FFFF00" transform="translate(0,0)"/>
<path d="" fill="#FFFF00" transform="translate(0,0)"/>
<path d="" fill="#FFFF00" transform="translate(0,0)"/>
<path d="" fill="#FFFF00" transform="translate(0,0)"/>
<path d="" fill="#FFFF00" transform="translate(0,0)"/>
<path d="" fill="#FFFF00" transform="translate(0,0)"/>
<path d="" fill="#FFFF00" transform="translate(0,0)"/>
<path d="" fill="#FFFF00" transform="translate(0,0)"/>
<path d="" fill="#FFFF00" transform="translate(0,0)"/>
<path d="" fill="#FFFF00" transform="translate(0,0)"/>
<path d="" fill="#FFAA00" transform="translate(0,0)"/>
<path d="" fill="#FFAA00" transform="translate(0,0)"/>
<path d="" fill="#FFFF00" transform="translate(0,0)"/>
<path d="" fill="#FFFF00" transform="translate(0,0)"/>
<path d="" fill="#FFFF00" transform="translate(0,0)"/>
<path d="" fill="#FFFF00" transform="translate(0,0)"/>
<path d="" fill="#FFFF00" transform="translate(0,0)"/>
<path d="" fill="#FFFF00" transform="translate(0,0)"/>
<path d="" fill="#FFFF00" transform="translate(0,0)"/>
<path d="" fill="#FFFF00" transform="translate(0,0)"/>
<path d="" fill="#FFAA00" transform="translate(0,0)"/>
<path d="" fill="#FFAA00" transform="translate(0,0)"/>
<path d="" fill="#FFFF00" transform="translate(0,0)"/>
<path d="" fill="#FFFF00" transform="translate(0,0)"/>
<path d="" fill="#FFFF00" transform="translate(0,0)"/>
<path d="" fill="#FFFF00" transform="translate(0,0)"/>
<path d="" fill="#FFFF00" transform="translate(0,0)"/>
<path d="" fill="#FFFF00" transform="translate(0,0)"/>
<path d="" fill="#FFFF00" transform="translate(0,0)"/>
<path d="" fill="#FFFF00" transform="translate(0,0)"/>
<path d="" fill="#FFFF00" transform="translate(0,0)"/>
<path d="" fill="#FFFF00" transform="translate(0,0)"/>
<path d="" fill="#FFFF00" transform="translate(0,0)"/>
<path d="" fill="#FFFF00" transform="translate(0,0)"/>
<path d="" fill="#FFFF00" transform="translate(0,0)"/>
<path d="" fill="#FFFF00" transform="translate(0,0)"/>
<path d="" fill="#FFFF00" transform="translate(0,0)"/>
<path d="" fill="#FFFF00" transform="translate(0,0)"/>
<path d="" fill="#FFFF00" transform="translate(0,0)"/>
<path d="" fill="#FFFF00" transform="translate(0,0)"/>
<path d="" fill="#FFFF00" transform="translate(0,0)"/>
<path d="" fill="#FFFF00" transform="translate(0,0)"/>
<path d="" fill="#FFFF00" transform="translate(0,0)"/>
<path d="" fill="#FFFF00" transform="translate(0,0)"/>
<path d="" fill="#FFFF00" transform="translate(0,0)"/>
<path d="" fill="#FFFF00" transform="translate(0,0)"/>
<path d="" fill="#FFFF00" transform="translate(0,0)"/>
<path d="" fill="#FFFF00" transform="translate(0,0)"/>
<path d="" fill="#FFFF00" transform="translate(0,0)"/>
<path d="" fill="#FFFF00" transform="translate(0,0)"/>
<path d="" fill="#FFFF00" transform="translate(0,0)"/>
<path d="" fill="#FFFF00" transform="translate(0,0)"/>
<path d="" fill="#FFFF00" transform="translate(0,0)"/>
<path d="" fill="#FFFF00" transform="translate(0,0)"/>
<path d="" fill="#FFFF00" transform="translate(0,0)"/>
<path d="" fill="#FFFF00" transform="translate(0,0)"/>
<path d="" fill="#FFFF00" transform="translate(0,0)"/>
<path d="" fill="#FFFF00" transform="translate(0,0)"/>
<path d="" fill="#FFFF00" transform="translate(0,0)"/>
<path d="" fill="#FFFF00" transform="translate(0,0)"/>
<path d="" fill="#FFFF00" transform="translate(0,0)"/>
<path d="" fill="#FFFF00" transform="translate(0,0)"/>
<path d="" fill="#FFFF00" transform="translate(0,0)"/>
<path d="" fill="#FFFF00" transform="translate(0,0)"/>
<path d="" fill="#FFFF00" transform="translate(0,0)"/>
<path d="" fill="#FFFF00" transform="translate(0,0)"/>
<path d="" fill="#FFFF00" transform="translate(0,0)"/>
<path d="" fill="#FFFF00" transform="translate(0,0)"/>
<path d="" fill="#FFAA00" transform="translate(0,0)"/>
<path d="" fill="#FFAA00" transform="translate(0,0)"/>
<path d="" fill="#FFFF00" transform="translate(0,0)"/>
<path d="" fill="#FFFF00" transform="translate(0,0)"/>
<path d="" fill="#FFFF00" transform="translate(0,0)"/>
<path d="" fill="#FFFF00" transform="translate(0,0)"/>
<path d="" fill="#FFFF00" transform="translate(0,0)"/>
<path d="" fill="#FFFF00" transform="translate(0,0)"/>
<path d="" fill="#FFFF00" transform="translate(0,0)"/>
<path d="" fill="#FFFF00" transform="translate(0,0)"/>
<path d="" fill="#FFFF00" transform="translate(0,0)"/>
<path d="" fill="#FFFF00" transform="translate(0,0)"/>
<path d="" fill="#FFAA00" transform="translate(0,0)"/>
<path d="" fill="#FFAA00" transform="translate(0,0)"/>
<path d="" fill="#FFFF00" transform="translate(0,0)"/>
<path d="" fill="#FFFF00" transform="translate(0,0)"/>
<path d="" fill="#FFFF00" transform="translate(0,0)"/>
<path d="" fill="#FFFF00" transform="translate(0,0)"/>
<path d="" fill="#FFFF00" transform="translate(0,0)"/>
<path d="" fill="#FFFF00" transform="translate(0,0)"/>
<path d="" fill="#FFBF00" transform="translate(0,0)"/>
<path d="" fill="#FFAA00" transform="translate(0,0)"/>
<path d="" fill="#FFFF00" transform="translate(0,0)"/>
<path d="" fill="#FFFF00" transform="translate(0,0)"/>
<path d="" fill="#FFFF00" transform="translate(0,0)"/>
<path d="" fill="#FFFF00" transform="translate(0,0)"/>
<path d="" fill="#FFFF00" transform="translate(0,0)"/>
<path d="" fill="#FFFF00" transform="translate(0,0)"/>
<path d="" fill="#FFFF00" transform="translate(0,0)"/>
<path d="" fill="#FFFF00" transform="translate(0,0)"/>
<path d="" fill="#FFFF00" transform="translate(0,0)"/>
<path d="" fill="#FFFF00" transform="translate(0,0)"/>
<path d="" fill="#FFFF00" transform="translate(0,0)"/>
<path d="" fill="#FFFF00" transform="translate(0,0)"/>
<path d="" fill="#FFFF00" transform="translate(0,0)"/>
<path d="" fill="#FFFF00" transform="translate(0,0)"/>
<path d="" fill="#FFFF00" transform="translate(0,0)"/>
<path d="" fill="#FFFF00" transform="translate(0,0)"/>
<path d="" fill="#FFFF00" transform="translate(0,0)"/>
<path d="" fill="#FFFF00" transform="translate(0,0)"/>
<path d="" fill="#FFFF00" transform="translate(0,0)"/>
<path d="" fill="#FFFF00" transform="translate(0,0)"/>
<path d="" fill="#FFFF00" transform="translate(0,0)"/>
<path d="" fill="#FFFF00" transform="translate(0,0)"/>
<path d="" fill="#FFFF00" transform="translate(0,0)"/>
<path d="" fill="#FFAA00" transform="translate(0,0)"/>
<path d="" fill="#FFFF00" transform="translate(0,0)"/>
<path d="" fill="#FFFF00" transform="translate(0,0)"/>
<path d="" fill="#FFFF00" transform="translate(0,0)"/>
<path d="" fill="#FFFF00" transform="translate(0,0)"/>
<path d="" fill="#FFFF00" transform="translate(0,0)"/>
<path d="" fill="#FFFF00" transform="translate(0,0)"/>
<path d="" fill="#FFFF00" transform="translate(0,0)"/>
<path d="" fill="#FFFF00" transform="translate(0,0)"/>
<path d="" fill="#FFFF00" transform="translate(0,0)"/>
<path d="" fill="#FFFF00" transform="translate(0,0)"/>
<path d="" fill="#FFAA00" transform="translate(0,0)"/>
<path d="" fill="#FFFF00" transform="translate(0,0)"/>
<path d="" fill="#FFFF00" transform="translate(0,0)"/>
<path d="" fill="#FFFF00" transform="translate(0,0)"/>
<path d="" fill="#FFFF00" transform="translate(0,0)"/>
<path d="" fill="#FFFF00" transform="translate(0,0)"/>
<path d="" fill="#FFFF00" transform="translate(0,0)"/>
<path d="" fill="#FFFF00" transform="translate(0,0)"/>
<path d="" fill="#FFFF00" transform="translate(0,0)"/>
<path d="" fill="#FFFF00" transform="translate(0,0)"/>
<path d="" fill="#FFFF00" transform="translate(0,0)"/>
<path d="" fill="#FFFF00" transform="translate(0,0)"/>
<path d="" fill="#FFFF00" transform="translate(0,0)"/>
<path d="" fill="#FFFF00" transform="translate(0,0)"/>
<path d="" fill="#FFFF00" transform="translate(0,0)"/>
<path d="" fill="#FFFF00" transform="translate(0,0)"/>
<path d="" fill="#FFFF00" transform="translate(0,0)"/>
<path d="" fill="#FFFF00" transform="translate(0,0)"/>
<path d="" fill="#FFFF00" transform="translate(0,0)"/>
<path d="" fill="#FFFF00" transform="translate(0,0)"/>
<path d="" fill="#FFFF00" transform="translate(0,0)"/>
<path d="" fill="#FFFF00" transform="translate(0,0)"/>
<path d="" fill="#FFFF00" transform="translate(0,0)"/>
<path d="" fill="#FFFF00" transform="translate(0,0)"/>
<path d="" fill="#FFFF00" transform="translate(0,0)"/>
<path d="" fill="#FFFF00" transform="translate(0,0)"/>
<path d="" fill="#FFFF00" transform="translate(0,0)"/>
<path d="" fill="#FFFF00" transform="translate(0,0)"/>
<path d="" fill="#FFFF00" transform="translate(0,0)"/>
<path d="" fill="#FFFF00" transform="translate(0,0)"/>
<path d="" fill="#FFFF00" transform="translate(0,0)"/>
<path d="" fill="#FFFF00" transform="translate(0,0)"/>
<path d="" fill="#FFFF00" transform="translate(0,0)"/>
<path d="" fill="#FFAA00" transform="translate(0,0)"/>
<path d="" fill="#FFFF00" transform="translate(0,0)"/>
<path d="" fill="#FFFF00" transform="translate(0,0)"/>
<path d="" fill="#FFFF00" transform="translate(0,0)"/>
<path d="" fill="#FFFF00" transform="translate(0,0)"/>
<path d="" fill="#FFAA00" transform="translate(0,0)"/>
<path d="" fill="#FFFF00" transform="translate(0,0)"/>
<path d="" fill="#FFFF00" transform="translate(0,0)"/>
<path d="" fill="#FFFF00" transform="translate(0,0)"/>
<path d="" fill="#FFFF00" transform="translate(0,0)"/>
<path d="" fill="#FFFF00" transform="translate(0,0)"/>
<path d="" fill="#FFFF00" transform="translate(0,0)"/>
<path d="" fill="#FFFF00" transform="translate(0,0)"/>
<path d="" fill="#FFFF00" transform="translate(0,0)"/>
<path d="" fill="#FFFF00" transform="translate(0,0)"/>
<path d="" fill="#FFFF00" transform="translate(0,0)"/>
<path d="" fill="#FFFF00" transform="translate(0,0)"/>
<path d="" fill="#FFFF00" transform="translate(0,0)"/>
<path d="" fill="#FFFF00" transform="translate(0,0)"/>
<path d="" fill="#FFFF00" transform="translate(0,0)"/>
<path d="" fill="#FFFF00" transform="translate(0,0)"/>
<path d="" fill="#FFFF00" transform="translate(0,0)"/>
<path d="" fill="#FFFF00" transform="translate(0,0)"/>
<path d="" fill="#FFFF00" transform="translate(0,0)"/>
<path d="" fill="#FFFF00" transform="translate(0,0)"/>
<path d="" fill="#FFAA00" transform="translate(0,0)"/>
<path d="" fill="#FFFF00" transform="translate(0,0)"/>
<path d="" fill="#FFFF00" transform="translate(0,0)"/>
<path d="" fill="#FFFF00" transform="translate(0,0)"/>
<path d="" fill="#FFFF00" transform="translate(0,0)"/>
<path d="" fill="#FFFF00" transform="translate(0,0)"/>
<path d="" fill="#FFFF00" transform="translate(0,0)"/>
<path d="" fill="#FFFF00" transform="translate(0,0)"/>
<path d="" fill="#FFCC00" transform="translate(0,0)"/>
<path d="" fill="#FFFF00" transform="translate(0,0)"/>
<path d="" fill="#FFAA00" transform="translate(0,0)"/>
<path d="" fill="#FFFF00" transform="translate(0,0)"/>
<path d="" fill="#FFCC00" transform="translate(0,0)"/>
<path d="" fill="#FFFF00" transform="translate(0,0)"/>
<path d="" fill="#FFFF00" transform="translate(0,0)"/>
<path d="" fill="#FFFF00" transform="translate(0,0)"/>
<path d="" fill="#FFBF00" transform="translate(0,0)"/>
<path d="" fill="#FFFF00" transform="translate(0,0)"/>
<path d="" fill="#FFAA00" transform="translate(0,0)"/>
<path d="" fill="#FFFF00" transform="translate(0,0)"/>
<path d="" fill="#FFFF00" transform="translate(0,0)"/>
<path d="" fill="#FFFF00" transform="translate(0,0)"/>
<path d="" fill="#FFFF00" transform="translate(0,0)"/>
<path d="" fill="#FFAA00" transform="translate(0,0)"/>
<path d="" fill="#FFFF00" transform="translate(0,0)"/>
<path d="" fill="#FFFF00" transform="translate(0,0)"/>
<path d="" fill="#FFFF00" transform="translate(0,0)"/>
<path d="" fill="#FFFF00" transform="translate(0,0)"/>
<path d="" fill="#FFAA00" transform="translate(0,0)"/>
<path d="" fill="#FFAA00" transform="translate(0,0)"/>
<path d="" fill="#FFFF00" transform="translate(0,0)"/>
<path d="" fill="#FFFF00" transform="translate(0,0)"/>
<path d="" fill="#FFFF00" transform="translate(0,0)"/>
<path d="" fill="#FFFF00" transform="translate(0,0)"/>
<path d="" fill="#FFFF00" transform="translate(0,0)"/>
<path d="" fill="#FFAA00" transform="translate(0,0)"/>
<path d="" fill="#FFFF00" transform="translate(0,0)"/>
<path d="" fill="#FFFF00" transform="translate(0,0)"/>
<path d="" fill="#FFBF00" transform="translate(0,0)"/>
<path d="" fill="#FFFF00" transform="translate(0,0)"/>
<path d="" fill="#FFAA00" transform="translate(0,0)"/>
<path d="" fill="#FFFF00" transform="translate(0,0)"/>
<path d="" fill="#FFFF00" transform="translate(0,0)"/>
<path d="" fill="#FFFF00" transform="translate(0,0)"/>
<path d="" fill="#FFFF00" transform="translate(0,0)"/>
<path d="" fill="#FFFF00" transform="translate(0,0)"/>
<path d="" fill="#FFFF00" transform="translate(0,0)"/>
<path d="" fill="#FFFF00" transform="translate(0,0)"/>
<path d="" fill="#FFFF00" transform="translate(0,0)"/>
<path d="" fill="#FFFF00" transform="translate(0,0)"/>
<path d="" fill="#FFFF00" transform="translate(0,0)"/>
<path d="" fill="#FFFF00" transform="translate(0,0)"/>
<path d="" fill="#FFFF00" transform="translate(0,0)"/>
<path d="" fill="#FFFF00" transform="translate(0,0)"/>
<path d="" fill="#FFAA00" transform="translate(0,0)"/>
<path d="" fill="#FFFF00" transform="translate(0,0)"/>
<path d="" fill="#FFFF00" transform="translate(0,0)"/>
<path d="" fill="#FFFF00" transform="translate(0,0)"/>
<path d="" fill="#FFFF00" transform="translate(0,0)"/>
<path d="" fill="#FFFF00" transform="translate(0,0)"/>
<path d="" fill="#FFFF00" transform="translate(0,0)"/>
<path d="" fill="#FFFF00" transform="translate(0,0)"/>
<path d="" fill="#FFFF00" transform="translate(0,0)"/>
<path d="" fill="#FFFF00" transform="translate(0,0)"/>
<path d="" fill="#FFAA00" transform="translate(0,0)"/>
<path d="" fill="#FFFF00" transform="translate(0,0)"/>
<path d="" fill="#FFFF00" transform="translate(0,0)"/>
<path d="" fill="#FFFF00" transform="translate(0,0)"/>
<path d="" fill="#FFAA00" transform="translate(0,0)"/>
<path d="" fill="#FFAA00" transform="translate(0,0)"/>
<path d="" fill="#FFFF00" transform="translate(0,0)"/>
<path d="" fill="#FFFF00" transform="translate(0,0)"/>
<path d="" fill="#FFFF00" transform="translate(0,0)"/>
<path d="" fill="#FFFF00" transform="translate(0,0)"/>
<path d="" fill="#FFFF00" transform="translate(0,0)"/>
<path d="" fill="#FFFF00" transform="translate(0,0)"/>
<path d="" fill="#FFAA00" transform="translate(0,0)"/>
<path d="" fill="#FFFF00" transform="translate(0,0)"/>
<path d="" fill="#FFFF00" transform="translate(0,0)"/>
<path d="" fill="#FFFF00" transform="translate(0,0)"/>
<path d="" fill="#FFFF00" transform="translate(0,0)"/>
<path d="" fill="#FFFF00" transform="translate(0,0)"/>
<path d="" fill="#FFFF00" transform="translate(0,0)"/>
<path d="" fill="#FFAA00" transform="translate(0,0)"/>
<path d="" fill="#FFFF00" transform="translate(0,0)"/>
<path d="" fill="#FFFF00" transform="translate(0,0)"/>
<path d="" fill="#FFFF00" transform="translate(0,0)"/>
<path d="" fill="#FFAA00" transform="translate(0,0)"/>
<path d="" fill="#FFFF00" transform="translate(0,0)"/>
<path d="" fill="#FFFF00" transform="translate(0,0)"/>
<path d="" fill="#FFFF00" transform="translate(0,0)"/>
<path d="" fill="#FFFF00" transform="translate(0,0)"/>
<path d="" fill="#FFFF00" transform="translate(0,0)"/>
<path d="" fill="#FFFF00" transform="translate(0,0)"/>
<path d="" fill="#FFFF00" transform="translate(0,0)"/>
<path d="" fill="#FFFF00" transform="translate(0,0)"/>
<path d="" fill="#FFFF00" transform="translate(0,0)"/>
<path d="" fill="#FFAA00" transform="translate(0,0)"/>
<path d="" fill="#FFFF00" transform="translate(0,0)"/>
<path d="" fill="#FFFF00" transform="translate(0,0)"/>
<path d="" fill="#FFFF00" transform="translate(0,0)"/>
<path d="" fill="#FFFF00" transform="translate(0,0)"/>
<path d="" fill="#FFFF00" transform="translate(0,0)"/>
<path d="" fill="#FFFF00" transform="translate(0,0)"/>
<path d="" fill="#FFFF00" transform="translate(0,0)"/>
<path d="" fill="#FFFF00" transform="translate(0,0)"/>
<path d="" fill="#FFFF00" transform="translate(0,0)"/>
<path d="" fill="#FFFF00" transform="translate(0,0)"/>
<path d="" fill="#FFFF00" transform="translate(0,0)"/>
<path d="" fill="#FFFF00" transform="translate(0,0)"/>
<path d="" fill="#FFFF00" transform="translate(0,0)"/>
<path d="" fill="#FFFF00" transform="translate(0,0)"/>
<path d="" fill="#FFFF00" transform="translate(0,0)"/>
<path d="" fill="#FFFF00" transform="translate(0,0)"/>
<path d="" fill="#FFFF00" transform="translate(0,0)"/>
<path d="" fill="#FFFF00" transform="translate(0,0)"/>
<path d="" fill="#FFFF00" transform="translate(0,0)"/>
<path d="" fill="#FFFF00" transform="translate(0,0)"/>
<path d="" fill="#FFFF00" transform="translate(0,0)"/>
<path d="" fill="#FFFF00" transform="translate(0,0)"/>
<path d="" fill="#FFFF00" transform="translate(0,0)"/>
<path d="" fill="#FFFF00" transform="translate(0,0)"/>
<path d="" fill="#FFFF00" transform="translate(0,0)"/>
<path d="" fill="#FFFF00" transform="translate(0,0)"/>
<path d="" fill="#FFFF00" transform="translate(0,0)"/>
<path d="" fill="#FFFF00" transform="translate(0,0)"/>
<path d="" fill="#FFFF00" transform="translate(0,0)"/>
<path d="" fill="#FFFF00" transform="translate(0,0)"/>
<path d="" fill="#FFFF00" transform="translate(0,0)"/>
<path d="" fill="#FFFF00" transform="translate(0,0)"/>
<path d="" fill="#FFFF00" transform="translate(0,0)"/>
<path d="" fill="#FFFF00" transform="translate(0,0)"/>
<path d="" fill="#FFFF00" transform="translate(0,0)"/>
<path d="" fill="#FFAA00" transform="translate(0,0)"/>
<path d="" fill="#FFFF00" transform="translate(0,0)"/>
<path d="" fill="#FFAA00" transform="translate(0,0)"/>
<path d="" fill="#FFFF00" transform="translate(0,0)"/>
<path d="" fill="#FFFF00" transform="translate(0,0)"/>
<path d="" fill="#FFFF00" transform="translate(0,0)"/>
<path d="" fill="#FFFF00" transform="translate(0,0)"/>
<path d="" fill="#FFFF00" transform="translate(0,0)"/>
<path d="" fill="#FFAA00" transform="translate(0,0)"/>
<path d="" fill="#FFFF00" transform="translate(0,0)"/>
<path d="" fill="#FFFF00" transform="translate(0,0)"/>
<path d="" fill="#FFAA00" transform="translate(0,0)"/>
<path d="" fill="#FFFF00" transform="translate(0,0)"/>
<path d="" fill="#FFFF00" transform="translate(0,0)"/>
<path d="" fill="#FFFF00" transform="translate(0,0)"/>
<path d="" fill="#FFFF00" transform="translate(0,0)"/>
<path d="" fill="#FFFF00" transform="translate(0,0)"/>
<path d="" fill="#FFFF00" transform="translate(0,0)"/>
<path d="" fill="#FFAA00" transform="translate(0,0)"/>
<path d="" fill="#FFFF00" transform="translate(0,0)"/>
<path d="" fill="#FFFF00" transform="translate(0,0)"/>
<path d="" fill="#FFFF00" transform="translate(0,0)"/>
<path d="" fill="#FFFF00" transform="translate(0,0)"/>
<path d="" fill="#FFFF00" transform="translate(0,0)"/>
<path d="" fill="#FFFF00" transform="translate(0,0)"/>
<path d="" fill="#FFFF00" transform="translate(0,0)"/>
<path d="" fill="#FFFF00" transform="translate(0,0)"/>
<path d="" fill="#FFFF00" transform="translate(0,0)"/>
<path d="" fill="#FFFF00" transform="translate(0,0)"/>
<path d="" fill="#FFFF00" transform="translate(0,0)"/>
<path d="" fill="#FFFF00" transform="translate(0,0)"/>
<path d="" fill="#FFFF00" transform="translate(0,0)"/>
<path d="" fill="#FFFF00" transform="translate(0,0)"/>
<path d="" fill="#FFFF00" transform="translate(0,0)"/>
<path d="" fill="#FFFF00" transform="translate(0,0)"/>
<path d="" fill="#FFFF00" transform="translate(0,0)"/>
<path d="" fill="#FFFF00" transform="translate(0,0)"/>
<path d="" fill="#FFFF00" transform="translate(0,0)"/>
<path d="" fill="#FFBF00" transform="translate(0,0)"/>
<path d="" fill="#FFFF00" transform="translate(0,0)"/>
<path d="" fill="#FFFF00" transform="translate(0,0)"/>
<path d="" fill="#FFFF00" transform="translate(0,0)"/>
<path d="" fill="#FFFF00" transform="translate(0,0)"/>
<path d="" fill="#FFFF00" transform="translate(0,0)"/>
<path d="" fill="#FFFF00" transform="translate(0,0)"/>
<path d="" fill="#FFFF00" transform="translate(0,0)"/>
<path d="" fill="#FFAA00" transform="translate(0,0)"/>
<path d="" fill="#FFAA00" transform="translate(0,0)"/>
<path d="" fill="#FFFF00" transform="translate(0,0)"/>
<path d="" fill="#FFFF00" transform="translate(0,0)"/>
<path d="" fill="#FFFF00" transform="translate(0,0)"/>
<path d="" fill="#FFFF00" transform="translate(0,0)"/>
<path d="" fill="#FFFF00" transform="translate(0,0)"/>
<path d="" fill="#FFFF00" transform="translate(0,0)"/>
<path d="" fill="#FFFF00" transform="translate(0,0)"/>
<path d="" fill="#FFFF00" transform="translate(0,0)"/>
<path d="" fill="#FFFF00" transform="translate(0,0)"/>
<path d="" fill="#FFFF00" transform="translate(0,0)"/>
<path d="" fill="#FFFF00" transform="translate(0,0)"/>
<path d="" fill="#FFFF00" transform="translate(0,0)"/>
<path d="" fill="#FFFF00" transform="translate(0,0)"/>
<path d="" fill="#FFFF00" transform="translate(0,0)"/>
<path d="" fill="#FFFF00" transform="translate(0,0)"/>
<path d="" fill="#FFFF00" transform="translate(0,0)"/>
<path d="" fill="#FFFF00" transform="translate(0,0)"/>
<path d="" fill="#FFFF00" transform="translate(0,0)"/>
<path d="" fill="#FFAA00" transform="translate(0,0)"/>
<path d="" fill="#FFAA00" transform="translate(0,0)"/>
<path d="" fill="#FFFF00" transform="translate(0,0)"/>
<path d="" fill="#FFFF00" transform="translate(0,0)"/>
<path d="" fill="#FFFF00" transform="translate(0,0)"/>
<path d="" fill="#FFFF00" transform="translate(0,0)"/>
<path d="" fill="#FFBF00" transform="translate(0,0)"/>
<path d="" fill="#FFBF00" transform="translate(0,0)"/>
<path d="" fill="#FFFF00" transform="translate(0,0)"/>
<path d="" fill="#FFFF00" transform="translate(0,0)"/>
</svg>
