<?xml version="1.0" encoding="UTF-8"?>
<svg version="1.1" xmlns="http://www.w3.org/2000/svg" width="256" height="256">
<path d="M0 0 C0.99322266 0.00515625 1.98644531 0.0103125 3.00976562 0.015625 C4.55760742 0.0465625 4.55760742 0.0465625 6.13671875 0.078125 C7.15701172 0.08328125 8.17730469 0.0884375 9.22851562 0.09375 C13.45785467 0.13749236 17.49130697 0.2782051 21.6796875 0.90625 C25.06571152 1.36052403 27.48108807 0.9684759 30.82421875 0.328125 C33.90638825 -0.01353738 36.9764348 -0.17375163 40.07421875 -0.296875 C40.86957031 -0.36777344 41.66492188 -0.43867187 42.484375 -0.51171875 C46.52643785 -0.63578853 48.93085088 -0.37565325 52.16992188 2.17602539 C53.80614658 3.77596016 55.43776507 5.38061538 57.06542969 6.98925781 C61.96838427 11.14592196 67.82353626 12.91602723 73.82421875 15.015625 C89.83242707 20.77071271 99.97025649 27.76829572 111.87817383 39.75073242 C114.02781778 41.90677192 116.20302143 44.034595 118.38085938 46.16210938 C119.75291907 47.52962956 121.12342094 48.89871494 122.4921875 50.26953125 C123.1440654 50.90298965 123.7959433 51.53644806 124.46757507 52.18910217 C128.82180011 56.63550811 128.82180011 56.63550811 128.83422852 60.19458008 C127.50954416 62.9928437 126.43935023 63.35328421 123.57421875 64.453125 C107.02224624 71.98106659 95.79526062 87.54333858 87.82421875 103.328125 C87.09795048 105.30726088 86.40295942 107.30093392 85.82421875 109.328125 C85.16421875 109.328125 84.50421875 109.328125 83.82421875 109.328125 C83.82421875 102.728125 83.82421875 96.128125 83.82421875 89.328125 C70.25484606 99.50515452 62.8322091 111.42477534 54.953125 126.28125 C53.82421875 128.328125 53.82421875 128.328125 52.82421875 129.328125 C50.73802853 129.42230273 48.64861398 129.44555378 46.56030273 129.44165039 C45.57984985 129.44186943 45.57984985 129.44186943 44.57958984 129.4420929 C42.40979747 129.44139383 40.24008996 129.43360178 38.0703125 129.42578125 C36.56958564 129.42391705 35.06885818 129.42249316 33.56813049 129.42149353 C29.61103649 129.41766852 25.65397897 129.4078384 21.69689941 129.39678955 C17.66187026 129.38657506 13.62683522 129.38199583 9.59179688 129.37695312 C1.66925406 129.36621611 -6.25325906 129.3491399 -14.17578125 129.328125 C-13.65177734 128.22404297 -13.65177734 128.22404297 -13.1171875 127.09765625 C-12.66214844 126.12183594 -12.20710938 125.14601563 -11.73828125 124.140625 C-11.28582031 123.17769531 -10.83335938 122.21476562 -10.3671875 121.22265625 C-9.27196703 118.56180914 -8.62623329 116.16027745 -8.17578125 113.328125 C-9.16578125 113.328125 -10.15578125 113.328125 -11.17578125 113.328125 C-11.50578125 113.988125 -11.83578125 114.648125 -12.17578125 115.328125 C-18.56586179 114.91138062 -23.83805139 112.8928327 -29.17578125 109.328125 C-33.28798411 104.26695225 -34.15563195 98.75027225 -35.3671875 92.4140625 C-36.02812421 89.29249445 -36.02812421 89.29249445 -37.75390625 86.73046875 C-39.34958218 84.03447783 -39.50157094 82.60409472 -39.36328125 79.515625 C-39.33621094 78.72542969 -39.30914062 77.93523437 -39.28125 77.12109375 C-39.24644531 76.52941406 -39.21164063 75.93773437 -39.17578125 75.328125 C-36.70078125 74.833125 -36.70078125 74.833125 -34.17578125 74.328125 C-34.57714105 66.42548903 -35.05966154 60.86175712 -41.17578125 55.328125 C-41.50578125 56.978125 -41.83578125 58.628125 -42.17578125 60.328125 C-46.18520421 60.09227659 -48.60545913 59.75255076 -51.86328125 57.328125 C-56.69505026 51.05988412 -58.38730919 45.08143357 -59.17578125 37.328125 C-59.50803711 36.70244629 -59.84029297 36.07676758 -60.18261719 35.43212891 C-61.417563 32.81591382 -61.43440477 30.86267396 -61.44140625 27.9765625 C-61.44398437 26.96078125 -61.4465625 25.945 -61.44921875 24.8984375 C-61.44148438 23.84398438 -61.43375 22.78953125 -61.42578125 21.703125 C-61.43351562 20.6409375 -61.44125 19.57875 -61.44921875 18.484375 C-61.44664063 17.47117187 -61.4440625 16.45796875 -61.44140625 15.4140625 C-61.43915039 14.4864209 -61.43689453 13.5587793 -61.43457031 12.60302734 C-61.17578125 10.328125 -61.17578125 10.328125 -59.17578125 8.328125 C-57.36191247 7.74309634 -55.52418273 7.23015748 -53.67578125 6.765625 C-49.82336405 5.82132169 -49.82336405 5.82132169 -46.17578125 4.328125 C-41.54395063 4.06594591 -38.4079551 4.51433621 -34.17578125 6.328125 C-33.51578125 5.998125 -32.85578125 5.668125 -32.17578125 5.328125 C-30.48457112 5.14263275 -28.78771179 5.00726385 -27.08984375 4.8984375 C-25.57003906 4.78822266 -25.57003906 4.78822266 -24.01953125 4.67578125 C-21.88199881 4.52791796 -19.74395698 4.38723498 -17.60546875 4.25390625 C-16.5896875 4.17785156 -15.57390625 4.10179688 -14.52734375 4.0234375 C-13.59744629 3.96172363 -12.66754883 3.90000977 -11.70947266 3.83642578 C-9.10691115 3.50544931 -9.10691115 3.50544931 -7.16479492 1.80517578 C-4.62241671 -0.08280608 -3.13804632 -0.03265573 0 0 Z " fill="#0E0907" transform="translate(94.17578125,63.671875)"/>
<path d="M0 0 C1.6875 2.125 1.6875 2.125 1.6875 5.125 C0.3675 5.125 -0.9525 5.125 -2.3125 5.125 C-0.3325 7.765 1.6475 10.405 3.6875 13.125 C3.6875 11.805 3.6875 10.485 3.6875 9.125 C7.93953969 9.82962372 11.85944052 11.16531702 15.875 12.6875 C16.55973389 12.94635986 17.24446777 13.20521973 17.94995117 13.47192383 C23.52634205 15.61466003 29.02722093 17.91833263 34.5 20.3125 C35.27045654 20.64515869 36.04091309 20.97781738 36.8347168 21.32055664 C37.55570557 21.64145264 38.27669434 21.96234863 39.01953125 22.29296875 C39.65608643 22.57422607 40.2926416 22.8554834 40.94848633 23.14526367 C42.87572237 24.23104189 44.19801345 25.50101611 45.6875 27.125 C41.69116419 26.47614843 38.27522368 25.22547236 34.5625 23.625 C29.22897302 21.33730264 25.34001769 19.99970411 19.5 20.0625 C18.41332031 20.07152344 17.32664062 20.08054687 16.20703125 20.08984375 C15.37558594 20.10144531 14.54414063 20.11304687 13.6875 20.125 C14.18378906 20.393125 14.68007812 20.66125 15.19140625 20.9375 C24.9382345 26.5599588 29.14456847 33.09713464 32.83984375 43.66015625 C33.72460199 47.27665652 33.8433911 50.41668145 33.6875 54.125 C30.44582391 50.9878941 27.45980768 47.71837799 24.5 44.3125 C19.97777597 39.26790685 15.08921631 35.18809857 9.6875 31.125 C8.67945313 30.33609375 7.67140625 29.5471875 6.6328125 28.734375 C1.50831252 24.77279147 -3.15378571 21.22456169 -9.3125 19.125 C-8.136875 20.23875 -8.136875 20.23875 -6.9375 21.375 C-4.6936658 23.72568345 -3.53434259 25.21137535 -2.3125 28.125 C-1.961875 28.785 -1.61125 29.445 -1.25 30.125 C-0.31749339 32.11434744 0.22824016 33.98178743 0.6875 36.125 C1.6775 36.33125 2.6675 36.5375 3.6875 36.75 C10.62251278 38.73344179 15.40280121 43.52924039 19.6875 49.125 C17.43731858 48.64668603 15.18736133 48.16731736 12.9375 47.6875 C11.68453125 47.42066406 10.4315625 47.15382812 9.140625 46.87890625 C6.64192915 46.3333765 4.16196899 45.76861188 1.6875 45.125 C2.161875 45.764375 2.63625 46.40375 3.125 47.0625 C5.21230918 51.15362599 5.34652256 54.55590233 5.6875 59.125 C2.7175 57.145 -0.2525 55.165 -3.3125 53.125 C-2.3225 55.105 -2.3225 55.105 -1.3125 57.125 C0.05836649 63.60325401 -1.55923545 67.94322487 -4.8125 73.5625 C-9.49074487 81.93397352 -9.94555007 90.74450326 -8.3125 100.125 C-7.16629895 104.06850967 -5.5188662 107.60350938 -3.625 111.2421875 C-2.26435894 114.2307384 -2.1988039 115.90970131 -2.3125 119.125 C-8.64763627 119.27711778 -14.98230202 119.38219976 -21.31884766 119.45458984 C-23.47430011 119.48476553 -25.62962976 119.52571202 -27.78466797 119.57763672 C-30.88279493 119.6504163 -33.97929932 119.68444832 -37.078125 119.7109375 C-38.04179993 119.74190521 -39.00547485 119.77287292 -39.99835205 119.80477905 C-42.57330226 119.80607473 -44.81426631 119.75041606 -47.3125 119.125 C-50.3894664 115.6943358 -51.8633629 112.27386306 -53.125 107.875 C-53.37894531 107.02421875 -53.63289063 106.1734375 -53.89453125 105.296875 C-54.3125 103.125 -54.3125 103.125 -53.3125 101.125 C-49.44572435 102.591708 -48.30264441 104.59701672 -46.3125 108.125 C-45.6525 108.455 -44.9925 108.785 -44.3125 109.125 C-43.8175 107.64 -43.8175 107.64 -43.3125 106.125 C-42.9825 106.125 -42.6525 106.125 -42.3125 106.125 C-42.828125 105.568125 -43.34375 105.01125 -43.875 104.4375 C-45.3125 102.125 -45.3125 102.125 -45.3125 99.625 C-44.01003236 96.36883091 -42.04817 95.274455 -39.3125 93.125 C-37.01953776 89.35590405 -37.01953776 89.35590405 -36.3125 85.125 C-36.73402344 85.69089844 -37.15554687 86.25679688 -37.58984375 86.83984375 C-38.13769531 87.57332031 -38.68554688 88.30679688 -39.25 89.0625 C-39.79527344 89.79339844 -40.34054688 90.52429688 -40.90234375 91.27734375 C-42.3125 93.125 -42.3125 93.125 -43.3125 94.125 C-46.75 94.375 -46.75 94.375 -50.3125 94.125 C-50.9725 93.135 -51.6325 92.145 -52.3125 91.125 C-52.61542969 91.7025 -52.91835937 92.28 -53.23046875 92.875 C-54.47997375 95.08950732 -55.72390494 97.1381621 -57.3125 99.125 C-59.6875 99.5 -59.6875 99.5 -62.3125 99.125 C-63.446875 99.475625 -64.58125 99.82625 -65.75 100.1875 C-69.61078639 101.20349642 -71.55152494 101.43316524 -75.3125 100.125 C-79.97732355 95.99027004 -80.84780434 92.56727753 -81.7734375 86.5234375 C-82.3213917 84.08543837 -83.02095626 82.73211984 -84.5 80.75 C-86.3125 78.125 -86.3125 78.125 -86.0625 75.75 C-85.815 75.21375 -85.5675 74.6775 -85.3125 74.125 C-84.44625 75.0840625 -84.44625 75.0840625 -83.5625 76.0625 C-78.75209909 79.11525442 -73.90687046 78.94655118 -68.3125 79.125 C-68.35375 77.908125 -68.395 76.69125 -68.4375 75.4375 C-68.45004508 71.90605873 -67.91248217 69.32496434 -66.3125 66.125 C-65.6525 66.125 -64.9925 66.125 -64.3125 66.125 C-63.60884398 67.6802912 -62.92520622 69.24464827 -62.25 70.8125 C-61.86714844 71.68261719 -61.48429687 72.55273438 -61.08984375 73.44921875 C-60.1956305 76.5272895 -60.27696421 78.10843923 -61.3125 81.125 C-62.48828125 82.92578125 -62.48828125 82.92578125 -64.3125 84.125 C-67.23046875 84.41796875 -67.23046875 84.41796875 -70.5 84.3125 C-71.58667969 84.28542969 -72.67335937 84.25835937 -73.79296875 84.23046875 C-75.04013672 84.17826172 -75.04013672 84.17826172 -76.3125 84.125 C-76.3125 84.785 -76.3125 85.445 -76.3125 86.125 C-75.44625 86.08375 -74.58 86.0425 -73.6875 86 C-70.18891532 86.12957721 -67.56698403 86.88519656 -64.3125 88.125 C-65.6325 89.775 -66.9525 91.425 -68.3125 93.125 C-66.83215236 92.64949439 -65.35324979 92.16948784 -63.875 91.6875 C-63.05128906 91.42066406 -62.22757813 91.15382813 -61.37890625 90.87890625 C-59.35030412 90.30344506 -59.35030412 90.30344506 -58.3125 89.125 C-58.17883594 87.79430004 -58.08111578 86.45993397 -58 85.125 C-57.21064874 77.6791792 -54.43718098 72.30226412 -49.5625 66.6875 C-46.22971293 62.58945924 -45.47010949 59.70902023 -45.890625 54.46875 C-47.00049324 48.30281533 -49.99250129 43.95255905 -53.796875 39.16015625 C-55.24859324 37.21081295 -56.31125967 35.27242092 -57.4375 33.125 C-60.85243289 27.45957035 -66.73343455 24.39416353 -72.3125 21.125 C-73.32957031 20.52558594 -73.32957031 20.52558594 -74.3671875 19.9140625 C-76.79732614 18.92834361 -78.75856578 18.85921457 -81.375 18.875 C-82.23222656 18.86984375 -83.08945313 18.8646875 -83.97265625 18.859375 C-86.58302798 18.97507512 -86.58302798 18.97507512 -89.3125 21.125 C-90.488125 21.62 -91.66375 22.115 -92.875 22.625 C-96.30255769 23.87153251 -96.30255769 23.87153251 -98.3125 26.125 C-101.4375 26.25 -101.4375 26.25 -104.3125 26.125 C-104.3125 25.465 -104.3125 24.805 -104.3125 24.125 C-105.3025 24.455 -106.2925 24.785 -107.3125 25.125 C-107.3125 22.815 -107.3125 20.505 -107.3125 18.125 C-106.549375 18.434375 -105.78625 18.74375 -105 19.0625 C-103.12460323 19.80393593 -101.22565348 20.48728217 -99.3125 21.125 C-99.085625 20.403125 -98.85875 19.68125 -98.625 18.9375 C-96.44655342 14.2694002 -93.08950421 11.0711869 -88.3125 9.125 C-88.3125 8.465 -88.3125 7.805 -88.3125 7.125 C-93.24075764 7.7477428 -97.11451641 8.2544941 -100.375 12.25 C-101.014375 13.19875 -101.65375 14.1475 -102.3125 15.125 C-105.54740776 14.56725728 -107.29105006 13.75288492 -109.3125 11.125 C-109.3125 10.135 -109.3125 9.145 -109.3125 8.125 C-107.3325 9.115 -107.3325 9.115 -105.3125 10.125 C-105.3125 10.785 -105.3125 11.445 -105.3125 12.125 C-103.07065152 11.29391382 -103.07065152 11.29391382 -102.5 8.8125 C-100.99089487 5.39715681 -99.51972278 4.0201771 -96.3125 2.125 C-93.21701914 2.25134616 -91.12059648 2.64725743 -88.44921875 4.2265625 C-85.68536416 5.38869514 -84.10833685 4.93702692 -81.1875 4.375 C-74.25965918 3.66210873 -70.66216228 5.91011457 -65.3125 10.125 C-60.20388421 14.33704452 -55.23673305 18.6997559 -50.3125 23.125 C-50.6321875 22.50882813 -50.951875 21.89265625 -51.28125 21.2578125 C-52.3125 19.125 -52.3125 19.125 -52.8125 17 C-53.20527065 14.89820517 -53.20527065 14.89820517 -55.3125 13.125 C-54.3125 12.125 -54.3125 12.125 -51.25 12.0625 C-49.7959375 12.0934375 -49.7959375 12.0934375 -48.3125 12.125 C-48.02375 12.764375 -47.735 13.40375 -47.4375 14.0625 C-46.48426549 16.27706079 -46.48426549 16.27706079 -44.3125 17.125 C-45.9505249 13.61494665 -47.34384491 10.66956151 -50.3125 8.125 C-48.3325 8.125 -46.3525 8.125 -44.3125 8.125 C-44.3125 7.795 -44.3125 7.465 -44.3125 7.125 C-50.57329448 6.69322107 -53.40325703 7.19760562 -58.3125 11.125 C-59.875 9.3125 -59.875 9.3125 -61.3125 7.125 C-60.9825 6.135 -60.6525 5.145 -60.3125 4.125 C-59.3225 4.125 -58.3325 4.125 -57.3125 4.125 C-56.714375 3.485625 -56.11625 2.84625 -55.5 2.1875 C-52.76626957 -0.39001727 -51.02661382 -0.7169526 -47.3125 -0.875 C-46.3225 -0.215 -45.3325 0.445 -44.3125 1.125 C-40.59850483 1.56375297 -36.86208482 1.44912752 -33.125 1.4375 C-31.60036133 1.46166992 -31.60036133 1.46166992 -30.04492188 1.48632812 C-23.71031911 1.4904176 -19.1038254 0.6807655 -13.3125 -1.875 C-8.09224422 -3.10329548 -4.30913187 -3.49389071 0 0 Z " fill="#AE7C1C" transform="translate(145.3125,69.875)"/>
<path d="M0 0 C9.95151412 2.83476414 18.45498421 10.15925867 25.94921875 17.10546875 C27.9539675 18.95747474 30.02709989 20.69259264 32.125 22.4375 C36.38948907 26.13681582 39.69486254 30.44510744 43 35 C42.53392044 24.04713038 39.69587835 15.96408774 32.10546875 7.91796875 C29.25914675 5.32512255 26.4650967 3.66035884 23 2 C23 1.67 23 1.34 23 1 C34.01441601 0.18879096 44.22322901 1.82283236 53 9 C52.67 9.66 52.34 10.32 52 11 C52.72574219 11.26554687 53.45148438 11.53109375 54.19921875 11.8046875 C61.73998767 15.02292361 67.84002391 20.49002538 73.40625 26.3984375 C74.92606152 28.0957584 74.92606152 28.0957584 77 29 C77 29.99 77 30.98 77 32 C76.05125 32.474375 75.1025 32.94875 74.125 33.4375 C63.26653121 39.80809359 57.52385794 48.24957186 52.00805664 59.2199707 C51 61 51 61 48 65 C48 60.71 48 56.42 48 52 C28.97740018 64.16561616 17.05905888 77.89099298 9 99 C1.64261503 87.96392254 -1.50023083 76.18536783 1 63 C2.35717768 59.09753357 4.36885059 55.66357409 6.4375 52.09765625 C9.33196567 46.35937806 8.63453082 41.02052186 7 35 C9.95409701 36.37154504 12.44008376 37.98863724 15 40 C14.54887817 34.67676244 13.93831293 31.54102908 11 27 C11.33 26.34 11.66 25.68 12 25 C12.99 25.474375 13.98 25.94875 15 26.4375 C18.99189495 28.16813748 22.68114582 28.62115314 27 29 C27 28.67 27 28.34 27 28 C23.48697538 24.67187141 20.20888244 22.53405103 15.8125 20.5 C11.82027137 18.57870256 9.66832857 17.27509196 8 13 C7.71125 12.01 7.4225 11.02 7.125 10 C5.76734248 6.37957996 3.81395645 4.59749826 1 2 C0.67 1.34 0.34 0.68 0 0 Z " fill="#7B5924" transform="translate(135,88)"/>
<path d="M0 0 C2.9375 0.875 2.9375 0.875 4.80078125 1.9765625 C7.56463584 3.13869514 9.14166315 2.68702692 12.0625 2.125 C19.78003727 1.33084709 23.81884557 4.55365534 29.65771484 9.26220703 C37.35869253 15.58808257 44.55620772 22.33565922 51.5234375 29.45703125 C53.61726005 31.55424186 55.74859989 33.51349473 58 35.4375 C70.60665761 46.21331522 70.60665761 46.21331522 72.9375 50.875 C73.02092159 52.32348582 73.04482861 53.77570869 73.03515625 55.2265625 C73.03032227 56.50273437 73.03032227 56.50273437 73.02539062 57.8046875 C73.01282227 59.13886719 73.01282227 59.13886719 73 60.5 C72.99548828 61.3971875 72.99097656 62.294375 72.98632812 63.21875 C72.97452591 65.43756648 72.95806155 67.65625018 72.9375 69.875 C70.91462715 66.84069073 69.03375947 63.74255387 67.15625 60.6171875 C66.04082478 58.7281008 66.04082478 58.7281008 63.9375 57.875 C63.98390625 58.9371875 64.0303125 59.999375 64.078125 61.09375 C64.4996892 75.03171621 64.4996892 75.03171621 59.9375 81.875 C58.4525 81.38 58.4525 81.38 56.9375 80.875 C56.710625 81.57625 56.48375 82.2775 56.25 83 C54.58530651 86.64647145 52.84280373 89.09882088 49.9375 91.875 C46.25 92.4375 46.25 92.4375 42.9375 91.875 C42.2775 90.885 41.6175 89.895 40.9375 88.875 C40.63457031 89.4525 40.33164063 90.03 40.01953125 90.625 C38.77002625 92.83950732 37.52609506 94.8881621 35.9375 96.875 C33.5625 97.25 33.5625 97.25 30.9375 96.875 C29.803125 97.225625 28.66875 97.57625 27.5 97.9375 C23.63921361 98.95349642 21.69847506 99.18316524 17.9375 97.875 C13.27267645 93.74027004 12.40219566 90.31727753 11.4765625 84.2734375 C10.9286083 81.83543837 10.22904374 80.48211984 8.75 78.5 C6.9375 75.875 6.9375 75.875 7.1875 73.5 C7.435 72.96375 7.6825 72.4275 7.9375 71.875 C8.80375 72.8340625 8.80375 72.8340625 9.6875 73.8125 C14.49790091 76.86525442 19.34312954 76.69655118 24.9375 76.875 C24.89625 75.658125 24.855 74.44125 24.8125 73.1875 C24.79995492 69.65605873 25.33751783 67.07496434 26.9375 63.875 C27.5975 63.875 28.2575 63.875 28.9375 63.875 C29.64115602 65.4302912 30.32479378 66.99464827 31 68.5625 C31.38285156 69.43261719 31.76570313 70.30273438 32.16015625 71.19921875 C33.0543695 74.2772895 32.97303579 75.85843923 31.9375 78.875 C30.76171875 80.67578125 30.76171875 80.67578125 28.9375 81.875 C26.01953125 82.16796875 26.01953125 82.16796875 22.75 82.0625 C21.66332031 82.03542969 20.57664063 82.00835937 19.45703125 81.98046875 C18.20986328 81.92826172 18.20986328 81.92826172 16.9375 81.875 C16.9375 82.535 16.9375 83.195 16.9375 83.875 C17.80375 83.83375 18.67 83.7925 19.5625 83.75 C23.06108468 83.87957721 25.68301597 84.63519656 28.9375 85.875 C27.6175 87.525 26.2975 89.175 24.9375 90.875 C26.41784764 90.39949439 27.89675021 89.91948784 29.375 89.4375 C30.19871094 89.17066406 31.02242187 88.90382813 31.87109375 88.62890625 C33.89969588 88.05344506 33.89969588 88.05344506 34.9375 86.875 C35.07116406 85.54430004 35.16888422 84.20993397 35.25 82.875 C36.03935126 75.4291792 38.81281902 70.05226412 43.6875 64.4375 C47.02028707 60.33945924 47.77989051 57.45902023 47.359375 52.21875 C46.24950676 46.05281533 43.25749871 41.70255905 39.453125 36.91015625 C38.00140676 34.96081295 36.93874033 33.02242092 35.8125 30.875 C32.39756711 25.20957035 26.51656545 22.14416353 20.9375 18.875 C19.92042969 18.27558594 19.92042969 18.27558594 18.8828125 17.6640625 C16.45267386 16.67834361 14.49143422 16.60921457 11.875 16.625 C11.01777344 16.61984375 10.16054688 16.6146875 9.27734375 16.609375 C6.66697202 16.72507512 6.66697202 16.72507512 3.9375 18.875 C2.761875 19.37 1.58625 19.865 0.375 20.375 C-3.05255769 21.62153251 -3.05255769 21.62153251 -5.0625 23.875 C-8.1875 24 -8.1875 24 -11.0625 23.875 C-11.0625 23.215 -11.0625 22.555 -11.0625 21.875 C-12.0525 22.205 -13.0425 22.535 -14.0625 22.875 C-14.0625 20.565 -14.0625 18.255 -14.0625 15.875 C-13.299375 16.184375 -12.53625 16.49375 -11.75 16.8125 C-9.87460323 17.55393593 -7.97565348 18.23728217 -6.0625 18.875 C-5.835625 18.153125 -5.60875 17.43125 -5.375 16.6875 C-3.19655342 12.0194002 0.16049579 8.8211869 4.9375 6.875 C4.9375 6.215 4.9375 5.555 4.9375 4.875 C0.00924236 5.4977428 -3.86451641 6.0044941 -7.125 10 C-7.764375 10.94875 -8.40375 11.8975 -9.0625 12.875 C-12.29740776 12.31725728 -14.04105006 11.50288492 -16.0625 8.875 C-16.0625 7.885 -16.0625 6.895 -16.0625 5.875 C-14.0825 6.865 -14.0825 6.865 -12.0625 7.875 C-12.0625 8.535 -12.0625 9.195 -12.0625 9.875 C-9.82065152 9.04391382 -9.82065152 9.04391382 -9.25 6.5625 C-7.30257668 2.15517355 -4.94435683 -0.20181048 0 0 Z " fill="#D1A64B" transform="translate(52.0625,72.125)"/>
<path d="M0 0 C3.1328125 0.48828125 3.1328125 0.48828125 5.328125 3.0078125 C5.96492188 4.09449219 6.60171875 5.18117188 7.2578125 6.30078125 C10.39070673 11.65635581 10.39070673 11.65635581 15.1328125 15.48828125 C15.7928125 15.48828125 16.4528125 15.48828125 17.1328125 15.48828125 C17.4628125 11.19828125 17.7928125 6.90828125 18.1328125 2.48828125 C22.1328125 1.48828125 22.1328125 1.48828125 25.3203125 2.61328125 C28.1328125 4.48828125 28.1328125 4.48828125 28.796875 6.75 C29.14418855 9.58100927 29.300857 12.32360534 29.3203125 15.17578125 C29.33449219 16.12839844 29.34867188 17.08101562 29.36328125 18.0625 C29.1328125 20.48828125 29.1328125 20.48828125 27.1328125 22.48828125 C26.96593802 25.07182343 26.96593802 25.07182343 27.1328125 27.48828125 C27.9165625 26.82828125 28.7003125 26.16828125 29.5078125 25.48828125 C32.1328125 23.48828125 32.1328125 23.48828125 34.1328125 23.48828125 C34.95481675 29.73551351 32.05832644 34.20145962 29.1328125 39.48828125 C28.4728125 39.48828125 27.8128125 39.48828125 27.1328125 39.48828125 C26.66101563 38.44027344 26.66101563 38.44027344 26.1796875 37.37109375 C25.75171875 36.46101563 25.32375 35.5509375 24.8828125 34.61328125 C24.46515625 33.70835937 24.0475 32.8034375 23.6171875 31.87109375 C21.96956306 29.22622293 20.91242681 28.70750845 18.1328125 27.48828125 C17.5346875 26.58078125 16.9365625 25.67328125 16.3203125 24.73828125 C13.73688713 20.90004928 10.73159868 18.33900513 7.1328125 15.48828125 C7.62652344 16.29910156 8.12023437 17.10992187 8.62890625 17.9453125 C12.67569515 24.93966193 15.84720978 31.16765409 15.1328125 39.48828125 C14.0703125 42.61328125 14.0703125 42.61328125 12.1328125 44.48828125 C10.14374231 44.88161428 8.14270896 45.22102229 6.1328125 45.48828125 C6.08382812 44.29332031 6.03484375 43.09835938 5.984375 41.8671875 C5.77046951 37.06894441 5.47531553 32.27896061 5.1328125 27.48828125 C5.03613281 26.09609375 5.03613281 26.09609375 4.9375 24.67578125 C4.03688112 18.39454186 0.18616813 14.59014011 -4.06640625 10.06640625 C-5.8671875 7.48828125 -5.8671875 7.48828125 -5.76171875 4.78515625 C-4.4561614 1.43289545 -3.57133338 0.6081971 0 0 Z " fill="#704F22" transform="translate(58.8671875,103.51171875)"/>
<path d="M0 0 C0 0.33 0 0.66 0 1 C-1.98 1 -3.96 1 -6 1 C-6 5.29 -6 9.58 -6 14 C-11.625 9.5 -11.625 9.5 -13.3125 5.25 C-13.80169922 4.05117187 -13.80169922 4.05117187 -14.30078125 2.828125 C-14.53152344 2.22484375 -14.76226562 1.6215625 -15 1 C-20.78450072 0.65292996 -24.96563531 0.72766295 -30 4 C-31.50156874 7.00313748 -31.09281204 9.79067522 -31.0625 13.125 C-31.05347656 14.40632813 -31.04445313 15.68765625 -31.03515625 17.0078125 C-31.02355469 17.99523437 -31.01195312 18.98265625 -31 20 C-35.83504842 15.55698253 -38.80361213 11.94581807 -39.25 5.25 C-39 2 -39 2 -38 0 C-37.030625 0.12375 -36.06125 0.2475 -35.0625 0.375 C-30.47188193 0.42165262 -27.67156471 -1.91639099 -24.11328125 -4.58984375 C-15.71680682 -10.1926668 -7.51338755 -4.44281687 0 0 Z " fill="#F2F1EF" transform="translate(79,99)"/>
<path d="M0 0 C1.175625 0.45375 2.35125 0.9075 3.5625 1.375 C7.33338003 2.79328108 11.11248657 3.94713178 15 5 C11.375 8 11.375 8 8 8 C8.2165625 8.67804688 8.433125 9.35609375 8.65625 10.0546875 C10.59700081 16.54182679 11.39586616 22.24095178 11 29 C8.33333333 26.33333333 5.66666667 23.66666667 3 21 C2.91621094 21.8353125 2.83242187 22.670625 2.74609375 23.53125 C1.84914934 27.70133712 0.16025596 30.82428601 -1.9375 34.5 C-4.43784477 38.92815978 -6.55174571 43.0865509 -8 48 C-8.33 48 -8.66 48 -9 48 C-9.81604395 39.47687432 -8.48311531 34.32707968 -4.33984375 26.8984375 C-1.75527892 21.30733807 -2.40454462 15.80165592 -4 10 C-1.04590299 11.37154504 1.44008376 12.98863724 4 15 C3.5532033 9.72779892 3.01438606 6.45604896 0 2 C0 1.34 0 0.68 0 0 Z " fill="#120C06" transform="translate(146,113)"/>
<path d="M0 0 C3.86677565 1.466708 5.00985559 3.47201672 7 7 C7.66 7.33 8.32 7.66 9 8 C9.33 7.01 9.66 6.02 10 5 C11.98 5.99 13.96 6.98 16 8 C16.66 6.68 17.32 5.36 18 4 C18.64834654 5.269553 19.29357815 6.54069706 19.9375 7.8125 C20.29714844 8.52019531 20.65679687 9.22789062 21.02734375 9.95703125 C22 12 22 12 23 15 C26.00847418 16.22520264 26.00847418 16.22520264 29 17 C29 17.33 29 17.66 29 18 C25.25058747 18.17432891 21.50221491 18.28085841 17.75 18.375 C16.15478516 18.45041016 16.15478516 18.45041016 14.52734375 18.52734375 C11.5757823 18.58303359 8.90038581 18.55522895 6 18 C2.77573128 14.68443306 1.45081624 11.15471758 0.1875 6.75 C-0.06644531 5.89921875 -0.32039063 5.0484375 -0.58203125 4.171875 C-1 2 -1 2 0 0 Z " fill="#765323" transform="translate(92,171)"/>
<path d="M0 0 C8.96584228 6.14800614 17.30908598 13.72035202 19.56640625 24.7734375 C20.09941084 28.95892617 20.30524483 32.10222109 18.9375 36.125 C16.41459996 38.56651616 14.41230643 38.54626048 11 39 C10.95101562 37.80503906 10.90203125 36.61007813 10.8515625 35.37890625 C10.33162371 18.33422202 10.33162371 18.33422202 1.6796875 4.06640625 C0 2 0 2 0 0 Z " fill="#A7741D" transform="translate(54,110)"/>
<path d="M0 0 C1.98 0 3.96 0 6 0 C6.33 0.66 6.66 1.32 7 2 C6.34 2 5.68 2 5 2 C5 2.66 5 3.32 5 4 C5.59296875 4.2578125 6.1859375 4.515625 6.796875 4.78125 C9.17660965 6.09769895 10.50978792 7.42580782 12.25 9.5 C12.77078125 10.1084375 13.2915625 10.716875 13.828125 11.34375 C15 13 15 13 15 15 C10.25 13.125 10.25 13.125 8 12 C10.57793326 14.7295764 12.9523245 16.96948768 16.125 19 C20.25931089 21.87604236 22.08916691 25.08150131 23 30 C19.99000502 27.55000408 17.17949875 25.18847369 14.5 22.375 C11.83097208 19.83942348 9.30057354 18.57853517 6 17 C4.9805881 16.01979625 3.97753644 15.02196992 3 14 C1.948125 13.566875 1.948125 13.566875 0.875 13.125 C0.25625 12.75375 -0.3625 12.3825 -1 12 C-1.35919668 10.33871537 -1.68911632 8.67099977 -2 7 C-3.96509909 4.2299003 -3.96509909 4.2299003 -6 2 C-4.02 2 -2.04 2 0 2 C0 1.34 0 0.68 0 0 Z " fill="#815F24" transform="translate(101,76)"/>
<path d="M0 0 C0.66 0 1.32 0 2 0 C2.70365602 1.5552912 3.38729378 3.11964827 4.0625 4.6875 C4.44535156 5.55761719 4.82820313 6.42773438 5.22265625 7.32421875 C6.1168695 10.4022895 6.03553579 11.98343923 5 15 C3.80859375 16.8046875 3.80859375 16.8046875 2 18 C-0.77734375 18.2578125 -0.77734375 18.2578125 -3.9375 18.125 C-8.12522635 17.91979785 -8.12522635 17.91979785 -12.2109375 18.62109375 C-12.80132812 18.74613281 -13.39171875 18.87117188 -14 19 C-17.34372658 16.43388425 -18.80078224 14.81219549 -19.8125 10.6875 C-19.874375 9.800625 -19.93625 8.91375 -20 8 C-19.2575 8.639375 -18.515 9.27875 -17.75 9.9375 C-13.08219437 13.12829467 -7.47311493 12.82287654 -2 13 C-2.04125 11.783125 -2.0825 10.56625 -2.125 9.3125 C-2.13754508 5.78105873 -1.59998217 3.19996434 0 0 Z " fill="#E4E3E2" transform="translate(79,136)"/>
<path d="M0 0 C4.80727215 1.35904837 8.36471735 3.3750946 12.4375 6.25 C13.28574341 6.84735962 13.28574341 6.84735962 14.15112305 7.45678711 C18.31664385 10.42378621 22.21446067 13.56660386 26 17 C23 18 23 18 20 17 C21.65 18.98 23.3 20.96 25 23 C24.34 23.33 23.68 23.66 23 24 C20.28515625 22.9609375 20.28515625 22.9609375 17.0625 21.375 C16.00160156 20.86710937 14.94070312 20.35921875 13.84765625 19.8359375 C9.80898463 17.23213001 8.44766469 14.53485035 7.125 10 C5.76734248 6.37957996 3.81395645 4.59749826 1 2 C0.67 1.34 0.34 0.68 0 0 Z " fill="#140D06" transform="translate(135,88)"/>
<path d="M0 0 C0.66 0.33 1.32 0.66 2 1 C1.34 1.66 0.68 2.32 0 3 C0.66 3.66 1.32 4.32 2 5 C1.030625 5.45375 0.06125 5.9075 -0.9375 6.375 C-4.07079582 7.65786221 -4.07079582 7.65786221 -5 10 C-5.07116382 12.37402501 -5.08409085 14.75000677 -5.0625 17.125 C-5.05347656 18.40632813 -5.04445313 19.68765625 -5.03515625 21.0078125 C-5.02355469 21.99523437 -5.01195312 22.98265625 -5 24 C-9.83504842 19.55698253 -12.80361213 15.94581807 -13.25 9.25 C-13 6 -13 6 -12 4 C-10.948125 4.0825 -9.89625 4.165 -8.8125 4.25 C-4.46236331 3.96474513 -3.0684847 2.97550031 0 0 Z " fill="#E8E7E5" transform="translate(53,95)"/>
<path d="M0 0 C3.54312559 1.06293768 6.76500416 2.39190191 10.125 3.9375 C8.9375 6.4375 8.9375 6.4375 7.125 8.9375 C4.4375 9.25 4.4375 9.25 2.125 8.9375 C3.115 8.2775 4.105 7.6175 5.125 6.9375 C5.125 6.2775 5.125 5.6175 5.125 4.9375 C0.19674236 5.5602428 -3.67701641 6.0669941 -6.9375 10.0625 C-7.576875 11.01125 -8.21625 11.96 -8.875 12.9375 C-12.10990776 12.37975728 -13.85355006 11.56538492 -15.875 8.9375 C-15.875 7.9475 -15.875 6.9575 -15.875 5.9375 C-13.895 6.9275 -13.895 6.9275 -11.875 7.9375 C-11.875 8.5975 -11.875 9.2575 -11.875 9.9375 C-9.63315152 9.10641382 -9.63315152 9.10641382 -9.0625 6.625 C-7.17089637 2.3440023 -4.82925571 -0.10498382 0 0 Z " fill="#9F701F" transform="translate(51.875,72.0625)"/>
<path d="M0 0 C1.32 0 2.64 0 4 0 C4.33 1.65 4.66 3.3 5 5 C3.783125 5.4125 2.56625 5.825 1.3125 6.25 C-1.6410995 7.32780473 -3.14113321 8.12392184 -5.5625 10.25 C-8 12 -8 12 -11.8125 11.75 C-12.864375 11.5025 -13.91625 11.255 -15 11 C-15.33 11.66 -15.66 12.32 -16 13 C-16 10 -16 10 -14 8 C-13.05125 7.690625 -12.1025 7.38125 -11.125 7.0625 C-8.12395196 6.04214367 -6.43803212 4.9504257 -4 3 C-2.68163705 2.30419733 -1.35208914 1.62775567 0 1 C0 0.67 0 0.34 0 0 Z " fill="#221C16" transform="translate(56,88)"/>
<path d="M0 0 C0.66 0.99 1.32 1.98 2 3 C0.08654673 3.53251766 -1.8309295 4.05059483 -3.75 4.5625 C-4.81734375 4.85253906 -5.8846875 5.14257812 -6.984375 5.44140625 C-9.84335927 5.97098494 -11.31597383 5.98370862 -14 5 C-5.49222103 -1.04613734 -5.49222103 -1.04613734 0 0 Z " fill="#180F07" transform="translate(143,70)"/>
<path d="M0 0 C2.5 1.8125 2.5 1.8125 5 4 C5 4.99 5 5.98 5 7 C3.68 7 2.36 7 1 7 C0.67 7.66 0.34 8.32 0 9 C-2.97 8.67 -5.94 8.34 -9 8 C-9 7.67 -9 7.34 -9 7 C-5.37 6.01 -1.74 5.02 2 4 C0.68 3.01 -0.64 2.02 -2 1 C-1.34 0.67 -0.68 0.34 0 0 Z " fill="#65491B" transform="translate(142,68)"/>
<path d="M0 0 C6.51819877 1.89536276 12.17814801 4.5178994 18 8 C14.14926794 9.28357735 13.20288967 8.42743265 9.625 6.6875 C6.11826551 5.00175573 2.62929852 3.40552834 -1 2 C-0.67 1.34 -0.34 0.68 0 0 Z " fill="#946A1C" transform="translate(173,88)"/>
<path d="M0 0 C3.63 0.33 7.26 0.66 11 1 C8 4 8 4 5.51953125 4.29296875 C4.17955078 4.24076172 4.17955078 4.24076172 2.8125 4.1875 C1.46091797 4.14689453 1.46091797 4.14689453 0.08203125 4.10546875 C-0.60503906 4.07066406 -1.29210937 4.03585938 -2 4 C-1.34 2.68 -0.68 1.36 0 0 Z " fill="#3A3125" transform="translate(69,153)"/>
<path d="M0 0 C1.98 0.99 1.98 0.99 4 2 C4 2.66 4 3.32 4 4 C5.32 3.34 6.64 2.68 8 2 C8 5 8 5 7 7 C3.76509224 6.44225728 2.02144994 5.62788492 0 3 C0 2.01 0 1.02 0 0 Z " fill="#916519" transform="translate(36,78)"/>
<path d="M0 0 C2.64465038 3.1254959 3.84414715 6.08788267 5 10 C-1.75 6.375 -1.75 6.375 -4 3 C-3.01 3.33 -2.02 3.66 -1 4 C-0.67 2.68 -0.34 1.36 0 0 Z " fill="#231809" transform="translate(109,175)"/>
<path d="M0 0 C1.98 0 3.96 0 6 0 C6.66 1.32 7.32 2.64 8 4 C3.545 3.01 3.545 3.01 -1 2 C-0.67 1.34 -0.34 0.68 0 0 Z " fill="#D4D0CE" transform="translate(91,82)"/>
<path d="M0 0 C0 0.66 0 1.32 0 2 C-1.98 2.66 -3.96 3.32 -6 4 C-6 3.34 -6 2.68 -6 2 C-7.32 1.67 -8.64 1.34 -10 1 C-6.56484998 0.37542727 -3.50935186 0 0 0 Z " fill="#956A19" transform="translate(142,67)"/>
<path d="M0 0 C0.66 0.33 1.32 0.66 2 1 C1.34 1.66 0.68 2.32 0 3 C0.66 3.66 1.32 4.32 2 5 C0.02 5.66 -1.96 6.32 -4 7 C-3.6875 4.625 -3.6875 4.625 -3 2 C-2.01 1.34 -1.02 0.68 0 0 Z " fill="#DEDDDB" transform="translate(53,95)"/>
</svg>
