<?xml version="1.0" encoding="UTF-8"?>
<svg version="1.1" xmlns="http://www.w3.org/2000/svg" width="256" height="256">
<path d="M0 0 C0.78584473 0.21962402 1.57168945 0.43924805 2.38134766 0.66552734 C12.63112928 3.62666851 21.84720616 7.47243039 31 13 C32.05832031 13.63679688 33.11664063 14.27359375 34.20703125 14.9296875 C41.8201092 19.6402184 41.8201092 19.6402184 43 22 C41.2936251 25.11322654 39.37970218 28.06331236 37.46875 31.0546875 C35.84324868 33.76782737 35.84324868 33.76782737 35.99609375 36.12109375 C37.40709626 38.76191946 39.2712233 40.26702533 41.5625 42.1875 C46.49159391 46.46784335 50.78925782 51.02187957 55 56 C55.70125 56.78375 56.4025 57.5675 57.125 58.375 C59.60806081 61.85128514 61.55998041 65.54458709 63.55859375 69.31640625 C64.65398124 71.35578621 65.83891922 73.34735511 67.0625 75.3125 C72.64186378 85.07638662 77 98.67494925 77 110 C82.61 110 88.22 110 94 110 C94.76469128 140.09485021 93.15737705 166.30233587 76.03320312 192.2800293 C74.83434995 194.13455066 74.83434995 194.13455066 74 197 C73.34 197 72.68 197 72 197 C71.7525 197.721875 71.505 198.44375 71.25 199.1875 C69.87730408 202.27606582 68.27646704 204.51011418 66 207 C65.34 207 64.68 207 64 207 C63.938125 207.556875 63.87625 208.11375 63.8125 208.6875 C62.64834483 212.00086472 60.60541556 213.70475296 58 216 C57.01 216.33 56.02 216.66 55 217 C54.73316406 217.57492188 54.46632812 218.14984375 54.19140625 218.7421875 C52.47269617 221.99928397 49.79949841 223.91350957 46.9375 226.125 C46.32914307 226.59856934 45.72078613 227.07213867 45.09399414 227.56005859 C40.23727158 231.24742286 35.18003765 234.51514558 29.9375 237.625 C29.22392334 238.05055176 28.51034668 238.47610352 27.77514648 238.91455078 C24.20712222 240.97021306 21.16472263 242.52913467 17 243 C16.0106909 241.61133677 15.03396922 240.21370149 14.0625 238.8125 C13.51722656 238.03519531 12.97195312 237.25789062 12.41015625 236.45703125 C10.94563725 233.9052793 10.5040658 231.87171094 10 229 C8.9644397 229.31022095 8.9644397 229.31022095 7.90795898 229.62670898 C4.75264765 230.56877855 1.595119 231.50319583 -1.5625 232.4375 C-2.64853516 232.76298828 -3.73457031 233.08847656 -4.85351562 233.42382812 C-26.77069107 239.88573092 -50.21787527 238.57216845 -71.609375 230.76953125 C-74.05737832 229.84679403 -74.05737832 229.84679403 -77 230 C-77.9795958 231.79143207 -78.9586633 233.58315304 -79.9375 235.375 C-80.75541016 236.87160156 -80.75541016 236.87160156 -81.58984375 238.3984375 C-82.4149759 239.92070346 -83.22564391 241.45128783 -84 243 C-91.9297454 242.39001958 -98.01158743 237.88528394 -104 233 C-105.5159375 232.195625 -105.5159375 232.195625 -107.0625 231.375 C-110.84250116 229.29179936 -114.11955677 226.61326443 -117.4375 223.875 C-117.98220947 223.43075684 -118.52691895 222.98651367 -119.08813477 222.52880859 C-120.43325369 221.39984272 -121.7220663 220.20448923 -123 219 C-123 218.34 -123 217.68 -123 217 C-123.556875 216.79375 -124.11375 216.5875 -124.6875 216.375 C-127.97012371 214.42316968 -129.70673246 212.05769006 -132 209 C-132 208.34 -132 207.68 -132 207 C-132.99 206.67 -133.98 206.34 -135 206 C-136.69718592 203.78060303 -138.23757183 201.59028661 -139.75 199.25 C-140.19174561 198.57404785 -140.63349121 197.8980957 -141.08862305 197.20166016 C-147.66658044 187.00696054 -153.24998493 176.56763606 -157 165 C-157.34490479 163.97447021 -157.34490479 163.97447021 -157.69677734 162.92822266 C-163.33461037 145.56430768 -162.47271664 128.01575656 -162 110 C-153.585 109.505 -153.585 109.505 -145 109 C-144.79246094 107.8140625 -144.58492187 106.628125 -144.37109375 105.40625 C-141.22871191 88.49749405 -134.81695136 74.65675032 -126 60 C-125.34 60 -124.68 60 -124 60 C-123.78859375 59.3090625 -123.5771875 58.618125 -123.359375 57.90625 C-121.58507649 54.11292214 -119.11630243 51.51311304 -116.25 48.5 C-115.48042969 47.66662109 -115.48042969 47.66662109 -114.6953125 46.81640625 C-111.34221844 43.23584098 -107.82569411 40.06971863 -104 37 C-104.57374655 33.26735006 -105.61714975 30.60062348 -107.5625 27.375 C-110 23.3286119 -110 23.3286119 -110 20 C-108.6796875 18.71875 -108.6796875 18.71875 -106.875 17.5 C-106.29492188 17.0978125 -105.71484375 16.695625 -105.1171875 16.28125 C-102.4849171 14.68828932 -99.76058955 13.35811451 -97 12 C-95.97003906 11.45601562 -94.94007812 10.91203125 -93.87890625 10.3515625 C-85.50601355 5.99253002 -77.13420298 2.50269839 -68 0 C-67.2869873 -0.19754883 -66.57397461 -0.39509766 -65.83935547 -0.59863281 C-44.39574361 -6.28651944 -21.33709242 -5.97438588 0 0 Z " fill="#141A1F" transform="translate(162,8)"/>
<path d="M0 0 C0.07756778 6.43302461 0.12921725 12.86592426 0.16479492 19.29931641 C0.17966304 21.47709659 0.19996353 23.65484807 0.22631836 25.83251953 C0.36129933 37.29266834 0.21504823 48.56345099 -1.3125 59.9375 C-1.42789627 60.80178619 -1.54329254 61.66607239 -1.66218567 62.55654907 C-6.31660307 93.5532089 -25.2162394 123.07480111 -49.8894043 141.95605469 C-59.45668697 148.89983966 -69.96732582 154.5608916 -80.22021484 160.40820312 C-82.6737889 161.81320074 -85.11525989 163.23589647 -87.55078125 164.671875 C-88.19982422 165.0519873 -88.84886719 165.43209961 -89.51757812 165.82373047 C-91.17552109 166.79477269 -92.83196936 167.76836575 -94.48828125 168.7421875 C-97 170 -97 170 -100 170 C-109.04549928 152.1200631 -112.40766153 133.97541493 -112 114 C-106.39 114 -100.78 114 -95 114 C-95.0825 112.55625 -95.165 111.1125 -95.25 109.625 C-95.19023761 86.40731257 -83.59815283 63.19455847 -67.796875 46.61328125 C-55.79099678 35.39549839 -55.79099678 35.39549839 -49 32 C-50.52309387 27.70764454 -52.69562115 23.91070929 -54.9765625 19.98828125 C-56 18 -56 18 -56 16 C-53.48043257 14.72660518 -50.95941351 13.45623358 -48.4375 12.1875 C-47.73302734 11.83107422 -47.02855469 11.47464844 -46.30273438 11.10742188 C-38.82039776 7.34901316 -31.49159823 4.38229508 -23.375 2.3125 C-22.56160156 2.08755859 -21.74820313 1.86261719 -20.91015625 1.63085938 C-13.90495038 -0.16129671 -7.20358141 -0.23624115 0 0 Z " fill="#D5FB01" transform="translate(123,16)"/>
<path d="M0 0 C0.94939453 0.24943359 0.94939453 0.24943359 1.91796875 0.50390625 C20.36806538 5.39735035 36.32737121 14.71255543 52.55078125 24.53466797 C54.69475496 25.81737633 56.85183915 27.06399252 59.03125 28.28515625 C60.1140625 28.89230469 61.196875 29.49945313 62.3125 30.125 C63.21613281 30.62257812 64.11976563 31.12015625 65.05078125 31.6328125 C67 33 67 33 68 36 C66.3046875 38.70703125 66.3046875 38.70703125 63.875 41.8125 C63.45484619 42.35221436 63.03469238 42.89192871 62.60180664 43.44799805 C61.41024003 44.97243798 60.20551462 46.48656596 59 48 C58.29037109 48.928125 58.29037109 48.928125 57.56640625 49.875 C49.91432698 59.61882412 38.45690654 67.58392023 28 74 C27.01 74 26.02 74 25 74 C22.69 69.71 20.38 65.42 18 61 C14.33910727 61.73217855 11.764722 62.39941587 8.4375 63.8125 C4.65138845 65.35394809 0.85557717 66.82787562 -3 68.1875 C-3.9075 68.51105469 -4.815 68.83460938 -5.75 69.16796875 C-29.8957459 75.34951187 -56.00267638 70.56564363 -78 60 C-78.27585938 60.72574219 -78.55171875 61.45148438 -78.8359375 62.19921875 C-79.94365564 64.8644332 -81.20231375 67.30407951 -82.625 69.8125 C-83.07101563 70.60269531 -83.51703125 71.39289063 -83.9765625 72.20703125 C-84.31429687 72.79871094 -84.65203125 73.39039063 -85 74 C-102.27003208 67.52373797 -118.16652055 51.29652359 -128 36 C-126.67767823 32.86937146 -125.60946634 31.42768322 -122.60546875 29.84375 C-121.90752197 29.46694092 -121.2095752 29.09013184 -120.49047852 28.7019043 C-119.35050415 28.10696167 -119.35050415 28.10696167 -118.1875 27.5 C-116.55378721 26.62276835 -114.92101319 25.74378668 -113.2890625 24.86328125 C-111.99790527 24.17032959 -111.99790527 24.17032959 -110.68066406 23.46337891 C-105.23114427 20.48847712 -99.87889651 17.33754835 -94.5222168 14.19921875 C-85.15579035 8.78550334 -75.33562331 4.23068674 -65 1 C-63.81019531 0.62488281 -62.62039062 0.24976563 -61.39453125 -0.13671875 C-42.44140721 -5.47815845 -18.93235766 -5.2874152 0 0 Z " fill="#D5FB01" transform="translate(158,162)"/>
<path d="M0 0 C1.8961008 -0.02306528 3.79228403 -0.03940825 5.68847656 -0.05297852 C6.74440002 -0.06281265 7.80032349 -0.07264679 8.88824463 -0.08277893 C13.35879153 0.03614658 17.44515061 0.91158572 21.75 2.0625 C23.02363403 2.39205688 23.02363403 2.39205688 24.32299805 2.72827148 C35.24614574 5.69579641 45.24762121 10.2934224 55 16 C54.34738838 19.55218983 52.85551053 22.08701642 50.9375 25.125 C48.70313772 28.33171784 48.70313772 28.33171784 48 32 C49.8800104 33.47246094 49.8800104 33.47246094 52.3125 35 C74.81271839 50.42328087 88.06463823 73.05439045 93.47265625 99.5390625 C94.21857153 104.43447686 94.20039625 109.05689253 94 114 C99.61 114 105.22 114 111 114 C111.51638381 133.27832894 108.59699179 152.93868127 99 170 C95.03800449 169.41277408 92.22494579 168.19334981 88.7890625 166.15625 C87.7988208 165.57391602 86.8085791 164.99158203 85.78833008 164.39160156 C84.74443115 163.76737305 83.70053223 163.14314453 82.625 162.5 C81.54951904 161.86288086 80.47403809 161.22576172 79.3659668 160.56933594 C77.21832749 159.29587272 75.07237498 158.01955997 72.92822266 156.74023438 C70.47607862 155.28293216 68.01497845 153.84506537 65.54296875 152.421875 C38.65377169 136.85300945 17.07112447 113.72209905 7 84 C6.55785156 82.79472656 6.11570313 81.58945313 5.66015625 80.34765625 C5.20945494 79.08646633 4.76020648 77.82475615 4.3125 76.5625 C3.91675781 75.45003906 3.52101562 74.33757812 3.11328125 73.19140625 C0.07396833 62.95372493 -0.2920705 52.20104744 -0.1953125 41.6015625 C-0.19106766 39.80010269 -0.19106766 39.80010269 -0.18673706 37.96224976 C-0.17567679 34.18305855 -0.15059985 30.40411774 -0.125 26.625 C-0.11495187 24.03906596 -0.10582926 21.45312815 -0.09765625 18.8671875 C-0.07578409 12.57804174 -0.04245123 6.28903877 0 0 Z " fill="#D5FC01" transform="translate(134,16)"/>
<path d="M0 0 C9.98054716 1.62527259 19.83058286 13.82959269 25.5625 21.625 C35.00856545 35.76182232 42.11788753 52.80472423 42 70 C36.61064933 70.09952633 31.2218439 70.17177659 25.83178711 70.21972656 C24.00161407 70.23973374 22.17150408 70.26694851 20.34155273 70.30175781 C17.69759488 70.35076003 15.05448835 70.37307761 12.41015625 70.390625 C11.20021751 70.42159271 11.20021751 70.42159271 9.96583557 70.45318604 C1.60643941 70.45642341 -5.28378039 67.34230355 -11.4296875 61.7109375 C-16.86487717 55.78901443 -19.12597947 50.22865382 -19.25 42.25 C-19.27578125 41.26515625 -19.3015625 40.2803125 -19.328125 39.265625 C-18.50947829 31.11814106 -14.12147275 24.36395655 -10.0625 17.4375 C-9.53720703 16.53064453 -9.01191406 15.62378906 -8.47070312 14.68945312 C-7.45171535 12.9307746 -6.43049183 11.17338904 -5.40673828 9.41748047 C-3.5860724 6.28866521 -1.79089411 3.14593206 0 0 Z " fill="#151C1F" transform="translate(173,60)"/>
<path d="M0 0 C0.33209473 0.58378418 0.66418945 1.16756836 1.00634766 1.76904297 C2.54470632 4.47170915 4.08484507 7.17335707 5.625 9.875 C6.40810547 11.25171875 6.40810547 11.25171875 7.20703125 12.65625 C10.32770234 18.12705611 13.51396884 23.54583437 16.81396484 28.91064453 C20.37903813 35.19098566 20.03732636 43.77570713 18.3515625 50.640625 C15.0923246 58.60765098 9.67058816 64.79691768 1.796875 68.30859375 C-2.76078353 70.06230149 -6.78495752 70.12815696 -11.60546875 70.09765625 C-12.44467361 70.0962413 -13.28387848 70.09482635 -14.14851379 70.09336853 C-16.82821216 70.08777215 -19.5078269 70.07522035 -22.1875 70.0625 C-24.00455608 70.05748453 -25.82161348 70.05292171 -27.63867188 70.04882812 C-32.09248013 70.03780391 -36.54622589 70.02054178 -41 70 C-41.41420987 46.91674873 -31.62738972 27.2363158 -15.8203125 10.78125 C-4.88764045 0 -4.88764045 0 0 0 Z " fill="#141A1F" transform="translate(83,60)"/>
<path d="M0 0 C6.24645329 4.86908925 9.81516275 11.23750401 13.56054688 18.05566406 C14.62173149 19.98685768 15.70434358 21.90472369 16.79125977 23.8215332 C22.47856745 33.95276789 22.47856745 33.95276789 23.17602539 37.78442383 C2.38771647 47.46597668 -22.17054015 50.93413223 -44.39038086 43.60864258 C-48.81535469 41.96202773 -52.88769811 40.40860816 -56.82397461 37.78442383 C-55.33089935 32.5297888 -52.9359596 28.2333918 -50.13647461 23.59692383 C-49.68731689 22.84878418 -49.23815918 22.10064453 -48.77539062 21.32983398 C-47.87467784 19.8337457 -46.97133109 18.3392396 -46.06518555 16.84643555 C-44.99575797 15.06980586 -43.95756326 13.27444355 -42.92553711 11.47583008 C-38.49145977 3.97120623 -33.48393858 -1.3016624 -25.32397461 -4.65307617 C-16.13124987 -6.13047836 -7.95186001 -5.29946607 0 0 Z " fill="#141A1F" transform="translate(144.823974609375,172.215576171875)"/>
<path d="M0 0 C0.33 0 0.66 0 1 0 C1 2.64 1 5.28 1 8 C12.88 8 24.76 8 37 8 C37 8.66 37 9.32 37 10 C24.46 10 11.92 10 -1 10 C-0.67 6.7 -0.34 3.4 0 0 Z " fill="#2D361A" transform="translate(43,120)"/>
<path d="M0 0 C0.99 0.33 1.98 0.66 3 1 C0.03 3.97 -2.94 6.94 -6 10 C-6.99 9.34 -7.98 8.68 -9 8 C-6.03 5.36 -3.06 2.72 0 0 Z " fill="#CEEC02" transform="translate(63,56)"/>
<path d="M0 0 C1.32 0.33 2.64 0.66 4 1 C1.69 3.31 -0.62 5.62 -3 8 C-3.99 7.67 -4.98 7.34 -6 7 C-4.02 4.69 -2.04 2.38 0 0 Z " fill="#1C221D" transform="translate(110,173)"/>
<path d="M0 0 C2.32472205 2.85306797 3.7508258 5.54074837 5 9 C2.69 10.32 0.38 11.64 -2 13 C-1.34 11.68 -0.68 10.36 0 9 C0.66 9 1.32 9 2 9 C1.67 8.2575 1.34 7.515 1 6.75 C0 4 0 4 0 0 Z " fill="#1D231D" transform="translate(70,39)"/>
<path d="M0 0 C1.1055189 0.93590504 2.20935453 1.87379858 3.3125 2.8125 C3.92738281 3.33457031 4.54226562 3.85664063 5.17578125 4.39453125 C6.85424679 5.87172469 8.43882034 7.40039131 10 9 C5.58968355 8.49111733 3.10672401 5.96550928 0 3 C0 2.01 0 1.02 0 0 Z " fill="#1F261D" transform="translate(45,216)"/>
</svg>
