<?xml version="1.0" standalone="no"?>
<!DOCTYPE svg PUBLIC "-//W3C//DTD SVG 20010904//EN"
 "http://www.w3.org/TR/2001/REC-SVG-20010904/DTD/svg10.dtd">
<svg version="1.0" xmlns="http://www.w3.org/2000/svg"
 width="256.000000pt" height="256.000000pt" viewBox="0 0 256.000000 256.000000"
 preserveAspectRatio="xMidYMid meet">

<g transform="translate(0.000000,256.000000) scale(0.100000,-0.100000)"
fill="#000000" stroke="none">
<path d="M510 2176 c0 -133 3 -166 15 -176 10 -8 15 -30 15 -65 l0 -52 -62 -7
c-35 -4 -103 -12 -152 -18 l-88 -11 -85 -98 -85 -97 1 -244 c1 -134 4 -297 7
-363 l7 -120 114 -78 114 -79 68 21 c84 26 78 26 85 -2 3 -13 23 -50 44 -82
21 -33 46 -81 55 -106 25 -66 72 -134 121 -174 54 -44 155 -91 225 -106 31 -6
89 -27 129 -47 65 -32 85 -37 166 -40 117 -5 223 20 355 84 211 101 362 252
453 451 15 35 29 63 31 63 1 0 52 -15 112 -34 l110 -34 107 106 107 107 7 335
7 336 -87 101 -86 101 -103 11 c-56 7 -117 14 -134 17 l-33 5 0 144 0 143 -92
86 -93 86 -677 0 -678 0 0 -164z m508 -56 c31 -29 32 -32 32 -110 0 -76 -2
-83 -27 -106 l-28 -24 28 -23 c24 -20 27 -29 27 -84 0 -42 5 -64 15 -73 8 -7
15 -25 15 -41 0 -28 -1 -29 -54 -29 -30 0 -61 -3 -70 -6 -14 -5 -16 8 -16 105
l0 111 -34 0 c-62 0 -66 -5 -66 -80 0 -51 4 -69 15 -74 9 -3 15 -18 15 -34 0
-28 -3 -30 -52 -36 -29 -3 -68 -6 -85 -6 -30 0 -33 3 -33 30 0 18 6 33 15 36
21 9 21 151 0 181 -10 14 -12 24 -5 28 12 8 13 182 1 189 -5 3 -11 22 -13 41
l-4 35 146 0 145 -1 33 -29z m442 -34 l0 -64 -37 -6 c-21 -4 -46 -9 -55 -12
-15 -4 -18 1 -18 30 0 35 -1 36 -40 36 l-40 0 0 -65 0 -65 75 0 75 0 0 -45 0
-45 -75 0 -75 0 0 -65 0 -65 40 0 c35 0 40 3 40 24 0 20 6 24 39 30 22 3 46 9
55 12 14 5 16 -5 16 -75 l0 -81 -170 0 -170 0 0 29 c0 16 6 31 15 35 13 4 15
35 15 189 0 152 -3 187 -15 197 -8 7 -15 25 -15 41 l0 29 170 0 170 0 0 -64z
m367 32 c33 -32 33 -33 33 -123 0 -57 4 -95 12 -103 9 -9 9 -15 0 -24 -8 -8
-12 -47 -12 -107 l-1 -96 -36 -27 c-28 -22 -44 -27 -72 -23 -20 2 -84 7 -143
11 -104 6 -108 7 -108 29 0 12 7 28 15 35 12 10 15 46 15 202 0 158 -2 190
-15 194 -9 4 -15 19 -15 35 l0 29 147 0 147 0 33 -32z m-1234 -455 c37 -28 37
-28 34 -97 l-2 -70 -59 -23 c-33 -12 -62 -21 -64 -18 -3 3 -7 30 -10 60 -5 60
-7 61 -72 48 l-33 -6 7 -169 c5 -128 3 -168 -5 -162 -9 5 -11 -19 -6 -97 3
-57 8 -111 12 -120 4 -12 -2 -19 -24 -27 -26 -9 -35 -7 -70 19 l-41 29 0 129
c0 103 -3 131 -15 141 -14 12 -14 15 1 31 15 16 16 34 10 131 l-7 113 43 48
c40 45 47 49 108 56 125 16 154 13 193 -16z m1557 17 c71 -9 77 -12 112 -52
35 -40 38 -47 38 -106 l0 -64 -42 7 c-101 15 -98 13 -98 55 0 41 -11 50 -61
50 l-29 0 0 -79 0 -80 75 -12 75 -12 40 -61 c27 -41 40 -72 40 -95 0 -19 7
-43 17 -53 15 -17 15 -19 0 -36 -10 -10 -17 -34 -17 -53 0 -28 -9 -43 -42 -76
l-43 -41 -105 31 c-97 27 -108 33 -142 74 -30 34 -38 53 -38 82 0 35 3 39 31
45 17 3 49 6 70 6 39 0 39 0 39 -40 0 -37 2 -40 38 -49 20 -6 40 -11 45 -11 4
0 7 33 7 74 0 83 7 76 -92 96 -51 10 -60 16 -97 64 l-41 53 0 113 0 113 38 33
c41 37 59 39 182 24z m-968 -238 l47 -117 0 92 c1 51 -3 95 -9 98 -5 3 -10 15
-10 26 0 17 7 19 70 19 68 0 70 -1 70 -25 0 -14 -4 -25 -10 -25 -6 0 -10 -63
-10 -169 0 -103 4 -172 10 -176 6 -3 10 -15 10 -26 0 -16 -7 -19 -53 -19 l-52
0 -47 88 -48 87 0 -62 c0 -34 5 -65 10 -68 6 -3 10 -17 10 -31 0 -23 -2 -24
-70 -24 -68 0 -70 1 -70 25 0 14 5 25 10 25 6 0 10 63 10 169 0 103 -4 172
-10 176 -5 3 -10 17 -10 31 0 22 3 24 53 24 l52 0 47 -118z m358 93 c0 -14 -7
-28 -15 -31 -12 -5 -15 -33 -15 -169 0 -132 3 -165 15 -175 8 -7 15 -21 15
-31 0 -17 -8 -19 -75 -19 -73 0 -75 1 -75 24 0 14 5 28 10 31 6 4 10 73 10
176 0 106 -4 169 -10 169 -5 0 -10 11 -10 25 0 24 2 25 75 25 74 0 75 0 75
-25z m298 -29 l34 -33 -9 -183 c-8 -179 -8 -183 -33 -201 -24 -17 -31 -17
-142 -1 -110 15 -118 18 -118 38 0 12 7 24 15 28 12 4 15 33 15 170 0 99 -4
167 -10 171 -5 3 -10 18 -10 33 l0 27 112 -7 c110 -8 113 -9 146 -42z m-898
22 l30 -22 0 -172 c0 -105 4 -175 10 -179 6 -3 10 -17 10 -29 0 -20 -6 -24
-52 -30 -84 -10 -88 -9 -88 18 0 14 5 28 10 31 6 3 10 24 10 46 0 38 -1 39
-35 39 -35 0 -35 0 -35 -44 0 -25 5 -48 10 -51 6 -3 10 -17 10 -29 0 -19 -7
-25 -37 -29 -21 -4 -53 -9 -70 -13 -30 -6 -33 -4 -33 19 0 14 5 29 10 32 6 4
10 78 10 189 l0 182 28 26 c43 42 166 51 212 16z m-321 -424 l-22 -24 -49 27
-49 27 3 49 3 49 65 27 65 28 3 -80 c3 -71 0 -82 -19 -103z m-34 -92 c83 -42
165 -68 261 -83 l81 -13 -46 -22 c-56 -27 -48 -29 49 -9 43 9 151 18 255 20
l180 5 -80 -19 c-175 -42 -362 -115 -372 -146 -4 -14 134 -97 226 -136 40 -17
101 -36 134 -43 l61 -13 -69 -41 c-72 -42 -177 -82 -216 -82 l-22 0 24 -26
c33 -35 98 -72 167 -95 l57 -19 -75 5 c-55 4 -91 13 -135 34 -33 16 -87 34
-120 40 -85 16 -191 69 -257 130 -32 29 -58 57 -58 62 0 4 19 2 41 -6 23 -8
64 -15 92 -15 l50 0 -61 31 c-151 75 -275 272 -298 471 l-7 62 39 -31 c22 -17
66 -44 99 -61z"/>
<path d="M840 1990 l0 -70 45 0 45 0 0 70 0 70 -45 0 -45 0 0 -70z"/>
<path d="M1650 1885 l0 -175 45 0 45 0 0 175 0 175 -45 0 -45 0 0 -175z"/>
<path d="M1690 1315 l0 -155 24 0 c13 0 31 -3 40 -6 14 -5 16 12 16 155 l0
161 -40 0 -40 0 0 -155z"/>
<path d="M800 1385 l0 -85 35 0 35 0 0 85 0 85 -35 0 -35 0 0 -85z"/>
</g>
</svg>
