<?xml version="1.0" standalone="no"?>
<!DOCTYPE svg PUBLIC "-//W3C//DTD SVG 20010904//EN"
 "http://www.w3.org/TR/2001/REC-SVG-20010904/DTD/svg10.dtd">
<svg version="1.0" xmlns="http://www.w3.org/2000/svg"
 width="256.000000pt" height="256.000000pt" viewBox="0 0 256.000000 256.000000"
 preserveAspectRatio="xMidYMid meet">

<g transform="translate(0.000000,256.000000) scale(0.100000,-0.100000)"
fill="#000000" stroke="none">
<path d="M1459 2343 c10 -26 40 -100 65 -163 25 -63 46 -120 46 -127 0 -17
-14 -16 -119 2 l-86 16 -294 -100 c-161 -56 -300 -106 -307 -112 -7 -6 -61
-83 -119 -171 -101 -151 -108 -160 -133 -154 -15 3 -47 10 -72 16 -25 5 -61
14 -81 19 -47 11 -56 5 -67 -44 -60 -245 -204 -804 -212 -817 -18 -32 -11 -45
32 -56 51 -13 136 -28 198 -37 59 -8 80 -15 80 -24 0 -4 -16 -28 -36 -54 -20
-25 -33 -50 -30 -55 3 -5 36 -20 73 -34 320 -122 652 -253 672 -265 27 -17 48
-15 241 19 l134 24 61 82 c33 44 66 87 72 94 13 12 38 14 413 38 319 21 363
25 367 35 2 6 -34 69 -78 140 -45 72 -92 148 -105 169 l-23 40 20 37 c24 47
44 108 59 180 12 55 9 265 -6 336 -6 30 0 38 108 150 l115 118 11 115 c6 63
14 152 18 197 l7 82 -109 52 c-60 28 -127 59 -150 69 -55 26 -61 35 -69 113
-4 37 -12 70 -17 73 -13 8 -379 35 -556 41 l-142 4 19 -48z m460 -162 c12 -8
13 -18 3 -61 -7 -28 -12 -65 -12 -80 0 -58 -80 -96 -100 -47 -19 46 -70 187
-70 192 0 9 164 5 179 -4z m236 -168 c30 -15 55 -32 55 -38 0 -16 -97 -168
-115 -180 -11 -7 -20 -4 -36 12 l-22 21 18 94 c16 81 28 118 41 118 2 0 28
-12 59 -27z m-705 -195 l25 -10 -26 -21 c-14 -12 -68 -56 -119 -97 -51 -41
-142 -126 -202 -189 -118 -124 -278 -327 -278 -354 0 -11 12 -18 35 -23 33 -6
41 -2 103 53 256 225 503 405 738 536 148 83 147 83 114 -73 l-20 -93 34 -91
c48 -130 62 -226 46 -313 -16 -86 -61 -196 -105 -259 -19 -27 -35 -54 -35 -60
0 -6 23 -45 51 -87 28 -42 48 -81 44 -87 -3 -5 -24 -10 -45 -10 -22 0 -61 -4
-87 -9 -26 -5 -91 -14 -143 -20 -52 -6 -140 -16 -195 -22 l-100 -12 -106 -103
c-58 -57 -112 -104 -120 -103 -25 1 -402 154 -406 164 -1 6 24 26 56 47 l59
36 134 -1 c237 -2 381 51 537 198 143 135 221 317 193 452 -6 31 -19 67 -27
80 l-16 24 -47 -27 c-128 -74 -499 -340 -650 -467 -51 -42 -98 -73 -120 -78
-56 -13 -360 -22 -422 -12 -55 8 -55 9 -54 43 1 19 22 105 48 190 26 85 50
163 53 173 8 27 19 18 65 -57 24 -38 48 -71 53 -73 6 -1 60 83 120 189 61 105
125 216 142 247 18 31 46 81 63 111 17 30 36 62 43 71 7 9 66 33 132 54 66 21
165 53 220 71 102 33 151 36 215 12z"/>
</g>
</svg>
