<?xml version="1.0" standalone="no"?>
<!DOCTYPE svg PUBLIC "-//W3C//DTD SVG 20010904//EN"
 "http://www.w3.org/TR/2001/REC-SVG-20010904/DTD/svg10.dtd">
<svg version="1.0" xmlns="http://www.w3.org/2000/svg"
 width="256.000000pt" height="256.000000pt" viewBox="0 0 256.000000 256.000000"
 preserveAspectRatio="xMidYMid meet">

<g transform="translate(0.000000,256.000000) scale(0.100000,-0.100000)"
fill="#000000" stroke="none">
<path d="M542 2459 c-90 -45 -190 -191 -234 -344 -18 -64 -23 -103 -22 -200 1
-201 21 -247 348 -793 54 -89 101 -160 106 -157 5 3 50 81 101 173 51 92 103
184 116 204 13 21 23 43 23 49 0 8 -348 1001 -375 1072 -9 22 -11 21 -63 -4z"/>
<path d="M1753 1936 l-192 -545 65 -118 c140 -251 176 -313 184 -308 6 4 109
174 269 445 153 259 186 360 178 545 -7 174 -62 315 -166 428 -47 51 -113 97
-138 97 -5 0 -95 -245 -200 -544z"/>
<path d="M1223 1616 c-26 -42 -72 -113 -101 -158 l-52 -80 38 -62 c82 -130
153 -236 161 -240 4 -3 23 18 42 47 18 29 62 96 96 149 35 54 63 101 63 104 0
7 -87 147 -167 268 l-32 49 -48 -77z"/>
<path d="M350 1289 c0 -11 5 -62 11 -114 l12 -93 131 -78 c71 -44 134 -81 139
-83 6 -2 -8 29 -29 69 -31 56 -51 80 -95 111 -51 36 -58 46 -89 124 -28 74
-36 85 -56 85 -18 0 -24 -6 -24 -21z"/>
<path d="M2140 1299 c0 -6 -14 -44 -31 -85 -27 -65 -38 -79 -83 -110 -38 -25
-62 -53 -93 -106 -23 -40 -40 -74 -38 -76 7 -7 273 157 278 171 3 8 8 60 12
115 l8 102 -27 0 c-14 0 -26 -5 -26 -11z"/>
<path d="M989 1232 c-14 -26 -63 -114 -109 -195 l-83 -149 -83 -55 c-74 -49
-83 -59 -88 -92 -4 -27 -19 -253 -21 -316 0 -5 10 -11 22 -13 26 -4 25 -7 62
178 l26 125 46 22 46 22 234 -30 233 -31 234 31 c222 28 236 29 276 14 22 -9
43 -17 45 -19 3 -3 42 -166 61 -256 10 -52 14 -58 36 -58 l25 0 -7 112 c-4 62
-10 144 -13 183 l-6 70 -89 55 -89 56 -108 194 c-59 107 -112 196 -116 197 -4
2 -62 -78 -127 -177 -66 -98 -123 -177 -128 -174 -5 3 -61 84 -125 180 -63 96
-118 174 -122 174 -3 0 -18 -22 -32 -48z"/>
<path d="M940 651 c0 -5 46 -88 103 -183 56 -95 130 -219 162 -275 33 -56 63
-103 67 -103 4 0 25 33 48 73 22 39 59 104 83 143 111 187 199 345 196 348 -2
2 -67 -7 -144 -20 -77 -13 -159 -23 -181 -24 -35 0 -237 29 -311 45 -13 3 -23
1 -23 -4z"/>
</g>
</svg>
