<?xml version="1.0" standalone="no"?>
<!DOCTYPE svg PUBLIC "-//W3C//DTD SVG 20010904//EN"
 "http://www.w3.org/TR/2001/REC-SVG-20010904/DTD/svg10.dtd">
<svg version="1.0" xmlns="http://www.w3.org/2000/svg"
 width="256.000000pt" height="256.000000pt" viewBox="0 0 256.000000 256.000000"
 preserveAspectRatio="xMidYMid meet">

<g transform="translate(0.000000,256.000000) scale(0.100000,-0.100000)"
fill="#000000" stroke="none">
<path d="M565 2375 c-72 -23 -159 -55 -195 -70 -91 -38 -240 -117 -240 -127 0
-5 63 -117 140 -250 77 -132 140 -244 140 -248 0 -5 -19 -36 -43 -70 l-42 -62
35 -30 36 -30 -73 -110 c-40 -61 -100 -164 -134 -230 l-61 -120 54 -55 c29
-31 86 -82 127 -115 179 -143 309 -165 525 -87 48 17 88 30 90 28 2 -2 81
-138 176 -301 95 -164 176 -298 180 -298 8 0 25 28 585 995 188 325 392 676
453 782 62 105 112 197 112 202 0 19 -261 139 -415 190 -175 59 -147 71 -237
-99 -33 -63 -62 -117 -64 -119 -2 -2 -27 0 -57 3 -45 6 -56 11 -66 32 -16 36
-68 54 -155 54 -86 0 -119 -10 -161 -49 -23 -22 -47 -31 -105 -41 -41 -7 -120
-27 -175 -46 l-100 -33 -15 21 c-8 12 -49 86 -91 165 -41 79 -79 147 -85 152
-5 6 -61 -8 -139 -34z m946 -226 c18 -18 20 -28 15 -72 -4 -27 -16 -77 -28
-109 -11 -33 -18 -61 -17 -62 2 -2 32 -18 67 -36 35 -18 83 -51 107 -72 25
-22 45 -36 45 -31 0 17 -57 98 -92 131 l-35 33 14 52 c7 28 13 61 13 74 0 12
4 24 9 27 10 7 124 -15 209 -40 46 -13 51 -17 42 -34 -9 -17 -2 -21 73 -46 45
-15 117 -44 160 -66 66 -33 76 -41 68 -56 -150 -265 -819 -1405 -826 -1405 -6
0 -39 50 -75 111 -36 61 -68 114 -72 117 -3 4 -14 -7 -24 -24 -10 -17 -23 -30
-28 -28 -13 4 -139 227 -133 234 17 16 177 44 287 49 69 3 148 12 175 19 58
16 116 70 134 124 22 68 8 160 -33 208 l-23 26 5 -81 c5 -95 -5 -129 -54 -172
-42 -37 -81 -47 -224 -60 -132 -11 -236 -37 -322 -81 -33 -17 -62 -29 -64 -27
-9 9 109 93 181 128 87 43 167 67 258 77 67 7 67 8 33 105 -28 78 -64 144
-108 194 -27 30 -29 38 -20 59 15 33 3 32 -67 -5 -146 -78 -247 -212 -325
-430 -34 -93 -63 -132 -119 -159 -143 -69 -345 52 -237 142 30 26 38 59 20 87
-12 20 -173 27 -237 11 -25 -7 -47 -10 -49 -8 -6 6 133 244 197 338 50 72 63
85 82 82 12 -3 81 8 152 22 100 21 149 26 213 23 45 -2 82 -3 82 -2 0 2 -12
10 -27 17 l-27 14 38 18 c41 20 66 59 66 105 0 18 6 33 15 36 35 14 12 24 -37
18 -73 -9 -145 -37 -219 -86 -89 -58 -152 -88 -183 -88 -32 0 -32 11 -1 79 14
30 24 56 22 58 -6 5 -113 -110 -119 -127 -4 -12 -9 -13 -32 -2 l-27 12 47 60
c157 201 385 357 619 425 114 33 119 33 102 -2 -39 -77 -27 -76 46 3 90 97
121 113 205 114 50 0 66 -4 83 -21z m-363 -884 c17 -65 17 -65 -37 -65 l-50 0
-6 -44 c-6 -40 -10 -45 -41 -51 -19 -3 -34 -10 -34 -15 0 -4 -3 -17 -7 -27 -6
-17 -5 -17 13 -1 10 9 36 20 57 23 28 5 41 14 47 31 8 19 17 24 44 24 18 0 47
3 63 6 l30 6 -5 69 c-2 38 -2 69 2 69 8 0 76 -140 76 -157 0 -12 -12 -17 -70
-28 -83 -16 -247 -97 -328 -162 l-32 -26 25 67 c54 144 118 244 189 297 22 16
43 29 46 29 3 0 11 -20 18 -45z"/>
<path d="M1363 2079 c-23 -11 -61 -41 -85 -67 l-43 -47 55 -10 55 -11 21 45
c11 26 33 61 48 79 24 28 25 32 9 32 -10 0 -37 -9 -60 -21z"/>
</g>
</svg>
