<?xml version="1.0" standalone="no"?>
<!DOCTYPE svg PUBLIC "-//W3C//DTD SVG 20010904//EN"
 "http://www.w3.org/TR/2001/REC-SVG-20010904/DTD/svg10.dtd">
<svg version="1.0" xmlns="http://www.w3.org/2000/svg"
 width="256.000000pt" height="256.000000pt" viewBox="0 0 256.000000 256.000000"
 preserveAspectRatio="xMidYMid meet">

<g transform="translate(0.000000,256.000000) scale(0.100000,-0.100000)"
fill="#000000" stroke="none">
<path d="M1155 2478 c-139 -87 -233 -144 -415 -255 -438 -267 -415 -252 -385
-263 16 -6 33 -9 39 -7 12 5 755 457 842 513 l52 32 447 -272 c434 -265 449
-273 481 -263 l33 10 -237 145 c-130 79 -309 188 -397 242 -88 53 -197 120
-242 148 -46 29 -84 52 -85 51 -2 0 -61 -37 -133 -81z"/>
<path d="M191 2247 c-41 -111 -87 -238 -103 -282 -17 -44 -31 -86 -31 -93 -1
-7 25 -27 58 -45 124 -68 537 -278 539 -275 4 4 36 282 33 284 -1 1 -94 24
-207 51 l-205 50 -5 256 -5 256 -74 -202z"/>
<path d="M2288 2196 l-3 -259 -205 -50 c-113 -27 -206 -51 -208 -52 -3 -2 30
-278 34 -283 2 -3 197 96 480 244 67 35 125 60 130 56 4 -4 4 0 -2 8 -6 8 -55
137 -109 285 -54 149 -101 279 -106 290 -4 11 -9 -96 -11 -239z"/>
<path d="M1143 1803 c100 -158 140 -214 146 -207 13 15 151 233 151 239 0 3
-72 5 -160 5 l-160 0 23 -37z"/>
<path d="M747 1770 c-3 -19 -9 -111 -12 -205 -3 -93 -8 -179 -10 -190 -3 -14
22 -51 83 -123 l88 -103 33 -182 c54 -299 39 -263 139 -337 47 -36 104 -78
124 -93 l38 -29 0 86 0 86 -81 52 -80 53 6 80 c6 81 20 230 34 365 5 41 7 78
4 82 -2 4 -63 30 -136 58 -72 28 -136 56 -142 61 -5 5 -26 91 -46 192 -29 147
-37 175 -42 147z"/>
<path d="M1771 1628 c-18 -95 -37 -180 -41 -188 -5 -8 -72 -40 -149 -70 -135
-52 -141 -56 -137 -80 8 -42 49 -500 45 -504 -2 -2 -39 -26 -81 -55 l-78 -52
0 -84 0 -85 124 92 124 93 26 135 c14 74 33 177 43 227 l17 93 88 102 c48 57
86 110 84 118 -3 8 -7 94 -11 190 -10 267 -14 272 -54 68z"/>
<path d="M2390 1747 c-19 -10 -38 -45 -82 -157 -32 -80 -58 -150 -58 -156 0
-13 38 -26 44 -15 3 4 25 59 49 122 25 63 54 138 66 167 22 55 20 59 -19 39z"/>
<path d="M160 1743 c0 -22 125 -323 134 -323 6 0 17 4 25 9 23 15 -90 294
-125 309 -29 14 -34 15 -34 5z"/>
<path d="M450 1434 c-107 -41 -199 -76 -205 -78 -5 -2 65 -5 157 -5 l166 -1
41 76 c23 42 40 78 39 79 -2 2 -91 -30 -198 -71z"/>
<path d="M1910 1506 c0 -2 16 -38 35 -80 l36 -76 171 0 c94 0 169 2 167 4 -2
2 -65 26 -139 54 -74 27 -165 62 -202 76 -38 14 -68 24 -68 22z"/>
<path d="M334 1293 c4 -10 82 -210 173 -445 l167 -427 298 -203 c164 -112 305
-204 313 -206 8 -2 151 89 317 203 l303 206 167 427 c92 235 171 435 174 445
5 15 1 18 -23 15 -27 -3 -32 -14 -194 -428 l-166 -425 -283 -192 c-156 -106
-286 -193 -290 -193 -3 0 -134 87 -290 193 l-283 192 -166 425 c-163 415 -167
425 -195 428 -24 3 -28 1 -22 -15z"/>
</g>
</svg>
