<?xml version="1.0" standalone="no"?>
<!DOCTYPE svg PUBLIC "-//W3C//DTD SVG 20010904//EN"
 "http://www.w3.org/TR/2001/REC-SVG-20010904/DTD/svg10.dtd">
<svg version="1.0" xmlns="http://www.w3.org/2000/svg"
 width="256.000000pt" height="256.000000pt" viewBox="0 0 256.000000 256.000000"
 preserveAspectRatio="xMidYMid meet">

<g transform="translate(0.000000,256.000000) scale(0.100000,-0.100000)"
fill="#000000" stroke="none">
<path d="M1249 2183 l-25 -78 -93 -5 -94 -5 71 -50 c39 -27 71 -54 72 -60 0
-5 -11 -45 -24 -87 -13 -43 -22 -78 -19 -78 3 0 36 23 74 50 l69 51 77 -57
c42 -31 73 -50 70 -41 -13 35 -47 150 -47 161 0 6 32 34 72 61 l71 50 -93 5
-94 5 -25 78 c-14 42 -28 77 -31 77 -3 0 -17 -35 -31 -77z"/>
<path d="M484 1780 c-56 -22 -70 -91 -28 -134 30 -30 69 -34 102 -10 51 35 46
111 -9 139 -32 17 -36 17 -65 5z"/>
<path d="M2009 1775 c-15 -8 -32 -28 -38 -45 -28 -83 71 -146 133 -84 32 33
34 74 4 108 -29 32 -66 40 -99 21z"/>
<path d="M1280 1455 l0 -286 43 -47 c94 -102 197 -257 233 -352 9 -25 18 -46
19 -48 3 -4 205 56 276 83 84 32 96 45 148 144 99 192 129 399 85 576 -6 25
-8 24 -41 -27 -19 -29 -56 -75 -81 -102 -50 -51 -178 -146 -196 -146 -6 1 -29
24 -51 52 -49 63 -414 438 -426 438 -5 0 -9 -128 -9 -285z"/>
<path d="M490 1494 c0 -78 78 -260 159 -371 34 -47 47 -53 56 -24 3 10 24 47
46 81 22 34 39 63 37 65 -2 1 -30 19 -63 41 -75 49 -164 135 -204 199 l-31 49
0 -40z"/>
<path d="M730 611 c0 -64 78 -199 120 -207 22 -5 32 -17 50 -60 23 -57 44 -81
36 -42 -3 12 -7 38 -10 56 l-5 32 48 0 c61 0 141 11 141 19 0 3 -25 19 -56 35
-30 16 -73 42 -95 58 -36 26 -39 32 -40 76 l-1 47 -15 -36 -14 -36 -72 38
c-83 44 -87 45 -87 20z"/>
<path d="M1725 597 c-33 -18 -89 -53 -125 -77 -36 -24 -91 -59 -124 -76 -32
-17 -54 -34 -48 -38 20 -12 130 -19 197 -11 79 8 103 27 142 112 26 57 41 123
27 123 -5 0 -36 -15 -69 -33z"/>
</g>
</svg>
